<?xml version="1.0" encoding="utf-8"?>
<!-- Generator: Adobe Illustrator 16.0.4, SVG Export Plug-In . SVG Version: 6.00 Build 0)  -->
<!DOCTYPE svg PUBLIC "-//W3C//DTD SVG 1.1//EN" "http://www.w3.org/Graphics/SVG/1.1/DTD/svg11.dtd">
<svg version="1.1" xmlns="http://www.w3.org/2000/svg" xmlns:xlink="http://www.w3.org/1999/xlink" x="0px" y="0px" width="288px"
	 height="256px" viewBox="0 0 288 256" enable-background="new 0 0 288 256" xml:space="preserve">
<g id="Bakgrund">
	<g>
		<polygon points="4.333,202.86 9.942,190.833 9.955,190.807 9.983,190.799 34.618,184.015 34.48,184.205 33.068,161.543 
			33.041,161.103 33.444,161.286 52.458,169.921 52.035,170.222 50.935,158.432 50.895,158.008 51.313,158.092 75.069,162.85 
			74.649,163.17 75.627,148.752 75.663,148.229 76.146,148.434 96.823,157.157 96.432,157.2 111.747,146.175 111.976,146.011 
			112.22,146.154 125.233,153.8 124.829,153.77 143.816,146.071 144.097,145.957 144.325,146.158 152.656,153.493 152.099,153.431 
			170.449,143.461 170.871,143.232 171.077,143.664 175.062,152.004 174.552,151.771 194.227,146.469 194.477,146.401 
			194.643,146.599 203.625,157.281 203.204,157.168 225.552,149.205 225.913,149.076 226.001,149.449 228.647,160.786 
			228.255,160.547 250.931,154.918 251.202,154.852 251.274,155.119 254.256,166.124 253.945,165.935 268.962,162.847 
			269.033,162.832 269.095,162.869 279.899,169.418 279.769,169.637 268.905,163.186 269.038,163.208 254.055,166.454 
			253.811,166.507 253.744,166.264 250.726,155.27 251.069,155.471 228.411,161.174 228.094,161.254 228.019,160.935 
			225.333,149.605 225.782,149.85 203.462,157.887 203.213,157.977 203.041,157.773 194.023,147.122 194.439,147.252 
			174.782,152.618 174.43,152.714 174.271,152.385 170.257,144.058 170.885,144.26 152.567,154.29 152.268,154.454 152.01,154.228 
			143.675,146.897 144.184,146.984 125.172,154.619 124.961,154.704 124.767,154.589 111.78,146.9 112.252,146.88 96.901,157.854 
			96.717,157.986 96.51,157.897 75.854,149.121 76.373,148.804 75.351,163.219 75.322,163.618 74.931,163.539 51.188,158.713 
			51.565,158.373 52.632,170.167 52.679,170.683 52.209,170.467 33.224,161.769 33.599,161.512 34.852,184.184 34.861,184.335 
			34.715,184.374 10.017,190.922 10.058,190.888 		"/>
	</g>
	<g>
		<line fill="#FFFFFF" x1="34.667" y1="184.194" x2="29.875" y2="108.527"/>
		<polygon points="34.167,184.226 29.875,108.527 35.166,184.163 		"/>
	</g>
	<g>
		<line fill="#FFFFFF" x1="10.5" y1="190.699" x2="7.25" y2="175.777"/>
		<polygon points="10.011,190.806 7.25,175.777 10.989,190.593 		"/>
	</g>
	<g>
		<line fill="#FFFFFF" x1="52.333" y1="170.194" x2="46" y2="94.661"/>
		<polygon points="51.835,170.236 46,94.661 52.832,170.152 		"/>
	</g>
	<g>
		<line fill="#FFFFFF" x1="74.984" y1="163.64" x2="79.167" y2="97.694"/>
		<polygon points="74.485,163.608 79.167,97.694 75.483,163.671 		"/>
	</g>
	<g>
		<line fill="#FFFFFF" x1="96.667" y1="157.527" x2="96.531" y2="120.694"/>
		<polygon points="96.167,157.529 96.531,120.694 97.167,157.525 		"/>
	</g>
	<g>
		<line fill="#FFFFFF" x1="111.967" y1="146.444" x2="111.832" y2="109.611"/>
		<polygon points="111.467,146.446 111.832,109.611 112.467,146.442 		"/>
	</g>
	<g>
		<line fill="#FFFFFF" x1="144.068" y1="146.444" x2="146.5" y2="109.611"/>
		<polygon points="143.569,146.411 146.5,109.611 144.567,146.478 		"/>
	</g>
	<g>
		<line fill="#FFFFFF" x1="125" y1="154.194" x2="127.432" y2="117.361"/>
		<polygon points="124.501,154.161 127.432,117.361 125.499,154.228 		"/>
	</g>
	<g>
		<line fill="#FFFFFF" x1="152.547" y1="154.194" x2="154.979" y2="134.277"/>
		<polygon points="152.051,154.134 154.979,134.277 153.043,154.255 		"/>
	</g>
	<g>
		<line fill="#FFFFFF" x1="170.762" y1="144.621" x2="173.193" y2="124.704"/>
		<polygon points="170.266,144.561 173.193,124.704 171.258,144.682 		"/>
	</g>
	<g>
		<line fill="#FFFFFF" x1="174.93" y1="152.345" x2="187.25" y2="90.527"/>
		<polygon points="174.439,152.247 187.25,90.527 175.42,152.442 		"/>
	</g>
	<g>
		<line fill="#FFFFFF" x1="194.496" y1="146.444" x2="200.656" y2="91.527"/>
		<polygon points="193.999,146.389 200.656,91.527 194.993,146.5 		"/>
	</g>
	<g>
		<line fill="#FFFFFF" x1="203.778" y1="157.567" x2="206.858" y2="124.146"/>
		<polygon points="203.28,157.521 206.858,124.146 204.276,157.613 		"/>
	</g>
	<g>
		<line fill="#FFFFFF" x1="225.309" y1="149.693" x2="231.125" y2="97.402"/>
		<polygon points="224.812,149.638 231.125,97.402 225.806,149.749 		"/>
	</g>
	<g>
		<line fill="#FFFFFF" x1="228.558" y1="160.637" x2="234.75" y2="112.215"/>
		<polygon points="228.062,160.573 234.75,112.215 229.054,160.7 		"/>
	</g>
	<g>
		<line fill="#FFFFFF" x1="250.775" y1="155.211" x2="250.775" y2="105.027"/>
		<polygon points="250.275,155.211 250.775,105.027 251.275,155.211 		"/>
	</g>
	<g>
		<line fill="#FFFFFF" x1="254.571" y1="165.771" x2="256.285" y2="133.277"/>
		<polygon points="254.072,165.744 256.285,133.277 255.07,165.797 		"/>
	</g>
	<g>
		<line fill="#FFFFFF" x1="269.049" y1="163.045" x2="270.764" y2="112.215"/>
		<polygon points="268.549,163.028 270.764,112.215 269.549,163.062 		"/>
	</g>
	<path fill="#EFC06A" stroke="#000000" stroke-miterlimit="10" d="M193.5,157.567c0,0,26.5,15.794,42.5,12.627
		s0.375-50.979-4.875-56.167s-42.511-0.055-39.125,4.959C203.778,136.426,183,144.857,193.5,157.567z"/>
	<path fill="#EFC06A" stroke="#000000" stroke-miterlimit="10" d="M224.208,121.436c-6.582-0.348-26.354-1.179-26.354-1.179
		c-1.125,0-4.074-0.963-3.479-1.917c0.815-1.306,3.2-1.833,5.188-2.354c0,0,15.46-2.612,21.937-2.458
		c6.626,0.158,9.958,0.501,9.625,5.871C231.125,119.398,227.421,121.605,224.208,121.436z"/>
	<path fill="#EFC06A" stroke="#000000" stroke-miterlimit="10" d="M198.993,117.611c0,0,0.77-3.199,1.508-3.959
		c0.746-0.769,3.308-1.371,4.208-0.792c1.174,0.755,1.334,5.417,1.334,5.417L198.993,117.611z"/>
	<path fill="#EFC06A" stroke="#000000" stroke-miterlimit="10" d="M205.417,117.569c0,0,0.013-3.29,0.557-4.199
		c0.55-0.92,2.903-2.096,3.913-1.739c1.316,0.465,2.544,4.965,2.544,4.965L205.417,117.569z"/>
	<path fill="#EFC06A" stroke="#000000" stroke-miterlimit="10" d="M210.625,118.455c0,0,0.013-3.29,0.557-4.199
		c0.55-0.92,2.903-2.096,3.913-1.739c1.316,0.465,2.544,4.965,2.544,4.965L210.625,118.455z"/>
	<path fill="#EFC06A" stroke="#000000" stroke-miterlimit="10" d="M216.083,116.121c0,0,0.013-3.29,0.557-4.199
		c0.55-0.92,2.903-2.096,3.913-1.739c1.316,0.465,2.544,4.965,2.544,4.965L216.083,116.121z"/>
	<path fill="#EFC06A" stroke="#000000" stroke-miterlimit="10" d="M220.703,117.844c0,0,0.639-3.228,1.345-4.017
		c0.715-0.799,3.249-1.505,4.173-0.963c1.204,0.706,1.554,5.357,1.554,5.357L220.703,117.844z"/>
	<path fill="#EFC06A" stroke="#000000" stroke-miterlimit="10" d="M229.139,121.465c0.31-0.081,1.753-1.974,1.986-2.066
		c-0.228-1.359-2.107-1.882-2.781-2.277c-0.924-0.542-5.469-1.812-6.281,0.448c-0.213,0.593,1.265,3.177,0.999,4.126
		C225.128,121.437,227.188,121.976,229.139,121.465z"/>
	<path fill="#EFC06A" stroke="#000000" stroke-miterlimit="10" d="M219.933,118.786c0.701-0.219,1.805-0.278,2.526-0.564
		c-0.228-1.359-1.022-3.371-1.696-3.767c-0.924-0.542-3.458,0.164-4.173,0.963c-0.528,0.591-1.071,2.345-1.284,3.291
		C216.88,118.761,218.43,119.255,219.933,118.786z"/>
	<path fill="#EFC06A" stroke="#000000" stroke-miterlimit="10" d="M220.49,121.975c0.502-0.039,1.185-0.093,1.528-0.143
		c0.964-0.139,1.911-0.253,2.848-0.329c-0.147-1.139-0.471-2.303-0.887-2.665c-0.809-0.703-3.43-0.475-4.279,0.18
		c-0.587,0.451-1.367,1.893-1.78,2.808C218.771,121.853,219.633,121.94,220.49,121.975z"/>
	<path fill="#EFC06A" stroke="#000000" stroke-miterlimit="10" d="M216.562,122.184c0.5,0.157,1.437,0.145,1.875,0.156
		c0.661,0.019,1.152,0.001,1.393-0.405c-0.075-1.329-0.451-2.979-0.961-3.422c-0.809-0.703-3.43-0.475-4.279,0.18
		c-0.606,0.467-1.421,1.992-1.822,2.899c0.509,0.008,1.015,0.01,1.524,0.02C215.058,121.627,215.834,122.034,216.562,122.184z"/>
	<path fill="#EFC06A" stroke="#000000" stroke-miterlimit="10" d="M214.292,121.611c0.046,0.001,0.09,0.008,0.136,0.01
		c0.073-0.029,0.157-0.054,0.224-0.086c1.224-1.782-0.521-5.099-1.234-5.414c-3.042-1.344-4.183,2.222-4.834,3.074
		c-0.337,0.441-0.634,1.45-0.831,2.347C209.929,121.547,212.105,121.567,214.292,121.611z"/>
	<path fill="#EFC06A" stroke="#000000" stroke-miterlimit="10" d="M209.945,121.556c0.502-0.126,1.66,0.193,2.055,0.001
		c-0.332-1.337-2.174-4.641-2.875-4.982c-0.964-0.47-3.349-0.607-4,0.245c-0.395,0.517-0.569,3.757-0.757,4.737
		C206.229,121.54,208.089,121.539,209.945,121.556z"/>
	<path fill="#EFC06A" stroke="#000000" stroke-miterlimit="10" d="M202.35,121.563c0.244-0.072,0.478-0.151,0.677-0.249
		c-0.332-1.337,2.391-3.745-0.818-4.689c-1.028-0.303-4.557,0.8-5.208,1.652c-0.273,0.358-0.758,0.683-1.154,1.424
		C197.641,120.699,199.682,121.556,202.35,121.563z"/>
	<path fill="#EFC06A" stroke="#000000" stroke-miterlimit="10" d="M202.932,121.562c1.597-0.022,3.186-0.023,4.775-0.021
		c-0.362-1.328-1.263-3.144-1.938-3.473c-0.964-0.47-3.45-0.2-4.102,0.652c-0.314,0.412-0.559,1.754-0.756,2.603
		C201.515,121.359,202.157,121.573,202.932,121.562z"/>
	<g>
		<path fill="#EFC06A" d="M195.846,146.444c0,0,4.039-6.417,3.972-12.167"/>
		<path d="M195.846,146.444c0,0,0.291-0.76,0.727-1.898c0.219-0.561,0.475-1.215,0.748-1.915c0.155-0.341,0.252-0.718,0.399-1.081
			c0.137-0.367,0.275-0.739,0.415-1.112c0.122-0.377,0.245-0.754,0.365-1.125c0.104-0.375,0.286-0.727,0.354-1.09
			c0.086-0.36,0.187-0.705,0.279-1.034c0.081-0.331,0.208-0.64,0.259-0.932c0.199-1.168,0.425-1.979,0.425-1.979
			s0.113,0.802,0.145,2.055c0.011,0.313-0.054,0.641-0.094,0.993c-0.046,0.352-0.093,0.725-0.159,1.107
			c-0.048,0.389-0.176,0.766-0.283,1.157c-0.115,0.39-0.232,0.785-0.349,1.181c-0.311,0.761-0.601,1.532-0.953,2.216
			c-0.357,0.682-0.692,1.314-1.044,1.821C196.423,145.848,195.846,146.444,195.846,146.444z"/>
	</g>
	<g>
		<path fill="#EFC06A" d="M196.375,152.345c0,0,10.035-14.942,6.143-20.817"/>
		<path d="M196.375,152.345c0,0,0.639-1.259,1.596-3.146c0.941-1.888,2.182-4.405,3.217-6.99c0.26-0.646,0.512-1.294,0.729-1.941
			c0.213-0.648,0.437-1.282,0.597-1.909c0.17-0.625,0.31-1.233,0.416-1.815c0.101-0.583,0.162-1.136,0.196-1.65
			c0.015-0.513,0.005-0.983-0.035-1.402c-0.062-0.412-0.122-0.777-0.226-1.062c-0.078-0.296-0.182-0.513-0.247-0.665
			s-0.101-0.234-0.101-0.234s0.052,0.072,0.147,0.207c0.093,0.138,0.259,0.328,0.381,0.619c0.153,0.278,0.276,0.641,0.41,1.064
			c0.049,0.217,0.101,0.446,0.156,0.689c0.027,0.247,0.057,0.507,0.088,0.777c0.029,0.544,0.031,1.136-0.03,1.755
			c-0.061,0.618-0.148,1.269-0.301,1.926c-0.143,0.66-0.315,1.335-0.536,2.005c-0.214,0.672-0.46,1.343-0.718,2.01
			c-1.069,2.65-2.48,5.127-3.648,6.903c-0.58,0.892-1.119,1.599-1.484,2.099C196.608,152.076,196.375,152.345,196.375,152.345z"/>
	</g>
	<g>
		<path fill="#EFC06A" d="M202.562,147.121c0,0,3.766-7.547,3.164-10.695"/>
		<path d="M202.562,147.121c0,0,0.164-0.705,0.482-1.713c0.312-1.013,0.776-2.332,1.226-3.646c0.46-1.311,0.9-2.617,1.156-3.618
			c0.067-0.251,0.125-0.481,0.157-0.688c0.034-0.206,0.09-0.391,0.091-0.541c0.033-0.311,0.052-0.488,0.052-0.488
			s0.059,0.165,0.147,0.476c0.054,0.156,0.068,0.347,0.093,0.568c0.032,0.225,0.044,0.476,0.029,0.747
			c0.002,0.276-0.015,0.572-0.062,0.879c-0.032,0.312-0.082,0.635-0.158,0.964c-0.126,0.666-0.34,1.351-0.562,2.03
			c-0.244,0.672-0.507,1.335-0.795,1.938c-0.285,0.604-0.577,1.154-0.853,1.613C203.026,146.563,202.562,147.121,202.562,147.121z"
			/>
	</g>
	<g>
		<path d="M197.576,136.426c0,0,0.656,0.409,1.675,0.842c0.508,0.219,1.109,0.438,1.763,0.616c0.325,0.097,0.667,0.167,1.015,0.232
			c0.344,0.088,0.704,0.109,1.06,0.156c0.355,0.051,0.716,0.047,1.069,0.074c0.355-0.005,0.706-0.01,1.045-0.015
			c0.34-0.03,0.669-0.06,0.981-0.088c0.314-0.023,0.605-0.096,0.883-0.128c0.556-0.065,1.007-0.192,1.336-0.249
			c0.332-0.057,0.521-0.09,0.521-0.09s-0.159,0.104-0.449,0.275c-0.293,0.162-0.705,0.431-1.256,0.617
			c-0.273,0.097-0.563,0.236-0.891,0.307c-0.326,0.077-0.671,0.17-1.033,0.23c-0.366,0.033-0.745,0.094-1.134,0.105
			c-0.388-0.017-0.784-0.001-1.178-0.046c-0.391-0.062-0.786-0.101-1.161-0.208c-0.383-0.077-0.742-0.211-1.088-0.343
			c-0.351-0.114-0.662-0.3-0.964-0.444c-0.292-0.17-0.568-0.326-0.801-0.506C198.007,137.089,197.576,136.426,197.576,136.426z"/>
	</g>
	<g>
		<path d="M196.5,139.402c0,0,0.861,0.191,2.129,0.43c0.637,0.112,1.373,0.246,2.164,0.351c0.393,0.071,0.806,0.084,1.218,0.148
			c0.415,0.036,0.837,0.077,1.258,0.095c0.421,0.01,0.844,0.062,1.257,0.039c0.413-0.016,0.824,0.015,1.216-0.029
			c0.394-0.031,0.778-0.034,1.136-0.094c0.356-0.057,0.708-0.064,1.017-0.142c0.311-0.065,0.602-0.115,0.861-0.159
			c0.254-0.067,0.475-0.126,0.657-0.174c0.374-0.09,0.588-0.141,0.588-0.141s-0.186,0.118-0.511,0.324
			c-0.323,0.218-0.816,0.471-1.445,0.704c-0.307,0.142-0.66,0.218-1.031,0.321c-0.369,0.112-0.769,0.178-1.184,0.235
			c-0.415,0.072-0.847,0.102-1.286,0.118c-0.44,0.035-0.885-0.004-1.331-0.006c-0.888-0.065-1.771-0.181-2.579-0.377
			c-0.81-0.182-1.546-0.426-2.162-0.666C197.234,139.904,196.5,139.402,196.5,139.402z"/>
	</g>
	<g>
		<path d="M196.5,141.936c0,0,0.513,0.318,1.262,0.736c0.375,0.21,0.815,0.436,1.285,0.666c0.478,0.213,0.979,0.449,1.504,0.612
			c0.258,0.097,0.518,0.186,0.78,0.244c0.261,0.073,0.518,0.141,0.771,0.186c0.505,0.101,0.99,0.177,1.412,0.198
			c0.424,0.042,0.784,0.049,1.042,0.049c0.258,0.009,0.412,0.021,0.412,0.021s-0.132,0.068-0.373,0.174
			c-0.241,0.11-0.595,0.252-1.045,0.328c-0.224,0.058-0.47,0.096-0.732,0.1c-0.263,0.019-0.544,0.041-0.829,0.003
			c-0.578-0.025-1.186-0.162-1.767-0.359c-0.58-0.204-1.13-0.48-1.607-0.791c-0.475-0.315-0.887-0.65-1.201-0.977
			C196.771,142.488,196.5,141.936,196.5,141.936z"/>
	</g>
	<g>
		<path d="M193.483,120.559c0,0,0.106,0.062,0.306,0.178c0.201,0.11,0.497,0.272,0.874,0.478c0.771,0.396,1.883,0.946,3.258,1.527
			c1.376,0.576,3.002,1.214,4.784,1.78c0.886,0.302,1.814,0.568,2.761,0.833c0.94,0.288,1.921,0.485,2.889,0.735
			c0.973,0.227,1.956,0.405,2.92,0.607c0.972,0.157,1.929,0.312,2.854,0.463c0.93,0.128,1.832,0.217,2.687,0.32
			c0.854,0.116,1.668,0.135,2.417,0.198c0.749,0.043,1.436,0.119,2.047,0.117c0.61,0.014,1.143,0.025,1.581,0.035
			c0.878,0.02,1.379,0.03,1.379,0.03s-0.501,0.005-1.379,0.013c-0.438,0.004-0.972,0.009-1.583,0.015
			c-0.612,0.021-1.301-0.034-2.054-0.055c-0.751-0.04-1.569-0.032-2.429-0.123c-0.859-0.076-1.769-0.138-2.705-0.237
			c-0.935-0.122-1.9-0.248-2.882-0.376c-0.975-0.172-1.971-0.321-2.957-0.519c-0.981-0.221-1.977-0.391-2.934-0.65
			c-0.963-0.237-1.909-0.478-2.813-0.754c-1.819-0.517-3.484-1.11-4.9-1.652c-1.414-0.546-2.566-1.072-3.37-1.453
			c-0.399-0.203-0.714-0.362-0.928-0.471c-0.211-0.114-0.323-0.175-0.323-0.175L193.483,120.559z"/>
	</g>
	<path fill="#EFC06A" stroke="#000000" stroke-miterlimit="10" d="M198.375,158.744c0,1.951-1.582,3.533-3.533,3.533h-8.059
		c-1.951,0-3.533-1.582-3.533-3.533l0,0c0-1.951,3.549-3.533,5.5-3.533l5-0.434C195.701,154.777,198.375,156.793,198.375,158.744
		L198.375,158.744z"/>
	<path fill="#EFC06A" stroke="#000000" stroke-miterlimit="10" d="M206.773,166.015c-0.529,1.878-2.48,2.973-4.358,2.444
		l-7.758-2.183c-1.878-0.528-2.973-2.479-2.444-4.357l0,0c0.528-1.879,4.373-2.44,6.252-1.912l4.931,0.937
		C205.273,161.472,207.302,164.137,206.773,166.015L206.773,166.015z"/>
	<path fill="#EFC06A" stroke="#000000" stroke-miterlimit="10" d="M186.639,151.509c-0.529,1.878-1.632,3.901-3.51,3.373
		l-7.358-1.302c-1.878-0.528-2.973-2.479-2.444-4.357l0,0c0.528-1.879,4.373-2.44,6.252-1.912l4.931,0.937
		c1.878,0.528,1.959,0.347,2.426,1.811C187.047,150.41,186.639,151.509,186.639,151.509z"/>
</g>
<g id="Layer_4">
	<path fill="#EFC06A" stroke="#000000" stroke-miterlimit="10" d="M189.679,194.548c-3.109-45.681-24.258-82.904-54.181-82.904
		s-50.885,37.235-54.181,82.904c-4.259,59.02,6.035,37.337,60.637,41.173C206.735,240.271,191.708,224.364,189.679,194.548z"/>
	<path fill="#EFC06A" stroke="#000000" stroke-miterlimit="10" d="M138.709,236.579c0,5.449-8.354,9.866-18.658,9.866
		c-10.304,0-23.254-4.417-23.254-9.866c0-5.446,12.95-9.864,23.254-9.864C130.355,226.715,138.709,231.133,138.709,236.579z"/>
	<path fill="#EFC06A" stroke="#000000" stroke-miterlimit="10" d="M187.099,234.146c0,5.449-8.355,9.866-18.658,9.866
		c-10.305,0-25.302-2.762-25.302-8.21c0-5.447,14.998-11.521,25.302-11.521C178.743,224.281,187.099,228.699,187.099,234.146z"/>
	<g>
		<path d="M94.499,229.097c0,0,0.557-0.496,1.598-1.282c1.046-0.777,2.559-1.876,4.487-3.02c0.961-0.576,2.025-1.165,3.167-1.758
			c1.149-0.577,2.366-1.187,3.679-1.692c1.301-0.533,2.679-1.007,4.096-1.434c1.426-0.397,2.886-0.782,4.381-1.005
			c1.491-0.239,3.004-0.334,4.492-0.346c1.488,0.031,2.959,0.119,4.353,0.401c0.702,0.112,1.383,0.271,2.036,0.479
			c0.664,0.166,1.283,0.424,1.89,0.658c0.616,0.211,1.172,0.517,1.721,0.783c0.557,0.252,1.056,0.567,1.536,0.867
			c0.99,0.551,1.764,1.252,2.493,1.798c0.663,0.632,1.263,1.153,1.712,1.627c0.861,0.98,1.353,1.541,1.353,1.541
			s-0.541-0.51-1.488-1.4c-0.48-0.436-1.114-0.907-1.808-1.476c-0.762-0.48-1.563-1.104-2.547-1.604
			c-0.479-0.271-0.977-0.554-1.529-0.772c-0.544-0.233-1.093-0.505-1.699-0.681c-0.596-0.198-1.201-0.42-1.849-0.55
			c-0.319-0.079-0.642-0.159-0.968-0.239c-0.328-0.069-0.665-0.115-1.001-0.176c-1.345-0.252-2.764-0.314-4.2-0.322
			c-1.438,0.033-2.898,0.149-4.342,0.399c-1.453,0.192-2.881,0.546-4.279,0.913c-1.392,0.396-2.749,0.839-4.035,1.344
			c-2.577,0.996-4.936,2.072-6.887,3.133c-1.955,1.054-3.563,1.981-4.653,2.69C95.109,228.67,94.499,229.097,94.499,229.097z"/>
	</g>
	<g>
		<path d="M145.604,226.715c0,0,0.537-0.371,1.523-0.947c0.993-0.563,2.418-1.37,4.205-2.183c1.787-0.808,3.906-1.693,6.254-2.436
			c1.176-0.361,2.398-0.721,3.662-0.999c1.262-0.293,2.558-0.527,3.862-0.71c1.306-0.174,2.623-0.272,3.921-0.313
			c1.299-0.027,2.58,0.016,3.812,0.146c0.617,0.063,1.223,0.12,1.809,0.243c0.588,0.096,1.16,0.209,1.709,0.356
			c0.553,0.128,1.086,0.267,1.592,0.44c0.508,0.162,1.002,0.307,1.457,0.503c0.932,0.335,1.738,0.749,2.449,1.118
			c0.703,0.382,1.287,0.767,1.777,1.059c0.92,0.68,1.445,1.067,1.445,1.067s-0.562-0.327-1.547-0.9
			c-0.512-0.248-1.117-0.576-1.84-0.891c-0.729-0.299-1.549-0.633-2.471-0.922c-0.453-0.169-0.943-0.284-1.447-0.415
			c-0.498-0.144-1.025-0.251-1.57-0.347c-0.539-0.115-1.1-0.195-1.676-0.258c-0.572-0.082-1.162-0.137-1.762-0.177
			c-1.199-0.102-2.445-0.085-3.707-0.059c-1.264,0.052-2.545,0.16-3.82,0.34c-1.275,0.166-2.545,0.384-3.784,0.66
			c-1.24,0.269-2.454,0.568-3.62,0.899c-1.16,0.345-2.287,0.671-3.339,1.034c-1.056,0.352-2.042,0.723-2.948,1.075
			c-1.806,0.722-3.307,1.349-4.334,1.839C146.187,226.419,145.604,226.715,145.604,226.715z"/>
	</g>
	<g>
		<path d="M145.604,220.794c0,0,0.537-0.371,1.523-0.947c0.993-0.563,2.418-1.37,4.205-2.183c1.787-0.808,3.906-1.693,6.254-2.436
			c1.176-0.361,2.398-0.721,3.662-0.999c1.262-0.293,2.558-0.527,3.862-0.71c1.306-0.174,2.623-0.272,3.921-0.313
			c1.299-0.027,2.58,0.016,3.812,0.146c0.617,0.063,1.223,0.12,1.809,0.243c0.588,0.096,1.16,0.209,1.709,0.356
			c0.553,0.128,1.086,0.267,1.592,0.44c0.508,0.162,1.002,0.307,1.457,0.503c0.932,0.335,1.738,0.749,2.449,1.118
			c0.703,0.382,1.287,0.767,1.777,1.059c0.92,0.68,1.445,1.067,1.445,1.067s-0.562-0.327-1.547-0.9
			c-0.512-0.248-1.117-0.576-1.84-0.891c-0.729-0.299-1.549-0.633-2.471-0.922c-0.453-0.169-0.943-0.284-1.447-0.415
			c-0.498-0.144-1.025-0.251-1.57-0.347c-0.539-0.115-1.1-0.195-1.676-0.258c-0.572-0.082-1.162-0.137-1.762-0.177
			c-1.199-0.102-2.445-0.085-3.707-0.059c-1.264,0.052-2.545,0.16-3.82,0.34c-1.275,0.166-2.545,0.384-3.784,0.66
			c-1.24,0.269-2.454,0.568-3.62,0.899c-1.16,0.345-2.287,0.671-3.339,1.034c-1.056,0.352-2.042,0.723-2.948,1.075
			c-1.806,0.722-3.307,1.349-4.334,1.838C146.187,220.498,145.604,220.794,145.604,220.794z"/>
	</g>
	<g>
		<path d="M91.862,220.794c0,0,0.537-0.371,1.524-0.947c0.993-0.563,2.417-1.37,4.204-2.183c1.787-0.808,3.907-1.693,6.254-2.436
			c1.176-0.361,2.398-0.721,3.662-0.999c1.261-0.293,2.558-0.527,3.862-0.71c1.306-0.174,2.623-0.272,3.921-0.313
			c1.299-0.027,2.581,0.016,3.812,0.146c0.616,0.063,1.223,0.12,1.808,0.243c0.589,0.096,1.161,0.209,1.709,0.356
			c0.553,0.128,1.086,0.267,1.592,0.44c0.508,0.162,1.002,0.307,1.457,0.503c0.932,0.335,1.738,0.749,2.448,1.118
			c0.703,0.382,1.287,0.767,1.777,1.059c0.919,0.68,1.445,1.067,1.445,1.067s-0.562-0.327-1.546-0.9
			c-0.512-0.248-1.118-0.576-1.839-0.891c-0.73-0.299-1.55-0.633-2.473-0.922c-0.452-0.169-0.943-0.284-1.446-0.415
			c-0.5-0.144-1.026-0.251-1.57-0.347c-0.54-0.115-1.101-0.195-1.677-0.258c-0.573-0.082-1.162-0.137-1.762-0.177
			c-1.199-0.102-2.444-0.085-3.707-0.059c-1.263,0.052-2.545,0.16-3.819,0.34c-1.275,0.166-2.546,0.384-3.785,0.66
			c-1.24,0.269-2.455,0.568-3.62,0.899c-1.16,0.345-2.287,0.671-3.339,1.034c-1.056,0.352-2.042,0.723-2.948,1.075
			c-1.806,0.722-3.307,1.349-4.334,1.838C92.444,220.498,91.862,220.794,91.862,220.794z"/>
	</g>
	<ellipse fill="#EFC06A" stroke="#000000" stroke-miterlimit="10" cx="138.23" cy="127.436" rx="48.869" ry="37.053"/>
	<path fill="#EFC06A" stroke="#000000" stroke-miterlimit="10" d="M108.83,133.375"/>
	<circle fill="#EFC06A" stroke="#000000" stroke-miterlimit="10" cx="120.458" cy="125.038" r="11.897"/>
	<circle fill="#EFC06A" stroke="#000000" stroke-miterlimit="10" cx="125.595" cy="125.038" r="11.897"/>
	<circle fill="#EFC06A" stroke="#000000" stroke-miterlimit="10" cx="159.936" cy="121.479" r="11.897"/>
	<circle fill="#EFC06A" stroke="#000000" stroke-miterlimit="10" cx="165.072" cy="121.479" r="11.897"/>
	<line fill="#EFC06A" stroke="#000000" stroke-miterlimit="10" x1="108.56" y1="125.038" x2="90.188" y2="120.637"/>
	<line fill="#EFC06A" stroke="#000000" stroke-miterlimit="10" x1="176.702" y1="118.972" x2="183.608" y2="113.658"/>
	<path fill="#EFC06A" stroke="#000000" stroke-miterlimit="10" d="M108.83,105.523c0,0,8.652-11.897,14.332-6.489"/>
	<line fill="#EFC06A" stroke="#000000" stroke-miterlimit="10" x1="153.175" y1="104.442" x2="165.344" y2="104.442"/>
	<path fill="#EFC06A" stroke="#000000" stroke-miterlimit="10" d="M150.474,179.071c0,0,15.663,4.408,21.359,0
		c1.92-1.486-2.299,18.417-5.138,18.268c-7.261-0.38-10.597,0.964-13.521-0.521C149.175,194.785,150.474,179.071,150.474,179.071z"
		/>
	<path fill="#EFC06A" stroke="#000000" stroke-miterlimit="10" d="M160.61,180.887c0.125-0.695,0.137-1.064,0.137-1.895
		c0-2.838-0.818-5.138-1.826-5.138c-1.007,0-1.824,2.3-1.824,5.138c0,0.71-0.094,0.674-0.001,1.288
		C157.534,180.339,160.155,180.871,160.61,180.887z"/>
	<path fill="#EFC06A" stroke="#000000" stroke-miterlimit="10" d="M168.655,180.333c0.027-0.351,0.043-0.712,0.043-1.086
		c0-2.838-0.258-5.254-1.826-5.138c-1.004,0.074-2.281,2.045-2.281,4.883c0,0.751,0.094,1.026,0.196,1.67
		C165.194,180.545,167.908,180.489,168.655,180.333z"/>
	<path fill="#EFC06A" stroke="#000000" stroke-miterlimit="10" d="M100.771,178.188c1.487-1.419,1.294-1.788,1.191-2.18
		c-0.482-1.825-0.57-2.154-2.475-2.154c-1.904,0-3.638,1.107-4.816,2.188c-0.513,0.471-6.452,6.163-6.452,10.213
		c0,5.129,4.292,9.284,9.588,9.284s9.589-4.155,9.589-9.284C107.396,182.205,107.97,178.595,100.771,178.188z"/>
	<path fill="#EFC06A" stroke="#000000" stroke-miterlimit="10" d="M187.452,179.761c-1.484-1.42-1.293-1.789-1.191-2.181
		c0.482-1.825,0.57-2.154,2.477-2.154c1.904,0,3.637,1.107,4.816,2.188c0.512,0.471,6.451,6.164,6.451,10.213
		c0,5.129-4.293,9.285-9.59,9.285c-5.295,0-9.588-4.156-9.588-9.285C180.827,183.777,180.253,180.166,187.452,179.761z"/>
	<polygon fill="#EFC06A" stroke="#000000" stroke-miterlimit="10" points="130.016,135.176 81.634,159.062 101.102,157.98 
		81.634,180.604 110.837,165.822 106.24,183.938 143.138,144.731 	"/>
	<polygon fill="#EFC06A" stroke="#000000" stroke-miterlimit="10" points="162.512,135.176 210.894,159.062 191.427,157.98 
		210.894,180.604 181.69,165.822 186.288,183.938 149.39,144.731 	"/>
	<ellipse fill="#EFC06A" stroke="#000000" stroke-miterlimit="10" cx="146.068" cy="135.73" rx="21.284" ry="10.739"/>
	<path fill="#EFC06A" stroke="#000000" stroke-miterlimit="10" d="M141.263,65.278l-3.951,26.886l0,0
		c-0.135,1.224,5.077,2.812,11.643,3.547c6.566,0.733,12,0.336,12.14-0.888l0,0l2.777-24.84L141.263,65.278z"/>
	<path fill="#EFC06A" stroke="#000000" stroke-miterlimit="10" d="M163.872,69.982c-0.491,1.13-5.045,1.493-11.508,0.118
		c-6.464-1.376-11.351-3.792-11.12-5.002c0.367-1.923,5.742-1.07,12.206,0.305C159.913,66.78,164.701,68.072,163.872,69.982z"/>
	<path fill="#EFC06A" stroke="#000000" stroke-miterlimit="10" d="M137.562,91.727c0.056-0.503-0.802-1.066-2.275-1.608v-2.019
		l-2.6,1.247c-0.101-0.025-0.191-0.05-0.294-0.075l-0.604-2.236c0,0-2.101,1.684-2.641,1.594l-0.401-2.506l-2.301,2.125
		c-0.177-0.021-0.347-0.047-0.526-0.067c-0.218-0.024-0.432-0.044-0.647-0.066l-1.342-2.499l-2.418,2.232
		c-0.462-0.018-0.915-0.029-1.348-0.033l-3.635-2.199l0.269,2.333c-0.343,0.036-0.661,0.078-0.952,0.126l-2.511-0.917l0.593,1.632
		c-0.078,0.088-2.812,1.067-2.722,1.109c0.527,0.244,2.738,0.494,3.381,0.848l-0.289,1.235l3.912-0.644
		c0.067,0.018,0.135,0.035,0.202,0.052l0.44,1.569l3.281-0.802c0.187,0.032,0.376,0.062,0.566,0.091l0.974,1.167l2.828-0.69
		c0.34,0.032,0.674,0.06,1.006,0.086l0.783,0.939l3.152-0.77c0.281,0.001,0.557,0,0.823-0.005l0.486,2.171l2.079-2.408l3.118,0.304
		C138.366,92.866,137.534,91.971,137.562,91.727z"/>
	<path fill="#EFC06A" stroke="#000000" stroke-miterlimit="10" d="M138.419,84.629c0,0,11.787,8.217,23.448,3.283"/>
	<path fill="#EFC06A" stroke="#000000" stroke-miterlimit="10" d="M139.923,72.047c0,0,11.787,8.217,23.448,3.283"/>
	<g>
		<path fill="#EFC06A" d="M148.798,67.701c0,0-9.531-3.499,2.13-1.041"/>
		<path d="M148.798,67.701c0,0-0.617-0.139-1.514-0.442c-0.445-0.161-0.971-0.336-1.514-0.594c-0.137-0.065-0.274-0.136-0.414-0.216
			c-0.071-0.047-0.14-0.079-0.214-0.141c-0.07-0.065-0.152-0.09-0.234-0.291c-0.055-0.104,0.013-0.284,0.124-0.365
			c0.06-0.032,0.14-0.068,0.193-0.079c0.095-0.015,0.197-0.033,0.277-0.031c0.174-0.009,0.334,0.004,0.498,0.011
			c1.281,0.115,2.498,0.422,3.416,0.655c0.914,0.241,1.511,0.451,1.511,0.451s-0.631-0.053-1.565-0.175
			c-0.932-0.115-2.179-0.319-3.399-0.434c-0.149-0.009-0.303-0.023-0.441-0.018c-0.077-0.003-0.128,0.01-0.188,0.015
			c-0.021,0.005-0.012,0.007-0.024,0.002c0.061-0.024,0.073-0.136,0.063-0.164c-0.032-0.05,0.128,0.112,0.228,0.167
			c0.119,0.078,0.244,0.151,0.37,0.22c0.507,0.274,0.995,0.526,1.419,0.726C148.235,67.42,148.798,67.701,148.798,67.701z"/>
	</g>
	<g>
		<path fill="#EFC06A" d="M152.347,68.512c0,0,15.166,2.46,3.145-1.029"/>
		<path d="M152.347,68.512c0,0,0.807,0.051,2.008,0.163c1.2,0.109,2.801,0.287,4.388,0.403c0.389,0.025,0.808,0.053,1.138,0.007
			c0.035-0.004,0.076-0.018,0.07-0.016c0.012-0.004-0.032,0.015-0.051,0.065c-0.03,0.085-0.012,0.126,0.006,0.152
			c0.016,0.011-0.072-0.065-0.141-0.101c-0.15-0.088-0.319-0.168-0.488-0.241c-0.68-0.291-1.338-0.544-1.903-0.748
			c-1.13-0.418-1.882-0.714-1.882-0.714s0.795,0.142,1.967,0.446c0.582,0.164,1.268,0.335,1.986,0.609
			c0.18,0.069,0.361,0.144,0.551,0.244c0.098,0.062,0.188,0.084,0.318,0.255c0.037,0.071,0.075,0.158,0.024,0.292
			c-0.042,0.092-0.124,0.147-0.157,0.162c-0.094,0.048-0.15,0.055-0.213,0.069c-0.455,0.067-0.845,0.035-1.258,0.017
			C155.472,69.331,152.347,68.512,152.347,68.512z"/>
	</g>
	<text transform="matrix(0.9489 0.3157 -0.3157 0.9489 168.6982 54.9292)" font-family="'Neucha'" font-size="54">?</text>
</g>
<g id="proffesorn" display="none">
	<path display="inline" fill="#EFC06A" stroke="#000000" stroke-miterlimit="10" d="M137.378,154.912
		c-1.917-28.156-14.952-51.1-33.396-51.1c-18.444,0-31.364,22.951-33.396,51.1c-2.625,36.378,3.72,23.014,37.375,25.378
		C147.891,183.095,138.629,173.29,137.378,154.912z"/>
	<path display="inline" fill="#EFC06A" stroke="#000000" stroke-miterlimit="10" d="M105.961,180.819
		c0,3.358-5.149,6.081-11.5,6.081s-14.333-2.723-14.333-6.081c0-3.357,7.982-6.08,14.333-6.08S105.961,177.462,105.961,180.819z"/>
	<path display="inline" fill="#EFC06A" stroke="#000000" stroke-miterlimit="10" d="M135.787,179.319
		c0,3.358-5.149,6.081-11.5,6.081s-15.595-1.702-15.595-5.061c0-3.357,9.244-7.101,15.595-7.101S135.787,175.962,135.787,179.319z"
		/>
	<g display="inline">
		<path d="M78.711,176.207c0,0,0.333-0.319,0.964-0.82c0.637-0.492,1.55-1.203,2.734-1.925c0.589-0.365,1.242-0.738,1.943-1.115
			c0.707-0.367,1.455-0.756,2.266-1.077c0.804-0.337,1.652-0.651,2.535-0.912c0.886-0.246,1.793-0.483,2.724-0.62
			c0.927-0.15,1.87-0.211,2.798-0.22c0.929,0.013,1.846,0.091,2.714,0.272c0.874,0.149,1.693,0.428,2.439,0.74
			s1.428,0.665,2.013,1.055c0.611,0.35,1.083,0.797,1.526,1.146c0.402,0.401,0.766,0.732,1.037,1.032
			c0.514,0.621,0.808,0.977,0.808,0.977s-0.343-0.304-0.943-0.836c-0.302-0.261-0.699-0.542-1.133-0.881
			c-0.476-0.283-0.976-0.652-1.581-0.952c-0.585-0.33-1.259-0.616-1.984-0.857c-0.366-0.115-0.736-0.245-1.132-0.318
			c-0.391-0.091-0.787-0.188-1.202-0.236c-0.819-0.148-1.684-0.162-2.558-0.175c-0.875,0.02-1.766,0.089-2.647,0.241
			c-0.886,0.118-1.759,0.335-2.614,0.561c-0.849,0.247-1.687,0.497-2.478,0.801c-1.586,0.592-3.047,1.229-4.255,1.864
			c-1.209,0.632-2.22,1.171-2.899,1.596C79.099,175.957,78.711,176.207,78.711,176.207z"/>
	</g>
	<g display="inline">
		<path d="M110.211,174.739c0,0,0.321-0.244,0.923-0.614c0.602-0.367,1.471-0.887,2.565-1.413c0.553-0.248,1.147-0.532,1.793-0.793
			c0.648-0.255,1.324-0.55,2.058-0.761c0.722-0.243,1.48-0.462,2.265-0.636c0.774-0.213,1.59-0.302,2.393-0.452
			c0.812-0.098,1.632-0.144,2.436-0.19c0.808,0.028,1.605,0.008,2.369,0.115c0.76,0.13,1.509,0.17,2.181,0.405
			c0.672,0.221,1.329,0.347,1.886,0.612c0.562,0.25,1.065,0.5,1.507,0.721c0.431,0.242,0.77,0.522,1.064,0.716
			c0.578,0.411,0.895,0.653,0.895,0.653s-0.362-0.177-0.995-0.486c-0.316-0.149-0.676-0.373-1.126-0.549
			c-0.463-0.149-0.98-0.319-1.532-0.524c-0.551-0.209-1.201-0.273-1.853-0.43c-0.326-0.084-0.67-0.122-1.026-0.14
			c-0.352-0.033-0.711-0.067-1.077-0.102c-0.729-0.078-1.495,0.002-2.263-0.026c-0.77,0.056-1.555,0.112-2.333,0.216
			c-0.776,0.134-1.562,0.206-2.316,0.403c-0.76,0.164-1.509,0.321-2.222,0.535c-1.436,0.381-2.761,0.815-3.883,1.228
			c-0.559,0.215-1.072,0.412-1.526,0.586c-0.453,0.18-0.848,0.339-1.168,0.483C110.58,174.578,110.211,174.739,110.211,174.739z"/>
	</g>
	<g display="inline">
		<path d="M110.211,171.09c0,0,0.321-0.244,0.923-0.614c0.602-0.367,1.471-0.887,2.565-1.413c0.553-0.248,1.147-0.532,1.793-0.793
			c0.648-0.255,1.324-0.55,2.058-0.761c0.722-0.243,1.48-0.462,2.265-0.636c0.774-0.213,1.59-0.302,2.393-0.452
			c0.812-0.098,1.632-0.144,2.436-0.19c0.808,0.028,1.605,0.008,2.369,0.115c0.76,0.13,1.509,0.17,2.181,0.405
			c0.672,0.221,1.329,0.347,1.886,0.611c0.562,0.251,1.065,0.501,1.507,0.722c0.431,0.242,0.77,0.522,1.064,0.716
			c0.578,0.411,0.895,0.653,0.895,0.653s-0.362-0.177-0.995-0.486c-0.316-0.149-0.676-0.373-1.126-0.549
			c-0.463-0.149-0.98-0.319-1.532-0.524c-0.551-0.209-1.201-0.273-1.853-0.43c-0.326-0.084-0.67-0.122-1.026-0.14
			c-0.352-0.033-0.711-0.067-1.077-0.102c-0.729-0.078-1.495,0.002-2.263-0.026c-0.77,0.056-1.555,0.112-2.333,0.216
			c-0.776,0.134-1.562,0.206-2.316,0.403c-0.76,0.164-1.509,0.321-2.222,0.535c-1.436,0.381-2.761,0.815-3.883,1.228
			c-0.559,0.215-1.072,0.412-1.526,0.586c-0.453,0.18-0.848,0.339-1.168,0.483C110.58,170.929,110.211,171.09,110.211,171.09z"/>
	</g>
	<g display="inline">
		<path d="M77.086,171.09c0,0,0.321-0.244,0.923-0.614c0.602-0.367,1.471-0.887,2.565-1.413c0.553-0.248,1.147-0.532,1.793-0.793
			c0.648-0.255,1.324-0.55,2.058-0.761c0.722-0.243,1.48-0.462,2.265-0.636c0.774-0.213,1.59-0.302,2.393-0.452
			c0.812-0.098,1.632-0.144,2.436-0.19c0.808,0.028,1.605,0.008,2.369,0.115c0.76,0.13,1.509,0.17,2.181,0.405
			c0.672,0.221,1.329,0.347,1.886,0.611c0.562,0.251,1.065,0.501,1.507,0.722c0.431,0.242,0.77,0.522,1.064,0.716
			c0.578,0.411,0.895,0.653,0.895,0.653s-0.362-0.177-0.995-0.486c-0.316-0.149-0.676-0.373-1.126-0.549
			c-0.463-0.149-0.98-0.319-1.532-0.524c-0.551-0.209-1.201-0.273-1.853-0.43c-0.326-0.084-0.67-0.122-1.026-0.14
			c-0.352-0.033-0.711-0.067-1.077-0.102c-0.729-0.078-1.495,0.002-2.263-0.026c-0.77,0.056-1.555,0.112-2.333,0.216
			c-0.776,0.134-1.562,0.206-2.316,0.403c-0.76,0.164-1.509,0.321-2.222,0.535c-1.436,0.381-2.761,0.815-3.883,1.228
			c-0.559,0.215-1.072,0.412-1.526,0.586c-0.453,0.18-0.848,0.339-1.168,0.483C77.455,170.929,77.086,171.09,77.086,171.09z"/>
	</g>
	
		<ellipse display="inline" fill="#EFC06A" stroke="#000000" stroke-miterlimit="10" cx="105.666" cy="113.546" rx="30.121" ry="22.839"/>
	<path display="inline" fill="#EFC06A" stroke="#000000" stroke-miterlimit="10" d="M87.545,117.207"/>
	<circle display="inline" fill="#EFC06A" stroke="#000000" stroke-miterlimit="10" cx="94.712" cy="112.068" r="7.333"/>
	<circle display="inline" fill="#EFC06A" stroke="#000000" stroke-miterlimit="10" cx="97.878" cy="112.068" r="7.333"/>
	<circle display="inline" fill="#EFC06A" stroke="#000000" stroke-miterlimit="10" cx="119.045" cy="109.875" r="7.333"/>
	<circle display="inline" fill="#EFC06A" stroke="#000000" stroke-miterlimit="10" cx="122.211" cy="109.875" r="7.333"/>
	
		<line display="inline" fill="#EFC06A" stroke="#000000" stroke-miterlimit="10" x1="87.378" y1="112.068" x2="76.054" y2="109.355"/>
	
		<line display="inline" fill="#EFC06A" stroke="#000000" stroke-miterlimit="10" x1="129.379" y1="108.33" x2="133.636" y2="105.054"/>
	<path display="inline" fill="#EFC06A" stroke="#000000" stroke-miterlimit="10" d="M87.545,100.04c0,0,5.333-7.333,8.833-4"/>
	
		<line display="inline" fill="#EFC06A" stroke="#000000" stroke-miterlimit="10" x1="114.878" y1="99.374" x2="122.378" y2="99.374"/>
	<path display="inline" fill="#EFC06A" stroke="#000000" stroke-miterlimit="10" d="M113.212,145.373c0,0,9.655,2.717,13.166,0
		c1.184-0.916-1.417,11.352-3.167,11.26c-4.476-0.234-6.532,0.594-8.333-0.321C112.412,155.059,113.212,145.373,113.212,145.373z"/>
	<path display="inline" fill="#EFC06A" stroke="#000000" stroke-miterlimit="10" d="M119.461,146.492
		c0.077-0.429,0.084-0.656,0.084-1.168c0-1.749-0.504-3.167-1.125-3.167s-1.125,1.418-1.125,3.167c0,0.438-0.058,0.415,0,0.794
		C117.565,146.154,119.18,146.482,119.461,146.492z"/>
	<path display="inline" fill="#EFC06A" stroke="#000000" stroke-miterlimit="10" d="M124.419,146.15
		c0.017-0.216,0.026-0.438,0.026-0.669c0-1.749-0.159-3.238-1.125-3.167c-0.62,0.046-1.406,1.261-1.406,3.01
		c0,0.463,0.057,0.633,0.121,1.029C122.286,146.281,123.959,146.247,124.419,146.15z"/>
	<path display="inline" fill="#EFC06A" stroke="#000000" stroke-miterlimit="10" d="M82.577,144.829
		c0.917-0.875,0.798-1.103,0.734-1.344c-0.297-1.125-0.352-1.328-1.525-1.328s-2.243,0.683-2.969,1.349
		c-0.316,0.29-3.977,3.799-3.977,6.295c0,3.161,2.646,5.723,5.91,5.723s5.91-2.562,5.91-5.723
		C86.661,147.305,87.015,145.079,82.577,144.829z"/>
	<path display="inline" fill="#EFC06A" stroke="#000000" stroke-miterlimit="10" d="M136.006,145.798
		c-0.917-0.875-0.798-1.103-0.734-1.344c0.297-1.125,0.352-1.328,1.525-1.328s2.243,0.683,2.969,1.349
		c0.316,0.29,3.977,3.799,3.977,6.295c0,3.161-2.646,5.723-5.91,5.723s-5.91-2.562-5.91-5.723
		C131.922,148.273,131.568,146.048,136.006,145.798z"/>
	<polygon display="inline" fill="#EFC06A" stroke="#000000" stroke-miterlimit="10" points="100.604,118.317 70.782,133.04 
		82.782,132.373 70.782,146.317 88.782,137.207 85.948,148.373 108.691,124.207 	"/>
	<polygon display="inline" fill="#EFC06A" stroke="#000000" stroke-miterlimit="10" points="120.633,118.317 150.454,133.04 
		138.455,132.373 150.454,146.317 132.454,137.207 135.288,148.373 112.545,124.207 	"/>
	
		<ellipse display="inline" fill="#EFC06A" stroke="#000000" stroke-miterlimit="10" cx="110.497" cy="118.659" rx="13.119" ry="6.619"/>
	<path display="inline" fill="#EFC06A" stroke="#000000" stroke-miterlimit="10" d="M107.536,75.234l-2.435,16.572l0,0
		c-0.083,0.754,3.129,1.733,7.176,2.186c4.047,0.452,7.396,0.207,7.482-0.547l0,0l1.712-15.311L107.536,75.234z"/>
	<path display="inline" fill="#EFC06A" stroke="#000000" stroke-miterlimit="10" d="M121.471,78.134
		c-0.303,0.697-3.109,0.92-7.093,0.073c-3.984-0.848-6.996-2.337-6.854-3.083c0.226-1.186,3.54-0.66,7.524,0.188
		C119.031,76.16,121.982,76.957,121.471,78.134z"/>
	<path display="inline" fill="#EFC06A" stroke="#000000" stroke-miterlimit="10" d="M105.254,91.536
		c0.035-0.31-0.494-0.657-1.402-0.991V89.3l-1.603,0.769c-0.062-0.016-0.118-0.031-0.182-0.046l-0.372-1.378
		c0,0-1.295,1.038-1.627,0.982l-0.248-1.545l-1.418,1.31c-0.109-0.013-0.214-0.029-0.324-0.041
		c-0.134-0.015-0.266-0.027-0.399-0.041l-0.827-1.54l-1.491,1.376c-0.285-0.011-0.564-0.018-0.831-0.021l-2.241-1.355l0.166,1.438
		c-0.211,0.022-0.407,0.048-0.586,0.078l-1.548-0.565l0.365,1.006c-0.048,0.054-1.733,0.658-1.678,0.684
		c0.325,0.15,1.688,0.304,2.084,0.522l-0.178,0.761l2.411-0.397c0.041,0.011,0.083,0.021,0.125,0.032l0.271,0.967l2.022-0.494
		c0.115,0.02,0.232,0.038,0.349,0.056l0.601,0.72l1.743-0.426c0.209,0.02,0.416,0.037,0.62,0.053l0.483,0.579l1.943-0.475
		c0.173,0,0.343,0,0.507-0.003l0.3,1.338l1.281-1.484l1.922,0.188C105.75,92.239,105.237,91.687,105.254,91.536z"/>
	<path display="inline" fill="#EFC06A" stroke="#000000" stroke-miterlimit="10" d="M105.783,87.162c0,0,7.265,5.065,14.453,2.023"
		/>
	<path display="inline" fill="#EFC06A" stroke="#000000" stroke-miterlimit="10" d="M106.71,79.406c0,0,7.265,5.065,14.453,2.023"/>
	<g display="inline">
		<path fill="#EFC06A" d="M112.18,76.728c0,0-5.875-2.156,1.312-0.642"/>
		<path d="M112.18,76.728c0,0-0.391-0.057-0.954-0.223c-0.278-0.092-0.608-0.186-0.951-0.341c-0.085-0.04-0.173-0.083-0.263-0.132
			c-0.047-0.03-0.089-0.049-0.142-0.091c-0.047-0.047-0.104-0.053-0.176-0.226c-0.046-0.09,0.011-0.256,0.112-0.326
			c0.046-0.027,0.112-0.055,0.152-0.063c0.064-0.011,0.138-0.023,0.188-0.022c0.114-0.006,0.214,0.001,0.318,0.005
			c1.588,0.158,3.029,0.778,3.029,0.778s-0.396-0.002-0.975-0.055c-0.577-0.048-1.352-0.154-2.092-0.225
			c-0.089-0.006-0.183-0.015-0.261-0.013c-0.047-0.002-0.068,0.005-0.099,0.006c-0.007,0.002,0.017-0.003,0.018-0.014
			c0.07-0.035,0.093-0.16,0.075-0.202c-0.059-0.103,0.044,0.03,0.098,0.053c0.07,0.047,0.144,0.093,0.22,0.136
			c0.305,0.172,0.599,0.342,0.857,0.473C111.844,76.521,112.18,76.728,112.18,76.728z"/>
	</g>
	<g display="inline">
		<path fill="#EFC06A" d="M114.368,77.228c0,0,9.348,1.517,1.938-0.634"/>
		<path d="M114.368,77.228c0,0,0.501,0.001,1.245,0.047c0.742,0.044,1.731,0.134,2.702,0.205c0.234,0.016,0.498,0.033,0.675,0.009
			c0.034-0.002,0.013-0.005,0.012,0.003c0.023-0.006-0.049,0.017-0.077,0.102c-0.011,0.089-0.001,0.101,0.002,0.128
			c0.042,0.069,0.032,0.039,0.013,0.032c-0.014-0.01-0.02-0.021-0.047-0.034c-0.085-0.053-0.187-0.101-0.288-0.148
			c-0.41-0.183-0.812-0.353-1.156-0.488c-0.689-0.279-1.144-0.492-1.144-0.492s0.499,0.058,1.228,0.223
			c0.362,0.096,0.79,0.182,1.24,0.349c0.113,0.043,0.229,0.087,0.352,0.151c0.028,0.011,0.068,0.04,0.104,0.064
			c0.031,0.027,0.072,0.03,0.139,0.157c0.021,0.053,0.05,0.09,0.012,0.206c-0.042,0.112-0.125,0.165-0.137,0.164
			c-0.057,0.029-0.134,0.055-0.162,0.056c-0.306,0.046-0.541,0.024-0.8,0.016c-1.007-0.069-1.98-0.265-2.71-0.427
			C114.844,77.386,114.368,77.228,114.368,77.228z"/>
	</g>
</g>
<g id="highscore" display="none">
	<g display="inline">
		<text transform="matrix(1 0 0 1 51.5557 96.1582)"><tspan x="0" y="0" font-family="'Neucha'" font-size="24.4995">1. M3G4-tatis</tspan><tspan x="0" y="29.399" font-family="'Neucha'" font-size="24.4995">2. Else-Britt</tspan><tspan x="0" y="58.799" font-family="'Neucha'" font-size="24.4995">3. Professorn</tspan><tspan x="0" y="88.198" font-family="'Neucha'" font-size="24.4995">4. Snubben innan</tspan><tspan x="0" y="117.598" font-family="'Neucha'" font-size="24.4995">5. Du</tspan></text>
		<text transform="matrix(1 0 0 1 205.0859 96.1582)"><tspan x="0" y="0" font-family="'Neucha'" font-size="24.4995">9998</tspan><tspan x="0" y="29.399" font-family="'Neucha'" font-size="24.4995">7233</tspan><tspan x="0" y="58.799" font-family="'Neucha'" font-size="24.4995">0254</tspan><tspan x="0" y="88.198" font-family="'Neucha'" font-size="24.4995">0100</tspan><tspan x="0" y="117.598" font-family="'Neucha'" font-size="24.4995">0000</tspan></text>
	</g>
	
		<text transform="matrix(1 0 0 1 76.6777 48.792)" display="inline" fill="none" stroke="#000000" stroke-width="5" font-family="'Neucha'" font-size="39.1991">High Score</text>
	<text transform="matrix(1 0 0 1 76.6777 48.792)" display="inline" fill="#EEBF68" font-family="'Neucha'" font-size="39.1991">High Score</text>
</g>
</svg>
