<?xml version="1.0" encoding="utf-8"?>
<!-- Generator: Adobe Illustrator 16.0.4, SVG Export Plug-In . SVG Version: 6.00 Build 0)  -->
<!DOCTYPE svg PUBLIC "-//W3C//DTD SVG 1.1//EN" "http://www.w3.org/Graphics/SVG/1.1/DTD/svg11.dtd">
<svg version="1.1" xmlns="http://www.w3.org/2000/svg" xmlns:xlink="http://www.w3.org/1999/xlink" x="0px" y="0px" width="288px"
	 height="256px" viewBox="0 0 288 256" enable-background="new 0 0 288 256" xml:space="preserve">
<g id="Bakgrund" display="none">
	<g display="inline">
		<polyline fill="#FFFFFF" points="4.333,202.86 10,190.86 34.667,184.194 33.333,161.527 52.333,170.194 51.25,158.402 75,163.194 
			76,148.777 96.667,157.527 112,146.527 125,154.194 144,146.527 152.333,153.86 170.667,143.86 174.667,152.194 194.333,146.86 
			203.333,157.527 225.667,149.527 228.333,160.86 251,155.194 254,166.194 269,163.027 279.834,169.527 		"/>
		<polygon points="4.333,202.86 9.942,190.833 9.955,190.807 9.983,190.799 34.618,184.015 34.48,184.205 33.068,161.543 
			33.041,161.103 33.444,161.286 52.458,169.921 52.035,170.222 50.935,158.432 50.895,158.008 51.313,158.092 75.069,162.85 
			74.649,163.17 75.627,148.752 75.663,148.229 76.146,148.434 96.823,157.157 96.432,157.2 111.747,146.175 111.976,146.011 
			112.22,146.154 125.233,153.8 124.829,153.77 143.816,146.071 144.097,145.957 144.325,146.158 152.656,153.493 152.099,153.431 
			170.449,143.461 170.871,143.232 171.077,143.664 175.062,152.004 174.552,151.771 194.227,146.469 194.477,146.401 
			194.643,146.599 203.625,157.281 203.204,157.168 225.552,149.205 225.913,149.076 226.001,149.449 228.647,160.786 
			228.255,160.547 250.931,154.918 251.202,154.852 251.274,155.119 254.256,166.124 253.945,165.935 268.962,162.847 
			269.033,162.832 269.095,162.869 279.899,169.418 279.769,169.637 268.905,163.186 269.038,163.208 254.055,166.454 
			253.811,166.507 253.744,166.264 250.726,155.27 251.069,155.471 228.411,161.174 228.094,161.254 228.019,160.935 
			225.333,149.605 225.782,149.85 203.462,157.887 203.213,157.977 203.041,157.773 194.023,147.122 194.439,147.252 
			174.782,152.618 174.43,152.714 174.271,152.385 170.257,144.058 170.885,144.26 152.567,154.29 152.268,154.454 152.01,154.228 
			143.675,146.897 144.184,146.984 125.172,154.619 124.961,154.704 124.767,154.589 111.78,146.9 112.252,146.88 96.901,157.854 
			96.717,157.986 96.51,157.897 75.854,149.121 76.373,148.804 75.351,163.219 75.322,163.618 74.931,163.539 51.188,158.713 
			51.565,158.373 52.632,170.167 52.679,170.683 52.209,170.467 33.224,161.769 33.599,161.512 34.852,184.184 34.861,184.335 
			34.715,184.374 10.017,190.922 10.058,190.888 		"/>
	</g>
	<g display="inline">
		<line fill="#FFFFFF" x1="34.667" y1="184.194" x2="29.875" y2="108.527"/>
		<polygon points="34.167,184.226 29.875,108.527 35.166,184.163 		"/>
	</g>
	<g display="inline">
		<line fill="#FFFFFF" x1="10.5" y1="190.699" x2="7.25" y2="175.777"/>
		<polygon points="10.011,190.806 7.25,175.777 10.989,190.593 		"/>
	</g>
	<g display="inline">
		<line fill="#FFFFFF" x1="52.333" y1="170.194" x2="46" y2="94.661"/>
		<polygon points="51.835,170.236 46,94.661 52.832,170.152 		"/>
	</g>
	<g display="inline">
		<line fill="#FFFFFF" x1="74.984" y1="163.64" x2="79.167" y2="97.694"/>
		<polygon points="74.485,163.608 79.167,97.694 75.483,163.671 		"/>
	</g>
	<g display="inline">
		<line fill="#FFFFFF" x1="96.667" y1="157.527" x2="96.531" y2="120.694"/>
		<polygon points="96.167,157.529 96.531,120.694 97.167,157.525 		"/>
	</g>
	<g display="inline">
		<line fill="#FFFFFF" x1="111.967" y1="146.444" x2="111.832" y2="109.611"/>
		<polygon points="111.467,146.446 111.832,109.611 112.467,146.442 		"/>
	</g>
	<g display="inline">
		<line fill="#FFFFFF" x1="144.068" y1="146.444" x2="146.5" y2="109.611"/>
		<polygon points="143.569,146.411 146.5,109.611 144.567,146.478 		"/>
	</g>
	<g display="inline">
		<line fill="#FFFFFF" x1="125" y1="154.194" x2="127.432" y2="117.361"/>
		<polygon points="124.501,154.161 127.432,117.361 125.499,154.228 		"/>
	</g>
	<g display="inline">
		<line fill="#FFFFFF" x1="152.547" y1="154.194" x2="154.979" y2="134.277"/>
		<polygon points="152.051,154.134 154.979,134.277 153.043,154.255 		"/>
	</g>
	<g display="inline">
		<line fill="#FFFFFF" x1="170.762" y1="144.621" x2="173.193" y2="124.704"/>
		<polygon points="170.266,144.561 173.193,124.704 171.258,144.682 		"/>
	</g>
	<g display="inline">
		<line fill="#FFFFFF" x1="174.93" y1="152.345" x2="187.25" y2="90.527"/>
		<polygon points="174.439,152.247 187.25,90.527 175.42,152.442 		"/>
	</g>
	<g display="inline">
		<line fill="#FFFFFF" x1="194.496" y1="146.444" x2="200.656" y2="91.527"/>
		<polygon points="193.999,146.389 200.656,91.527 194.993,146.5 		"/>
	</g>
	<g display="inline">
		<line fill="#FFFFFF" x1="203.778" y1="157.567" x2="206.858" y2="124.146"/>
		<polygon points="203.28,157.521 206.858,124.146 204.276,157.613 		"/>
	</g>
	<g display="inline">
		<line fill="#FFFFFF" x1="225.309" y1="149.693" x2="231.125" y2="97.402"/>
		<polygon points="224.812,149.638 231.125,97.402 225.806,149.749 		"/>
	</g>
	<g display="inline">
		<line fill="#FFFFFF" x1="228.558" y1="160.637" x2="234.75" y2="112.215"/>
		<polygon points="228.062,160.573 234.75,112.215 229.054,160.7 		"/>
	</g>
	<g display="inline">
		<line fill="#FFFFFF" x1="250.775" y1="155.211" x2="250.775" y2="105.027"/>
		<polygon points="250.275,155.211 250.775,105.027 251.275,155.211 		"/>
	</g>
	<g display="inline">
		<line fill="#FFFFFF" x1="254.571" y1="165.771" x2="256.285" y2="133.277"/>
		<polygon points="254.072,165.744 256.285,133.277 255.07,165.797 		"/>
	</g>
	<g display="inline">
		<line fill="#FFFFFF" x1="269.049" y1="163.045" x2="270.764" y2="112.215"/>
		<polygon points="268.549,163.028 270.764,112.215 269.549,163.062 		"/>
	</g>
	<path display="inline" d="M288,255c0,0.414-0.336,0.75-0.75,0.75H0.75C0.336,255.75,0,255.414,0,255l0,0
		c0-0.414,0.336-0.75,0.75-0.75h286.5C287.664,254.25,288,254.586,288,255L288,255z"/>
	<path display="inline" fill="#EFC06A" stroke="#000000" stroke-miterlimit="10" d="M193.5,157.567c0,0,26.5,15.794,42.5,12.627
		s0.375-50.979-4.875-56.167s-42.511-0.055-39.125,4.959C203.778,136.426,183,144.857,193.5,157.567z"/>
	<path display="inline" fill="#EFC06A" stroke="#000000" stroke-miterlimit="10" d="M224.208,121.436
		c-6.582-0.348-26.354-1.179-26.354-1.179c-1.125,0-4.074-0.963-3.479-1.917c0.815-1.306,3.2-1.833,5.188-2.354
		c0,0,15.46-2.612,21.937-2.458c6.626,0.158,9.958,0.501,9.625,5.871C231.125,119.398,227.421,121.605,224.208,121.436z"/>
	<path display="inline" fill="#EFC06A" stroke="#000000" stroke-miterlimit="10" d="M198.993,117.611c0,0,0.77-3.199,1.508-3.959
		c0.746-0.769,3.308-1.371,4.208-0.792c1.174,0.755,1.334,5.417,1.334,5.417L198.993,117.611z"/>
	<path display="inline" fill="#EFC06A" stroke="#000000" stroke-miterlimit="10" d="M205.417,117.569c0,0,0.013-3.29,0.557-4.199
		c0.55-0.92,2.903-2.096,3.913-1.739c1.316,0.465,2.544,4.965,2.544,4.965L205.417,117.569z"/>
	<path display="inline" fill="#EFC06A" stroke="#000000" stroke-miterlimit="10" d="M210.625,118.455c0,0,0.013-3.29,0.557-4.199
		c0.55-0.92,2.903-2.096,3.913-1.739c1.316,0.465,2.544,4.965,2.544,4.965L210.625,118.455z"/>
	<path display="inline" fill="#EFC06A" stroke="#000000" stroke-miterlimit="10" d="M216.083,116.121c0,0,0.013-3.29,0.557-4.199
		c0.55-0.92,2.903-2.096,3.913-1.739c1.316,0.465,2.544,4.965,2.544,4.965L216.083,116.121z"/>
	<path display="inline" fill="#EFC06A" stroke="#000000" stroke-miterlimit="10" d="M220.703,117.844c0,0,0.639-3.228,1.345-4.017
		c0.715-0.799,3.249-1.505,4.173-0.963c1.204,0.706,1.554,5.357,1.554,5.357L220.703,117.844z"/>
	<path display="inline" fill="#EFC06A" stroke="#000000" stroke-miterlimit="10" d="M229.139,121.465
		c0.31-0.081,1.753-1.974,1.986-2.066c-0.228-1.359-2.107-1.882-2.781-2.277c-0.924-0.542-5.469-1.812-6.281,0.448
		c-0.213,0.593,1.265,3.177,0.999,4.126C225.128,121.437,227.188,121.976,229.139,121.465z"/>
	<path display="inline" fill="#EFC06A" stroke="#000000" stroke-miterlimit="10" d="M219.933,118.786
		c0.701-0.219,1.805-0.278,2.526-0.564c-0.228-1.359-1.022-3.371-1.696-3.767c-0.924-0.542-3.458,0.164-4.173,0.963
		c-0.528,0.591-1.071,2.345-1.284,3.291C216.88,118.761,218.43,119.255,219.933,118.786z"/>
	<path display="inline" fill="#EFC06A" stroke="#000000" stroke-miterlimit="10" d="M220.49,121.975
		c0.502-0.039,1.185-0.093,1.528-0.143c0.964-0.139,1.911-0.253,2.848-0.329c-0.147-1.139-0.471-2.303-0.887-2.665
		c-0.809-0.703-3.43-0.475-4.279,0.18c-0.587,0.451-1.367,1.893-1.78,2.808C218.771,121.853,219.633,121.94,220.49,121.975z"/>
	<path display="inline" fill="#EFC06A" stroke="#000000" stroke-miterlimit="10" d="M216.562,122.184
		c0.5,0.157,1.437,0.145,1.875,0.156c0.661,0.019,1.152,0.001,1.393-0.405c-0.075-1.329-0.451-2.979-0.961-3.422
		c-0.809-0.703-3.43-0.475-4.279,0.18c-0.606,0.467-1.421,1.992-1.822,2.899c0.509,0.008,1.015,0.01,1.524,0.02
		C215.058,121.627,215.834,122.034,216.562,122.184z"/>
	<path display="inline" fill="#EFC06A" stroke="#000000" stroke-miterlimit="10" d="M214.292,121.611
		c0.046,0.001,0.09,0.008,0.136,0.01c0.073-0.029,0.157-0.054,0.224-0.086c1.224-1.782-0.521-5.099-1.234-5.414
		c-3.042-1.344-4.183,2.222-4.834,3.074c-0.337,0.441-0.634,1.45-0.831,2.347C209.929,121.547,212.105,121.567,214.292,121.611z"/>
	<path display="inline" fill="#EFC06A" stroke="#000000" stroke-miterlimit="10" d="M209.945,121.556
		c0.502-0.126,1.66,0.193,2.055,0.001c-0.332-1.337-2.174-4.641-2.875-4.982c-0.964-0.47-3.349-0.607-4,0.245
		c-0.395,0.517-0.569,3.757-0.757,4.737C206.229,121.54,208.089,121.539,209.945,121.556z"/>
	<path display="inline" fill="#EFC06A" stroke="#000000" stroke-miterlimit="10" d="M202.35,121.563
		c0.244-0.072,0.478-0.151,0.677-0.249c-0.332-1.337,2.391-3.745-0.818-4.689c-1.028-0.303-4.557,0.8-5.208,1.652
		c-0.273,0.358-0.758,0.683-1.154,1.424C197.641,120.699,199.682,121.556,202.35,121.563z"/>
	<path display="inline" fill="#EFC06A" stroke="#000000" stroke-miterlimit="10" d="M202.932,121.562
		c1.597-0.022,3.186-0.023,4.775-0.021c-0.362-1.328-1.263-3.144-1.938-3.473c-0.964-0.47-3.45-0.2-4.102,0.652
		c-0.314,0.412-0.559,1.754-0.756,2.603C201.515,121.359,202.157,121.573,202.932,121.562z"/>
	<g display="inline">
		<path fill="#EFC06A" d="M195.846,146.444c0,0,4.039-6.417,3.972-12.167"/>
		<path d="M195.846,146.444c0,0,0.291-0.76,0.727-1.898c0.219-0.561,0.475-1.215,0.748-1.915c0.155-0.341,0.252-0.718,0.399-1.081
			c0.137-0.367,0.275-0.739,0.415-1.112c0.122-0.377,0.245-0.754,0.365-1.125c0.104-0.375,0.286-0.727,0.354-1.09
			c0.086-0.36,0.187-0.705,0.279-1.034c0.081-0.331,0.208-0.64,0.259-0.932c0.199-1.168,0.425-1.979,0.425-1.979
			s0.113,0.802,0.145,2.055c0.011,0.313-0.054,0.641-0.094,0.993c-0.046,0.352-0.093,0.725-0.159,1.107
			c-0.048,0.389-0.176,0.766-0.283,1.157c-0.115,0.39-0.232,0.785-0.349,1.181c-0.311,0.761-0.601,1.532-0.953,2.216
			c-0.357,0.682-0.692,1.314-1.044,1.821C196.423,145.848,195.846,146.444,195.846,146.444z"/>
	</g>
	<g display="inline">
		<path fill="#EFC06A" d="M196.375,152.345c0,0,10.035-14.942,6.143-20.817"/>
		<path d="M196.375,152.345c0,0,0.639-1.259,1.596-3.146c0.941-1.888,2.182-4.405,3.217-6.99c0.26-0.646,0.512-1.294,0.729-1.941
			c0.213-0.648,0.437-1.282,0.597-1.909c0.17-0.625,0.31-1.233,0.416-1.815c0.101-0.583,0.162-1.136,0.196-1.65
			c0.015-0.513,0.005-0.983-0.035-1.402c-0.062-0.412-0.122-0.777-0.226-1.062c-0.078-0.296-0.182-0.513-0.247-0.665
			s-0.101-0.234-0.101-0.234s0.052,0.072,0.147,0.207c0.093,0.138,0.259,0.328,0.381,0.619c0.153,0.278,0.276,0.641,0.41,1.064
			c0.049,0.217,0.101,0.446,0.156,0.689c0.027,0.247,0.057,0.507,0.088,0.777c0.029,0.544,0.031,1.136-0.03,1.755
			c-0.061,0.618-0.148,1.269-0.301,1.926c-0.143,0.66-0.315,1.335-0.536,2.005c-0.214,0.672-0.46,1.343-0.718,2.01
			c-1.069,2.65-2.48,5.127-3.648,6.903c-0.58,0.892-1.119,1.599-1.484,2.099C196.608,152.076,196.375,152.345,196.375,152.345z"/>
	</g>
	<g display="inline">
		<path fill="#EFC06A" d="M202.562,147.121c0,0,3.766-7.547,3.164-10.695"/>
		<path d="M202.562,147.121c0,0,0.164-0.705,0.482-1.713c0.312-1.013,0.776-2.332,1.226-3.646c0.46-1.311,0.9-2.617,1.156-3.618
			c0.067-0.251,0.125-0.481,0.157-0.688c0.034-0.206,0.09-0.391,0.091-0.541c0.033-0.311,0.052-0.488,0.052-0.488
			s0.059,0.165,0.147,0.476c0.054,0.156,0.068,0.347,0.093,0.568c0.032,0.225,0.044,0.476,0.029,0.747
			c0.002,0.276-0.015,0.572-0.062,0.879c-0.032,0.312-0.082,0.635-0.158,0.964c-0.126,0.666-0.34,1.351-0.562,2.03
			c-0.244,0.672-0.507,1.335-0.795,1.938c-0.285,0.604-0.577,1.154-0.853,1.613C203.026,146.563,202.562,147.121,202.562,147.121z"
			/>
	</g>
	<g display="inline">
		<path d="M197.576,136.426c0,0,0.656,0.409,1.675,0.842c0.508,0.219,1.109,0.438,1.763,0.616c0.325,0.097,0.667,0.167,1.015,0.232
			c0.344,0.088,0.704,0.109,1.06,0.156c0.355,0.051,0.716,0.047,1.069,0.074c0.355-0.005,0.706-0.01,1.045-0.015
			c0.34-0.03,0.669-0.06,0.981-0.088c0.314-0.023,0.605-0.096,0.883-0.128c0.556-0.065,1.007-0.192,1.336-0.249
			c0.332-0.057,0.521-0.09,0.521-0.09s-0.159,0.104-0.449,0.275c-0.293,0.162-0.705,0.431-1.256,0.617
			c-0.273,0.097-0.563,0.236-0.891,0.307c-0.326,0.077-0.671,0.17-1.033,0.23c-0.366,0.033-0.745,0.094-1.134,0.105
			c-0.388-0.017-0.784-0.001-1.178-0.046c-0.391-0.062-0.786-0.101-1.161-0.208c-0.383-0.077-0.742-0.211-1.088-0.343
			c-0.351-0.114-0.662-0.3-0.964-0.444c-0.292-0.17-0.568-0.326-0.801-0.506C198.007,137.089,197.576,136.426,197.576,136.426z"/>
	</g>
	<g display="inline">
		<path d="M196.5,139.402c0,0,0.861,0.191,2.129,0.43c0.637,0.112,1.373,0.246,2.164,0.351c0.393,0.071,0.806,0.084,1.218,0.148
			c0.415,0.036,0.837,0.077,1.258,0.095c0.421,0.01,0.844,0.062,1.257,0.039c0.413-0.016,0.824,0.015,1.216-0.029
			c0.394-0.031,0.778-0.034,1.136-0.094c0.356-0.057,0.708-0.064,1.017-0.142c0.311-0.065,0.602-0.115,0.861-0.159
			c0.254-0.067,0.475-0.126,0.657-0.174c0.374-0.09,0.588-0.141,0.588-0.141s-0.186,0.118-0.511,0.324
			c-0.323,0.218-0.816,0.471-1.445,0.704c-0.307,0.142-0.66,0.218-1.031,0.321c-0.369,0.112-0.769,0.178-1.184,0.235
			c-0.415,0.072-0.847,0.102-1.286,0.118c-0.44,0.035-0.885-0.004-1.331-0.006c-0.888-0.065-1.771-0.181-2.579-0.377
			c-0.81-0.182-1.546-0.426-2.162-0.666C197.234,139.904,196.5,139.402,196.5,139.402z"/>
	</g>
	<g display="inline">
		<path d="M196.5,141.936c0,0,0.513,0.318,1.262,0.736c0.375,0.21,0.815,0.436,1.285,0.666c0.478,0.213,0.979,0.449,1.504,0.612
			c0.258,0.097,0.518,0.186,0.78,0.244c0.261,0.073,0.518,0.141,0.771,0.186c0.505,0.101,0.99,0.177,1.412,0.198
			c0.424,0.042,0.784,0.049,1.042,0.049c0.258,0.009,0.412,0.021,0.412,0.021s-0.132,0.068-0.373,0.174
			c-0.241,0.11-0.595,0.252-1.045,0.328c-0.224,0.058-0.47,0.096-0.732,0.1c-0.263,0.019-0.544,0.041-0.829,0.003
			c-0.578-0.025-1.186-0.162-1.767-0.359c-0.58-0.204-1.13-0.48-1.607-0.791c-0.475-0.315-0.887-0.65-1.201-0.977
			C196.771,142.488,196.5,141.936,196.5,141.936z"/>
	</g>
	<g display="inline">
		<path d="M193.483,120.559c0,0,0.106,0.062,0.306,0.178c0.201,0.11,0.497,0.272,0.874,0.478c0.771,0.396,1.883,0.946,3.258,1.527
			c1.376,0.576,3.002,1.214,4.784,1.78c0.886,0.302,1.814,0.568,2.761,0.833c0.94,0.288,1.921,0.485,2.889,0.735
			c0.973,0.227,1.956,0.405,2.92,0.607c0.972,0.157,1.929,0.312,2.854,0.463c0.93,0.128,1.832,0.217,2.687,0.32
			c0.854,0.116,1.668,0.135,2.417,0.198c0.749,0.043,1.436,0.119,2.047,0.117c0.61,0.014,1.143,0.025,1.581,0.035
			c0.878,0.02,1.379,0.03,1.379,0.03s-0.501,0.005-1.379,0.013c-0.438,0.004-0.972,0.009-1.583,0.015
			c-0.612,0.021-1.301-0.034-2.054-0.055c-0.751-0.04-1.569-0.032-2.429-0.123c-0.859-0.076-1.769-0.138-2.705-0.237
			c-0.935-0.122-1.9-0.248-2.882-0.376c-0.975-0.172-1.971-0.321-2.957-0.519c-0.981-0.221-1.977-0.391-2.934-0.65
			c-0.963-0.237-1.909-0.478-2.813-0.754c-1.819-0.517-3.484-1.11-4.9-1.652c-1.414-0.546-2.566-1.072-3.37-1.453
			c-0.399-0.203-0.714-0.362-0.928-0.471c-0.211-0.114-0.323-0.175-0.323-0.175L193.483,120.559z"/>
	</g>
	<path display="inline" fill="#EFC06A" stroke="#000000" stroke-miterlimit="10" d="M198.375,158.744
		c0,1.951-1.582,3.533-3.533,3.533h-8.059c-1.951,0-3.533-1.582-3.533-3.533l0,0c0-1.951,3.549-3.533,5.5-3.533l5-0.434
		C195.701,154.777,198.375,156.793,198.375,158.744L198.375,158.744z"/>
	<path display="inline" fill="#EFC06A" stroke="#000000" stroke-miterlimit="10" d="M206.773,166.015
		c-0.529,1.878-2.48,2.973-4.358,2.444l-7.758-2.183c-1.878-0.528-2.973-2.479-2.444-4.357l0,0c0.528-1.879,4.373-2.44,6.252-1.912
		l4.931,0.937C205.273,161.472,207.302,164.137,206.773,166.015L206.773,166.015z"/>
	<path display="inline" fill="#EFC06A" stroke="#000000" stroke-miterlimit="10" d="M186.639,151.509
		c-0.529,1.878-1.632,3.901-3.51,3.373l-7.358-1.302c-1.878-0.528-2.973-2.479-2.444-4.357l0,0c0.528-1.879,4.373-2.44,6.252-1.912
		l4.931,0.937c1.878,0.528,1.959,0.347,2.426,1.811C187.047,150.41,186.639,151.509,186.639,151.509z"/>
</g>
<g id="highscore">
	<g>
		<text transform="matrix(1 0 0 1 51.5557 96.1582)"><tspan x="0" y="0" font-family="'Neucha'" font-size="24.4995">1. M3G4-tatis</tspan><tspan x="0" y="29.399" font-family="'Neucha'" font-size="24.4995">2. Else-Britt</tspan><tspan x="0" y="58.799" font-family="'Neucha'" font-size="24.4995">3. Professorn</tspan><tspan x="0" y="88.198" font-family="'Neucha'" font-size="24.4995">4. Snubben innan</tspan><tspan x="0" y="117.598" font-family="'Neucha'" font-size="24.4995">5. Du</tspan></text>
		<text transform="matrix(1 0 0 1 205.0859 96.1582)"><tspan x="0" y="0" font-family="'Neucha'" font-size="24.4995">9998</tspan><tspan x="0" y="29.399" font-family="'Neucha'" font-size="24.4995">7233</tspan><tspan x="0" y="58.799" font-family="'Neucha'" font-size="24.4995">0254</tspan><tspan x="0" y="88.198" font-family="'Neucha'" font-size="24.4995">0100</tspan><tspan x="0" y="117.598" font-family="'Neucha'" font-size="24.4995">0000</tspan></text>
	</g>
	
		<text transform="matrix(1 0 0 1 76.6777 48.792)" fill="none" stroke="#000000" stroke-width="5" font-family="'Neucha'" font-size="39.1991">High Score</text>
	<text transform="matrix(1 0 0 1 76.6777 48.792)" fill="#EEBF68" font-family="'Neucha'" font-size="39.1991">High Score</text>
</g>
</svg>
