<?xml version="1.0" encoding="utf-8"?>
<!-- Generator: Adobe Illustrator 16.0.4, SVG Export Plug-In . SVG Version: 6.00 Build 0)  -->
<!DOCTYPE svg PUBLIC "-//W3C//DTD SVG 1.1//EN" "http://www.w3.org/Graphics/SVG/1.1/DTD/svg11.dtd">
<svg version="1.1" xmlns="http://www.w3.org/2000/svg" xmlns:xlink="http://www.w3.org/1999/xlink" x="0px" y="0px" width="288px"
	 height="256px" viewBox="0 0 288 256" enable-background="new 0 0 288 256" xml:space="preserve">
<g id="Bakgrund" display="none">
	<g display="inline">
		<polygon points="4.333,202.86 9.942,190.833 9.955,190.807 9.983,190.799 34.618,184.015 34.48,184.205 33.068,161.543 
			33.041,161.103 33.444,161.286 52.458,169.921 52.035,170.222 50.935,158.432 50.895,158.008 51.313,158.092 75.069,162.85 
			74.649,163.17 75.627,148.752 75.663,148.229 76.146,148.434 96.823,157.157 96.432,157.2 111.747,146.175 111.976,146.011 
			112.22,146.154 125.233,153.8 124.829,153.77 143.816,146.071 144.097,145.957 144.325,146.158 152.656,153.493 152.099,153.431 
			170.449,143.461 170.871,143.232 171.077,143.664 175.062,152.004 174.552,151.771 194.227,146.469 194.477,146.401 
			194.643,146.599 203.625,157.281 203.204,157.168 225.552,149.205 225.913,149.076 226.001,149.449 228.647,160.786 
			228.255,160.547 250.931,154.918 251.202,154.852 251.274,155.119 254.256,166.124 253.945,165.935 268.962,162.847 
			269.033,162.832 269.095,162.869 279.899,169.418 279.769,169.637 268.905,163.186 269.038,163.208 254.055,166.454 
			253.811,166.507 253.744,166.264 250.726,155.27 251.069,155.471 228.411,161.174 228.094,161.254 228.019,160.935 
			225.333,149.605 225.782,149.85 203.462,157.887 203.213,157.977 203.041,157.773 194.023,147.122 194.439,147.252 
			174.782,152.618 174.43,152.714 174.271,152.385 170.257,144.058 170.885,144.26 152.567,154.29 152.268,154.454 152.01,154.228 
			143.675,146.897 144.184,146.984 125.172,154.619 124.961,154.704 124.767,154.589 111.78,146.9 112.252,146.88 96.901,157.854 
			96.717,157.986 96.51,157.897 75.854,149.121 76.373,148.804 75.351,163.219 75.322,163.618 74.931,163.539 51.188,158.713 
			51.565,158.373 52.632,170.167 52.679,170.683 52.209,170.467 33.224,161.769 33.599,161.512 34.852,184.184 34.861,184.335 
			34.715,184.374 10.017,190.922 10.058,190.888 		"/>
	</g>
	<g display="inline">
		<line fill="#FFFFFF" x1="34.667" y1="184.194" x2="29.875" y2="108.527"/>
		<polygon points="34.167,184.226 29.875,108.527 35.166,184.163 		"/>
	</g>
	<g display="inline">
		<line fill="#FFFFFF" x1="10.5" y1="190.699" x2="7.25" y2="175.777"/>
		<polygon points="10.011,190.806 7.25,175.777 10.989,190.593 		"/>
	</g>
	<g display="inline">
		<line fill="#FFFFFF" x1="52.333" y1="170.194" x2="46" y2="94.661"/>
		<polygon points="51.835,170.236 46,94.661 52.832,170.152 		"/>
	</g>
	<g display="inline">
		<line fill="#FFFFFF" x1="74.984" y1="163.64" x2="79.167" y2="97.694"/>
		<polygon points="74.485,163.608 79.167,97.694 75.483,163.671 		"/>
	</g>
	<g display="inline">
		<line fill="#FFFFFF" x1="96.667" y1="157.527" x2="96.531" y2="120.694"/>
		<polygon points="96.167,157.529 96.531,120.694 97.167,157.525 		"/>
	</g>
	<g display="inline">
		<line fill="#FFFFFF" x1="111.967" y1="146.444" x2="111.832" y2="109.611"/>
		<polygon points="111.467,146.446 111.832,109.611 112.467,146.442 		"/>
	</g>
	<g display="inline">
		<line fill="#FFFFFF" x1="144.068" y1="146.444" x2="146.5" y2="109.611"/>
		<polygon points="143.569,146.411 146.5,109.611 144.567,146.478 		"/>
	</g>
	<g display="inline">
		<line fill="#FFFFFF" x1="125" y1="154.194" x2="127.432" y2="117.361"/>
		<polygon points="124.501,154.161 127.432,117.361 125.499,154.228 		"/>
	</g>
	<g display="inline">
		<line fill="#FFFFFF" x1="152.547" y1="154.194" x2="154.979" y2="134.277"/>
		<polygon points="152.051,154.134 154.979,134.277 153.043,154.255 		"/>
	</g>
	<g display="inline">
		<line fill="#FFFFFF" x1="170.762" y1="144.621" x2="173.193" y2="124.704"/>
		<polygon points="170.266,144.561 173.193,124.704 171.258,144.682 		"/>
	</g>
	<g display="inline">
		<line fill="#FFFFFF" x1="174.93" y1="152.345" x2="187.25" y2="90.527"/>
		<polygon points="174.439,152.247 187.25,90.527 175.42,152.442 		"/>
	</g>
	<g display="inline">
		<line fill="#FFFFFF" x1="194.496" y1="146.444" x2="200.656" y2="91.527"/>
		<polygon points="193.999,146.389 200.656,91.527 194.993,146.5 		"/>
	</g>
	<g display="inline">
		<line fill="#FFFFFF" x1="203.778" y1="157.567" x2="206.858" y2="124.146"/>
		<polygon points="203.28,157.521 206.858,124.146 204.276,157.613 		"/>
	</g>
	<g display="inline">
		<line fill="#FFFFFF" x1="225.309" y1="149.693" x2="231.125" y2="97.402"/>
		<polygon points="224.812,149.638 231.125,97.402 225.806,149.749 		"/>
	</g>
	<g display="inline">
		<line fill="#FFFFFF" x1="228.558" y1="160.637" x2="234.75" y2="112.215"/>
		<polygon points="228.062,160.573 234.75,112.215 229.054,160.7 		"/>
	</g>
	<g display="inline">
		<line fill="#FFFFFF" x1="250.775" y1="155.211" x2="250.775" y2="105.027"/>
		<polygon points="250.275,155.211 250.775,105.027 251.275,155.211 		"/>
	</g>
	<g display="inline">
		<line fill="#FFFFFF" x1="254.571" y1="165.771" x2="256.285" y2="133.277"/>
		<polygon points="254.072,165.744 256.285,133.277 255.07,165.797 		"/>
	</g>
	<g display="inline">
		<line fill="#FFFFFF" x1="269.049" y1="163.045" x2="270.764" y2="112.215"/>
		<polygon points="268.549,163.028 270.764,112.215 269.549,163.062 		"/>
	</g>
</g>
<g id="Layer_5" display="none">
	<g display="inline">
		<line fill="#EFC06A" x1="91.195" y1="155.211" x2="128.95" y2="252.336"/>
		<polygon points="91.661,155.029 128.95,252.336 90.729,155.393 		"/>
	</g>
	<g display="inline">
		<line fill="#EFC06A" x1="227.817" y1="158.666" x2="278.475" y2="250.358"/>
		<polygon points="228.255,158.424 278.475,250.358 227.38,158.908 		"/>
	</g>
	<g display="inline">
		<path fill="#EFC06A" d="M186.156,184.701"/>
	</g>
	<g display="inline">
		<path fill="#EFC06A" d="M206.234,102.956"/>
	</g>
	<g display="inline">
		<line fill="#EFC06A" x1="235.936" y1="173.36" x2="235.936" y2="220.736"/>
		<polygon points="236.436,173.36 235.936,220.736 235.436,173.36 		"/>
	</g>
	<g display="inline">
		<line fill="#EFC06A" x1="228.278" y1="159.501" x2="227.817" y2="213.309"/>
		<polygon points="228.778,159.505 227.817,213.309 227.778,159.497 		"/>
	</g>
	<g display="inline">
		<line fill="#EFC06A" x1="261.229" y1="211.464" x2="259.027" y2="248"/>
		<polygon points="261.728,211.494 259.027,248 260.729,211.434 		"/>
	</g>
	<path display="inline" fill="#EFC06A" stroke="#000000" stroke-miterlimit="10" d="M262.598,206.994
		c-5.755,5.729-13.894,10.291-19.322,14.71c-11.276,9.18-22.334,16.739-36.208,21.432c-15.456,5.229-29.151,4.879-44.988,2.128
		c-6.426-1.117-12.791-2.529-19.252-3.424c-6.411-0.889-15.202-1.666-19.201-7.537c-1.045-1.528-3.35,0.181-2.31,1.706
		c6.673,9.789,24.868,9.249,35.126,11.17c8.387,1.565,16.79,3.386,25.342,3.511c8.153,0.121,16.251-1.836,24.013-4.143
		c15.938-4.742,28.25-13.633,40.994-24.008c5.171-4.211,11.98-8.183,17.276-13.177C263.456,208.644,262.961,207.853,262.598,206.994
		z"/>
	<path display="inline" fill="#EFC06A" stroke="#000000" stroke-miterlimit="10" d="M248.669,186.953
		c-5.757,5.73-13.893,10.291-19.323,14.714c-11.276,9.177-22.333,16.739-36.209,21.429c-15.455,5.228-29.149,4.878-44.988,2.127
		c-6.425-1.116-12.791-2.525-19.252-3.423c-5.914-0.821-13.804-1.595-18.139-6.309c-0.084,1.146-0.333,2.269-0.747,3.34
		c7.986,6.82,23.376,6.6,32.504,8.309c8.384,1.567,16.789,3.385,25.341,3.51c8.152,0.121,16.249-1.836,24.01-4.141
		c15.939-4.741,28.252-13.634,40.996-24.01c5.17-4.21,11.979-8.184,17.276-13.176C249.526,188.605,249.029,187.813,248.669,186.953z
		"/>
	<path display="inline" fill="#EFC06A" stroke="#000000" stroke-miterlimit="10" d="M256.148,132.609
		c-2.563,11.258-17.402,18.386-25.767,25.197c-11.276,9.18-22.333,16.739-36.21,21.432c-15.452,5.227-29.148,4.878-44.986,2.127
		c-6.427-1.116-12.791-2.528-19.252-3.423c-2.917-0.406-6.319-0.81-9.543-1.658c-0.545,0.998-1.239,1.904-2.09,2.655
		c8.118,2.859,18.43,3.065,25.249,4.341c8.385,1.569,16.79,3.387,25.341,3.511c8.154,0.122,16.251-1.835,24.011-4.144
		c15.939-4.738,28.251-13.63,40.996-24.007c8.792-7.16,22.359-13.611,25.09-25.604C259.397,131.23,256.559,130.817,256.148,132.609z
		"/>
	<path display="inline" fill="#EFC06A" stroke="#000000" stroke-miterlimit="10" d="M116.391,222.262
		c-0.324,2.156-2.332,3.64-4.489,3.314l0,0c-2.156-0.324-3.639-2.333-3.314-4.489l8.888-59.062c0.324-2.155,2.332-3.638,4.488-3.313
		l0,0c2.157,0.325,3.64,2.333,3.315,4.488L116.391,222.262z"/>
	<path display="inline" fill="#EFC06A" stroke="#000000" stroke-miterlimit="10" d="M254.976,186.262
		c-0.324,2.155-2.333,3.639-4.488,3.314l0,0c-2.156-0.324-3.64-2.333-3.315-4.488l8.888-59.062c0.324-2.154,2.333-3.639,4.489-3.314
		l0,0c2.155,0.324,3.639,2.334,3.314,4.488L254.976,186.262z"/>
	<polygon display="inline" fill="#EFC06A" stroke="#000000" stroke-miterlimit="10" points="123.043,215.298 137.018,248.825 
		160.904,252.315 143.379,219.978 	"/>
	<polygon display="inline" fill="#EFC06A" stroke="#000000" stroke-miterlimit="10" points="153.226,218.815 170.476,253.859 
		194.236,253.269 174.04,221.947 	"/>
	<polygon display="inline" fill="#EFC06A" stroke="#000000" stroke-miterlimit="10" points="185.604,220.646 208.21,250.408 
		231.76,243.068 202.077,215.629 	"/>
	<polygon display="inline" fill="#EFC06A" stroke="#000000" stroke-miterlimit="10" points="211.912,210.394 235.272,240.213 
		253.625,228.46 224.495,201.261 	"/>
	<polygon display="inline" fill="#EFC06A" stroke="#000000" stroke-miterlimit="10" points="233.151,197.166 256.301,226.54 
		262.975,214.199 245.953,187.646 	"/>
	<path display="inline" fill="#EFC06A" stroke="#000000" stroke-miterlimit="10" d="M270.955,160.701
		c-5.747,6.577-15.004,11.613-20.979,16.48c-11.276,9.177-22.334,16.738-36.208,21.43c-15.456,5.226-29.151,4.877-44.988,2.125
		c-6.426-1.116-12.791-2.528-19.252-3.423c-6.41-0.889-15.203-1.663-19.202-7.534c-1.044-1.532-3.349,0.177-2.308,1.702
		c6.672,9.793,24.867,9.251,35.125,11.171c8.387,1.568,16.79,3.386,25.342,3.51c8.154,0.121,16.251-1.834,24.013-4.142
		c15.938-4.738,28.25-13.631,40.994-24.007c5.604-4.565,13.142-8.847,18.582-14.457
		C271.548,162.672,271.185,161.704,270.955,160.701z"/>
	<path display="inline" fill="#EFC06A" stroke="#000000" stroke-miterlimit="10" d="M268.169,210.912
		c-0.324,2.155-2.334,3.64-4.492,3.315l0,0c-2.156-0.324-3.639-2.335-3.314-4.489l8.887-59.062c0.325-2.155,2.334-3.639,4.49-3.313
		l0,0c2.158,0.324,3.642,2.333,3.316,4.488L268.169,210.912z"/>
	<path display="inline" fill="#EFC06A" stroke="#000000" stroke-miterlimit="10" d="M122.261,247
		c-0.324,2.155-2.333,3.639-4.487,3.314l0,0c-2.157-0.324-3.641-2.333-3.316-4.488l8.888-59.062c0.325-2.157,2.333-3.64,4.49-3.315
		l0,0c2.155,0.324,3.639,2.332,3.313,4.489L122.261,247z"/>
</g>
<g id="proffesorn" display="none">
	<path display="inline" fill="#EFC06A" stroke="#000000" stroke-miterlimit="10" d="M108.614,167.422
		c-1.916-28.156-14.951-51.1-33.396-51.1c-18.444,0-31.364,22.951-33.396,51.1c-2.625,36.378,3.72,23.014,37.375,25.378
		C119.127,195.604,109.866,185.8,108.614,167.422z"/>
	<path display="inline" fill="#EFC06A" stroke="#000000" stroke-miterlimit="10" d="M77.198,193.329c0,3.358-5.149,6.081-11.5,6.081
		s-14.333-2.723-14.333-6.081c0-3.357,7.982-6.08,14.333-6.08S77.198,189.972,77.198,193.329z"/>
	<path display="inline" fill="#EFC06A" stroke="#000000" stroke-miterlimit="10" d="M107.023,191.829
		c0,3.358-5.149,6.081-11.5,6.081s-15.595-1.702-15.595-5.061c0-3.357,9.245-7.101,15.595-7.101S107.023,188.472,107.023,191.829z"
		/>
	<g display="inline">
		<path d="M49.948,188.717c0,0,0.333-0.319,0.964-0.82c0.637-0.492,1.55-1.203,2.734-1.925c0.589-0.365,1.242-0.738,1.943-1.115
			c0.707-0.367,1.455-0.756,2.266-1.077c0.804-0.337,1.652-0.651,2.535-0.912c0.886-0.246,1.793-0.483,2.724-0.62
			c0.927-0.15,1.87-0.211,2.798-0.22c0.929,0.013,1.846,0.091,2.714,0.272c0.874,0.149,1.693,0.428,2.439,0.74
			s1.428,0.665,2.013,1.055c0.611,0.35,1.083,0.797,1.526,1.146c0.402,0.401,0.766,0.732,1.037,1.032
			c0.514,0.621,0.808,0.977,0.808,0.977s-0.343-0.304-0.943-0.836c-0.302-0.261-0.699-0.542-1.133-0.881
			c-0.476-0.283-0.976-0.652-1.581-0.952c-0.585-0.33-1.259-0.616-1.984-0.857c-0.366-0.115-0.736-0.245-1.132-0.318
			c-0.391-0.091-0.787-0.188-1.202-0.236c-0.819-0.148-1.684-0.162-2.558-0.175c-0.875,0.02-1.766,0.089-2.647,0.241
			c-0.886,0.118-1.759,0.335-2.614,0.561c-0.849,0.247-1.687,0.497-2.478,0.801c-1.586,0.592-3.047,1.229-4.255,1.864
			c-1.209,0.632-2.22,1.171-2.899,1.596C50.335,188.467,49.948,188.717,49.948,188.717z"/>
	</g>
	<g display="inline">
		<path d="M81.448,187.249c0,0,0.321-0.244,0.923-0.614c0.602-0.367,1.471-0.887,2.565-1.413c0.553-0.248,1.146-0.532,1.793-0.793
			c0.648-0.255,1.324-0.55,2.058-0.761c0.722-0.243,1.48-0.462,2.265-0.636c0.773-0.213,1.59-0.302,2.393-0.452
			c0.812-0.098,1.633-0.144,2.436-0.19c0.809,0.028,1.605,0.008,2.369,0.115c0.761,0.13,1.51,0.17,2.182,0.405
			c0.672,0.221,1.328,0.347,1.885,0.612c0.562,0.25,1.066,0.5,1.508,0.721c0.432,0.242,0.77,0.522,1.064,0.716
			c0.578,0.411,0.895,0.653,0.895,0.653s-0.362-0.177-0.996-0.486c-0.315-0.149-0.676-0.373-1.125-0.549
			c-0.463-0.149-0.98-0.319-1.532-0.524c-0.552-0.209-1.2-0.273-1.853-0.43c-0.326-0.084-0.67-0.122-1.025-0.14
			c-0.352-0.033-0.712-0.067-1.077-0.102c-0.729-0.078-1.495,0.002-2.263-0.026c-0.771,0.056-1.556,0.112-2.334,0.216
			c-0.775,0.134-1.562,0.206-2.316,0.403c-0.76,0.164-1.51,0.321-2.222,0.535c-1.437,0.381-2.761,0.815-3.884,1.228
			c-0.559,0.215-1.071,0.412-1.526,0.586c-0.453,0.18-0.848,0.339-1.168,0.483C81.816,187.088,81.448,187.249,81.448,187.249z"/>
	</g>
	<g display="inline">
		<path d="M81.448,183.6c0,0,0.321-0.244,0.923-0.614c0.602-0.367,1.471-0.887,2.565-1.413c0.553-0.248,1.146-0.532,1.793-0.793
			c0.648-0.255,1.324-0.55,2.058-0.761c0.722-0.243,1.48-0.462,2.265-0.636c0.773-0.213,1.59-0.302,2.393-0.452
			c0.812-0.098,1.633-0.144,2.436-0.19c0.809,0.028,1.605,0.008,2.369,0.115c0.761,0.13,1.51,0.17,2.182,0.405
			c0.672,0.221,1.328,0.347,1.885,0.611c0.562,0.251,1.066,0.501,1.508,0.722c0.432,0.242,0.77,0.522,1.064,0.716
			c0.578,0.411,0.895,0.653,0.895,0.653s-0.362-0.177-0.996-0.486c-0.315-0.149-0.676-0.373-1.125-0.549
			c-0.463-0.149-0.98-0.319-1.532-0.524c-0.552-0.209-1.2-0.273-1.853-0.43c-0.326-0.084-0.67-0.122-1.025-0.14
			c-0.352-0.033-0.712-0.067-1.077-0.102c-0.729-0.078-1.495,0.002-2.263-0.026c-0.771,0.056-1.556,0.112-2.334,0.216
			c-0.775,0.134-1.562,0.206-2.316,0.403c-0.76,0.164-1.51,0.321-2.222,0.535c-1.437,0.381-2.761,0.815-3.884,1.228
			c-0.559,0.215-1.071,0.412-1.526,0.586c-0.453,0.18-0.848,0.339-1.168,0.483C81.816,183.438,81.448,183.6,81.448,183.6z"/>
	</g>
	<g display="inline">
		<path d="M48.323,183.6c0,0,0.321-0.244,0.923-0.614c0.602-0.367,1.471-0.887,2.565-1.413c0.553-0.248,1.147-0.532,1.793-0.793
			c0.648-0.255,1.324-0.55,2.058-0.761c0.722-0.243,1.48-0.462,2.265-0.636c0.774-0.213,1.59-0.302,2.393-0.452
			c0.812-0.098,1.632-0.144,2.436-0.19c0.808,0.028,1.605,0.008,2.369,0.115c0.76,0.13,1.509,0.17,2.181,0.405
			c0.672,0.221,1.329,0.347,1.886,0.611c0.562,0.251,1.065,0.501,1.507,0.722c0.431,0.242,0.77,0.522,1.064,0.716
			c0.578,0.411,0.895,0.653,0.895,0.653s-0.362-0.177-0.995-0.486c-0.316-0.149-0.676-0.373-1.126-0.549
			c-0.463-0.149-0.98-0.319-1.532-0.524c-0.551-0.209-1.201-0.273-1.853-0.43c-0.326-0.084-0.67-0.122-1.026-0.14
			c-0.352-0.033-0.711-0.067-1.077-0.102c-0.729-0.078-1.495,0.002-2.263-0.026c-0.77,0.056-1.555,0.112-2.333,0.216
			c-0.776,0.134-1.562,0.206-2.316,0.403c-0.76,0.164-1.509,0.321-2.222,0.535c-1.436,0.381-2.761,0.815-3.883,1.228
			c-0.559,0.215-1.072,0.412-1.526,0.586c-0.453,0.18-0.848,0.339-1.168,0.483C48.691,183.438,48.323,183.6,48.323,183.6z"/>
	</g>
	
		<ellipse display="inline" fill="#EFC06A" stroke="#000000" stroke-miterlimit="10" cx="76.902" cy="126.056" rx="30.121" ry="22.839"/>
	<path display="inline" fill="#EFC06A" stroke="#000000" stroke-miterlimit="10" d="M58.781,129.717"/>
	<circle display="inline" fill="#EFC06A" stroke="#000000" stroke-miterlimit="10" cx="65.948" cy="124.578" r="7.333"/>
	<circle display="inline" fill="#EFC06A" stroke="#000000" stroke-miterlimit="10" cx="69.115" cy="124.578" r="7.333"/>
	<circle display="inline" fill="#EFC06A" stroke="#000000" stroke-miterlimit="10" cx="90.281" cy="122.384" r="7.333"/>
	<circle display="inline" fill="#EFC06A" stroke="#000000" stroke-miterlimit="10" cx="93.447" cy="122.384" r="7.333"/>
	
		<line display="inline" fill="#EFC06A" stroke="#000000" stroke-miterlimit="10" x1="58.615" y1="124.578" x2="47.291" y2="121.865"/>
	
		<line display="inline" fill="#EFC06A" stroke="#000000" stroke-miterlimit="10" x1="100.616" y1="120.839" x2="104.872" y2="117.564"/>
	<path display="inline" fill="#EFC06A" stroke="#000000" stroke-miterlimit="10" d="M58.781,112.55c0,0,7.167-2.938,8.833-4"/>
	<path display="inline" fill="#EFC06A" stroke="#000000" stroke-miterlimit="10" d="M86.114,111.883
		c1.887-3.356,6.651-3.883,7.501,0"/>
	<path display="inline" fill="#EFC06A" stroke="#000000" stroke-miterlimit="10" d="M84.449,157.883c0,0,9.655,2.717,13.165,0
		c1.184-0.916-1.416,11.352-3.166,11.26c-4.476-0.234-6.531,0.594-8.334-0.321C83.648,167.568,84.449,157.883,84.449,157.883z"/>
	<path display="inline" fill="#EFC06A" stroke="#000000" stroke-miterlimit="10" d="M90.698,159.002
		c0.076-0.429,0.084-0.656,0.084-1.168c0-1.749-0.504-3.167-1.125-3.167s-1.125,1.418-1.125,3.167c0,0.438-0.059,0.415-0.001,0.794
		C88.801,158.664,90.417,158.992,90.698,159.002z"/>
	<path display="inline" fill="#EFC06A" stroke="#000000" stroke-miterlimit="10" d="M95.656,158.66
		c0.017-0.216,0.026-0.438,0.026-0.669c0-1.749-0.159-3.238-1.125-3.167c-0.619,0.046-1.406,1.261-1.406,3.01
		c0,0.463,0.057,0.633,0.121,1.029C93.522,158.791,95.196,158.757,95.656,158.66z"/>
	<path display="inline" fill="#EFC06A" stroke="#000000" stroke-miterlimit="10" d="M53.813,157.339
		c0.917-0.875,0.798-1.103,0.734-1.344c-0.297-1.125-0.352-1.328-1.525-1.328s-2.243,0.683-2.969,1.349
		c-0.316,0.29-3.977,3.799-3.977,6.295c0,3.161,2.646,5.723,5.91,5.723s5.91-2.562,5.91-5.723
		C57.897,159.814,58.251,157.589,53.813,157.339z"/>
	<path display="inline" fill="#EFC06A" stroke="#000000" stroke-miterlimit="10" d="M107.243,158.308
		c-0.917-0.875-0.799-1.103-0.734-1.344c0.297-1.125,0.352-1.328,1.525-1.328s2.242,0.683,2.969,1.349
		c0.315,0.29,3.977,3.799,3.977,6.295c0,3.161-2.646,5.723-5.91,5.723s-5.91-2.562-5.91-5.723
		C103.159,160.783,102.805,158.558,107.243,158.308z"/>
	<polygon display="inline" fill="#EFC06A" stroke="#000000" stroke-miterlimit="10" points="71.84,130.827 42.019,145.55 
		54.018,144.883 42.019,158.827 60.019,149.717 57.185,160.883 79.928,136.717 	"/>
	<polygon display="inline" fill="#EFC06A" stroke="#000000" stroke-miterlimit="10" points="91.87,130.827 121.69,145.55 
		109.691,144.883 121.69,158.827 103.69,149.717 106.524,160.883 83.781,136.717 	"/>
	
		<ellipse display="inline" fill="#EFC06A" stroke="#000000" stroke-miterlimit="10" cx="81.733" cy="131.169" rx="13.119" ry="6.619"/>
	<path display="inline" fill="#EFC06A" stroke="#000000" stroke-miterlimit="10" d="M78.772,87.744l-2.435,16.572l0,0
		c-0.083,0.754,3.129,1.733,7.176,2.186c4.048,0.452,7.396,0.207,7.482-0.547l0,0l1.712-15.311L78.772,87.744z"/>
	<path display="inline" fill="#EFC06A" stroke="#000000" stroke-miterlimit="10" d="M92.708,90.644
		c-0.303,0.697-3.109,0.92-7.094,0.073c-3.983-0.848-6.996-2.337-6.854-3.083c0.226-1.186,3.54-0.66,7.523,0.188
		C90.268,88.669,93.219,89.466,92.708,90.644z"/>
	<path display="inline" fill="#EFC06A" stroke="#000000" stroke-miterlimit="10" d="M76.491,104.046
		c0.035-0.31-0.494-0.657-1.402-0.991v-1.245l-1.603,0.769c-0.062-0.016-0.118-0.031-0.182-0.046l-0.372-1.378
		c0,0-1.295,1.038-1.627,0.982l-0.248-1.545l-1.418,1.31c-0.109-0.013-0.214-0.029-0.324-0.041
		c-0.134-0.015-0.266-0.027-0.399-0.041l-0.827-1.54l-1.491,1.376c-0.285-0.011-0.564-0.018-0.831-0.021l-2.241-1.355l0.166,1.438
		c-0.211,0.022-0.407,0.048-0.586,0.078l-1.548-0.565l0.365,1.006c-0.048,0.054-1.733,0.658-1.678,0.684
		c0.325,0.15,1.688,0.304,2.084,0.522l-0.178,0.761l2.411-0.397c0.041,0.011,0.083,0.021,0.125,0.032l0.271,0.967l2.022-0.494
		c0.115,0.02,0.232,0.038,0.349,0.056l0.601,0.72l1.743-0.426c0.209,0.02,0.416,0.037,0.62,0.053l0.483,0.579l1.943-0.475
		c0.173,0,0.343,0,0.507-0.003l0.3,1.338l1.281-1.484l1.922,0.188C76.986,104.749,76.474,104.197,76.491,104.046z"/>
	<path display="inline" fill="#EFC06A" stroke="#000000" stroke-miterlimit="10" d="M77.019,99.671c0,0,7.265,5.065,14.452,2.023"/>
	<path display="inline" fill="#EFC06A" stroke="#000000" stroke-miterlimit="10" d="M77.946,91.916c0,0,7.265,5.065,14.453,2.023"/>
	<g display="inline">
		<path fill="#EFC06A" d="M83.417,89.237c0,0-5.875-2.156,1.312-0.642"/>
		<path d="M83.417,89.237c0,0-0.391-0.057-0.954-0.223c-0.278-0.092-0.608-0.186-0.951-0.341c-0.085-0.04-0.173-0.083-0.263-0.132
			c-0.047-0.03-0.089-0.049-0.142-0.091c-0.047-0.047-0.104-0.053-0.176-0.226c-0.046-0.09,0.011-0.256,0.112-0.326
			c0.046-0.027,0.112-0.055,0.152-0.063c0.064-0.011,0.138-0.023,0.188-0.022c0.114-0.006,0.214,0.001,0.318,0.005
			c1.588,0.158,3.029,0.778,3.029,0.778s-0.396-0.002-0.975-0.055c-0.577-0.048-1.352-0.154-2.092-0.225
			c-0.089-0.006-0.183-0.015-0.261-0.013c-0.047-0.002-0.068,0.005-0.099,0.006c-0.007,0.002,0.017-0.003,0.018-0.014
			c0.07-0.035,0.093-0.16,0.075-0.202c-0.059-0.103,0.044,0.03,0.098,0.053c0.07,0.047,0.144,0.093,0.22,0.136
			c0.305,0.172,0.599,0.342,0.857,0.473C83.08,89.03,83.417,89.237,83.417,89.237z"/>
	</g>
	<g display="inline">
		<path fill="#EFC06A" d="M85.604,89.737c0,0,9.348,1.517,1.938-0.634"/>
		<path d="M85.604,89.737c0,0,0.502,0.001,1.244,0.047c0.742,0.044,1.732,0.134,2.702,0.205c0.234,0.016,0.498,0.033,0.675,0.009
			c0.035-0.002,0.014-0.005,0.013,0.003c0.022-0.006-0.05,0.017-0.077,0.102c-0.011,0.089,0,0.101,0.002,0.128
			c0.043,0.069,0.032,0.039,0.014,0.032c-0.014-0.01-0.02-0.021-0.047-0.034c-0.086-0.053-0.188-0.101-0.288-0.148
			c-0.409-0.183-0.812-0.353-1.156-0.488c-0.688-0.279-1.144-0.492-1.144-0.492s0.498,0.058,1.229,0.223
			c0.361,0.096,0.789,0.182,1.24,0.349c0.112,0.043,0.229,0.087,0.352,0.151c0.027,0.011,0.068,0.04,0.104,0.064
			c0.031,0.027,0.072,0.03,0.139,0.157c0.021,0.053,0.051,0.09,0.013,0.206c-0.042,0.112-0.126,0.165-0.137,0.164
			c-0.058,0.029-0.134,0.055-0.161,0.056c-0.307,0.046-0.541,0.024-0.801,0.016c-1.007-0.069-1.98-0.265-2.709-0.427
			C86.081,89.896,85.604,89.737,85.604,89.737z"/>
	</g>
	<polygon display="inline" fill="#EFC06A" stroke="#000000" stroke-miterlimit="10" points="165.25,197.357 221.5,245.75 
		283.25,233.25 276,97.402 206.858,68.25 165.25,73.75 	"/>
	<path display="inline" fill="#EFC06A" stroke="#000000" stroke-miterlimit="10" d="M221,111.883L165.25,73.75L221,111.883z"/>
	<polyline display="inline" fill="#EFC06A" stroke="#000000" stroke-miterlimit="10" points="221.5,245.75 221,111.883 276,97.402 	
		"/>
	<polygon display="inline" fill="none" stroke="#000000" stroke-miterlimit="10" points="215.867,240.904 214.75,115.051 169,82.5 
		169,200.584 	"/>
	<polygon display="inline" fill="none" stroke="#000000" stroke-miterlimit="10" points="204.75,231.34 215.867,240.904 
		214.75,115.051 204.75,107.936 	"/>
	<polygon display="inline" fill="none" stroke="#000000" stroke-miterlimit="10" points="176.25,87.658 169,82.5 169,200.584 
		176.25,206.821 	"/>
	<line display="inline" fill="#EFC06A" stroke="#000000" stroke-miterlimit="10" x1="176.25" y1="195.25" x2="204.75" y2="191.83"/>
	<polygon display="inline" fill="#EFC06A" stroke="#000000" stroke-miterlimit="10" points="184,160.637 197.576,160.637 
		197.576,135.777 184,136.426 	"/>
	<polygon display="inline" fill="#EFC06A" stroke="#000000" stroke-miterlimit="10" points="188.625,153 191.875,157.567 
		195.375,151.875 	"/>
	<polygon display="inline" fill="#EFC06A" stroke="#000000" stroke-miterlimit="10" points="188.188,148.938 195.375,147.625 
		190.788,140.857 	"/>
</g>
<g id="Layer_4" display="none">
	<path display="inline" fill="#EFC06A" stroke="#000000" stroke-miterlimit="10" d="M165.437,187.938
		c2.437-6.096,4.725-10.894,3.853-17.512c-0.869-5.05-4.898-11.574-7.859-15.233c-2.786-3.481-3.9-15.219-3.9-15.219l-4.617,0.446
		c-0.405-2.957-0.374-6.057-0.016-8.914c0.348-3.309,2.089-7.663,1.219-10.973c-0.522-1.742-9.405-13.062-15.851-13.236
		c-4.877-0.174-12.003-5.373-23.86,9.405c-7.287,9.081-10.451,22.468-12.89,33.615c-0.869,3.656,0,7.489,0.349,11.32
		c0.348,5.923-0.175,12.541,1.916,18.288c1.568,4.006,5.398,6.619,8.36,9.58c3.832,4.18,8.012,6.618,12.541,9.579
		c3.656,2.613,7.488,5.922,12.366,5.051C137.047,204.137,160.733,198.911,165.437,187.938z"/>
	<ellipse display="inline" cx="128.101" cy="126.603" rx="1.992" ry="3.985"/>
	<ellipse display="inline" cx="146.953" cy="129.362" rx="1.992" ry="3.984"/>
	
		<line display="inline" fill="#EFC06A" stroke="#000000" stroke-miterlimit="10" x1="157.529" y1="139.975" x2="119.402" y2="143.884"/>
	<path display="inline" fill="#EFC06A" stroke="#000000" stroke-miterlimit="10" d="M141.794,215.744
		c0,1.607,4.391,2.913,9.808,2.913c5.419,0,9.81-1.306,9.81-2.913c0-1.608-2.194-4.729-7.612-4.729
		C148.382,211.016,141.794,214.136,141.794,215.744z"/>
	<path display="inline" fill="#EFC06A" stroke="#000000" stroke-miterlimit="10" d="M127.546,219.7c0,1.609,4.392,2.913,9.81,2.913
		c5.417,0,9.81-1.304,9.81-2.913c0-1.607-2.195-4.729-7.613-4.729S127.546,218.093,127.546,219.7z"/>
	
		<line display="inline" fill="#EFC06A" stroke="#000000" stroke-miterlimit="10" x1="144.961" y1="213.075" x2="144.961" y2="201.847"/>
	
		<line display="inline" fill="#EFC06A" stroke="#000000" stroke-miterlimit="10" x1="131.779" y1="215.858" x2="131.779" y2="203.543"/>
	
		<line display="inline" fill="#EFC06A" stroke="#000000" stroke-miterlimit="10" x1="168.182" y1="168.446" x2="155.46" y2="168.446"/>
	
		<line display="inline" fill="#EFC06A" stroke="#000000" stroke-miterlimit="10" x1="122.276" y1="186.915" x2="109.555" y2="186.915"/>
	
		<line display="inline" fill="#EFC06A" stroke="#000000" stroke-miterlimit="10" x1="115.763" y1="159.633" x2="103.04" y2="159.633"/>
	
		<line display="inline" fill="#EFC06A" stroke="#000000" stroke-miterlimit="10" x1="137.296" y1="176.799" x2="129.232" y2="176.799"/>
	
		<line display="inline" fill="#EFC06A" stroke="#000000" stroke-miterlimit="10" x1="123.435" y1="116.622" x2="115.37" y2="116.622"/>
	
		<line display="inline" fill="#EFC06A" stroke="#000000" stroke-miterlimit="10" x1="159.956" y1="194.108" x2="152.475" y2="194.108"/>
	
		<line display="inline" fill="none" stroke="#000000" stroke-miterlimit="10" x1="112.008" y1="167.525" x2="112.008" y2="199.713"/>
	<path display="inline" fill="none" stroke="#000000" stroke-miterlimit="10" d="M105.103,202.859c0,0,4.452,5.259,6.905-3.146"/>
	<path display="inline" fill="none" stroke="#000000" stroke-miterlimit="10" d="M105.868,207.631c0,0,7.314,5.417,6.14-7.918"/>
	<path display="inline" fill="none" stroke="#000000" stroke-miterlimit="10" d="M112.314,206.968c0,0,4.546-0.128-0.18-7.152"/>
	<path display="inline" fill="none" stroke="#000000" stroke-miterlimit="10" d="M116.759,201.016c0,0-2.476-1.571-4.624-2.528"/>
</g>
<g id="Layer_4_copy_2" display="none">
	
		<line display="inline" fill="#EFC06A" stroke="#000000" stroke-miterlimit="10" x1="47.395" y1="172.159" x2="233.895" y2="172.159"/>
	<g display="inline">
		<path fill="#EFC06A" stroke="#000000" stroke-miterlimit="10" d="M178.665,166.546c3.504-8.758,6.79-15.653,5.538-25.164
			c-1.249-7.256-7.04-16.633-11.294-21.891c-4.005-5.002-9.366-21.229-9.366-21.229c-0.583-4.25-0.539-8.703-0.021-12.809
			c0.499-4.755,0.126-11.013-1.123-15.769c-0.752-2.503-13.517-18.771-22.78-19.02c-7.007-0.25-17.247-7.72-34.286,13.516
			c-10.472,13.05-15.019,32.286-18.525,48.305c-1.248,5.254,0,10.763,0.502,16.269c0.5,8.511-0.252,18.021,2.754,26.279
			c2.253,5.757,7.757,9.511,12.013,13.768c5.506,6.007,11.513,9.511,18.021,13.766c5.254,3.754,10.761,8.51,17.771,7.258
			C137.87,189.824,171.906,182.315,178.665,166.546z"/>
		<path fill="#EFC06A" stroke="#000000" stroke-miterlimit="10" d="M144.691,206.506c0,2.308,6.309,4.185,14.094,4.185
			c7.787,0,14.096-1.877,14.096-4.185c0-2.313-3.151-6.796-10.938-6.796S144.691,204.192,144.691,206.506z"/>
		<path fill="#EFC06A" stroke="#000000" stroke-miterlimit="10" d="M124.217,212.188c0,2.313,6.311,4.188,14.097,4.188
			c7.783,0,14.095-1.875,14.095-4.188c0-2.308-3.155-6.792-10.94-6.792S124.217,209.88,124.217,212.188z"/>
		<line fill="#EFC06A" stroke="#000000" stroke-miterlimit="10" x1="149.243" y1="202.667" x2="149.243" y2="186.533"/>
		<line fill="#EFC06A" stroke="#000000" stroke-miterlimit="10" x1="130.3" y1="206.67" x2="130.3" y2="188.972"/>
		<line fill="#EFC06A" stroke="#000000" stroke-miterlimit="10" x1="182.611" y1="138.537" x2="164.328" y2="138.537"/>
		<line fill="#EFC06A" stroke="#000000" stroke-miterlimit="10" x1="116.643" y1="165.076" x2="98.363" y2="165.076"/>
		<line fill="#EFC06A" stroke="#000000" stroke-miterlimit="10" x1="107.283" y1="125.87" x2="89" y2="125.87"/>
		<line fill="#EFC06A" stroke="#000000" stroke-miterlimit="10" x1="138.228" y1="150.539" x2="126.641" y2="150.539"/>
		<path fill="#EFC06A" stroke="#000000" stroke-miterlimit="10" d="M106.719,64.063"/>
		<path fill="#EFC06A" stroke="#000000" stroke-miterlimit="10" d="M118.308,64.063"/>
		<line fill="#EFC06A" stroke="#000000" stroke-miterlimit="10" x1="170.79" y1="175.412" x2="160.041" y2="175.412"/>
		<line fill="none" stroke="#000000" stroke-miterlimit="10" x1="101.889" y1="137.214" x2="101.889" y2="183.468"/>
		<path fill="none" stroke="#000000" stroke-miterlimit="10" d="M91.964,187.989c0,0,6.399,7.558,9.925-4.521"/>
		<path fill="none" stroke="#000000" stroke-miterlimit="10" d="M93.065,194.846c0,0,10.511,7.783,8.824-11.378"/>
		<path fill="none" stroke="#000000" stroke-miterlimit="10" d="M102.33,193.893c0,0,6.531-0.184-0.258-10.278"/>
		<path fill="none" stroke="#000000" stroke-miterlimit="10" d="M108.714,185.34c0,0-3.556-2.26-6.643-3.635"/>
		<circle fill-rule="evenodd" clip-rule="evenodd" cx="126.641" cy="80.694" r="5.793"/>
		<g>
			<g>
				<path d="M123.455,77.32c-2.085-0.107-5.405-0.559-6.393-2.671c-0.273-0.583-1.135-0.076-0.863,0.505
					c1.156,2.47,4.822,3.042,7.256,3.166C124.1,78.353,124.096,77.353,123.455,77.32L123.455,77.32z"/>
			</g>
		</g>
		<g>
			<g>
				<path d="M121.859,78.917c-2.086-0.107-5.407-0.56-6.396-2.672c-0.273-0.583-1.135-0.076-0.863,0.505
					c1.156,2.471,4.824,3.042,7.259,3.167C122.504,79.95,122.501,78.949,121.859,78.917L121.859,78.917z"/>
			</g>
		</g>
		
			<ellipse fill-rule="evenodd" clip-rule="evenodd" fill="none" stroke="#000000" stroke-width="0.5" stroke-miterlimit="10" cx="118.492" cy="90.035" rx="5.275" ry="1.677"/>
		<circle fill-rule="evenodd" clip-rule="evenodd" cx="145.137" cy="80.694" r="5.793"/>
		<g>
			<g>
				<path d="M148.323,78.32c2.435-0.125,6.101-0.696,7.258-3.166c0.271-0.581-0.59-1.088-0.863-0.505
					c-0.989,2.111-4.309,2.564-6.395,2.671C147.682,77.353,147.679,78.353,148.323,78.32L148.323,78.32z"/>
			</g>
		</g>
		<g>
			<g>
				<path d="M149.92,79.917c2.435-0.125,6.102-0.696,7.257-3.167c0.271-0.581-0.591-1.088-0.863-0.505
					c-0.988,2.112-4.308,2.565-6.394,2.672C149.278,78.949,149.275,79.95,149.92,79.917L149.92,79.917z"/>
			</g>
		</g>
		
			<ellipse fill-rule="evenodd" clip-rule="evenodd" fill="none" stroke="#000000" stroke-width="0.5" stroke-miterlimit="10" cx="153.286" cy="90.035" rx="5.274" ry="1.677"/>
		<circle fill-rule="evenodd" clip-rule="evenodd" fill="#EFC06A" cx="125.048" cy="78.09" r="1.593"/>
		<circle fill-rule="evenodd" clip-rule="evenodd" fill="#EFC06A" cx="128.475" cy="83.837" r="0.995"/>
		<path fill-rule="evenodd" clip-rule="evenodd" fill="#EFC06A" d="M142.132,78.09c0,0.88,0.712,1.593,1.59,1.593
			c0.883,0,1.595-0.713,1.595-1.593s-0.712-1.593-1.595-1.593C142.844,76.497,142.132,77.21,142.132,78.09z"/>
		<circle fill-rule="evenodd" clip-rule="evenodd" fill="#EFC06A" cx="147.15" cy="83.837" r="0.995"/>
		<path fill-rule="evenodd" clip-rule="evenodd" stroke="#000000" stroke-miterlimit="10" d="M128.494,89.287
			c0,2.679,3.081,4.85,6.879,4.85s6.878-2.17,6.878-4.85H128.494z"/>
		<path fill-rule="evenodd" clip-rule="evenodd" fill="#EEBF68" stroke="#000000" stroke-width="0.5" stroke-miterlimit="10" d="
			M135.374,94.137c-2.22,0-4.173-0.753-5.431-1.904c0.961-0.32,2.307-0.521,3.807-0.521c2.909,0,5.268,0.748,5.273,1.671
			C137.964,93.855,136.719,94.137,135.374,94.137z"/>
		<path fill="#EFC06A" stroke="#000000" stroke-miterlimit="10" d="M132.435,48.48l2.939,5.325l-23.594,13.119L86.272,96.817
			c0,0,7.531-31.897,11.87-37.438c7.409-9.46,17.979-10.906,24.773-11.256C126.026,47.962,132.435,48.48,132.435,48.48z"/>
		<path fill="#EFC06A" stroke="#000000" stroke-miterlimit="10" d="M159.198,57.821c0,0-13.677-8.711-17.066-9.771
			c-1.615-0.503-9.697,0.43-9.697,0.43l2.939,5.325l17.915,4.016H159.198z"/>
		<path fill="#EFC06A" stroke="#000000" stroke-miterlimit="10" d="M115.032,50.158l-4.209,1.617c0,0-7.758-4.807-10.36-3.872
			c-6.826,2.454-11.358,19.133-14.191,25.966c-4.448,10.724-10.059,45.741-10.059,45.741s0.359-38.018,1.437-51.489
			c0.781-9.77,3.391-26.574,10.06-31.435c4.67-3.406,18.269-2.618,23.113,0.539C114.117,39.373,115.032,50.158,115.032,50.158z"/>
		<path fill="#EFC06A" stroke="#000000" stroke-miterlimit="10" d="M145.816,50.768l-2.095-1.578c0,0,3.481-12.843,7.209-14.301
			c4.291-1.677,14.518,2.76,17.251,6.467c10.973,14.89,8.085,73.289,8.085,73.289s-3.221-44.74-11.938-56.823
			c-1.468-2.036-5.178-9.007-7.583-9.729C154.444,47.401,145.816,50.768,145.816,50.768z"/>
		<g>
			<path fill="#EFC06A" stroke="#000000" stroke-miterlimit="10" d="M135.374,54.23l-0.051,4.866l24.718,8.546l5.375,25.283
				c0,0,3.031-17.91-1.005-23.906c-1.06-1.571-4.37-7.364-4.37-7.364l12.094,16.165c0,0-8.055-18.927-12.395-21.555
				C151.735,51.415,135.374,54.23,135.374,54.23z"/>
			<path fill="#EFC06A" stroke="#000000" stroke-miterlimit="10" d="M135.323,59.096c0,0,17.115,3.916,21.961,9.145
				c4.463,4.814,13.969,28.577,13.969,28.577s-6.764-24.856-10.704-30.155C153.288,56.894,135.323,59.096,135.323,59.096z"/>
			<path fill="#EFC06A" stroke="#000000" stroke-miterlimit="10" d="M93.278,94.137c0,0,4.477-9.04,6.166-11.945
				c2.139-3.675,9.282-14.251,9.282-14.251l26.597-8.845l0.051-4.866c0,0-19.154-1.496-24.762,1.137
				c-3.963,1.857-11.159,7.505-15.896,13.411c-4.067,5.069-10.84,18.862-10.84,18.862s8.313-9.732,10.357-11.572
				c1.176-1.06,5.422-3.278,5.422-3.278l-8.981,15.569l3.951-1.872L93.278,94.137z"/>
			<path fill="#EFC06A" stroke="#000000" stroke-miterlimit="10" d="M135.374,59.379c0,0-19.942,6.028-24.792,11.257
				c-4.462,4.814-11.137,26.464-11.137,26.464s2.914-23.902,7.275-28.86C111.872,62.386,135.374,59.379,135.374,59.379z"/>
		</g>
		<path fill="#EFC06A" stroke="#000000" stroke-miterlimit="10" d="M116.63,50.816c0.721-0.763,1.316-3.772-0.78-4.132
			c-2.094-0.359-4.527,4.309-7.502,3.681c-2.975-0.627-0.881,2.644,0.794,3.052C110.82,53.826,115.263,52.255,116.63,50.816z"/>
		<path fill="#EFC06A" stroke="#000000" stroke-miterlimit="10" d="M149.5,50.158c-1.559,0.119-5.686-2.257-5.778-3.494
			c-0.089-1.236-1.281-1.009-2.186,0.26c-1.198,1.677-1.02,3.593,1.438,4.851c2.455,1.257,4.251,1.139,4.549,0.838
			C147.823,52.312,150.107,50.111,149.5,50.158z"/>
		<g>
			<path d="M105.313,45.847c0,0-0.676,0.008-1.859,0.021c-1.176,0.029-2.878,0.083-4.842,0.411c-0.479,0.101-0.997,0.2-1.45,0.408
				c-0.125,0.04-0.217,0.11-0.32,0.169c-0.044,0.028-0.116,0.066-0.139,0.084l-0.16,0.138c-0.207,0.187-0.448,0.366-0.621,0.572
				c-0.759,0.781-1.475,1.775-2.131,2.827c-1.308,2.124-2.467,4.551-3.515,7.023c-1.06,2.469-2.01,4.99-2.872,7.365
				c-0.854,2.378-1.644,4.604-2.27,6.53c-1.258,3.855-2.096,6.425-2.096,6.425s0.123-0.666,0.382-1.822
				c0.273-1.152,0.632-2.808,1.175-4.765c0.543-1.957,1.173-4.244,1.977-6.656c0.787-2.417,1.732-4.963,2.785-7.47
				c1.082-2.494,2.272-4.956,3.696-7.106c0.705-1.084,1.483-2.054,2.387-2.894c0.219-0.226,0.45-0.378,0.671-0.558l0.167-0.13
				c0.089-0.065,0.146-0.085,0.22-0.129c0.14-0.075,0.279-0.158,0.419-0.196c0.557-0.218,1.094-0.287,1.607-0.37
				c1.027-0.14,1.965-0.142,2.794-0.133c0.829,0.012,1.548,0.044,2.14,0.083C104.643,45.753,105.313,45.847,105.313,45.847z"/>
		</g>
		<g>
			<path d="M79.267,90.035c0,0-0.044-0.645-0.077-1.774c-0.024-1.129-0.081-2.744-0.055-4.681c0.027-1.937,0.054-4.198,0.182-6.617
				c0.077-1.208,0.12-2.46,0.237-3.728c0.101-1.269,0.207-2.557,0.346-3.843c0.13-1.287,0.294-2.57,0.469-3.832
				c0.147-1.265,0.385-2.499,0.583-3.695c0.179-1.2,0.47-2.342,0.697-3.431c0.216-1.091,0.534-2.101,0.766-3.042
				c0.219-0.946,0.551-1.781,0.797-2.529c0.128-0.373,0.248-0.722,0.358-1.045c0.134-0.314,0.257-0.604,0.369-0.864
				c0.457-1.034,0.718-1.625,0.718-1.625s-0.195,0.615-0.535,1.692c-0.087,0.267-0.184,0.562-0.289,0.884
				c-0.082,0.33-0.169,0.686-0.264,1.066c-0.175,0.765-0.428,1.608-0.606,2.557c-0.181,0.947-0.441,1.956-0.598,3.051
				c-0.167,1.092-0.386,2.233-0.543,3.428c-0.342,2.383-0.679,4.931-0.927,7.49c-0.291,2.554-0.492,5.12-0.701,7.523
				c-0.189,2.405-0.383,4.651-0.498,6.581C79.438,87.461,79.267,90.035,79.267,90.035z"/>
		</g>
		<g>
			<path d="M103.157,37.943c0,0-0.446,0.141-1.228,0.388c-0.784,0.234-1.889,0.617-3.214,1.055c-1.324,0.439-2.852,1.013-4.42,1.717
				c-0.771,0.365-1.566,0.774-2.232,1.284c-0.13,0.129-0.322,0.292-0.408,0.387l-0.404,0.567c-0.219,0.391-0.403,0.726-0.578,1.151
				c-0.358,0.826-0.661,1.692-0.909,2.564c-0.256,0.868-0.49,1.735-0.69,2.581c-0.402,1.691-0.766,3.281-1.02,4.657
				c-0.53,2.753-0.883,4.589-0.883,4.589s0.002-0.469,0.047-1.289c0.058-0.817,0.111-1.99,0.28-3.386s0.367-3.029,0.717-4.76
				c0.178-0.865,0.359-1.762,0.623-2.658c0.244-0.899,0.544-1.806,0.921-2.699c0.182-0.437,0.456-0.923,0.703-1.333l0.412-0.562
				c0.216-0.252,0.393-0.376,0.593-0.566c0.802-0.606,1.66-0.971,2.479-1.332c1.655-0.672,3.251-1.09,4.612-1.45
				c1.363-0.354,2.522-0.549,3.327-0.706C102.691,38,103.157,37.943,103.157,37.943z"/>
		</g>
		<g>
			<path d="M168.722,59.379c0,0-0.865-1.292-2.163-3.229c-0.648-0.965-1.401-2.091-2.233-3.274c-0.835-1.18-1.723-2.442-2.704-3.611
				c-0.483-0.587-0.976-1.172-1.509-1.678c-0.521-0.522-1.074-0.977-1.642-1.287c-0.051-0.059-0.316-0.125-0.447-0.167
				c-0.147-0.014-0.264-0.054-0.433-0.066c-0.323-0.036-0.653-0.041-0.976-0.041c-0.647,0.016-1.27,0.065-1.844,0.118
				c-1.147,0.126-2.112,0.246-2.782,0.357c-0.674,0.103-1.059,0.162-1.059,0.162s0.363-0.145,1.014-0.351
				c0.653-0.195,1.586-0.495,2.738-0.735c0.578-0.117,1.208-0.235,1.893-0.296c0.345-0.026,0.7-0.048,1.076-0.035
				c0.183-0.003,0.413,0.04,0.62,0.068c0.208,0.061,0.311,0.056,0.57,0.188c0.726,0.358,1.378,0.832,1.938,1.388
				c0.584,0.539,1.104,1.137,1.613,1.741c1.994,2.453,3.565,5.161,4.657,7.228C168.133,57.933,168.722,59.379,168.722,59.379z"/>
		</g>
		<g>
			<path d="M149.603,43.691c0,0,0.692-0.515,1.816-1.125c0.561-0.309,1.226-0.647,1.959-0.968c0.369-0.154,0.746-0.327,1.139-0.478
				c0.4-0.139,0.807-0.279,1.213-0.42c0.403-0.142,0.846-0.214,1.259-0.323c0.402-0.128,0.875-0.119,1.301-0.153
				c0.128-0.001,0.171-0.025,0.364-0.005l0.282,0.064c0.18,0.033,0.401,0.138,0.588,0.203c0.376,0.152,0.672,0.312,0.957,0.475
				c1.124,0.639,1.775,1.204,1.775,1.204s-0.804-0.271-2.009-0.679c-0.291-0.098-0.632-0.201-0.942-0.286
				c-0.164-0.029-0.284-0.091-0.486-0.102l-0.287-0.032c0.001,0.005-0.152,0.026-0.222,0.039c-0.36,0.06-0.714,0.088-1.11,0.215
				c-0.388,0.114-0.782,0.187-1.175,0.335c-0.794,0.239-1.582,0.511-2.329,0.761c-0.75,0.247-1.45,0.477-2.051,0.674
				C150.438,43.479,149.603,43.691,149.603,43.691z"/>
		</g>
		<g>
			<path d="M168.722,50.073c0,0,0.436,0.65,0.942,1.691c0.512,1.038,1.116,2.454,1.578,3.925c0.234,0.732,0.438,1.479,0.592,2.188
				c0.18,0.699,0.255,1.386,0.321,1.964c0.093,0.571,0.035,1.083,0.023,1.419c-0.021,0.341-0.044,0.53-0.044,0.53
				s-0.057-0.188-0.155-0.517c-0.101-0.326-0.181-0.779-0.387-1.319c-0.191-0.541-0.363-1.171-0.608-1.844
				c-0.222-0.676-0.458-1.397-0.694-2.118c-0.448-1.451-0.89-2.912-1.162-4.031C168.846,50.847,168.722,50.073,168.722,50.073z"/>
		</g>
	</g>
	<g display="inline">
		<line fill="#EFC06A" x1="47.395" y1="172.159" x2="5.395" y2="242.75"/>
		<polygon points="47.824,172.415 5.395,242.75 46.965,171.903 		"/>
	</g>
	<g display="inline">
		<line fill="#EFC06A" x1="233.895" y1="172.159" x2="285.395" y2="250.25"/>
		<polygon points="234.312,171.884 285.395,250.25 233.478,172.435 		"/>
	</g>
	<g display="inline">
		<line fill="#EFC06A" x1="233.895" y1="172.159" x2="233.895" y2="11.25"/>
		<polygon points="233.395,172.159 233.895,11.25 234.395,172.159 		"/>
	</g>
	<g display="inline">
		<line fill="#EFC06A" x1="47.395" y1="172.159" x2="47.395" y2="11.25"/>
		<polygon points="46.895,172.159 47.395,11.25 47.895,172.159 		"/>
	</g>
	<polygon display="inline" fill="#EFC06A" stroke="#000000" stroke-miterlimit="10" points="270.395,165.998 248.895,151.708 
		248.895,95.25 270.395,110.25 	"/>
	<polygon display="inline" fill="#EFC06A" stroke="#000000" stroke-miterlimit="10" points="253.812,120.833 259.645,108.5 
		265.229,128.666 	"/>
	<polygon display="inline" fill="#EFC06A" stroke="#000000" stroke-miterlimit="10" points="251.562,130.624 264.396,138.417 
		256.062,148.417 	"/>
	
		<rect x="106.234" y="2.75" display="inline" fill="#EFC06A" stroke="#000000" stroke-miterlimit="10" width="44.493" height="18.667"/>
	<rect x="110.234" y="5.75" display="inline" stroke="#EFC06A" stroke-miterlimit="10" width="36.493" height="12.667"/>
	<polygon display="inline" fill="#EFC06A" points="135.704,9.083 129.206,16.333 122.707,9.083 	"/>
	
		<rect x="211" y="34.524" display="inline" fill="#EFC06A" stroke="#000000" stroke-miterlimit="10" width="14.5" height="163.296"/>
	<rect x="213.666" y="43.691" display="inline" width="8.667" height="150.909"/>
	<text transform="matrix(0.9923 -0.1237 0.1237 0.9923 6.8159 177.0088)" display="inline"><tspan x="0" y="0" stroke="#000000" stroke-width="5" stroke-miterlimit="10" font-family="'Neucha'" font-size="30">Potato</tspan><tspan x="2.595" y="35.999" stroke="#000000" stroke-width="5" stroke-miterlimit="10" font-family="'Neucha'" font-size="30">Dating</tspan><tspan x="19.185" y="71.999" stroke="#000000" stroke-width="5" stroke-miterlimit="10" font-family="'Neucha'" font-size="30">Sim</tspan></text>
	<text transform="matrix(0.9923 -0.1237 0.1237 0.9923 6.8159 177.0088)" display="inline"><tspan x="0" y="0" fill="#EFC06A" font-family="'Neucha'" font-size="30">Potato</tspan><tspan x="2.595" y="35.999" fill="#EFC06A" font-family="'Neucha'" font-size="30">Dating</tspan><tspan x="19.185" y="71.999" fill="#EFC06A" font-family="'Neucha'" font-size="30">Sim</tspan></text>
	<path display="inline" fill="#EFC06A" stroke="#000000" stroke-miterlimit="10" d="M227.073,14.924
		c-4.855,0-8.823,0.879-8.823,9.216c0-8.337-3.905-9.216-8.762-9.216c-4.855,0-10.997,7.667-8.792,15.096
		c2.698,9.092,19.234,23.994,19.234,23.994s13.747-15.708,15.936-23.994C237.87,22.426,231.93,14.924,227.073,14.924z"/>
	<path display="inline" d="M227.75,18.674c-4.001,0-9.5,3.976-9.5,10.909c0-6.933-2.917-10.909-9.75-10.909
		c-4.003,0-6.536,6.376-4.719,12.553c2.224,7.562,15.853,19.954,15.853,19.954s11.332-13.062,13.136-19.954
		C234.421,24.913,231.753,18.674,227.75,18.674z"/>
</g>
<g id="Layer_4_copy_3">
	<path fill-rule="evenodd" clip-rule="evenodd" fill="#EFC06A" stroke="#000000" stroke-miterlimit="10" d="M288.093,91.134
		c0-39.661-32.156-71.817-71.854-71.817c-39.662,0-71.817,32.156-71.817,71.817c0,24.01,0,24.01,0,0
		c0-39.661-32.165-71.817-71.835-71.817S0.752,51.473,0.752,91.134c0,24.01,11.881,45.104,29.959,58.158l112.662,98.353
		l114.768-98.353C276.213,136.238,288.093,115.144,288.093,91.134z"/>
	<path fill="#EFC06A" stroke="#000000" stroke-miterlimit="10" d="M178.665,166.546c3.504-8.758,6.79-15.653,5.538-25.164
		c-1.249-7.256-7.04-16.633-11.294-21.891c-4.005-5.002-9.366-21.229-9.366-21.229c-0.583-4.25-0.539-8.703-0.021-12.809
		c0.499-4.755,0.126-11.013-1.123-15.769c-0.752-2.503-13.517-18.771-22.78-19.02c-7.007-0.25-17.247-7.72-34.286,13.516
		c-10.472,13.05-15.019,32.286-18.525,48.305c-1.248,5.254,0,10.763,0.502,16.269c0.5,8.511-0.252,18.021,2.754,26.279
		c2.253,5.757,7.757,9.511,12.013,13.768c5.506,6.007,11.513,9.511,18.021,13.766c5.254,3.754,10.761,8.51,17.771,7.258
		C137.87,189.824,171.906,182.315,178.665,166.546z"/>
	<path fill="#EFC06A" stroke="#000000" stroke-miterlimit="10" d="M144.691,206.506c0,2.308,6.309,4.185,14.094,4.185
		c7.787,0,14.096-1.877,14.096-4.185c0-2.313-3.151-6.796-10.938-6.796S144.691,204.192,144.691,206.506z"/>
	<path fill="#EFC06A" stroke="#000000" stroke-miterlimit="10" d="M124.217,212.188c0,2.313,6.311,4.188,14.097,4.188
		c7.783,0,14.095-1.875,14.095-4.188c0-2.308-3.155-6.792-10.94-6.792S124.217,209.88,124.217,212.188z"/>
	<line fill="#EFC06A" stroke="#000000" stroke-miterlimit="10" x1="149.243" y1="202.667" x2="149.243" y2="186.533"/>
	<line fill="#EFC06A" stroke="#000000" stroke-miterlimit="10" x1="130.3" y1="207.771" x2="130.3" y2="188.972"/>
	<line fill="#EFC06A" stroke="#000000" stroke-miterlimit="10" x1="182.611" y1="138.537" x2="164.328" y2="138.537"/>
	<line fill="#EFC06A" stroke="#000000" stroke-miterlimit="10" x1="116.643" y1="165.076" x2="98.363" y2="165.076"/>
	<line fill="#EFC06A" stroke="#000000" stroke-miterlimit="10" x1="107.283" y1="125.87" x2="89" y2="125.87"/>
	<line fill="#EFC06A" stroke="#000000" stroke-miterlimit="10" x1="138.228" y1="150.539" x2="126.641" y2="150.539"/>
	<path fill="#EFC06A" stroke="#000000" stroke-miterlimit="10" d="M106.719,64.063"/>
	<path fill="#EFC06A" stroke="#000000" stroke-miterlimit="10" d="M118.308,64.063"/>
	<line fill="#EFC06A" stroke="#000000" stroke-miterlimit="10" x1="170.79" y1="175.412" x2="160.041" y2="175.412"/>
	<line fill="none" stroke="#000000" stroke-miterlimit="10" x1="101.889" y1="137.214" x2="101.889" y2="183.468"/>
	<path fill="none" stroke="#000000" stroke-miterlimit="10" d="M91.964,187.989c0,0,6.399,7.558,9.925-4.521"/>
	<path fill="none" stroke="#000000" stroke-miterlimit="10" d="M93.065,194.846c0,0,10.511,7.783,8.824-11.378"/>
	<path fill="none" stroke="#000000" stroke-miterlimit="10" d="M102.33,193.893c0,0,6.531-0.184-0.258-10.278"/>
	<path fill="none" stroke="#000000" stroke-miterlimit="10" d="M108.714,185.34c0,0-3.556-2.26-6.643-3.635"/>
	
		<ellipse fill-rule="evenodd" clip-rule="evenodd" fill="none" stroke="#000000" stroke-width="0.5" stroke-miterlimit="10" cx="118.492" cy="90.035" rx="5.275" ry="1.677"/>
	
		<ellipse fill-rule="evenodd" clip-rule="evenodd" fill="none" stroke="#000000" stroke-width="0.5" stroke-miterlimit="10" cx="153.286" cy="90.035" rx="5.274" ry="1.677"/>
	<path fill-rule="evenodd" clip-rule="evenodd" stroke="#000000" stroke-miterlimit="10" d="M128.494,89.287
		c0,2.679,3.081,4.85,6.879,4.85s6.878-2.17,6.878-4.85H128.494z"/>
	<path fill-rule="evenodd" clip-rule="evenodd" fill="#EEBF68" stroke="#000000" stroke-width="0.5" stroke-miterlimit="10" d="
		M135.374,94.137c-2.22,0-4.173-0.753-5.431-1.904c0.961-0.32,2.307-0.521,3.807-0.521c2.909,0,5.268,0.748,5.273,1.671
		C137.964,93.855,136.719,94.137,135.374,94.137z"/>
	<path fill="#EFC06A" stroke="#000000" stroke-miterlimit="10" d="M132.435,48.48l2.939,5.325l-23.594,13.119L86.272,96.817
		c0,0,7.531-31.897,11.87-37.438c7.409-9.46,17.979-10.906,24.773-11.256C126.026,47.962,132.435,48.48,132.435,48.48z"/>
	<path fill="#EFC06A" stroke="#000000" stroke-miterlimit="10" d="M159.198,57.821c0,0-13.677-8.711-17.066-9.771
		c-1.615-0.503-9.697,0.43-9.697,0.43l2.939,5.325l17.915,4.016H159.198z"/>
	<path fill="#EFC06A" stroke="#000000" stroke-miterlimit="10" d="M115.032,50.158l-4.209,1.617c0,0-7.758-4.807-10.36-3.872
		c-6.826,2.454-11.358,19.133-14.191,25.966c-4.448,10.724-10.059,45.741-10.059,45.741s0.359-38.018,1.437-51.489
		c0.781-9.77,3.391-26.574,10.06-31.435c4.67-3.406,18.269-2.618,23.113,0.539C114.117,39.373,115.032,50.158,115.032,50.158z"/>
	<path fill="#EFC06A" stroke="#000000" stroke-miterlimit="10" d="M145.816,50.768l-2.095-1.578c0,0,3.481-12.843,7.209-14.301
		c4.291-1.677,14.518,2.76,17.251,6.467c10.973,14.89,8.085,73.289,8.085,73.289s-3.221-44.74-11.938-56.823
		c-1.468-2.036-5.178-9.007-7.583-9.729C154.444,47.401,145.816,50.768,145.816,50.768z"/>
	<g>
		<path fill="#EFC06A" stroke="#000000" stroke-miterlimit="10" d="M135.374,54.23l-0.051,4.866l24.718,8.546l5.375,25.283
			c0,0,3.031-17.91-1.005-23.906c-1.06-1.571-4.37-7.364-4.37-7.364l12.094,16.165c0,0-8.055-18.927-12.395-21.555
			C151.735,51.415,135.374,54.23,135.374,54.23z"/>
		<path fill="#EFC06A" stroke="#000000" stroke-miterlimit="10" d="M135.323,59.096c0,0,17.115,3.916,21.961,9.145
			c4.463,4.814,13.969,28.577,13.969,28.577s-6.764-24.856-10.704-30.155C153.288,56.894,135.323,59.096,135.323,59.096z"/>
		<path fill="#EFC06A" stroke="#000000" stroke-miterlimit="10" d="M93.278,94.137c0,0,4.477-9.04,6.166-11.945
			c2.139-3.675,9.282-14.251,9.282-14.251l26.597-8.845l0.051-4.866c0,0-19.154-1.496-24.762,1.137
			c-3.963,1.857-11.159,7.505-15.896,13.411c-4.067,5.069-10.84,18.862-10.84,18.862s8.313-9.732,10.357-11.572
			c1.176-1.06,5.422-3.278,5.422-3.278l-8.981,15.569l3.951-1.872L93.278,94.137z"/>
		<path fill="#EFC06A" stroke="#000000" stroke-miterlimit="10" d="M135.374,59.379c0,0-19.942,6.028-24.792,11.257
			c-4.462,4.814-11.137,26.464-11.137,26.464s2.914-23.902,7.275-28.86C111.872,62.386,135.374,59.379,135.374,59.379z"/>
	</g>
	<path fill="#EFC06A" stroke="#000000" stroke-miterlimit="10" d="M116.63,50.816c0.721-0.763,1.316-3.772-0.78-4.132
		c-2.094-0.359-4.527,4.309-7.502,3.681c-2.975-0.627-0.881,2.644,0.794,3.052C110.82,53.826,115.263,52.255,116.63,50.816z"/>
	<path fill="#EFC06A" stroke="#000000" stroke-miterlimit="10" d="M149.5,50.158c-1.559,0.119-5.686-2.257-5.778-3.494
		c-0.089-1.236-1.281-1.009-2.186,0.26c-1.198,1.677-1.02,3.593,1.438,4.851c2.455,1.257,4.251,1.139,4.549,0.838
		C147.823,52.312,150.107,50.111,149.5,50.158z"/>
	<g>
		<path d="M105.313,45.847c0,0-0.676,0.008-1.859,0.021c-1.176,0.029-2.878,0.083-4.842,0.411c-0.479,0.101-0.997,0.2-1.45,0.408
			c-0.125,0.04-0.217,0.11-0.32,0.169c-0.044,0.028-0.116,0.066-0.139,0.084l-0.16,0.138c-0.207,0.187-0.448,0.366-0.621,0.572
			c-0.759,0.781-1.475,1.775-2.131,2.827c-1.308,2.124-2.467,4.551-3.515,7.023c-1.06,2.469-2.01,4.99-2.872,7.365
			c-0.854,2.378-1.644,4.604-2.27,6.53c-1.258,3.855-2.096,6.425-2.096,6.425s0.123-0.666,0.382-1.822
			c0.273-1.152,0.632-2.808,1.175-4.765c0.543-1.957,1.173-4.244,1.977-6.656c0.787-2.417,1.732-4.963,2.785-7.47
			c1.082-2.494,2.272-4.956,3.696-7.106c0.705-1.084,1.483-2.054,2.387-2.894c0.219-0.226,0.45-0.378,0.671-0.558l0.167-0.13
			c0.089-0.065,0.146-0.085,0.22-0.129c0.14-0.075,0.279-0.158,0.419-0.196c0.557-0.218,1.094-0.287,1.607-0.37
			c1.027-0.14,1.965-0.142,2.794-0.133c0.829,0.012,1.548,0.044,2.14,0.083C104.643,45.753,105.313,45.847,105.313,45.847z"/>
	</g>
	<g>
		<path d="M79.267,90.035c0,0-0.044-0.645-0.077-1.774c-0.024-1.129-0.081-2.744-0.055-4.681c0.027-1.937,0.054-4.198,0.182-6.617
			c0.077-1.208,0.12-2.46,0.237-3.728c0.101-1.269,0.207-2.557,0.346-3.843c0.13-1.287,0.294-2.57,0.469-3.832
			c0.147-1.265,0.385-2.499,0.583-3.695c0.179-1.2,0.47-2.342,0.697-3.431c0.216-1.091,0.534-2.101,0.766-3.042
			c0.219-0.946,0.551-1.781,0.797-2.529c0.128-0.373,0.248-0.722,0.358-1.045c0.134-0.314,0.257-0.604,0.369-0.864
			c0.457-1.034,0.718-1.625,0.718-1.625s-0.195,0.615-0.535,1.692c-0.087,0.267-0.184,0.562-0.289,0.884
			c-0.082,0.33-0.169,0.686-0.264,1.066c-0.175,0.765-0.428,1.608-0.606,2.557c-0.181,0.947-0.441,1.956-0.598,3.051
			c-0.167,1.092-0.386,2.233-0.543,3.428c-0.342,2.383-0.679,4.931-0.927,7.49c-0.291,2.554-0.492,5.12-0.701,7.523
			c-0.189,2.405-0.383,4.651-0.498,6.581C79.438,87.461,79.267,90.035,79.267,90.035z"/>
	</g>
	<g>
		<path d="M103.157,37.943c0,0-0.446,0.141-1.228,0.388c-0.784,0.234-1.889,0.617-3.214,1.055c-1.324,0.439-2.852,1.013-4.42,1.717
			c-0.771,0.365-1.566,0.774-2.232,1.284c-0.13,0.129-0.322,0.292-0.408,0.387l-0.404,0.567c-0.219,0.391-0.403,0.726-0.578,1.151
			c-0.358,0.826-0.661,1.692-0.909,2.564c-0.256,0.868-0.49,1.735-0.69,2.581c-0.402,1.691-0.766,3.281-1.02,4.657
			c-0.53,2.753-0.883,4.589-0.883,4.589s0.002-0.469,0.047-1.289c0.058-0.817,0.111-1.99,0.28-3.386s0.367-3.029,0.717-4.76
			c0.178-0.865,0.359-1.762,0.623-2.658c0.244-0.899,0.544-1.806,0.921-2.699c0.182-0.437,0.456-0.923,0.703-1.333l0.412-0.562
			c0.216-0.252,0.393-0.376,0.593-0.566c0.802-0.606,1.66-0.971,2.479-1.332c1.655-0.672,3.251-1.09,4.612-1.45
			c1.363-0.354,2.522-0.549,3.327-0.706C102.691,38,103.157,37.943,103.157,37.943z"/>
	</g>
	<g>
		<path d="M168.722,59.379c0,0-0.865-1.292-2.163-3.229c-0.648-0.965-1.401-2.091-2.233-3.274c-0.835-1.18-1.723-2.442-2.704-3.611
			c-0.483-0.587-0.976-1.172-1.509-1.678c-0.521-0.522-1.074-0.977-1.642-1.287c-0.051-0.059-0.316-0.125-0.447-0.167
			c-0.147-0.014-0.264-0.054-0.433-0.066c-0.323-0.036-0.653-0.041-0.976-0.041c-0.647,0.016-1.27,0.065-1.844,0.118
			c-1.147,0.126-2.112,0.246-2.782,0.357c-0.674,0.103-1.059,0.162-1.059,0.162s0.363-0.145,1.014-0.351
			c0.653-0.195,1.586-0.495,2.738-0.735c0.578-0.117,1.208-0.235,1.893-0.296c0.345-0.026,0.7-0.048,1.076-0.035
			c0.183-0.003,0.413,0.04,0.62,0.068c0.208,0.061,0.311,0.056,0.57,0.188c0.726,0.358,1.378,0.832,1.938,1.388
			c0.584,0.539,1.104,1.137,1.613,1.741c1.994,2.453,3.565,5.161,4.657,7.228C168.133,57.933,168.722,59.379,168.722,59.379z"/>
	</g>
	<g>
		<path d="M149.603,43.691c0,0,0.692-0.515,1.816-1.125c0.561-0.309,1.226-0.647,1.959-0.968c0.369-0.154,0.746-0.327,1.139-0.478
			c0.4-0.139,0.807-0.279,1.213-0.42c0.403-0.142,0.846-0.214,1.259-0.323c0.402-0.128,0.875-0.119,1.301-0.153
			c0.128-0.001,0.171-0.025,0.364-0.005l0.282,0.064c0.18,0.033,0.401,0.138,0.588,0.203c0.376,0.152,0.672,0.312,0.957,0.475
			c1.124,0.639,1.775,1.204,1.775,1.204s-0.804-0.271-2.009-0.679c-0.291-0.098-0.632-0.201-0.942-0.286
			c-0.164-0.029-0.284-0.091-0.486-0.102l-0.287-0.032c0.001,0.005-0.152,0.026-0.222,0.039c-0.36,0.06-0.714,0.088-1.11,0.215
			c-0.388,0.114-0.782,0.187-1.175,0.335c-0.794,0.239-1.582,0.511-2.329,0.761c-0.75,0.247-1.45,0.477-2.051,0.674
			C150.438,43.479,149.603,43.691,149.603,43.691z"/>
	</g>
	<g>
		<path d="M168.722,50.073c0,0,0.436,0.65,0.942,1.691c0.512,1.038,1.116,2.454,1.578,3.925c0.234,0.732,0.438,1.479,0.592,2.188
			c0.18,0.699,0.255,1.386,0.321,1.964c0.093,0.571,0.035,1.083,0.023,1.419c-0.021,0.341-0.044,0.53-0.044,0.53
			s-0.057-0.188-0.155-0.517c-0.101-0.326-0.181-0.779-0.387-1.319c-0.191-0.541-0.363-1.171-0.608-1.844
			c-0.222-0.676-0.458-1.397-0.694-2.118c-0.448-1.451-0.89-2.912-1.162-4.031C168.846,50.847,168.722,50.073,168.722,50.073z"/>
	</g>
	<path fill-rule="evenodd" clip-rule="evenodd" fill="none" stroke="#000000" stroke-width="0.5" stroke-miterlimit="10" d="
		M135.085,77.342c0-2.178-1.767-3.944-3.945-3.944c-2.178,0-3.944,1.766-3.944,3.944c0,1.317,0,1.317,0,0
		c0-2.178-1.766-3.944-3.944-3.944s-3.944,1.766-3.944,3.944c0,1.317,0.652,2.477,1.645,3.193l6.186,5.4l6.301-5.4
		C134.433,79.819,135.085,78.66,135.085,77.342z"/>
	<path fill-rule="evenodd" clip-rule="evenodd" fill="none" stroke="#000000" stroke-width="0.5" stroke-miterlimit="10" d="
		M153.098,77.342c0-2.178-1.766-3.944-3.945-3.944c-2.178,0-3.943,1.766-3.943,3.944c0,1.317,0,1.317,0,0
		c0-2.178-1.766-3.944-3.944-3.944s-3.944,1.766-3.944,3.944c0,1.317,0.652,2.477,1.645,3.193l6.186,5.4l6.302-5.4
		C152.445,79.819,153.098,78.66,153.098,77.342z"/>
	<text transform="matrix(1 0 0 1 89 289)" font-family="'MyriadPro-Regular'" font-size="12">/Users/oskarlindblad/skola/urrrk copy 2/index.html</text>
</g>
<g id="highscore" display="none">
	<g display="inline">
		<text transform="matrix(1 0 0 1 51.5557 96.1582)"><tspan x="0" y="0" font-family="'Neucha'" font-size="24.4995">1. M3G4-tatis</tspan><tspan x="0" y="29.399" font-family="'Neucha'" font-size="24.4995">2. Else-Britt</tspan><tspan x="0" y="58.799" font-family="'Neucha'" font-size="24.4995">3. Professorn</tspan><tspan x="0" y="88.198" font-family="'Neucha'" font-size="24.4995">4. Snubben innan</tspan><tspan x="0" y="117.598" font-family="'Neucha'" font-size="24.4995">5. Du</tspan></text>
		<text transform="matrix(1 0 0 1 205.0859 96.1582)"><tspan x="0" y="0" font-family="'Neucha'" font-size="24.4995">9998</tspan><tspan x="0" y="29.399" font-family="'Neucha'" font-size="24.4995">7233</tspan><tspan x="0" y="58.799" font-family="'Neucha'" font-size="24.4995">0254</tspan><tspan x="0" y="88.198" font-family="'Neucha'" font-size="24.4995">0100</tspan><tspan x="0" y="117.598" font-family="'Neucha'" font-size="24.4995">0000</tspan></text>
	</g>
	
		<text transform="matrix(1 0 0 1 76.6777 48.792)" display="inline" fill="none" stroke="#000000" stroke-width="5" font-family="'Neucha'" font-size="39.1991">High Score</text>
	<text transform="matrix(1 0 0 1 76.6777 48.792)" display="inline" fill="#EEBF68" font-family="'Neucha'" font-size="39.1991">High Score</text>
</g>
</svg>
