<?xml version="1.0" encoding="utf-8"?>
<!-- Generator: Adobe Illustrator 16.0.4, SVG Export Plug-In . SVG Version: 6.00 Build 0)  -->
<!DOCTYPE svg PUBLIC "-//W3C//DTD SVG 1.1//EN" "http://www.w3.org/Graphics/SVG/1.1/DTD/svg11.dtd">
<svg version="1.1" xmlns="http://www.w3.org/2000/svg" xmlns:xlink="http://www.w3.org/1999/xlink" x="0px" y="0px" width="288px"
	 height="256px" viewBox="0 0 288 256" enable-background="new 0 0 288 256" xml:space="preserve">
<g id="Bakgrund">
	<g>
		<polygon points="4.333,202.86 9.942,190.833 9.955,190.807 9.983,190.799 34.618,184.015 34.48,184.205 33.068,161.543 
			33.041,161.103 33.444,161.286 52.458,169.921 52.035,170.222 50.935,158.432 50.895,158.008 51.313,158.092 75.069,162.85 
			74.649,163.17 75.627,148.752 75.663,148.229 76.146,148.434 96.823,157.157 96.432,157.2 111.747,146.175 111.976,146.011 
			112.22,146.154 125.233,153.8 124.829,153.77 143.816,146.071 144.097,145.957 144.325,146.158 152.656,153.493 152.099,153.431 
			170.449,143.461 170.871,143.232 171.077,143.664 175.062,152.004 174.552,151.771 194.227,146.469 194.477,146.401 
			194.643,146.599 203.625,157.281 203.204,157.168 225.552,149.205 225.913,149.076 226.001,149.449 228.647,160.786 
			228.255,160.547 250.931,154.918 251.202,154.852 251.274,155.119 254.256,166.124 253.945,165.935 268.962,162.847 
			269.033,162.832 269.095,162.869 279.899,169.418 279.769,169.637 268.905,163.186 269.038,163.208 254.055,166.454 
			253.811,166.507 253.744,166.264 250.726,155.27 251.069,155.471 228.411,161.174 228.094,161.254 228.019,160.935 
			225.333,149.605 225.782,149.85 203.462,157.887 203.213,157.977 203.041,157.773 194.023,147.122 194.439,147.252 
			174.782,152.618 174.43,152.714 174.271,152.385 170.257,144.058 170.885,144.26 152.567,154.29 152.268,154.454 152.01,154.228 
			143.675,146.897 144.184,146.984 125.172,154.619 124.961,154.704 124.767,154.589 111.78,146.9 112.252,146.88 96.901,157.854 
			96.717,157.986 96.51,157.897 75.854,149.121 76.373,148.804 75.351,163.219 75.322,163.618 74.931,163.539 51.188,158.713 
			51.565,158.373 52.632,170.167 52.679,170.683 52.209,170.467 33.224,161.769 33.599,161.512 34.852,184.184 34.861,184.335 
			34.715,184.374 10.017,190.922 10.058,190.888 		"/>
	</g>
	<g>
		<line fill="#FFFFFF" x1="34.667" y1="184.194" x2="29.875" y2="108.527"/>
		<polygon points="34.167,184.226 29.875,108.527 35.166,184.163 		"/>
	</g>
	<g>
		<line fill="#FFFFFF" x1="10.5" y1="190.699" x2="7.25" y2="175.777"/>
		<polygon points="10.011,190.806 7.25,175.777 10.989,190.593 		"/>
	</g>
	<g>
		<line fill="#FFFFFF" x1="52.333" y1="170.194" x2="46" y2="94.661"/>
		<polygon points="51.835,170.236 46,94.661 52.832,170.152 		"/>
	</g>
	<g>
		<line fill="#FFFFFF" x1="74.984" y1="163.64" x2="79.167" y2="97.694"/>
		<polygon points="74.485,163.608 79.167,97.694 75.483,163.671 		"/>
	</g>
	<g>
		<line fill="#FFFFFF" x1="96.667" y1="157.527" x2="96.531" y2="120.694"/>
		<polygon points="96.167,157.529 96.531,120.694 97.167,157.525 		"/>
	</g>
	<g>
		<line fill="#FFFFFF" x1="111.967" y1="146.444" x2="111.832" y2="109.611"/>
		<polygon points="111.467,146.446 111.832,109.611 112.467,146.442 		"/>
	</g>
	<g>
		<line fill="#FFFFFF" x1="144.068" y1="146.444" x2="146.5" y2="109.611"/>
		<polygon points="143.569,146.411 146.5,109.611 144.567,146.478 		"/>
	</g>
	<g>
		<line fill="#FFFFFF" x1="125" y1="154.194" x2="127.432" y2="117.361"/>
		<polygon points="124.501,154.161 127.432,117.361 125.499,154.228 		"/>
	</g>
	<g>
		<line fill="#FFFFFF" x1="152.547" y1="154.194" x2="154.979" y2="134.277"/>
		<polygon points="152.051,154.134 154.979,134.277 153.043,154.255 		"/>
	</g>
	<g>
		<line fill="#FFFFFF" x1="170.762" y1="144.621" x2="173.193" y2="124.704"/>
		<polygon points="170.266,144.561 173.193,124.704 171.258,144.682 		"/>
	</g>
	<g>
		<line fill="#FFFFFF" x1="174.93" y1="152.345" x2="187.25" y2="90.527"/>
		<polygon points="174.439,152.247 187.25,90.527 175.42,152.442 		"/>
	</g>
	<g>
		<line fill="#FFFFFF" x1="194.496" y1="146.444" x2="200.656" y2="91.527"/>
		<polygon points="193.999,146.389 200.656,91.527 194.993,146.5 		"/>
	</g>
	<g>
		<line fill="#FFFFFF" x1="203.778" y1="157.567" x2="206.858" y2="124.146"/>
		<polygon points="203.28,157.521 206.858,124.146 204.276,157.613 		"/>
	</g>
	<g>
		<line fill="#FFFFFF" x1="225.309" y1="149.693" x2="231.125" y2="97.402"/>
		<polygon points="224.812,149.638 231.125,97.402 225.806,149.749 		"/>
	</g>
	<g>
		<line fill="#FFFFFF" x1="228.558" y1="160.637" x2="234.75" y2="112.215"/>
		<polygon points="228.062,160.573 234.75,112.215 229.054,160.7 		"/>
	</g>
	<g>
		<line fill="#FFFFFF" x1="250.775" y1="155.211" x2="250.775" y2="105.027"/>
		<polygon points="250.275,155.211 250.775,105.027 251.275,155.211 		"/>
	</g>
	<g>
		<line fill="#FFFFFF" x1="254.571" y1="165.771" x2="256.285" y2="133.277"/>
		<polygon points="254.072,165.744 256.285,133.277 255.07,165.797 		"/>
	</g>
	<g>
		<line fill="#FFFFFF" x1="269.049" y1="163.045" x2="270.764" y2="112.215"/>
		<polygon points="268.549,163.028 270.764,112.215 269.549,163.062 		"/>
	</g>
	<g>
		<line fill="#EFC06A" x1="174.667" y1="152.194" x2="228.217" y2="246.5"/>
		<polygon points="175.102,151.947 228.217,246.5 174.232,152.441 		"/>
	</g>
	<g>
		<line fill="#EFC06A" x1="228.333" y1="160.86" x2="283.061" y2="237.667"/>
		<polygon points="228.74,160.57 283.061,237.667 227.926,161.15 		"/>
	</g>
	<g>
		<line fill="#EFC06A" x1="226.514" y1="153.125" x2="223.833" y2="182.333"/>
		<polygon points="227.012,153.171 223.833,182.333 226.016,153.079 		"/>
	</g>
	<g>
		<line fill="#EFC06A" x1="236.091" y1="171.794" x2="233.41" y2="201.002"/>
		<polygon points="236.589,171.84 233.41,201.002 235.593,171.748 		"/>
	</g>
	<g>
		<line fill="#EFC06A" x1="249.238" y1="190.2" x2="245.847" y2="218.193"/>
		<polygon points="249.734,190.261 245.847,218.193 248.742,190.14 		"/>
	</g>
	<g>
		<line fill="#EFC06A" x1="260.666" y1="206.331" x2="257.985" y2="235.539"/>
		<polygon points="260.915,206.354 257.985,235.539 260.417,206.309 		"/>
	</g>
	<g>
		<line fill="#EFC06A" x1="269.049" y1="218.193" x2="266.368" y2="247.401"/>
		<polygon points="269.298,218.216 266.368,247.401 268.8,218.171 		"/>
	</g>
	<g>
		<line fill="#EFC06A" x1="278.438" y1="231.168" x2="276.568" y2="251.538"/>
		<polygon points="278.537,231.177 276.568,251.538 278.338,231.159 		"/>
	</g>
	<path fill="#EFC06A" stroke="#000000" stroke-width="0.5" stroke-miterlimit="10" d="M260.906,204.72
		c-1.687,2.272-4.254,4.267-5.896,6.071c-3.409,3.747-6.827,6.926-11.365,9.262c-5.054,2.603-9.791,3.192-15.391,3.065
		c-2.272-0.052-4.539-0.208-6.812-0.182c-2.255,0.026-5.324,0.215-7.007-1.601c-0.439-0.474-1.145,0.235-0.707,0.707
		c2.807,3.027,9.048,1.897,12.683,2.027c2.971,0.105,5.961,0.296,8.914-0.104c2.815-0.381,5.504-1.475,8.059-2.672
		c5.246-2.46,9.027-6.162,12.881-10.398c1.563-1.719,3.703-3.44,5.27-5.436C261.287,205.244,261.075,204.997,260.906,204.72z"/>
	<path fill="#EFC06A" stroke="#000000" stroke-width="0.5" stroke-miterlimit="10" d="M255.067,198.537
		c-1.687,2.272-4.254,4.267-5.896,6.071c-3.409,3.747-6.827,6.926-11.365,9.262c-5.054,2.603-9.791,3.192-15.391,3.065
		c-2.272-0.052-4.539-0.208-6.812-0.182c-2.08,0.024-4.839,0.166-6.577-1.233c0.03,0.399,0.003,0.8-0.084,1.189
		c3.105,1.937,8.396,1.062,11.63,1.178c2.971,0.105,5.961,0.296,8.914-0.104c2.815-0.381,5.504-1.475,8.059-2.672
		c5.246-2.46,9.027-6.162,12.881-10.398c1.563-1.719,3.703-3.44,5.27-5.436C255.448,199.062,255.236,198.814,255.067,198.537z"/>
	<path fill="#EFC06A" stroke="#000000" stroke-width="0.5" stroke-miterlimit="10" d="M254.827,179.424
		c-0.3,4.012-5.043,7.237-7.572,10.019c-3.409,3.747-6.827,6.926-11.365,9.262c-5.054,2.603-9.791,3.192-15.391,3.065
		c-2.272-0.052-4.539-0.208-6.812-0.182c-1.025,0.012-2.219,0.049-3.374-0.076c-0.136,0.372-0.328,0.721-0.582,1.023
		c2.945,0.564,6.509,0.101,8.925,0.187c2.971,0.105,5.961,0.296,8.914-0.104c2.815-0.381,5.504-1.475,8.059-2.672
		c5.246-2.46,9.027-6.162,12.881-10.398c2.658-2.923,6.998-5.849,7.317-10.123C255.875,178.78,254.875,178.785,254.827,179.424z"/>
	<path fill="#EFC06A" stroke="#000000" stroke-width="0.5" stroke-miterlimit="10" d="M211.319,217.562
		c0,0.76-0.615,1.375-1.375,1.375l0,0c-0.76,0-1.375-0.615-1.375-1.375V196.75c0-0.76,0.615-1.375,1.375-1.375l0,0
		c0.76,0,1.375,0.615,1.375,1.375V217.562z"/>
	<path fill="#EFC06A" stroke="#000000" stroke-width="0.5" stroke-miterlimit="10" d="M257.205,197.972
		c0,0.76-0.615,1.375-1.375,1.375l0,0c-0.76,0-1.375-0.615-1.375-1.375V177.16c0-0.76,0.615-1.375,1.375-1.375l0,0
		c0.76,0,1.375,0.615,1.375,1.375V197.972z"/>
	<polygon fill="#EFC06A" stroke="#000000" stroke-width="0.5" stroke-miterlimit="10" points="213.25,214.817 219.804,225.645 
		228.216,225.609 220.5,215.375 	"/>
	<polygon fill="#EFC06A" stroke="#000000" stroke-width="0.5" stroke-miterlimit="10" points="223.833,214.464 231.594,225.645 
		239.75,224.209 231.167,214.464 	"/>
	<polygon fill="#EFC06A" stroke="#000000" stroke-width="0.5" stroke-miterlimit="10" points="235.084,213.416 244.417,222.499 
		252.15,218.749 240.5,210.833 	"/>
	<polygon fill="#EFC06A" stroke="#000000" stroke-width="0.5" stroke-miterlimit="10" points="243.617,208.52 253.213,217.583 
		258.928,212.582 247.479,204.72 	"/>
	<polygon fill="#EFC06A" stroke="#000000" stroke-width="0.5" stroke-miterlimit="10" points="250.25,202.86 259.75,211.781 
		261.409,207.184 254.167,198.916 	"/>
	<path fill="#EFC06A" stroke="#000000" stroke-width="0.5" stroke-miterlimit="10" d="M261.386,188.335
		c-1.64,2.564-4.568,4.78-6.375,6.767c-3.409,3.747-6.827,6.926-11.365,9.262c-5.054,2.603-9.791,3.192-15.391,3.065
		c-2.272-0.052-4.539-0.208-6.812-0.182c-2.255,0.026-5.324,0.215-7.007-1.601c-0.439-0.474-1.145,0.235-0.707,0.707
		c2.807,3.027,9.048,1.897,12.683,2.027c2.971,0.105,5.961,0.296,8.914-0.104c2.815-0.381,5.504-1.475,8.059-2.672
		c5.246-2.46,9.027-6.162,12.881-10.398c1.694-1.863,4.069-3.729,5.653-5.944C261.691,188.984,261.517,188.67,261.386,188.335z"/>
	<path fill="#EFC06A" stroke="#000000" stroke-width="0.5" stroke-miterlimit="10" d="M263.028,205.781
		c0,0.76-0.615,1.375-1.375,1.375l0,0c-0.76,0-1.375-0.615-1.375-1.375V184.97c0-0.76,0.615-1.375,1.375-1.375l0,0
		c0.76,0,1.375,0.615,1.375,1.375V205.781z"/>
	<path fill="#EFC06A" stroke="#000000" stroke-width="0.5" stroke-miterlimit="10" d="M214.625,225.781
		c0,0.76-0.615,1.375-1.375,1.375l0,0c-0.76,0-1.375-0.615-1.375-1.375V204.97c0-0.76,0.615-1.375,1.375-1.375l0,0
		c0.76,0,1.375,0.615,1.375,1.375V225.781z"/>
</g>
<g id="Layer_4" display="none">
	<path display="inline" fill="#EFC06A" stroke="#000000" stroke-miterlimit="10" d="M113.91,186.738
		c2.437-6.096,4.725-10.894,3.853-17.512c-0.869-5.05-4.898-11.574-7.859-15.233c-2.786-3.481-3.9-15.219-3.9-15.219l-4.617,0.446
		c-0.405-2.957-0.374-6.057-0.016-8.914c0.348-3.309,2.089-7.663,1.219-10.973c-0.522-1.742-9.405-13.062-15.851-13.236
		c-4.877-0.174-12.003-5.373-23.86,9.405c-7.287,9.081-10.451,22.468-12.89,33.615c-0.869,3.656,0,7.489,0.349,11.32
		c0.348,5.923-0.175,12.541,1.916,18.288c1.568,4.006,5.398,6.619,8.36,9.58c3.832,4.18,8.012,6.618,12.541,9.579
		c3.656,2.613,7.488,5.922,12.366,5.051C85.52,202.937,109.207,197.711,113.91,186.738z"/>
	<ellipse display="inline" cx="76.574" cy="125.402" rx="1.992" ry="3.985"/>
	<ellipse display="inline" cx="95.426" cy="128.162" rx="1.992" ry="3.984"/>
	
		<line display="inline" fill="#EFC06A" stroke="#000000" stroke-miterlimit="10" x1="106.002" y1="138.774" x2="67.875" y2="142.684"/>
	<path display="inline" fill="#EFC06A" stroke="#000000" stroke-miterlimit="10" d="M90.267,214.544
		c0,1.607,4.391,2.913,9.808,2.913c5.419,0,9.81-1.306,9.81-2.913c0-1.608-2.194-4.729-7.612-4.729
		C96.855,209.815,90.267,212.936,90.267,214.544z"/>
	<path display="inline" fill="#EFC06A" stroke="#000000" stroke-miterlimit="10" d="M76.019,218.5c0,1.609,4.392,2.913,9.81,2.913
		c5.417,0,9.81-1.304,9.81-2.913c0-1.607-2.195-4.729-7.613-4.729S76.019,216.893,76.019,218.5z"/>
	
		<line display="inline" fill="#EFC06A" stroke="#000000" stroke-miterlimit="10" x1="93.434" y1="211.875" x2="93.434" y2="200.646"/>
	
		<line display="inline" fill="#EFC06A" stroke="#000000" stroke-miterlimit="10" x1="80.252" y1="214.658" x2="80.252" y2="202.343"/>
	
		<line display="inline" fill="#EFC06A" stroke="#000000" stroke-miterlimit="10" x1="116.655" y1="167.246" x2="103.933" y2="167.246"/>
	
		<line display="inline" fill="#EFC06A" stroke="#000000" stroke-miterlimit="10" x1="70.75" y1="185.715" x2="58.028" y2="185.715"/>
	
		<line display="inline" fill="#EFC06A" stroke="#000000" stroke-miterlimit="10" x1="64.236" y1="158.433" x2="51.513" y2="158.433"/>
	
		<line display="inline" fill="#EFC06A" stroke="#000000" stroke-miterlimit="10" x1="85.769" y1="175.599" x2="77.706" y2="175.599"/>
	
		<line display="inline" fill="#EFC06A" stroke="#000000" stroke-miterlimit="10" x1="71.908" y1="115.422" x2="63.843" y2="115.422"/>
	
		<line display="inline" fill="#EFC06A" stroke="#000000" stroke-miterlimit="10" x1="108.429" y1="192.908" x2="100.948" y2="192.908"/>
	<line display="inline" fill="none" stroke="#000000" stroke-miterlimit="10" x1="60.481" y1="166.325" x2="60.481" y2="198.513"/>
	<path display="inline" fill="none" stroke="#000000" stroke-miterlimit="10" d="M53.576,201.659c0,0,4.452,5.259,6.905-3.146"/>
	<path display="inline" fill="none" stroke="#000000" stroke-miterlimit="10" d="M54.341,206.431c0,0,7.314,5.417,6.14-7.918"/>
	<path display="inline" fill="none" stroke="#000000" stroke-miterlimit="10" d="M60.788,205.768c0,0,4.546-0.128-0.18-7.152"/>
	<path display="inline" fill="none" stroke="#000000" stroke-miterlimit="10" d="M65.232,199.815c0,0-2.476-1.571-4.624-2.528"/>
</g>
<g id="proffesorn" display="none">
	<path display="inline" fill="#EFC06A" stroke="#000000" stroke-miterlimit="10" d="M169.205,152.118
		c-1.916-28.156-14.951-51.1-33.396-51.1c-18.444,0-31.364,22.951-33.396,51.1c-2.625,36.378,3.72,23.014,37.375,25.378
		C179.719,180.301,170.457,170.496,169.205,152.118z"/>
	<path display="inline" fill="#EFC06A" stroke="#000000" stroke-miterlimit="10" d="M137.789,178.025
		c0,3.358-5.149,6.081-11.5,6.081s-14.333-2.723-14.333-6.081c0-3.357,7.982-6.08,14.333-6.08S137.789,174.668,137.789,178.025z"/>
	<path display="inline" fill="#EFC06A" stroke="#000000" stroke-miterlimit="10" d="M167.614,176.525
		c0,3.358-5.149,6.081-11.5,6.081s-15.595-1.702-15.595-5.061c0-3.357,9.245-7.101,15.595-7.101S167.614,173.168,167.614,176.525z"
		/>
	<g display="inline">
		<path d="M110.539,173.413c0,0,0.333-0.319,0.964-0.82c0.637-0.492,1.55-1.203,2.734-1.925c0.589-0.365,1.242-0.738,1.943-1.115
			c0.707-0.367,1.455-0.756,2.266-1.077c0.804-0.337,1.652-0.651,2.535-0.912c0.886-0.246,1.793-0.483,2.724-0.62
			c0.927-0.15,1.87-0.211,2.798-0.22c0.929,0.013,1.846,0.091,2.714,0.272c0.874,0.149,1.693,0.428,2.439,0.74
			s1.428,0.665,2.013,1.055c0.611,0.35,1.083,0.797,1.526,1.146c0.402,0.401,0.766,0.732,1.037,1.032
			c0.514,0.621,0.808,0.977,0.808,0.977s-0.343-0.304-0.943-0.836c-0.302-0.261-0.699-0.542-1.133-0.881
			c-0.476-0.283-0.976-0.652-1.581-0.952c-0.585-0.33-1.259-0.616-1.984-0.857c-0.366-0.115-0.736-0.245-1.132-0.318
			c-0.391-0.091-0.787-0.188-1.202-0.236c-0.819-0.148-1.684-0.162-2.558-0.175c-0.875,0.02-1.766,0.089-2.647,0.241
			c-0.886,0.118-1.759,0.335-2.614,0.561c-0.849,0.247-1.687,0.497-2.478,0.801c-1.586,0.592-3.047,1.229-4.255,1.864
			c-1.209,0.632-2.22,1.171-2.899,1.596C110.926,173.163,110.539,173.413,110.539,173.413z"/>
	</g>
	<g display="inline">
		<path d="M142.039,171.945c0,0,0.321-0.244,0.923-0.614c0.602-0.367,1.471-0.887,2.565-1.413c0.553-0.248,1.146-0.532,1.793-0.793
			c0.648-0.255,1.324-0.55,2.058-0.761c0.722-0.243,1.48-0.462,2.265-0.636c0.773-0.213,1.59-0.302,2.393-0.452
			c0.812-0.098,1.633-0.144,2.436-0.19c0.809,0.028,1.605,0.008,2.369,0.115c0.761,0.13,1.51,0.17,2.182,0.405
			c0.672,0.221,1.328,0.347,1.885,0.612c0.562,0.25,1.066,0.5,1.508,0.721c0.432,0.242,0.77,0.522,1.064,0.716
			c0.578,0.411,0.895,0.653,0.895,0.653s-0.362-0.177-0.996-0.486c-0.315-0.149-0.676-0.373-1.125-0.549
			c-0.463-0.149-0.98-0.319-1.532-0.524c-0.552-0.209-1.2-0.273-1.853-0.43c-0.326-0.084-0.67-0.122-1.025-0.14
			c-0.352-0.033-0.712-0.067-1.077-0.102c-0.729-0.078-1.495,0.002-2.263-0.026c-0.771,0.056-1.556,0.112-2.334,0.216
			c-0.775,0.134-1.562,0.206-2.316,0.403c-0.76,0.164-1.51,0.321-2.222,0.535c-1.437,0.381-2.761,0.815-3.884,1.228
			c-0.559,0.215-1.071,0.412-1.526,0.586c-0.453,0.18-0.848,0.339-1.168,0.483C142.407,171.784,142.039,171.945,142.039,171.945z"/>
	</g>
	<g display="inline">
		<path d="M142.039,168.296c0,0,0.321-0.244,0.923-0.614c0.602-0.367,1.471-0.887,2.565-1.413c0.553-0.248,1.146-0.532,1.793-0.793
			c0.648-0.255,1.324-0.55,2.058-0.761c0.722-0.243,1.48-0.462,2.265-0.636c0.773-0.213,1.59-0.302,2.393-0.452
			c0.812-0.098,1.633-0.144,2.436-0.19c0.809,0.028,1.605,0.008,2.369,0.115c0.761,0.13,1.51,0.17,2.182,0.405
			c0.672,0.221,1.328,0.347,1.885,0.611c0.562,0.251,1.066,0.501,1.508,0.722c0.432,0.242,0.77,0.522,1.064,0.716
			c0.578,0.411,0.895,0.653,0.895,0.653s-0.362-0.177-0.996-0.486c-0.315-0.149-0.676-0.373-1.125-0.549
			c-0.463-0.149-0.98-0.319-1.532-0.524c-0.552-0.209-1.2-0.273-1.853-0.43c-0.326-0.084-0.67-0.122-1.025-0.14
			c-0.352-0.033-0.712-0.067-1.077-0.102c-0.729-0.078-1.495,0.002-2.263-0.026c-0.771,0.056-1.556,0.112-2.334,0.216
			c-0.775,0.134-1.562,0.206-2.316,0.403c-0.76,0.164-1.51,0.321-2.222,0.535c-1.437,0.381-2.761,0.815-3.884,1.228
			c-0.559,0.215-1.071,0.412-1.526,0.586c-0.453,0.18-0.848,0.339-1.168,0.483C142.407,168.135,142.039,168.296,142.039,168.296z"/>
	</g>
	<g display="inline">
		<path d="M108.914,168.296c0,0,0.321-0.244,0.923-0.614c0.602-0.367,1.471-0.887,2.565-1.413c0.553-0.248,1.147-0.532,1.793-0.793
			c0.648-0.255,1.324-0.55,2.058-0.761c0.722-0.243,1.48-0.462,2.265-0.636c0.774-0.213,1.59-0.302,2.393-0.452
			c0.812-0.098,1.632-0.144,2.436-0.19c0.808,0.028,1.605,0.008,2.369,0.115c0.76,0.13,1.509,0.17,2.181,0.405
			c0.672,0.221,1.329,0.347,1.886,0.611c0.562,0.251,1.065,0.501,1.507,0.722c0.431,0.242,0.77,0.522,1.064,0.716
			c0.578,0.411,0.895,0.653,0.895,0.653s-0.362-0.177-0.995-0.486c-0.316-0.149-0.676-0.373-1.126-0.549
			c-0.463-0.149-0.98-0.319-1.532-0.524c-0.551-0.209-1.201-0.273-1.853-0.43c-0.326-0.084-0.67-0.122-1.026-0.14
			c-0.352-0.033-0.711-0.067-1.077-0.102c-0.729-0.078-1.495,0.002-2.263-0.026c-0.77,0.056-1.555,0.112-2.333,0.216
			c-0.776,0.134-1.562,0.206-2.316,0.403c-0.76,0.164-1.509,0.321-2.222,0.535c-1.436,0.381-2.761,0.815-3.883,1.228
			c-0.559,0.215-1.072,0.412-1.526,0.586c-0.453,0.18-0.848,0.339-1.168,0.483C109.282,168.135,108.914,168.296,108.914,168.296z"/>
	</g>
	
		<ellipse display="inline" fill="#EFC06A" stroke="#000000" stroke-miterlimit="10" cx="137.493" cy="110.752" rx="30.121" ry="22.839"/>
	<path display="inline" fill="#EFC06A" stroke="#000000" stroke-miterlimit="10" d="M119.373,114.413"/>
	<circle display="inline" fill="#EFC06A" stroke="#000000" stroke-miterlimit="10" cx="126.539" cy="109.274" r="7.333"/>
	<circle display="inline" fill="#EFC06A" stroke="#000000" stroke-miterlimit="10" cx="129.706" cy="109.274" r="7.333"/>
	<circle display="inline" fill="#EFC06A" stroke="#000000" stroke-miterlimit="10" cx="150.872" cy="107.081" r="7.333"/>
	<circle display="inline" fill="#EFC06A" stroke="#000000" stroke-miterlimit="10" cx="154.039" cy="107.081" r="7.333"/>
	
		<line display="inline" fill="#EFC06A" stroke="#000000" stroke-miterlimit="10" x1="119.206" y1="109.274" x2="107.882" y2="106.562"/>
	
		<line display="inline" fill="#EFC06A" stroke="#000000" stroke-miterlimit="10" x1="161.207" y1="105.536" x2="165.463" y2="102.26"/>
	<path display="inline" fill="#EFC06A" stroke="#000000" stroke-miterlimit="10" d="M119.373,97.246c0,0,7.167,0,8.833-4"/>
	<path display="inline" fill="#EFC06A" stroke="#000000" stroke-miterlimit="10" d="M146.705,96.58c1.888,1.114,7.037,1.795,7.501,0
		"/>
	<path display="inline" fill="#EFC06A" stroke="#000000" stroke-miterlimit="10" d="M145.04,142.579c0,0,9.655,2.717,13.165,0
		c1.184-0.916-1.416,11.352-3.166,11.26c-4.476-0.234-6.531,0.594-8.334-0.321C144.24,152.265,145.04,142.579,145.04,142.579z"/>
	<path display="inline" fill="#EFC06A" stroke="#000000" stroke-miterlimit="10" d="M151.289,143.698
		c0.076-0.429,0.084-0.656,0.084-1.168c0-1.749-0.504-3.167-1.125-3.167s-1.125,1.418-1.125,3.167c0,0.438-0.059,0.415-0.001,0.794
		C149.393,143.36,151.008,143.688,151.289,143.698z"/>
	<path display="inline" fill="#EFC06A" stroke="#000000" stroke-miterlimit="10" d="M156.247,143.356
		c0.017-0.216,0.026-0.438,0.026-0.669c0-1.749-0.159-3.238-1.125-3.167c-0.619,0.046-1.406,1.261-1.406,3.01
		c0,0.463,0.057,0.633,0.121,1.029C154.113,143.487,155.787,143.453,156.247,143.356z"/>
	<path display="inline" fill="#EFC06A" stroke="#000000" stroke-miterlimit="10" d="M114.405,142.035
		c0.917-0.875,0.798-1.103,0.734-1.344c-0.297-1.125-0.352-1.328-1.525-1.328s-2.243,0.683-2.969,1.349
		c-0.316,0.29-3.977,3.799-3.977,6.295c0,3.161,2.646,5.723,5.91,5.723s5.91-2.562,5.91-5.723
		C118.488,144.511,118.842,142.285,114.405,142.035z"/>
	<path display="inline" fill="#EFC06A" stroke="#000000" stroke-miterlimit="10" d="M167.834,143.004
		c-0.917-0.875-0.799-1.103-0.734-1.344c0.297-1.125,0.352-1.328,1.525-1.328s2.242,0.683,2.969,1.349
		c0.315,0.29,3.977,3.799,3.977,6.295c0,3.161-2.646,5.723-5.91,5.723s-5.91-2.562-5.91-5.723
		C163.75,145.479,163.396,143.254,167.834,143.004z"/>
	<polygon display="inline" fill="#EFC06A" stroke="#000000" stroke-miterlimit="10" points="132.431,115.523 102.61,130.246 
		114.609,129.579 102.61,143.523 120.61,134.413 117.776,145.579 140.519,121.413 	"/>
	<polygon display="inline" fill="#EFC06A" stroke="#000000" stroke-miterlimit="10" points="152.461,115.523 182.281,130.246 
		170.282,129.579 182.281,143.523 164.281,134.413 167.115,145.579 144.373,121.413 	"/>
	
		<ellipse display="inline" fill="#EFC06A" stroke="#000000" stroke-miterlimit="10" cx="142.325" cy="115.865" rx="13.119" ry="6.619"/>
	<path display="inline" fill="#EFC06A" stroke="#000000" stroke-miterlimit="10" d="M139.363,72.44l-2.435,16.572l0,0
		c-0.083,0.754,3.129,1.733,7.176,2.186c4.048,0.452,7.396,0.207,7.482-0.547l0,0l1.712-15.311L139.363,72.44z"/>
	<path display="inline" fill="#EFC06A" stroke="#000000" stroke-miterlimit="10" d="M153.299,75.34
		c-0.303,0.697-3.109,0.92-7.094,0.073c-3.983-0.848-6.996-2.337-6.854-3.083c0.226-1.186,3.54-0.66,7.523,0.188
		C150.859,73.366,153.811,74.163,153.299,75.34z"/>
	<path display="inline" fill="#EFC06A" stroke="#000000" stroke-miterlimit="10" d="M137.082,88.742
		c0.035-0.31-0.494-0.657-1.402-0.991v-1.245l-1.603,0.769c-0.062-0.016-0.118-0.031-0.182-0.046l-0.372-1.378
		c0,0-1.295,1.038-1.627,0.982l-0.248-1.545l-1.418,1.31c-0.109-0.013-0.214-0.029-0.324-0.041
		c-0.134-0.015-0.266-0.027-0.399-0.041l-0.827-1.54l-1.491,1.376c-0.285-0.011-0.564-0.018-0.831-0.021l-2.241-1.355l0.166,1.438
		c-0.211,0.022-0.407,0.048-0.586,0.078l-1.548-0.565l0.365,1.006c-0.048,0.054-1.733,0.658-1.678,0.684
		c0.325,0.15,1.688,0.304,2.084,0.522l-0.178,0.761l2.411-0.397c0.041,0.011,0.083,0.021,0.125,0.032l0.271,0.967l2.022-0.494
		c0.115,0.02,0.232,0.038,0.349,0.056l0.601,0.72l1.743-0.426c0.209,0.02,0.416,0.037,0.62,0.053l0.483,0.579l1.943-0.475
		c0.173,0,0.343,0,0.507-0.003l0.3,1.338l1.281-1.484l1.922,0.188C137.578,89.445,137.065,88.893,137.082,88.742z"/>
	<path display="inline" fill="#EFC06A" stroke="#000000" stroke-miterlimit="10" d="M137.61,84.368c0,0,7.265,5.065,14.452,2.023"/>
	<path display="inline" fill="#EFC06A" stroke="#000000" stroke-miterlimit="10" d="M138.538,76.612c0,0,7.265,5.065,14.453,2.023"
		/>
	<g display="inline">
		<path fill="#EFC06A" d="M144.008,73.934c0,0-5.875-2.156,1.312-0.642"/>
		<path d="M144.008,73.934c0,0-0.391-0.057-0.954-0.223c-0.278-0.092-0.608-0.186-0.951-0.341c-0.085-0.04-0.173-0.083-0.263-0.132
			c-0.047-0.03-0.089-0.049-0.142-0.091c-0.047-0.047-0.104-0.053-0.176-0.226c-0.046-0.09,0.011-0.256,0.112-0.326
			c0.046-0.027,0.112-0.055,0.152-0.063c0.064-0.011,0.138-0.023,0.188-0.022c0.114-0.006,0.214,0.001,0.318,0.005
			c1.588,0.158,3.029,0.778,3.029,0.778s-0.396-0.002-0.975-0.055c-0.577-0.048-1.352-0.154-2.092-0.225
			c-0.089-0.006-0.183-0.015-0.261-0.013c-0.047-0.002-0.068,0.005-0.099,0.006c-0.007,0.002,0.017-0.003,0.018-0.014
			c0.07-0.035,0.093-0.16,0.075-0.202c-0.059-0.103,0.044,0.03,0.098,0.053c0.07,0.047,0.144,0.093,0.22,0.136
			c0.305,0.172,0.599,0.342,0.857,0.473C143.671,73.727,144.008,73.934,144.008,73.934z"/>
	</g>
	<g display="inline">
		<path fill="#EFC06A" d="M146.195,74.434c0,0,9.348,1.517,1.938-0.634"/>
		<path d="M146.195,74.434c0,0,0.502,0.001,1.244,0.047c0.742,0.044,1.732,0.134,2.702,0.205c0.234,0.016,0.498,0.033,0.675,0.009
			c0.035-0.002,0.014-0.005,0.013,0.003c0.022-0.006-0.05,0.017-0.077,0.102c-0.011,0.089,0,0.101,0.002,0.128
			c0.043,0.069,0.032,0.039,0.014,0.032c-0.014-0.01-0.02-0.021-0.047-0.034c-0.086-0.053-0.188-0.101-0.288-0.148
			c-0.409-0.183-0.812-0.353-1.156-0.488c-0.688-0.279-1.144-0.492-1.144-0.492s0.498,0.058,1.229,0.223
			c0.361,0.096,0.789,0.182,1.24,0.349c0.112,0.043,0.229,0.087,0.352,0.151c0.027,0.011,0.068,0.04,0.104,0.064
			c0.031,0.027,0.072,0.03,0.139,0.157c0.021,0.053,0.051,0.09,0.013,0.206c-0.042,0.112-0.126,0.165-0.137,0.164
			c-0.058,0.029-0.134,0.055-0.161,0.056c-0.307,0.046-0.541,0.024-0.801,0.016c-1.007-0.069-1.98-0.265-2.709-0.427
			C146.672,74.592,146.195,74.434,146.195,74.434z"/>
	</g>
</g>
<g id="Layer_4_copy">
	<path fill="#EFC06A" stroke="#000000" stroke-miterlimit="10" d="M29.491,208.708c0.727-1.818,1.409-3.249,1.149-5.223
		c-0.259-1.506-1.461-3.452-2.344-4.543c-0.831-1.039-1.163-4.539-1.163-4.539l-1.377,0.133c-0.121-0.882-0.111-1.807-0.004-2.658
		c0.104-0.987,0.623-2.285,0.363-3.273c-0.156-0.519-2.805-3.896-4.727-3.947c-1.455-0.052-3.58-1.603-7.117,2.806
		c-2.173,2.708-3.117,6.701-3.844,10.025c-0.259,1.091,0,2.233,0.104,3.376c0.104,1.767-0.052,3.74,0.571,5.454
		c0.468,1.195,1.61,1.975,2.494,2.857c1.143,1.247,2.389,1.975,3.74,2.856c1.09,0.78,2.233,1.767,3.688,1.507
		C21.024,213.539,28.088,211.98,29.491,208.708z"/>
	<ellipse cx="18.356" cy="190.415" rx="0.594" ry="1.188"/>
	<ellipse cx="23.979" cy="191.238" rx="0.594" ry="1.188"/>
	<line fill="#EFC06A" stroke="#000000" stroke-miterlimit="10" x1="27.133" y1="194.403" x2="15.762" y2="195.569"/>
	<path fill="#EFC06A" stroke="#000000" stroke-miterlimit="10" d="M22.439,217.001c0,0.479,1.31,0.869,2.925,0.869
		c1.616,0,2.926-0.39,2.926-0.869s-0.655-1.41-2.271-1.41S22.439,216.521,22.439,217.001z"/>
	<path fill="#EFC06A" stroke="#000000" stroke-miterlimit="10" d="M18.19,218.181c0,0.48,1.31,0.869,2.925,0.869
		s2.926-0.389,2.926-0.869c0-0.479-0.654-1.41-2.271-1.41S18.19,217.702,18.19,218.181z"/>
	<line fill="#EFC06A" stroke="#000000" stroke-miterlimit="10" x1="23.384" y1="216.205" x2="23.384" y2="212.856"/>
	<line fill="#EFC06A" stroke="#000000" stroke-miterlimit="10" x1="19.453" y1="217.035" x2="19.453" y2="213.362"/>
	<line fill="#EFC06A" stroke="#000000" stroke-miterlimit="10" x1="30.31" y1="202.895" x2="26.516" y2="202.895"/>
	<line fill="#EFC06A" stroke="#000000" stroke-miterlimit="10" x1="16.619" y1="208.403" x2="12.825" y2="208.403"/>
	<line fill="#EFC06A" stroke="#000000" stroke-miterlimit="10" x1="14.676" y1="200.266" x2="10.882" y2="200.266"/>
	<line fill="#EFC06A" stroke="#000000" stroke-miterlimit="10" x1="21.098" y1="205.386" x2="18.693" y2="205.386"/>
	<line fill="#EFC06A" stroke="#000000" stroke-miterlimit="10" x1="16.964" y1="187.438" x2="14.559" y2="187.438"/>
	<line fill="#EFC06A" stroke="#000000" stroke-miterlimit="10" x1="27.856" y1="210.548" x2="25.625" y2="210.548"/>
	<line fill="none" stroke="#000000" stroke-miterlimit="10" x1="13.556" y1="202.62" x2="13.556" y2="212.22"/>
	<path fill="none" stroke="#000000" stroke-miterlimit="10" d="M11.497,213.158c0,0,1.328,1.568,2.06-0.938"/>
	<path fill="none" stroke="#000000" stroke-miterlimit="10" d="M11.725,214.581c0,0,2.181,1.616,1.831-2.361"/>
	<path fill="none" stroke="#000000" stroke-miterlimit="10" d="M13.647,214.384c0,0,1.356-0.038-0.053-2.134"/>
	<path fill="none" stroke="#000000" stroke-miterlimit="10" d="M14.973,212.608c0,0-0.738-0.469-1.379-0.754"/>
</g>
<g id="proffesorn_copy">
	<path fill="#EFC06A" stroke="#000000" stroke-miterlimit="10" d="M56.093,202.026c-0.68-9.99-5.305-18.13-11.849-18.13
		c-6.543,0-11.128,8.143-11.849,18.13c-0.931,12.906,1.32,8.165,13.261,9.004C59.823,212.025,56.537,208.547,56.093,202.026z"/>
	<path fill="#EFC06A" stroke="#000000" stroke-miterlimit="10" d="M44.947,211.218c0,1.192-1.827,2.157-4.08,2.157
		c-2.253,0-5.085-0.965-5.085-2.157c0-1.191,2.832-2.157,5.085-2.157C43.12,209.061,44.947,210.026,44.947,211.218z"/>
	<path fill="#EFC06A" stroke="#000000" stroke-miterlimit="10" d="M55.529,210.686c0,1.191-1.827,2.157-4.08,2.157
		s-5.533-0.604-5.533-1.795s3.28-2.52,5.533-2.52S55.529,209.494,55.529,210.686z"/>
	<g>
		<path d="M35.279,209.581c0,0,0.411-0.538,1.22-1.135c0.201-0.15,0.428-0.302,0.674-0.452c0.254-0.136,0.511-0.309,0.808-0.425
			c0.572-0.277,1.234-0.474,1.918-0.598c0.342-0.055,0.698-0.059,1.04-0.073c0.348,0.032,0.691,0.04,1.012,0.134
			c0.321,0.091,0.635,0.157,0.899,0.317c0.268,0.144,0.532,0.251,0.722,0.438c0.203,0.165,0.38,0.321,0.531,0.462
			c0.131,0.163,0.236,0.312,0.322,0.431c0.17,0.241,0.255,0.38,0.255,0.38s-0.143-0.086-0.393-0.235
			c-0.117-0.077-0.259-0.169-0.422-0.275c-0.179-0.079-0.378-0.164-0.583-0.266c-0.198-0.118-0.455-0.148-0.695-0.235
			c-0.238-0.098-0.52-0.093-0.789-0.148c-0.271-0.061-0.568-0.005-0.855-0.037c-0.293,0.026-0.593,0.039-0.89,0.096
			c-0.599,0.089-1.194,0.247-1.751,0.428c-0.558,0.178-1.074,0.381-1.522,0.558C35.88,209.326,35.279,209.581,35.279,209.581z"/>
	</g>
	<g>
		<path d="M46.455,209.061c0,0,0.408-0.438,1.165-0.891c0.377-0.225,0.836-0.464,1.358-0.651c0.515-0.207,1.1-0.335,1.691-0.434
			c0.597-0.066,1.207-0.083,1.772,0.01c0.282,0.056,0.554,0.088,0.801,0.188c0.247,0.092,0.482,0.161,0.68,0.279
			c0.404,0.215,0.704,0.435,0.884,0.631c0.188,0.18,0.284,0.287,0.284,0.287s-0.141-0.043-0.387-0.117
			c-0.12-0.036-0.258-0.092-0.421-0.138c-0.169-0.033-0.355-0.071-0.551-0.122c-0.195-0.05-0.423-0.048-0.646-0.091
			c-0.224-0.044-0.474-0.013-0.719-0.041c-0.248-0.019-0.509,0.029-0.769,0.019c-0.262,0.023-0.529,0.047-0.795,0.085
			c-0.267,0.043-0.536,0.063-0.797,0.128c-0.262,0.055-0.525,0.091-0.774,0.157c-0.504,0.108-0.974,0.236-1.386,0.336
			C47.01,208.915,46.455,209.061,46.455,209.061z"/>
	</g>
	<g>
		<path d="M46.455,207.767c0,0,0.408-0.438,1.165-0.891c0.378-0.225,0.836-0.464,1.358-0.651c0.515-0.208,1.1-0.335,1.691-0.435
			c0.597-0.066,1.207-0.083,1.772,0.01c0.281,0.056,0.554,0.089,0.801,0.188c0.247,0.092,0.482,0.161,0.68,0.279
			c0.404,0.215,0.704,0.435,0.884,0.631c0.188,0.18,0.284,0.287,0.284,0.287s-0.141-0.043-0.387-0.117
			c-0.12-0.036-0.258-0.092-0.421-0.138c-0.169-0.033-0.355-0.071-0.551-0.122c-0.196-0.05-0.423-0.048-0.646-0.091
			c-0.224-0.044-0.474-0.013-0.719-0.041c-0.248-0.019-0.509,0.029-0.769,0.02c-0.262,0.023-0.529,0.047-0.795,0.085
			c-0.267,0.043-0.536,0.062-0.797,0.127c-0.262,0.055-0.525,0.092-0.774,0.158c-0.504,0.107-0.974,0.236-1.386,0.335
			C47.01,207.621,46.455,207.767,46.455,207.767z"/>
	</g>
	<g>
		<path d="M34.702,207.767c0,0,0.408-0.438,1.165-0.891c0.378-0.225,0.836-0.464,1.358-0.651c0.515-0.208,1.1-0.335,1.691-0.435
			c0.597-0.066,1.207-0.083,1.772,0.01c0.282,0.056,0.554,0.089,0.801,0.188c0.247,0.092,0.482,0.161,0.68,0.279
			c0.404,0.215,0.704,0.435,0.884,0.631c0.188,0.18,0.284,0.287,0.284,0.287s-0.141-0.043-0.387-0.117
			c-0.12-0.036-0.258-0.092-0.421-0.138c-0.168-0.033-0.355-0.071-0.551-0.122c-0.195-0.05-0.423-0.048-0.646-0.091
			c-0.223-0.044-0.474-0.013-0.719-0.041c-0.248-0.019-0.509,0.029-0.769,0.02c-0.262,0.023-0.529,0.047-0.795,0.085
			c-0.267,0.043-0.536,0.062-0.797,0.127c-0.262,0.055-0.525,0.092-0.774,0.158c-0.504,0.107-0.974,0.236-1.386,0.335
			C35.257,207.621,34.702,207.767,34.702,207.767z"/>
	</g>
	<ellipse fill="#EFC06A" stroke="#000000" stroke-miterlimit="10" cx="44.842" cy="187.35" rx="10.687" ry="8.104"/>
	<path fill="#EFC06A" stroke="#000000" stroke-miterlimit="10" d="M38.413,188.648"/>
	<circle fill="#EFC06A" stroke="#000000" stroke-miterlimit="10" cx="40.956" cy="186.826" r="2.602"/>
	<circle fill="#EFC06A" stroke="#000000" stroke-miterlimit="10" cx="42.079" cy="186.826" r="2.602"/>
	<circle fill="#EFC06A" stroke="#000000" stroke-miterlimit="10" cx="49.589" cy="186.048" r="2.602"/>
	<circle fill="#EFC06A" stroke="#000000" stroke-miterlimit="10" cx="50.712" cy="186.048" r="2.602"/>
	<line fill="#EFC06A" stroke="#000000" stroke-miterlimit="10" x1="38.354" y1="186.826" x2="34.336" y2="185.863"/>
	<line fill="#EFC06A" stroke="#000000" stroke-miterlimit="10" x1="53.255" y1="185.499" x2="54.765" y2="184.337"/>
	<path fill="#EFC06A" stroke="#000000" stroke-miterlimit="10" d="M38.413,182.559c0,0,2.542,0,3.134-1.42"/>
	<path fill="#EFC06A" stroke="#000000" stroke-miterlimit="10" d="M48.11,182.321c0.67,0.396,2.497,0.638,2.661,0"/>
	<path fill="#EFC06A" stroke="#000000" stroke-miterlimit="10" d="M47.52,198.642c0,0,3.426,0.964,4.671,0
		c0.42-0.325-0.502,4.027-1.124,3.995c-1.587-0.083-2.317,0.211-2.957-0.114C47.236,202.078,47.52,198.642,47.52,198.642z"/>
	<path fill="#EFC06A" stroke="#000000" stroke-miterlimit="10" d="M49.736,199.039c0.027-0.152,0.03-0.233,0.03-0.415
		c0-0.62-0.179-1.123-0.399-1.123c-0.22,0-0.399,0.503-0.399,1.123c0,0.156-0.021,0.147,0,0.282
		C49.063,198.919,49.637,199.035,49.736,199.039z"/>
	<path fill="#EFC06A" stroke="#000000" stroke-miterlimit="10" d="M51.496,198.918c0.006-0.077,0.01-0.156,0.01-0.237
		c0-0.621-0.057-1.149-0.399-1.124c-0.22,0.017-0.499,0.447-0.499,1.067c0,0.165,0.021,0.226,0.043,0.365
		C50.739,198.964,51.333,198.952,51.496,198.918z"/>
	<path fill="#EFC06A" stroke="#000000" stroke-miterlimit="10" d="M36.65,198.449c0.325-0.311,0.283-0.392,0.261-0.477
		c-0.105-0.399-0.125-0.472-0.542-0.472c-0.416,0-0.795,0.242-1.053,0.479c-0.112,0.103-1.411,1.348-1.411,2.233
		c0,1.121,0.938,2.03,2.097,2.03c1.158,0,2.097-0.909,2.097-2.03C38.1,199.327,38.225,198.537,36.65,198.449z"/>
	<path fill="#EFC06A" stroke="#000000" stroke-miterlimit="10" d="M55.606,198.793c-0.325-0.311-0.283-0.392-0.26-0.478
		c0.105-0.398,0.125-0.471,0.541-0.471s0.795,0.242,1.054,0.479c0.111,0.103,1.411,1.348,1.411,2.233c0,1.121-0.939,2.03-2.097,2.03
		c-1.158,0-2.097-0.909-2.097-2.03C54.158,199.671,54.032,198.881,55.606,198.793z"/>
	<polygon fill="#EFC06A" stroke="#000000" stroke-miterlimit="10" points="43.046,189.043 32.466,194.267 36.723,194.029 
		32.466,198.977 38.852,195.744 37.847,199.706 45.916,191.133 	"/>
	<polygon fill="#EFC06A" stroke="#000000" stroke-miterlimit="10" points="50.152,189.043 60.732,194.267 56.475,194.029 
		60.732,198.977 54.346,195.744 55.352,199.706 47.283,191.133 	"/>
	<ellipse fill="#EFC06A" stroke="#000000" stroke-miterlimit="10" cx="46.556" cy="189.164" rx="4.654" ry="2.349"/>
	<path fill="#EFC06A" stroke="#000000" stroke-miterlimit="10" d="M45.506,173.757l-0.864,5.879l0,0
		c-0.029,0.269,1.11,0.616,2.546,0.776c1.436,0.161,2.624,0.073,2.654-0.194l0,0l0.607-5.432L45.506,173.757z"/>
	<path fill="#EFC06A" stroke="#000000" stroke-miterlimit="10" d="M50.45,174.786c-0.107,0.247-1.103,0.326-2.517,0.025
		s-2.482-0.829-2.432-1.094c0.08-0.421,1.255-0.233,2.669,0.066C49.584,174.086,50.631,174.368,50.45,174.786z"/>
	<path fill="#EFC06A" stroke="#000000" stroke-miterlimit="10" d="M44.696,179.541c0.012-0.11-0.176-0.233-0.498-0.352v-0.441
		l-0.569,0.272c-0.022-0.006-0.042-0.012-0.064-0.017l-0.132-0.489c0,0-0.459,0.368-0.578,0.349l-0.087-0.548l-0.503,0.465
		c-0.039-0.005-0.076-0.011-0.115-0.015c-0.047-0.006-0.094-0.011-0.141-0.016l-0.293-0.546l-0.529,0.488
		c-0.101-0.004-0.2-0.006-0.295-0.007l-0.795-0.481l0.059,0.511c-0.075,0.007-0.144,0.017-0.208,0.027l-0.549-0.2l0.129,0.356
		c-0.017,0.02-0.615,0.233-0.595,0.243c0.115,0.053,0.599,0.108,0.739,0.186l-0.063,0.27l0.855-0.141
		c0.015,0.004,0.03,0.008,0.044,0.011l0.096,0.344l0.717-0.176c0.041,0.008,0.082,0.014,0.124,0.021l0.213,0.255l0.619-0.15
		c0.074,0.007,0.147,0.013,0.22,0.019l0.171,0.205l0.689-0.168c0.062,0,0.122,0,0.18-0.001l0.106,0.475l0.455-0.527l0.682,0.067
		C44.872,179.79,44.69,179.595,44.696,179.541z"/>
	<path fill="#EFC06A" stroke="#000000" stroke-miterlimit="10" d="M44.883,177.989c0,0,2.578,1.796,5.128,0.718"/>
	<path fill="#EFC06A" stroke="#000000" stroke-miterlimit="10" d="M45.212,175.237c0,0,2.578,1.797,5.128,0.718"/>
	<g>
		<path fill="#EFC06A" d="M47.153,174.287c0,0-2.084-0.766,0.466-0.229"/>
		<path d="M47.153,174.287c0,0-0.156,0.028-0.373,0.005c-0.105-0.02-0.234-0.03-0.368-0.079l-0.107-0.046l-0.071-0.043
			c-0.017-0.014-0.012-0.003-0.045-0.038c-0.035-0.04-0.065-0.102-0.074-0.159c-0.062-0.083,0.139-0.305,0.215-0.291l0.087-0.011
			c0.067-0.007,0.095-0.002,0.137-0.001c0.308,0.024,0.561,0.131,0.756,0.229c0.191,0.101,0.309,0.206,0.309,0.206
			s-0.151,0.052-0.363,0.07c-0.209,0.021-0.495,0.018-0.733-0.007l-0.068-0.008l-0.016-0.004c-0.007,0.004,0.092-0.023,0.121-0.083
			c0.038-0.064,0.03-0.111,0.036-0.147c0-0.043-0.022-0.09-0.049-0.115c-0.024-0.021-0.002-0.004-0.006-0.007l0.01,0.016
			l0.063,0.049c0.097,0.066,0.188,0.151,0.273,0.21C47.052,174.165,47.153,174.287,47.153,174.287z"/>
	</g>
	<g>
		<path fill="#EFC06A" d="M47.929,174.465c0,0,3.317,0.538,0.688-0.226"/>
		<path d="M47.929,174.465c0,0,0.186-0.051,0.455-0.072c0.267-0.022,0.624-0.025,0.956,0.001c0.075,0.008,0.178,0.012,0.199,0.012
			c0.014-0.002-0.024,0.004-0.043,0.02c0.011-0.004-0.061,0.026-0.095,0.119c-0.021,0.098-0.004,0.12,0.004,0.154
			c0.049,0.088,0.057,0.07,0.054,0.073c0.002,0.001,0.012,0.004,0.002-0.002c-0.018-0.015-0.05-0.033-0.082-0.052
			c-0.14-0.079-0.271-0.153-0.383-0.218c-0.231-0.135-0.378-0.261-0.378-0.261s0.191-0.029,0.463-0.007
			c0.134,0.021,0.293,0.024,0.467,0.079c0.044,0.014,0.089,0.028,0.146,0.055c0.01,0.003,0.036,0.02,0.055,0.033
			c0.015,0.015,0.041,0.009,0.099,0.117c0.016,0.044,0.038,0.075,0.007,0.183c-0.039,0.103-0.116,0.141-0.117,0.141
			c-0.039,0.023-0.097,0.039-0.105,0.039c-0.15,0.023-0.224,0.015-0.324,0.014c-0.369-0.023-0.709-0.128-0.964-0.223
			C48.09,174.572,47.929,174.465,47.929,174.465z"/>
	</g>
</g>
<g id="highscore" display="none">
	<g display="inline">
		<text transform="matrix(1 0 0 1 51.5557 96.1582)"><tspan x="0" y="0" font-family="'Neucha'" font-size="24.4995">1. M3G4-tatis</tspan><tspan x="0" y="29.399" font-family="'Neucha'" font-size="24.4995">2. Else-Britt</tspan><tspan x="0" y="58.799" font-family="'Neucha'" font-size="24.4995">3. Professorn</tspan><tspan x="0" y="88.198" font-family="'Neucha'" font-size="24.4995">4. Snubben innan</tspan><tspan x="0" y="117.598" font-family="'Neucha'" font-size="24.4995">5. Du</tspan></text>
		<text transform="matrix(1 0 0 1 205.0859 96.1582)"><tspan x="0" y="0" font-family="'Neucha'" font-size="24.4995">9998</tspan><tspan x="0" y="29.399" font-family="'Neucha'" font-size="24.4995">7233</tspan><tspan x="0" y="58.799" font-family="'Neucha'" font-size="24.4995">0254</tspan><tspan x="0" y="88.198" font-family="'Neucha'" font-size="24.4995">0100</tspan><tspan x="0" y="117.598" font-family="'Neucha'" font-size="24.4995">0000</tspan></text>
	</g>
	
		<text transform="matrix(1 0 0 1 76.6777 48.792)" display="inline" fill="none" stroke="#000000" stroke-width="5" font-family="'Neucha'" font-size="39.1991">High Score</text>
	<text transform="matrix(1 0 0 1 76.6777 48.792)" display="inline" fill="#EEBF68" font-family="'Neucha'" font-size="39.1991">High Score</text>
</g>
</svg>
