<?xml version="1.0" encoding="utf-8"?>
<!-- Generator: Adobe Illustrator 16.0.4, SVG Export Plug-In . SVG Version: 6.00 Build 0)  -->
<!DOCTYPE svg PUBLIC "-//W3C//DTD SVG 1.1//EN" "http://www.w3.org/Graphics/SVG/1.1/DTD/svg11.dtd">
<svg version="1.1" xmlns="http://www.w3.org/2000/svg" xmlns:xlink="http://www.w3.org/1999/xlink" x="0px" y="0px" width="288px"
	 height="256px" viewBox="0 0 288 256" enable-background="new 0 0 288 256" xml:space="preserve">
<g id="Bakgrund" display="none">
	<g display="inline">
		<polygon points="4.333,202.86 9.942,190.833 9.955,190.807 9.983,190.799 34.618,184.015 34.48,184.205 33.068,161.543 
			33.041,161.103 33.444,161.286 52.458,169.921 52.035,170.222 50.935,158.432 50.895,158.008 51.313,158.092 75.069,162.85 
			74.649,163.17 75.627,148.752 75.663,148.229 76.146,148.434 96.823,157.157 96.432,157.2 111.747,146.175 111.976,146.011 
			112.22,146.154 125.233,153.8 124.829,153.77 143.816,146.071 144.097,145.957 144.325,146.158 152.656,153.493 152.099,153.431 
			170.449,143.461 170.871,143.232 171.077,143.664 175.062,152.004 174.552,151.771 194.227,146.469 194.477,146.401 
			194.643,146.599 203.625,157.281 203.204,157.168 225.552,149.205 225.913,149.076 226.001,149.449 228.647,160.786 
			228.255,160.547 250.931,154.918 251.202,154.852 251.274,155.119 254.256,166.124 253.945,165.935 268.962,162.847 
			269.033,162.832 269.095,162.869 279.899,169.418 279.769,169.637 268.905,163.186 269.038,163.208 254.055,166.454 
			253.811,166.507 253.744,166.264 250.726,155.27 251.069,155.471 228.411,161.174 228.094,161.254 228.019,160.935 
			225.333,149.605 225.782,149.85 203.462,157.887 203.213,157.977 203.041,157.773 194.023,147.122 194.439,147.252 
			174.782,152.618 174.43,152.714 174.271,152.385 170.257,144.058 170.885,144.26 152.567,154.29 152.268,154.454 152.01,154.228 
			143.675,146.897 144.184,146.984 125.172,154.619 124.961,154.704 124.767,154.589 111.78,146.9 112.252,146.88 96.901,157.854 
			96.717,157.986 96.51,157.897 75.854,149.121 76.373,148.804 75.351,163.219 75.322,163.618 74.931,163.539 51.188,158.713 
			51.565,158.373 52.632,170.167 52.679,170.683 52.209,170.467 33.224,161.769 33.599,161.512 34.852,184.184 34.861,184.335 
			34.715,184.374 10.017,190.922 10.058,190.888 		"/>
	</g>
	<g display="inline">
		<line fill="#FFFFFF" x1="34.667" y1="184.194" x2="29.875" y2="108.527"/>
		<polygon points="34.167,184.226 29.875,108.527 35.166,184.163 		"/>
	</g>
	<g display="inline">
		<line fill="#FFFFFF" x1="10.5" y1="190.699" x2="7.25" y2="175.777"/>
		<polygon points="10.011,190.806 7.25,175.777 10.989,190.593 		"/>
	</g>
	<g display="inline">
		<line fill="#FFFFFF" x1="52.333" y1="170.194" x2="46" y2="94.661"/>
		<polygon points="51.835,170.236 46,94.661 52.832,170.152 		"/>
	</g>
	<g display="inline">
		<line fill="#FFFFFF" x1="74.984" y1="163.64" x2="79.167" y2="97.694"/>
		<polygon points="74.485,163.608 79.167,97.694 75.483,163.671 		"/>
	</g>
	<g display="inline">
		<line fill="#FFFFFF" x1="96.667" y1="157.527" x2="96.531" y2="120.694"/>
		<polygon points="96.167,157.529 96.531,120.694 97.167,157.525 		"/>
	</g>
	<g display="inline">
		<line fill="#FFFFFF" x1="111.967" y1="146.444" x2="111.832" y2="109.611"/>
		<polygon points="111.467,146.446 111.832,109.611 112.467,146.442 		"/>
	</g>
	<g display="inline">
		<line fill="#FFFFFF" x1="144.068" y1="146.444" x2="146.5" y2="109.611"/>
		<polygon points="143.569,146.411 146.5,109.611 144.567,146.478 		"/>
	</g>
	<g display="inline">
		<line fill="#FFFFFF" x1="125" y1="154.194" x2="127.432" y2="117.361"/>
		<polygon points="124.501,154.161 127.432,117.361 125.499,154.228 		"/>
	</g>
	<g display="inline">
		<line fill="#FFFFFF" x1="152.547" y1="154.194" x2="154.979" y2="134.277"/>
		<polygon points="152.051,154.134 154.979,134.277 153.043,154.255 		"/>
	</g>
	<g display="inline">
		<line fill="#FFFFFF" x1="170.762" y1="144.621" x2="173.193" y2="124.704"/>
		<polygon points="170.266,144.561 173.193,124.704 171.258,144.682 		"/>
	</g>
	<g display="inline">
		<line fill="#FFFFFF" x1="174.93" y1="152.345" x2="187.25" y2="90.527"/>
		<polygon points="174.439,152.247 187.25,90.527 175.42,152.442 		"/>
	</g>
	<g display="inline">
		<line fill="#FFFFFF" x1="194.496" y1="146.444" x2="200.656" y2="91.527"/>
		<polygon points="193.999,146.389 200.656,91.527 194.993,146.5 		"/>
	</g>
	<g display="inline">
		<line fill="#FFFFFF" x1="203.778" y1="157.567" x2="206.858" y2="124.146"/>
		<polygon points="203.28,157.521 206.858,124.146 204.276,157.613 		"/>
	</g>
	<g display="inline">
		<line fill="#FFFFFF" x1="225.309" y1="149.693" x2="231.125" y2="97.402"/>
		<polygon points="224.812,149.638 231.125,97.402 225.806,149.749 		"/>
	</g>
	<g display="inline">
		<line fill="#FFFFFF" x1="228.558" y1="160.637" x2="234.75" y2="112.215"/>
		<polygon points="228.062,160.573 234.75,112.215 229.054,160.7 		"/>
	</g>
	<g display="inline">
		<line fill="#FFFFFF" x1="250.775" y1="155.211" x2="250.775" y2="105.027"/>
		<polygon points="250.275,155.211 250.775,105.027 251.275,155.211 		"/>
	</g>
	<g display="inline">
		<line fill="#FFFFFF" x1="254.571" y1="165.771" x2="256.285" y2="133.277"/>
		<polygon points="254.072,165.744 256.285,133.277 255.07,165.797 		"/>
	</g>
	<g display="inline">
		<line fill="#FFFFFF" x1="269.049" y1="163.045" x2="270.764" y2="112.215"/>
		<polygon points="268.549,163.028 270.764,112.215 269.549,163.062 		"/>
	</g>
</g>
<g id="Layer_5" display="none">
	<g display="inline">
		<path fill="#EFC06A" d="M40.291,165.014c6.048,20.898,12.097,41.797,18.145,62.694c1.86,6.428,3.72,12.854,5.58,19.281"/>
		<polygon points="40.771,164.875 64.016,246.989 39.811,165.152 		"/>
	</g>
	<g display="inline">
		<path fill="#EFC06A" d="M208.143,156.674C223,192,239,226,254.395,261.448"/>
		<path d="M208.602,156.475c0,0,11.372,26.276,22.745,52.554c11.523,26.21,23.048,52.42,23.048,52.42s-11.753-26.11-23.507-52.221
			c-11.602-26.178-23.204-52.354-23.204-52.354L208.602,156.475z"/>
	</g>
	<g display="inline">
		<path fill="#EFC06A" d="M144.444,167.472"/>
	</g>
	<g display="inline">
		<path fill="#EFC06A" d="M206.234,102.956"/>
	</g>
	<g display="inline">
		<line fill="#EFC06A" x1="211.727" y1="163.64" x2="206.349" y2="223.89"/>
		<polygon points="212.225,163.685 206.349,223.89 211.229,163.595 		"/>
	</g>
	<g display="inline">
		<line fill="#EFC06A" x1="204.219" y1="157.527" x2="197.525" y2="225.902"/>
		<polygon points="204.717,157.576 197.525,225.902 203.721,157.479 		"/>
	</g>
	<g display="inline">
		<line fill="#EFC06A" x1="236.877" y1="210.028" x2="229.931" y2="256.242"/>
		<polygon points="237.371,210.103 229.931,256.242 236.383,209.954 		"/>
	</g>
	<path display="inline" fill="#EFC06A" stroke="#000000" stroke-miterlimit="10" d="M239.126,204.499
		c-7.969,6.631-18.838,11.51-26.242,16.514c-15.383,10.394-30.303,18.752-48.479,23.145c-20.249,4.895-37.626,2.896-57.454-2.4
		c-8.044-2.151-15.979-4.669-24.094-6.54c-8.052-1.857-19.144-3.844-23.563-11.764c-1.155-2.063-4.28-0.151-3.131,1.906
		c7.375,13.206,30.575,14.585,43.402,18.192c10.488,2.943,20.969,6.212,31.829,7.342c10.355,1.079,20.875-0.49,31.008-2.542
		c20.808-4.222,37.474-14.131,54.858-25.878c7.054-4.769,16.165-9.047,23.467-14.796C240.03,206.693,239.49,205.632,239.126,204.499
		z"/>
	<path display="inline" fill="#EFC06A" stroke="#000000" stroke-miterlimit="10" d="M223.688,177.432
		c-7.972,6.634-18.836,11.51-26.244,16.518c-15.382,10.391-30.302,18.753-48.479,23.141c-20.249,4.895-37.624,2.896-57.455-2.401
		c-8.043-2.148-15.98-4.664-24.094-6.538c-7.428-1.716-17.374-3.595-22.352-10.082c-0.236,1.447-0.681,2.848-1.329,4.163
		c9.382,9.58,28.979,11.046,40.393,14.255c10.484,2.946,20.967,6.211,31.828,7.341c10.354,1.08,20.873-0.49,31.003-2.54
		c20.81-4.221,37.477-14.131,54.861-25.88c7.054-4.768,16.164-9.048,23.467-14.795C224.591,179.63,224.048,178.566,223.688,177.432z
		"/>
	<path display="inline" fill="#EFC06A" stroke="#000000" stroke-miterlimit="10" d="M234.367,109.17
		c-4.537,14.026-24.218,21.406-35.627,29.119c-15.383,10.395-30.302,18.752-48.482,23.145c-20.244,4.894-37.622,2.895-57.451-2.401
		c-8.046-2.149-15.979-4.667-24.094-6.538c-3.664-0.848-7.944-1.747-11.948-3.192c-0.806,1.207-1.792,2.281-2.958,3.14
		c9.999,4.558,23.089,5.99,31.617,8.387c10.485,2.947,20.968,6.213,31.828,7.341c10.356,1.081,20.875-0.488,31.006-2.543
		c20.809-4.217,37.475-14.127,54.86-25.877c11.994-8.107,29.979-14.771,34.813-29.713
		C238.656,107.785,235.094,106.938,234.367,109.17z"/>
	<path display="inline" fill="#EFC06A" stroke="#000000" stroke-miterlimit="10" d="M50.921,206.979
		c-0.336,2.764-2.845,4.73-5.61,4.393l0,0c-2.764-0.336-4.728-2.846-4.392-5.609l9.207-75.7c0.335-2.764,2.844-4.728,5.608-4.392
		l0,0c2.765,0.337,4.729,2.846,4.394,5.609L50.921,206.979z"/>
	<path display="inline" fill="#EFC06A" stroke="#000000" stroke-miterlimit="10" d="M232.91,177.529
		c-0.236,2.773-2.674,4.828-5.446,4.592l0,0c-2.773-0.236-4.83-2.674-4.594-5.445l6.471-75.983c0.236-2.771,2.674-4.828,5.447-4.591
		l0,0c2.773,0.236,4.829,2.675,4.593,5.446L232.91,177.529z"/>
	<polygon display="inline" fill="#EFC06A" stroke="#000000" stroke-miterlimit="10" points="60.709,199.217 74.675,243.44 
		104.656,250.591 86.039,207.478 	"/>
	<polygon display="inline" fill="#EFC06A" stroke="#000000" stroke-miterlimit="10" points="98.693,207.116 116.652,253.641 
		146.5,253.535 124.808,213.463 	"/>
	<polygon display="inline" fill="#EFC06A" stroke="#000000" stroke-miterlimit="10" points="139.662,213.121 165.032,253.535 
		195.813,246.875 161.181,208.609 	"/>
	<polygon display="inline" fill="#EFC06A" stroke="#000000" stroke-miterlimit="10" points="174.282,203.068 200.605,243.643 
		225.278,230.779 191.32,192.883 	"/>
	<g display="inline">
		<path fill="#EFC06A" stroke="#010101" stroke-miterlimit="10" d="M210.625,230.379c-1.014-2.655-8.11-0.975-8.907-4.085
			c-4.027-15.725-19.205-31.534-35.058-19.791c-1.744,1.158-3.498,2.445-5.239,3.763c-2.224,2.314-4.561,4.522-6.464,7.121
			c-2.264,3.092-5.104,3.781-8.832,3.738c-0.375-0.004-0.708-0.071-1.021-0.164c-0.375,0.116-0.744,0.217-1.104,0.289
			c-4.831,0.969,7.577,8.913,8.75,13.625c0.518,2.075-5.911,14.154-4.431,15.78c1.421,1.561,10.25-6.03,12.056,2.22
			c0.899,4.108,4.828-2.959,8.875-3.375c6.337-0.65,14.334,2.747,20.25,0.375c4.149-1.664,6.32-4.696,9.5-7.854
			c2.468-2.45,13.625,0,5.5-6.688C204.382,235.236,210.628,230.521,210.625,230.379z"/>
		<path fill="#EFC06A" stroke="#010101" stroke-miterlimit="10" d="M158.569,224.003c0,0,18.961,1.25,31.997,0"/>
		<polygon fill="#EFC06A" stroke="#010101" stroke-miterlimit="10" points="183.79,220.786 183.79,224.433 188.353,224.188 
			188.665,219.786 		"/>
	</g>
	<polygon display="inline" fill="#EFC06A" stroke="#000000" stroke-miterlimit="10" points="202.795,188.657 228.899,228.641 
		238.787,213.704 220.155,178.003 	"/>
	<g display="inline">
		<path fill="#EFC06A" d="M202.597,366.101"/>
	</g>
	<path display="inline" fill="#EFC06A" stroke="#000000" stroke-miterlimit="10" d="M126.159,211.303
		c2.437-6.096,4.725-10.894,3.853-17.512c-0.869-5.05-4.898-11.574-7.859-15.233c-2.786-3.481-3.9-15.219-3.9-15.219l-4.617,0.446
		c-0.405-2.957-0.374-6.057-0.016-8.914c0.348-3.309,2.089-7.663,1.219-10.973c-0.522-1.742-9.405-13.062-15.851-13.236
		c-4.877-0.174-12.003-5.372-23.86,9.405c-7.287,9.081-10.451,22.468-12.89,33.615c-0.869,3.656,0,7.489,0.349,11.32
		c0.348,5.923-0.175,12.541,1.916,18.288c1.568,4.006,5.398,6.619,8.36,9.58c3.832,4.18,8.012,6.618,12.541,9.579
		c3.656,2.613,7.488,5.922,12.366,5.051C97.77,227.501,121.456,222.275,126.159,211.303z"/>
	<ellipse display="inline" cx="88.823" cy="149.967" rx="1.992" ry="3.985"/>
	<ellipse display="inline" cx="107.676" cy="152.727" rx="1.992" ry="3.984"/>
	
		<line display="inline" fill="#EFC06A" stroke="#000000" stroke-miterlimit="10" x1="118.252" y1="163.339" x2="80.125" y2="167.248"/>
	<path display="inline" fill="#EFC06A" stroke="#000000" stroke-miterlimit="10" d="M102.517,239.108
		c0,1.607,4.391,2.913,9.808,2.913c5.419,0,9.81-1.306,9.81-2.913c0-1.608-2.194-4.729-7.612-4.729
		C109.104,234.38,102.517,237.5,102.517,239.108z"/>
	<path display="inline" fill="#EFC06A" stroke="#000000" stroke-miterlimit="10" d="M88.269,243.064c0,1.609,4.392,2.913,9.81,2.913
		c5.417,0,9.81-1.304,9.81-2.913c0-1.607-2.195-4.729-7.613-4.729S88.269,241.457,88.269,243.064z"/>
	
		<line display="inline" fill="#EFC06A" stroke="#000000" stroke-miterlimit="10" x1="105.684" y1="236.439" x2="105.684" y2="225.211"/>
	
		<line display="inline" fill="#EFC06A" stroke="#000000" stroke-miterlimit="10" x1="92.502" y1="239.223" x2="92.502" y2="226.907"/>
	
		<line display="inline" fill="#EFC06A" stroke="#000000" stroke-miterlimit="10" x1="128.904" y1="191.811" x2="116.183" y2="191.811"/>
	
		<line display="inline" fill="#EFC06A" stroke="#000000" stroke-miterlimit="10" x1="82.999" y1="210.279" x2="70.277" y2="210.279"/>
	
		<line display="inline" fill="#EFC06A" stroke="#000000" stroke-miterlimit="10" x1="76.485" y1="182.997" x2="63.763" y2="182.997"/>
	
		<line display="inline" fill="#EFC06A" stroke="#000000" stroke-miterlimit="10" x1="98.019" y1="200.163" x2="89.955" y2="200.163"/>
	
		<line display="inline" fill="#EFC06A" stroke="#000000" stroke-miterlimit="10" x1="84.157" y1="139.986" x2="76.093" y2="139.986"/>
	
		<line display="inline" fill="#EFC06A" stroke="#000000" stroke-miterlimit="10" x1="120.679" y1="217.473" x2="113.197" y2="217.473"/>
	<line display="inline" fill="none" stroke="#000000" stroke-miterlimit="10" x1="72.73" y1="190.89" x2="72.73" y2="223.077"/>
	<path display="inline" fill="none" stroke="#000000" stroke-miterlimit="10" d="M65.825,226.224c0,0,4.452,5.259,6.905-3.146"/>
	<path display="inline" fill="none" stroke="#000000" stroke-miterlimit="10" d="M66.591,230.995c0,0,7.314,5.417,6.14-7.918"/>
	<path display="inline" fill="none" stroke="#000000" stroke-miterlimit="10" d="M73.037,230.332c0,0,4.546-0.128-0.18-7.152"/>
	<path display="inline" fill="none" stroke="#000000" stroke-miterlimit="10" d="M77.481,224.38c0,0-2.476-1.571-4.624-2.528"/>
	<path display="inline" fill="#EFC06A" stroke="#000000" stroke-miterlimit="10" d="M249.536,148.959
		c-8.055,7.712-20.399,13.065-28.551,18.576c-15.382,10.391-30.303,18.751-48.479,23.143c-20.25,4.892-37.626,2.894-57.454-2.404
		c-8.045-2.148-15.98-4.667-24.095-6.538c-8.051-1.858-19.146-3.841-23.564-11.761c-1.154-2.067-4.278-0.155-3.128,1.902
		c7.373,13.212,30.574,14.587,43.401,18.193c10.487,2.947,20.967,6.212,31.829,7.34c10.356,1.08,20.875-0.487,31.008-2.541
		c20.807-4.217,37.473-14.128,54.858-25.877c7.646-5.169,17.717-9.758,25.272-16.275
		C250.066,151.532,249.715,150.261,249.536,148.959z"/>
	<path display="inline" fill="#EFC06A" stroke="#000000" stroke-miterlimit="10" d="M249.102,210.325
		c-0.419,2.751-2.988,4.642-5.743,4.222l0,0c-2.752-0.42-4.639-2.991-4.22-5.74l11.502-75.387c0.42-2.75,2.99-4.639,5.742-4.218l0,0
		c2.755,0.419,4.643,2.989,4.223,5.739L249.102,210.325z"/>
	<path display="inline" fill="#EFC06A" stroke="#000000" stroke-miterlimit="10" d="M60.562,239.663
		c-0.34,2.762-2.854,4.724-5.614,4.384l0,0c-2.764-0.34-4.727-2.854-4.386-5.614l9.324-75.687c0.341-2.764,2.853-4.725,5.617-4.385
		l0,0c2.763,0.341,4.725,2.853,4.383,5.616L60.562,239.663z"/>
	<g id="Layer_5_1_" display="inline">
		<g>
			<path fill="#EFC06A" d="M-434.938,196.968"/>
		</g>
		<g>
			<path fill="#EFC06A" d="M-414.859,115.223"/>
		</g>
	</g>
	<line display="inline" fill="#EFC06A" stroke="#000000" stroke-miterlimit="10" x1="178" y1="217.473" x2="183.79" y2="211.875"/>
	<line display="inline" fill="#EFC06A" stroke="#000000" stroke-miterlimit="10" x1="177.375" y1="211.875" x2="183" y2="216.25"/>
	
		<line display="inline" fill="#EFC06A" stroke="#000000" stroke-miterlimit="10" x1="164.137" y1="215.639" x2="168.699" y2="211.264"/>
	
		<line display="inline" fill="#EFC06A" stroke="#000000" stroke-miterlimit="10" x1="164.137" y1="211.875" x2="167.909" y2="215.639"/>
	<path display="inline" fill="#EFC06A" stroke="#010101" stroke-miterlimit="10" d="M153,213.501
		c-0.795,0.009-4.204-0.592-4.969-0.805c-1.031-0.287-1.927-0.827-3-1c-1.373-0.221-3.011,0.875-2.46,2.46
		c0.006,0.019,0.013,0.03,0.02,0.047c-0.201,0.104-1.829,0.245-2.026,0.356c-0.6,0.338,0.535,0.85,0.48,1.426
		c-6.17,4.266-0.871,3.582,1.205,3.64c1.381,0.038,4.117,0.438,5.333-0.333c0.759-0.481,0.98-1.433,0.736-2.291
		c1.073,0.318,0.82-0.113,1.931-0.126C152.828,216.846,155.58,213.472,153,213.501z"/>
	<path display="inline" fill="#EFC06A" stroke="#010101" stroke-miterlimit="10" d="M146.021,249.667
		c-0.223-0.396-1.271-1.482-1.5-1.875c0.122-0.731,1.01-1.637,0.238-2.144c-0.407-0.23-0.751-0.532-1.032-0.908
		c-1.189-1.552-3.513-0.731-3.811,0.662c-2.475-0.374-4.568-1.649-7.198-0.956c-2.492,0.657-1.434,4.516,1.063,3.857
		c0.235-0.062,0.472-0.089,0.711-0.095c-4.868,6.979,2.586,6.443,4.674,6.062c2.166-0.45-0.896-3.771,3.771-3.334
		C144.307,253.04,147.281,251.898,146.021,249.667z"/>
	<path display="inline" fill="#EFC06A" stroke="#010101" stroke-miterlimit="10" d="M221,223.125
		c-0.002-0.003-0.005-0.001-0.007-0.001c0.018-0.076,0.048-0.135,0.061-0.218c0.295-2.004-1.489-3.018-3.016-3.859
		c-1.399-0.773-0.465-0.05-1.374-1.148c-0.539-0.651-1.327-0.898-2.164-0.898c-2.692,0-2.862,3.049-5.791,3.085
		c-1.13,0.014-0.699,1.4-0.812,2.354c-0.184-0.007-1.962-0.048-2.146-0.063c-2.571-0.222-2.55,3.78,0,4
		c1.598,0.138,3.154-0.201,4.75-0.125c3.959,0.188,1.063,2.605,4.584,2.98c0.801,0.085,2.188-2.012,2.652-2.701
		c1.012,0.435,2.168,1.242,3.243,1.343C223.548,228.112,223.667,227.458,221,223.125z"/>
	<path display="inline" fill="#EFC06A" stroke="#010101" stroke-miterlimit="10" d="M190.602,197.115
		c-0.965-1.778-2.905-1.893-4.711-1.738c-0.822-1.332-3.295-1.058-3.569,0.592c-0.038,0.229-0.076,0.457-0.114,0.686
		c-0.988,0.129-1.528,0.887-1.621,1.715c-3.189,0.047-4.325,2.059-3.27,2.242c4.268,0.742,6.008,2.158,6.612,0.295
		c0.007-0.021,0.02-0.031,0.027-0.051c0.568-0.162,2.23,1.039,2.815,0.973c1.22-0.14,0.214-2.083,1.396-2.432
		C189.433,199.022,191.225,198.263,190.602,197.115z"/>
	<path display="inline" fill="#EFC06A" stroke="#010101" stroke-miterlimit="10" d="M184.897,183.346
		c-0.37,0.109-0.741,0.219-1.102,0.362c-0.212,0.084-0.388,0.198-0.547,0.324c-0.183-0.006-0.376,0.011-0.578,0.051
		c-0.759,0.151-1.169,0.666-1.758,1.14c-5.163,4.152,0.811,2.065,2.087,2.377c0.746,0.636,1.795,3.626,2.542,2.692
		c0.521-0.65,0.286-2.793,1.037-3.245c1.096-0.249,2.465,0.517,3.63,0.578c1.077,0.057-0.167-2.042,1.743-2.863
		C195.624,183.183,187.939,181.658,184.897,183.346z"/>
</g>
<g id="Layer_7" display="none">
	<g display="inline">
		<g>
			<line fill="none" x1="37.896" y1="218.682" x2="42.079" y2="152.734"/>
			<polygon fill="#010101" points="37.396,218.648 42.079,152.734 38.395,218.712 			"/>
		</g>
		<g>
			<line fill="none" x1="59.579" y1="212.568" x2="59.443" y2="175.734"/>
			<polygon fill="#010101" points="59.079,212.57 59.443,175.734 60.079,212.566 			"/>
		</g>
		<path fill="#EFC06A" stroke="#010101" stroke-miterlimit="10" d="M71.525,222.463c-1.916-28.156-14.951-51.1-33.396-51.1
			c-18.444,0-31.364,22.951-33.396,51.1c-2.625,36.378,3.72,23.014,37.375,25.378C82.039,250.645,72.778,240.841,71.525,222.463z"/>
		<path fill="#EFC06A" stroke="#010101" stroke-miterlimit="10" d="M40.11,248.37c0,3.358-5.149,6.081-11.5,6.081
			c-6.351,0-14.333-2.723-14.333-6.081c0-3.356,7.982-6.08,14.333-6.08C34.96,242.29,40.11,245.014,40.11,248.37z"/>
		<path fill="#EFC06A" stroke="#010101" stroke-miterlimit="10" d="M69.935,246.87c0,3.358-5.149,6.081-11.5,6.081
			s-15.595-1.702-15.595-5.061c0-3.357,9.245-7.102,15.595-7.102S69.935,243.514,69.935,246.87z"/>
		<g>
			<path fill="#010101" d="M12.86,243.758c0,0,0.333-0.318,0.964-0.82c0.637-0.492,1.55-1.203,2.734-1.924
				c0.589-0.365,1.242-0.738,1.943-1.115c0.707-0.367,1.455-0.756,2.266-1.078c0.804-0.336,1.652-0.65,2.535-0.911
				c0.886-0.246,1.793-0.483,2.724-0.62c0.927-0.15,1.87-0.211,2.798-0.221c0.929,0.014,1.846,0.092,2.714,0.272
				c0.874,0.149,1.693,0.429,2.439,0.74s1.428,0.665,2.013,1.056c0.611,0.35,1.083,0.797,1.526,1.146
				c0.402,0.401,0.766,0.731,1.037,1.032c0.514,0.621,0.808,0.977,0.808,0.977s-0.343-0.305-0.943-0.836
				c-0.302-0.262-0.699-0.542-1.133-0.881c-0.476-0.283-0.976-0.652-1.581-0.952c-0.585-0.33-1.259-0.616-1.984-0.856
				c-0.366-0.115-0.736-0.246-1.132-0.318c-0.391-0.092-0.787-0.188-1.202-0.236c-0.819-0.148-1.684-0.162-2.558-0.175
				c-0.875,0.021-1.766,0.089-2.647,0.241c-0.886,0.117-1.759,0.334-2.614,0.561c-0.849,0.247-1.687,0.497-2.478,0.801
				c-1.586,0.592-3.047,1.229-4.255,1.864c-1.209,0.632-2.22,1.171-2.899,1.597C13.247,243.508,12.86,243.758,12.86,243.758z"/>
		</g>
		<g>
			<path fill="#010101" d="M44.36,242.29c0,0,0.321-0.244,0.923-0.614c0.602-0.367,1.471-0.887,2.565-1.412
				c0.553-0.248,1.146-0.533,1.793-0.793c0.648-0.256,1.324-0.551,2.058-0.762c0.722-0.243,1.48-0.462,2.265-0.636
				c0.773-0.214,1.59-0.302,2.393-0.452c0.812-0.098,1.633-0.145,2.436-0.189c0.809,0.027,1.605,0.008,2.369,0.114
				c0.761,0.13,1.51,0.17,2.182,0.405c0.672,0.221,1.328,0.347,1.885,0.611c0.562,0.25,1.066,0.5,1.508,0.722
				c0.432,0.241,0.77,0.522,1.064,0.716c0.578,0.411,0.895,0.652,0.895,0.652s-0.362-0.176-0.996-0.485
				c-0.315-0.149-0.676-0.373-1.125-0.549c-0.463-0.149-0.98-0.319-1.532-0.524c-0.552-0.209-1.2-0.273-1.853-0.43
				c-0.326-0.084-0.67-0.122-1.025-0.141c-0.352-0.032-0.712-0.066-1.077-0.102c-0.729-0.078-1.495,0.002-2.263-0.025
				c-0.771,0.056-1.556,0.111-2.334,0.215c-0.775,0.135-1.562,0.207-2.316,0.404c-0.76,0.164-1.51,0.32-2.222,0.534
				c-1.437,0.382-2.761,0.815-3.884,1.228c-0.559,0.216-1.071,0.412-1.526,0.587c-0.453,0.18-0.848,0.339-1.168,0.483
				C44.728,242.129,44.36,242.29,44.36,242.29z"/>
		</g>
		<g>
			<path fill="#010101" d="M44.36,238.641c0,0,0.321-0.244,0.923-0.613c0.602-0.367,1.471-0.887,2.565-1.413
				c0.553-0.248,1.146-0.532,1.793-0.794c0.648-0.254,1.324-0.549,2.058-0.76c0.722-0.244,1.48-0.463,2.265-0.637
				c0.773-0.213,1.59-0.302,2.393-0.451c0.812-0.099,1.633-0.145,2.436-0.19c0.809,0.028,1.605,0.008,2.369,0.114
				c0.761,0.131,1.51,0.17,2.182,0.406c0.672,0.221,1.328,0.346,1.885,0.61c0.562,0.251,1.066,0.501,1.508,0.722
				c0.432,0.242,0.77,0.522,1.064,0.717c0.578,0.41,0.895,0.652,0.895,0.652s-0.362-0.177-0.996-0.486
				c-0.315-0.148-0.676-0.373-1.125-0.549c-0.463-0.148-0.98-0.318-1.532-0.523c-0.552-0.209-1.2-0.273-1.853-0.43
				c-0.326-0.084-0.67-0.123-1.025-0.141c-0.352-0.033-0.712-0.066-1.077-0.102c-0.729-0.078-1.495,0.002-2.263-0.026
				c-0.771,0.056-1.556,0.112-2.334,0.216c-0.775,0.135-1.562,0.206-2.316,0.403c-0.76,0.164-1.51,0.321-2.222,0.534
				c-1.437,0.382-2.761,0.815-3.884,1.229c-0.559,0.215-1.071,0.412-1.526,0.586c-0.453,0.18-0.848,0.34-1.168,0.483
				C44.728,238.479,44.36,238.641,44.36,238.641z"/>
		</g>
		<g>
			<path fill="#010101" d="M11.235,238.641c0,0,0.321-0.244,0.923-0.613c0.602-0.367,1.471-0.887,2.565-1.413
				c0.553-0.248,1.147-0.532,1.793-0.794c0.648-0.254,1.324-0.549,2.058-0.76c0.722-0.244,1.48-0.463,2.265-0.637
				c0.774-0.213,1.59-0.302,2.393-0.451c0.812-0.099,1.632-0.145,2.436-0.19c0.808,0.028,1.605,0.008,2.369,0.114
				c0.76,0.131,1.509,0.17,2.181,0.406c0.672,0.221,1.329,0.346,1.886,0.61c0.562,0.251,1.065,0.501,1.507,0.722
				c0.431,0.242,0.77,0.522,1.064,0.717c0.578,0.41,0.895,0.652,0.895,0.652s-0.362-0.177-0.995-0.486
				c-0.316-0.148-0.676-0.373-1.126-0.549c-0.463-0.148-0.98-0.318-1.532-0.523c-0.551-0.209-1.201-0.273-1.853-0.43
				c-0.326-0.084-0.67-0.123-1.026-0.141c-0.352-0.033-0.711-0.066-1.077-0.102c-0.729-0.078-1.495,0.002-2.263-0.026
				c-0.77,0.056-1.555,0.112-2.333,0.216c-0.776,0.135-1.562,0.206-2.316,0.403c-0.76,0.164-1.509,0.321-2.222,0.534
				c-1.436,0.382-2.761,0.815-3.883,1.229c-0.559,0.215-1.072,0.412-1.526,0.586c-0.453,0.18-0.848,0.34-1.168,0.483
				C11.603,238.479,11.235,238.641,11.235,238.641z"/>
		</g>
		<ellipse fill="#EFC06A" stroke="#010101" stroke-miterlimit="10" cx="39.813" cy="181.097" rx="30.121" ry="22.839"/>
		<path fill="#EFC06A" stroke="#010101" stroke-miterlimit="10" d="M21.693,184.758"/>
		<circle fill="#EFC06A" stroke="#010101" stroke-miterlimit="10" cx="28.86" cy="179.619" r="7.333"/>
		<circle fill="#EFC06A" stroke="#010101" stroke-miterlimit="10" cx="32.027" cy="179.619" r="7.333"/>
		<circle fill="#EFC06A" stroke="#010101" stroke-miterlimit="10" cx="53.193" cy="177.425" r="7.333"/>
		<circle fill="#EFC06A" stroke="#010101" stroke-miterlimit="10" cx="56.358" cy="177.425" r="7.333"/>
		<line fill="none" stroke="#010101" stroke-miterlimit="10" x1="21.527" y1="179.619" x2="10.203" y2="176.906"/>
		<line fill="none" stroke="#010101" stroke-miterlimit="10" x1="63.528" y1="175.88" x2="67.784" y2="172.605"/>
		<path fill="#EFC06A" stroke="#010101" stroke-miterlimit="10" d="M21.693,167.591c0,0,5.5-6.396,8.833-4"/>
		<path fill="#EFC06A" stroke="#010101" stroke-miterlimit="10" d="M49.025,166.924c6.285-2.218,7.037,1.795,7.501,0"/>
		<path fill="#EFC06A" stroke="#010101" stroke-miterlimit="10" d="M47.361,212.924c0,0,9.655,2.717,13.165,0
			c1.184-0.916-1.416,11.352-3.166,11.26c-4.476-0.233-6.531,0.594-8.334-0.32C46.56,222.609,47.361,212.924,47.361,212.924z"/>
		<path fill="#EFC06A" stroke="#010101" stroke-miterlimit="10" d="M53.61,214.043c0.076-0.429,0.084-0.656,0.084-1.168
			c0-1.749-0.504-3.167-1.125-3.167c-0.621,0-1.125,1.418-1.125,3.167c0,0.438-0.059,0.415-0.001,0.794
			C51.712,213.705,53.329,214.033,53.61,214.043z"/>
		<path fill="#EFC06A" stroke="#010101" stroke-miterlimit="10" d="M58.568,213.701c0.017-0.217,0.026-0.438,0.026-0.669
			c0-1.749-0.159-3.238-1.125-3.167c-0.619,0.046-1.406,1.261-1.406,3.01c0,0.463,0.057,0.633,0.121,1.029
			C56.434,213.832,58.107,213.798,58.568,213.701z"/>
		<path fill="#EFC06A" stroke="#010101" stroke-miterlimit="10" d="M16.725,212.38c0.917-0.875,0.798-1.103,0.734-1.344
			c-0.297-1.125-0.352-1.328-1.525-1.328s-2.243,0.683-2.969,1.349c-0.316,0.291-3.977,3.799-3.977,6.295
			c0,3.162,2.646,5.724,5.91,5.724c3.264,0,5.91-2.562,5.91-5.724C20.809,214.855,21.163,212.63,16.725,212.38z"/>
		<path fill="#EFC06A" stroke="#010101" stroke-miterlimit="10" d="M70.155,213.35c-0.917-0.875-0.799-1.104-0.734-1.345
			c0.297-1.125,0.352-1.328,1.525-1.328c1.173,0,2.242,0.683,2.969,1.349c0.315,0.291,3.977,3.8,3.977,6.295
			c0,3.162-2.646,5.724-5.91,5.724c-3.264,0-5.91-2.562-5.91-5.724C66.071,215.824,65.717,213.6,70.155,213.35z"/>
		<polygon fill="#EFC06A" stroke="#010101" stroke-miterlimit="10" points="34.751,185.868 4.931,200.591 16.93,199.924 
			4.931,213.868 22.931,204.758 20.097,215.924 42.84,191.758 		"/>
		<polygon fill="#EFC06A" stroke="#010101" stroke-miterlimit="10" points="54.782,185.868 84.602,200.591 72.603,199.924 
			84.602,213.868 66.602,204.758 69.436,215.924 46.693,191.758 		"/>
		<ellipse fill="#EFC06A" stroke="#010101" stroke-miterlimit="10" cx="44.645" cy="186.21" rx="13.119" ry="6.619"/>
		<path fill="#EFC06A" stroke="#010101" stroke-miterlimit="10" d="M41.684,142.785l-2.435,16.572l0,0
			c-0.083,0.754,3.129,1.732,7.176,2.186c4.048,0.452,7.396,0.207,7.482-0.547l0,0l1.712-15.311L41.684,142.785z"/>
		<path fill="#EFC06A" stroke="#010101" stroke-miterlimit="10" d="M55.62,145.686c-0.303,0.696-3.109,0.92-7.094,0.072
			c-3.983-0.848-6.996-2.337-6.854-3.083c0.226-1.186,3.54-0.659,7.523,0.188C53.18,143.71,56.13,144.507,55.62,145.686z"/>
		<path fill="#EFC06A" stroke="#010101" stroke-miterlimit="10" d="M39.403,159.087c0.035-0.31-0.494-0.657-1.402-0.991v-1.244
			l-1.603,0.769c-0.062-0.017-0.118-0.031-0.182-0.046l-0.372-1.379c0,0-1.295,1.039-1.627,0.982l-0.248-1.545l-1.418,1.311
			c-0.109-0.014-0.214-0.029-0.324-0.041c-0.134-0.016-0.266-0.027-0.399-0.041L31,155.32l-1.491,1.377
			c-0.285-0.012-0.564-0.018-0.831-0.021l-2.241-1.355l0.166,1.438c-0.211,0.022-0.407,0.048-0.586,0.078l-1.548-0.565l0.365,1.006
			c-0.048,0.055-1.733,0.658-1.678,0.685c0.325,0.149,1.688,0.304,2.084,0.522l-0.178,0.761l2.411-0.397
			c0.041,0.012,0.083,0.021,0.125,0.032l0.271,0.968l2.022-0.494c0.115,0.02,0.232,0.037,0.349,0.056l0.601,0.72l1.743-0.426
			c0.209,0.02,0.416,0.037,0.62,0.053l0.483,0.579l1.943-0.476c0.173,0,0.343,0,0.507-0.002l0.3,1.338l1.281-1.484l1.922,0.188
			C39.897,159.79,39.386,159.238,39.403,159.087z"/>
		<path fill="#EFC06A" stroke="#010101" stroke-miterlimit="10" d="M39.931,154.712c0,0,7.265,5.065,14.452,2.022"/>
		<path fill="#EFC06A" stroke="#010101" stroke-miterlimit="10" d="M40.857,146.957c0,0,7.265,5.064,14.453,2.023"/>
		<g>
			<path fill="#EFC06A" d="M46.329,144.277c0,0-5.875-2.155,1.312-0.641"/>
			<path fill="#010101" d="M46.329,144.277c0,0-0.391-0.057-0.954-0.223c-0.278-0.092-0.608-0.186-0.951-0.341
				c-0.085-0.04-0.173-0.083-0.263-0.132c-0.047-0.03-0.089-0.049-0.142-0.091c-0.047-0.048-0.104-0.054-0.176-0.226
				c-0.046-0.091,0.011-0.257,0.112-0.326c0.046-0.027,0.112-0.056,0.152-0.063c0.064-0.011,0.138-0.022,0.188-0.022
				c0.114-0.006,0.214,0.002,0.318,0.006c1.588,0.158,3.029,0.777,3.029,0.777s-0.396-0.002-0.975-0.055
				c-0.577-0.048-1.352-0.154-2.092-0.225c-0.089-0.006-0.183-0.016-0.261-0.014c-0.047-0.002-0.068,0.006-0.099,0.006
				c-0.007,0.002,0.017-0.002,0.018-0.014c0.07-0.035,0.093-0.16,0.075-0.202c-0.059-0.103,0.044,0.03,0.098,0.054
				c0.07,0.047,0.144,0.092,0.22,0.136c0.305,0.172,0.599,0.342,0.857,0.473C45.992,144.07,46.329,144.277,46.329,144.277z"/>
		</g>
		<g>
			<path fill="#EFC06A" d="M48.516,144.777c0,0,9.348,1.518,1.938-0.633"/>
			<path fill="#010101" d="M48.516,144.777c0,0,0.502,0.002,1.244,0.048c0.742,0.044,1.732,0.134,2.702,0.205
				c0.234,0.016,0.498,0.032,0.675,0.009c0.035-0.002,0.014-0.005,0.013,0.003c0.022-0.006-0.05,0.017-0.077,0.103
				c-0.011,0.088,0,0.101,0.002,0.127c0.043,0.069,0.032,0.039,0.014,0.033c-0.014-0.011-0.02-0.021-0.047-0.035
				c-0.086-0.053-0.188-0.101-0.288-0.147c-0.409-0.183-0.812-0.353-1.156-0.488c-0.688-0.278-1.144-0.491-1.144-0.491
				s0.498,0.058,1.229,0.223c0.361,0.096,0.789,0.182,1.24,0.349c0.112,0.043,0.229,0.087,0.352,0.151
				c0.027,0.011,0.068,0.04,0.104,0.064c0.031,0.026,0.072,0.029,0.139,0.156c0.021,0.053,0.051,0.09,0.013,0.206
				c-0.042,0.112-0.126,0.165-0.137,0.164c-0.058,0.028-0.134,0.056-0.161,0.056c-0.307,0.047-0.541,0.024-0.801,0.016
				c-1.007-0.068-1.98-0.264-2.709-0.426C48.993,144.938,48.516,144.777,48.516,144.777z"/>
		</g>
	</g>
</g>
<g id="proffesorn" display="none">
	<path display="inline" fill="#EFC06A" stroke="#000000" stroke-miterlimit="10" d="M108.614,167.422
		c-1.916-28.156-14.951-51.1-33.396-51.1c-18.444,0-31.364,22.951-33.396,51.1c-2.625,36.378,3.72,23.014,37.375,25.378
		C119.127,195.604,109.866,185.8,108.614,167.422z"/>
	<path display="inline" fill="#EFC06A" stroke="#000000" stroke-miterlimit="10" d="M77.198,193.329c0,3.358-5.149,6.081-11.5,6.081
		s-14.333-2.723-14.333-6.081c0-3.357,7.982-6.08,14.333-6.08S77.198,189.972,77.198,193.329z"/>
	<path display="inline" fill="#EFC06A" stroke="#000000" stroke-miterlimit="10" d="M107.023,191.829
		c0,3.358-5.149,6.081-11.5,6.081s-15.595-1.702-15.595-5.061c0-3.357,9.245-7.101,15.595-7.101S107.023,188.472,107.023,191.829z"
		/>
	<g display="inline">
		<path d="M49.948,188.717c0,0,0.333-0.319,0.964-0.82c0.637-0.492,1.55-1.203,2.734-1.925c0.589-0.365,1.242-0.738,1.943-1.115
			c0.707-0.367,1.455-0.756,2.266-1.077c0.804-0.337,1.652-0.651,2.535-0.912c0.886-0.246,1.793-0.483,2.724-0.62
			c0.927-0.15,1.87-0.211,2.798-0.22c0.929,0.013,1.846,0.091,2.714,0.272c0.874,0.149,1.693,0.428,2.439,0.74
			s1.428,0.665,2.013,1.055c0.611,0.35,1.083,0.797,1.526,1.146c0.402,0.401,0.766,0.732,1.037,1.032
			c0.514,0.621,0.808,0.977,0.808,0.977s-0.343-0.304-0.943-0.836c-0.302-0.261-0.699-0.542-1.133-0.881
			c-0.476-0.283-0.976-0.652-1.581-0.952c-0.585-0.33-1.259-0.616-1.984-0.857c-0.366-0.115-0.736-0.245-1.132-0.318
			c-0.391-0.091-0.787-0.188-1.202-0.236c-0.819-0.148-1.684-0.162-2.558-0.175c-0.875,0.02-1.766,0.089-2.647,0.241
			c-0.886,0.118-1.759,0.335-2.614,0.561c-0.849,0.247-1.687,0.497-2.478,0.801c-1.586,0.592-3.047,1.229-4.255,1.864
			c-1.209,0.632-2.22,1.171-2.899,1.596C50.335,188.467,49.948,188.717,49.948,188.717z"/>
	</g>
	<g display="inline">
		<path d="M81.448,187.249c0,0,0.321-0.244,0.923-0.614c0.602-0.367,1.471-0.887,2.565-1.413c0.553-0.248,1.146-0.532,1.793-0.793
			c0.648-0.255,1.324-0.55,2.058-0.761c0.722-0.243,1.48-0.462,2.265-0.636c0.773-0.213,1.59-0.302,2.393-0.452
			c0.812-0.098,1.633-0.144,2.436-0.19c0.809,0.028,1.605,0.008,2.369,0.115c0.761,0.13,1.51,0.17,2.182,0.405
			c0.672,0.221,1.328,0.347,1.885,0.612c0.562,0.25,1.066,0.5,1.508,0.721c0.432,0.242,0.77,0.522,1.064,0.716
			c0.578,0.411,0.895,0.653,0.895,0.653s-0.362-0.177-0.996-0.486c-0.315-0.149-0.676-0.373-1.125-0.549
			c-0.463-0.149-0.98-0.319-1.532-0.524c-0.552-0.209-1.2-0.273-1.853-0.43c-0.326-0.084-0.67-0.122-1.025-0.14
			c-0.352-0.033-0.712-0.067-1.077-0.102c-0.729-0.078-1.495,0.002-2.263-0.026c-0.771,0.056-1.556,0.112-2.334,0.216
			c-0.775,0.134-1.562,0.206-2.316,0.403c-0.76,0.164-1.51,0.321-2.222,0.535c-1.437,0.381-2.761,0.815-3.884,1.228
			c-0.559,0.215-1.071,0.412-1.526,0.586c-0.453,0.18-0.848,0.339-1.168,0.483C81.816,187.088,81.448,187.249,81.448,187.249z"/>
	</g>
	<g display="inline">
		<path d="M81.448,183.6c0,0,0.321-0.244,0.923-0.614c0.602-0.367,1.471-0.887,2.565-1.413c0.553-0.248,1.146-0.532,1.793-0.793
			c0.648-0.255,1.324-0.55,2.058-0.761c0.722-0.243,1.48-0.462,2.265-0.636c0.773-0.213,1.59-0.302,2.393-0.452
			c0.812-0.098,1.633-0.144,2.436-0.19c0.809,0.028,1.605,0.008,2.369,0.115c0.761,0.13,1.51,0.17,2.182,0.405
			c0.672,0.221,1.328,0.347,1.885,0.611c0.562,0.251,1.066,0.501,1.508,0.722c0.432,0.242,0.77,0.522,1.064,0.716
			c0.578,0.411,0.895,0.653,0.895,0.653s-0.362-0.177-0.996-0.486c-0.315-0.149-0.676-0.373-1.125-0.549
			c-0.463-0.149-0.98-0.319-1.532-0.524c-0.552-0.209-1.2-0.273-1.853-0.43c-0.326-0.084-0.67-0.122-1.025-0.14
			c-0.352-0.033-0.712-0.067-1.077-0.102c-0.729-0.078-1.495,0.002-2.263-0.026c-0.771,0.056-1.556,0.112-2.334,0.216
			c-0.775,0.134-1.562,0.206-2.316,0.403c-0.76,0.164-1.51,0.321-2.222,0.535c-1.437,0.381-2.761,0.815-3.884,1.228
			c-0.559,0.215-1.071,0.412-1.526,0.586c-0.453,0.18-0.848,0.339-1.168,0.483C81.816,183.438,81.448,183.6,81.448,183.6z"/>
	</g>
	<g display="inline">
		<path d="M48.323,183.6c0,0,0.321-0.244,0.923-0.614c0.602-0.367,1.471-0.887,2.565-1.413c0.553-0.248,1.147-0.532,1.793-0.793
			c0.648-0.255,1.324-0.55,2.058-0.761c0.722-0.243,1.48-0.462,2.265-0.636c0.774-0.213,1.59-0.302,2.393-0.452
			c0.812-0.098,1.632-0.144,2.436-0.19c0.808,0.028,1.605,0.008,2.369,0.115c0.76,0.13,1.509,0.17,2.181,0.405
			c0.672,0.221,1.329,0.347,1.886,0.611c0.562,0.251,1.065,0.501,1.507,0.722c0.431,0.242,0.77,0.522,1.064,0.716
			c0.578,0.411,0.895,0.653,0.895,0.653s-0.362-0.177-0.995-0.486c-0.316-0.149-0.676-0.373-1.126-0.549
			c-0.463-0.149-0.98-0.319-1.532-0.524c-0.551-0.209-1.201-0.273-1.853-0.43c-0.326-0.084-0.67-0.122-1.026-0.14
			c-0.352-0.033-0.711-0.067-1.077-0.102c-0.729-0.078-1.495,0.002-2.263-0.026c-0.77,0.056-1.555,0.112-2.333,0.216
			c-0.776,0.134-1.562,0.206-2.316,0.403c-0.76,0.164-1.509,0.321-2.222,0.535c-1.436,0.381-2.761,0.815-3.883,1.228
			c-0.559,0.215-1.072,0.412-1.526,0.586c-0.453,0.18-0.848,0.339-1.168,0.483C48.691,183.438,48.323,183.6,48.323,183.6z"/>
	</g>
	
		<ellipse display="inline" fill="#EFC06A" stroke="#000000" stroke-miterlimit="10" cx="76.902" cy="126.056" rx="30.121" ry="22.839"/>
	<path display="inline" fill="#EFC06A" stroke="#000000" stroke-miterlimit="10" d="M58.781,129.717"/>
	<circle display="inline" fill="#EFC06A" stroke="#000000" stroke-miterlimit="10" cx="65.948" cy="124.578" r="7.333"/>
	<circle display="inline" fill="#EFC06A" stroke="#000000" stroke-miterlimit="10" cx="69.115" cy="124.578" r="7.333"/>
	<circle display="inline" fill="#EFC06A" stroke="#000000" stroke-miterlimit="10" cx="90.281" cy="122.384" r="7.333"/>
	<circle display="inline" fill="#EFC06A" stroke="#000000" stroke-miterlimit="10" cx="93.447" cy="122.384" r="7.333"/>
	
		<line display="inline" fill="#EFC06A" stroke="#000000" stroke-miterlimit="10" x1="58.615" y1="124.578" x2="47.291" y2="121.865"/>
	
		<line display="inline" fill="#EFC06A" stroke="#000000" stroke-miterlimit="10" x1="100.616" y1="120.839" x2="104.872" y2="117.564"/>
	<path display="inline" fill="#EFC06A" stroke="#000000" stroke-miterlimit="10" d="M58.781,112.55c0,0,7.167-2.938,8.833-4"/>
	<path display="inline" fill="#EFC06A" stroke="#000000" stroke-miterlimit="10" d="M86.114,111.883
		c1.887-3.356,6.651-3.883,7.501,0"/>
	<path display="inline" fill="#EFC06A" stroke="#000000" stroke-miterlimit="10" d="M84.449,157.883c0,0,9.655,2.717,13.165,0
		c1.184-0.916-1.416,11.352-3.166,11.26c-4.476-0.234-6.531,0.594-8.334-0.321C83.648,167.568,84.449,157.883,84.449,157.883z"/>
	<path display="inline" fill="#EFC06A" stroke="#000000" stroke-miterlimit="10" d="M90.698,159.002
		c0.076-0.429,0.084-0.656,0.084-1.168c0-1.749-0.504-3.167-1.125-3.167s-1.125,1.418-1.125,3.167c0,0.438-0.059,0.415-0.001,0.794
		C88.801,158.664,90.417,158.992,90.698,159.002z"/>
	<path display="inline" fill="#EFC06A" stroke="#000000" stroke-miterlimit="10" d="M95.656,158.66
		c0.017-0.216,0.026-0.438,0.026-0.669c0-1.749-0.159-3.238-1.125-3.167c-0.619,0.046-1.406,1.261-1.406,3.01
		c0,0.463,0.057,0.633,0.121,1.029C93.522,158.791,95.196,158.757,95.656,158.66z"/>
	<path display="inline" fill="#EFC06A" stroke="#000000" stroke-miterlimit="10" d="M53.813,157.339
		c0.917-0.875,0.798-1.103,0.734-1.344c-0.297-1.125-0.352-1.328-1.525-1.328s-2.243,0.683-2.969,1.349
		c-0.316,0.29-3.977,3.799-3.977,6.295c0,3.161,2.646,5.723,5.91,5.723s5.91-2.562,5.91-5.723
		C57.897,159.814,58.251,157.589,53.813,157.339z"/>
	<path display="inline" fill="#EFC06A" stroke="#000000" stroke-miterlimit="10" d="M107.243,158.308
		c-0.917-0.875-0.799-1.103-0.734-1.344c0.297-1.125,0.352-1.328,1.525-1.328s2.242,0.683,2.969,1.349
		c0.315,0.29,3.977,3.799,3.977,6.295c0,3.161-2.646,5.723-5.91,5.723s-5.91-2.562-5.91-5.723
		C103.159,160.783,102.805,158.558,107.243,158.308z"/>
	<polygon display="inline" fill="#EFC06A" stroke="#000000" stroke-miterlimit="10" points="71.84,130.827 42.019,145.55 
		54.018,144.883 42.019,158.827 60.019,149.717 57.185,160.883 79.928,136.717 	"/>
	<polygon display="inline" fill="#EFC06A" stroke="#000000" stroke-miterlimit="10" points="91.87,130.827 121.69,145.55 
		109.691,144.883 121.69,158.827 103.69,149.717 106.524,160.883 83.781,136.717 	"/>
	
		<ellipse display="inline" fill="#EFC06A" stroke="#000000" stroke-miterlimit="10" cx="81.733" cy="131.169" rx="13.119" ry="6.619"/>
	<path display="inline" fill="#EFC06A" stroke="#000000" stroke-miterlimit="10" d="M78.772,87.744l-2.435,16.572l0,0
		c-0.083,0.754,3.129,1.733,7.176,2.186c4.048,0.452,7.396,0.207,7.482-0.547l0,0l1.712-15.311L78.772,87.744z"/>
	<path display="inline" fill="#EFC06A" stroke="#000000" stroke-miterlimit="10" d="M92.708,90.644
		c-0.303,0.697-3.109,0.92-7.094,0.073c-3.983-0.848-6.996-2.337-6.854-3.083c0.226-1.186,3.54-0.66,7.523,0.188
		C90.268,88.669,93.219,89.466,92.708,90.644z"/>
	<path display="inline" fill="#EFC06A" stroke="#000000" stroke-miterlimit="10" d="M76.491,104.046
		c0.035-0.31-0.494-0.657-1.402-0.991v-1.245l-1.603,0.769c-0.062-0.016-0.118-0.031-0.182-0.046l-0.372-1.378
		c0,0-1.295,1.038-1.627,0.982l-0.248-1.545l-1.418,1.31c-0.109-0.013-0.214-0.029-0.324-0.041
		c-0.134-0.015-0.266-0.027-0.399-0.041l-0.827-1.54l-1.491,1.376c-0.285-0.011-0.564-0.018-0.831-0.021l-2.241-1.355l0.166,1.438
		c-0.211,0.022-0.407,0.048-0.586,0.078l-1.548-0.565l0.365,1.006c-0.048,0.054-1.733,0.658-1.678,0.684
		c0.325,0.15,1.688,0.304,2.084,0.522l-0.178,0.761l2.411-0.397c0.041,0.011,0.083,0.021,0.125,0.032l0.271,0.967l2.022-0.494
		c0.115,0.02,0.232,0.038,0.349,0.056l0.601,0.72l1.743-0.426c0.209,0.02,0.416,0.037,0.62,0.053l0.483,0.579l1.943-0.475
		c0.173,0,0.343,0,0.507-0.003l0.3,1.338l1.281-1.484l1.922,0.188C76.986,104.749,76.474,104.197,76.491,104.046z"/>
	<path display="inline" fill="#EFC06A" stroke="#000000" stroke-miterlimit="10" d="M77.019,99.671c0,0,7.265,5.065,14.452,2.023"/>
	<path display="inline" fill="#EFC06A" stroke="#000000" stroke-miterlimit="10" d="M77.946,91.916c0,0,7.265,5.065,14.453,2.023"/>
	<g display="inline">
		<path fill="#EFC06A" d="M83.417,89.237c0,0-5.875-2.156,1.312-0.642"/>
		<path d="M83.417,89.237c0,0-0.391-0.057-0.954-0.223c-0.278-0.092-0.608-0.186-0.951-0.341c-0.085-0.04-0.173-0.083-0.263-0.132
			c-0.047-0.03-0.089-0.049-0.142-0.091c-0.047-0.047-0.104-0.053-0.176-0.226c-0.046-0.09,0.011-0.256,0.112-0.326
			c0.046-0.027,0.112-0.055,0.152-0.063c0.064-0.011,0.138-0.023,0.188-0.022c0.114-0.006,0.214,0.001,0.318,0.005
			c1.588,0.158,3.029,0.778,3.029,0.778s-0.396-0.002-0.975-0.055c-0.577-0.048-1.352-0.154-2.092-0.225
			c-0.089-0.006-0.183-0.015-0.261-0.013c-0.047-0.002-0.068,0.005-0.099,0.006c-0.007,0.002,0.017-0.003,0.018-0.014
			c0.07-0.035,0.093-0.16,0.075-0.202c-0.059-0.103,0.044,0.03,0.098,0.053c0.07,0.047,0.144,0.093,0.22,0.136
			c0.305,0.172,0.599,0.342,0.857,0.473C83.08,89.03,83.417,89.237,83.417,89.237z"/>
	</g>
	<g display="inline">
		<path fill="#EFC06A" d="M85.604,89.737c0,0,9.348,1.517,1.938-0.634"/>
		<path d="M85.604,89.737c0,0,0.502,0.001,1.244,0.047c0.742,0.044,1.732,0.134,2.702,0.205c0.234,0.016,0.498,0.033,0.675,0.009
			c0.035-0.002,0.014-0.005,0.013,0.003c0.022-0.006-0.05,0.017-0.077,0.102c-0.011,0.089,0,0.101,0.002,0.128
			c0.043,0.069,0.032,0.039,0.014,0.032c-0.014-0.01-0.02-0.021-0.047-0.034c-0.086-0.053-0.188-0.101-0.288-0.148
			c-0.409-0.183-0.812-0.353-1.156-0.488c-0.688-0.279-1.144-0.492-1.144-0.492s0.498,0.058,1.229,0.223
			c0.361,0.096,0.789,0.182,1.24,0.349c0.112,0.043,0.229,0.087,0.352,0.151c0.027,0.011,0.068,0.04,0.104,0.064
			c0.031,0.027,0.072,0.03,0.139,0.157c0.021,0.053,0.051,0.09,0.013,0.206c-0.042,0.112-0.126,0.165-0.137,0.164
			c-0.058,0.029-0.134,0.055-0.161,0.056c-0.307,0.046-0.541,0.024-0.801,0.016c-1.007-0.069-1.98-0.265-2.709-0.427
			C86.081,89.896,85.604,89.737,85.604,89.737z"/>
	</g>
	<polygon display="inline" fill="#EFC06A" stroke="#000000" stroke-miterlimit="10" points="165.25,197.357 221.5,245.75 
		283.25,233.25 276,97.402 206.858,68.25 165.25,73.75 	"/>
	<path display="inline" fill="#EFC06A" stroke="#000000" stroke-miterlimit="10" d="M221,111.883L165.25,73.75L221,111.883z"/>
	<polyline display="inline" fill="#EFC06A" stroke="#000000" stroke-miterlimit="10" points="221.5,245.75 221,111.883 276,97.402 	
		"/>
	<polygon display="inline" fill="none" stroke="#000000" stroke-miterlimit="10" points="215.867,240.904 214.75,115.051 169,82.5 
		169,200.584 	"/>
	<polygon display="inline" fill="none" stroke="#000000" stroke-miterlimit="10" points="204.75,231.34 215.867,240.904 
		214.75,115.051 204.75,107.936 	"/>
	<polygon display="inline" fill="none" stroke="#000000" stroke-miterlimit="10" points="176.25,87.658 169,82.5 169,200.584 
		176.25,206.821 	"/>
	<line display="inline" fill="#EFC06A" stroke="#000000" stroke-miterlimit="10" x1="176.25" y1="195.25" x2="204.75" y2="191.83"/>
	<polygon display="inline" fill="#EFC06A" stroke="#000000" stroke-miterlimit="10" points="184,160.637 197.576,160.637 
		197.576,135.777 184,136.426 	"/>
	<polygon display="inline" fill="#EFC06A" stroke="#000000" stroke-miterlimit="10" points="188.625,153 191.875,157.567 
		195.375,151.875 	"/>
	<polygon display="inline" fill="#EFC06A" stroke="#000000" stroke-miterlimit="10" points="188.188,148.938 195.375,147.625 
		190.788,140.857 	"/>
</g>
<g id="Layer_4">
</g>
<g id="Layer_4_copy">
	<path fill="#EFC06A" stroke="#010101" stroke-miterlimit="10" d="M154.032,73.261l17.075-31.531c0,0,3.537,0.03,4.533,0.59
		c1.098,0.616,3.148,3.919,3.148,3.919l-14.294,27.699"/>
	<g>
		<line fill="#EFC06A" x1="173.566" y1="46.225" x2="161.537" y2="70.192"/>
		<path fill="#010101" d="M173.566,46.225c0,0-0.156,0.39-0.431,1.073c-0.293,0.673-0.675,1.653-1.198,2.797
			c-0.524,1.143-1.108,2.491-1.785,3.91c-0.667,1.423-1.412,2.925-2.154,4.427c-0.761,1.493-1.519,2.988-2.262,4.374
			c-0.73,1.391-1.465,2.664-2.068,3.767s-1.162,1.995-1.527,2.632c-0.384,0.628-0.604,0.986-0.604,0.986s0.156-0.39,0.43-1.073
			c0.293-0.674,0.674-1.654,1.198-2.798c0.524-1.143,1.106-2.492,1.785-3.91c0.666-1.423,1.412-2.924,2.155-4.427
			c0.761-1.493,1.52-2.988,2.263-4.373c0.732-1.39,1.465-2.664,2.068-3.767c0.604-1.103,1.161-1.996,1.526-2.633
			C173.347,46.584,173.566,46.225,173.566,46.225z"/>
	</g>
	<path fill="#EFC06A" stroke="#000000" stroke-miterlimit="10" d="M169.517,225.704c0.046-0.64,0.054-1.289,0-1.966V118.085h-61.454
		v108.319c0,0-0.428,7.271,5.862,6.475c3.242-0.41,5.085-2.24,5.464-4.74c0.054,0.029,0.117-1.121,0.177-1.897
		c0.031-0.4,0.062-0.701,0.091-0.687c1.803,0.908,3.145,3.707,3.741,5.692c0.597,1.983,1.721,3.914,3.557,4.989
		c3.442,2.017,7.99,1.136,10.421-1.945c1.04-1.319,1.652-2.667,2.353-4.181c-0.363,0.785,2.609,1.775,4.213,2.255
		c2.13,0.637,5.088,0.14,6.977-0.987c0.028-0.018,0.055-0.039,0.083-0.056c0.307,0.95,0.722,1.897,1.284,2.858
		c2.268,3.872,8.354,3.594,10.141-0.397c2.049,0.391,4.223-0.336,5.491-2.787c0.846-1.635,1.333-3.098,1.533-4.592h0.066V225.704z"
		/>
	<g>
		<line fill="#EFC06A" x1="119.657" y1="225.555" x2="119.338" y2="187.126"/>
		<polygon points="119.157,225.559 119.338,187.126 120.157,225.551 		"/>
	</g>
	<g>
		<line fill="#EFC06A" x1="139.869" y1="230.756" x2="139.551" y2="181.289"/>
		<polygon points="139.369,230.759 139.551,181.289 140.369,230.753 		"/>
	</g>
	<g>
		<line fill="#EFC06A" x1="150.806" y1="231.709" x2="150.487" y2="182.242"/>
		<polygon points="150.306,231.712 150.487,182.242 151.306,231.706 		"/>
	</g>
	<g>
		<line fill="#EFC06A" x1="162.648" y1="233.938" x2="162.33" y2="184.472"/>
		<polygon points="162.148,233.94 162.33,184.472 163.148,233.935 		"/>
	</g>
	<path fill="#EFC06A" stroke="#000000" stroke-miterlimit="10" d="M189.955,154.142c3.104-7.765,6.019-13.876,4.907-22.307
		c-1.106-6.433-6.239-14.744-10.012-19.405c-3.549-4.435-4.968-19.386-4.968-19.386l-5.882,0.569
		c-0.517-3.767-0.477-7.715-0.02-11.355c0.442-4.215,2.66-9.762,1.552-13.978c-0.665-2.219-11.98-16.639-20.19-16.861
		c-6.212-0.221-15.29-6.844-30.394,11.981c-9.283,11.567-13.313,28.62-16.419,42.82c-1.107,4.658,0,9.54,0.444,14.421
		c0.443,7.544-0.223,15.975,2.441,23.296c1.998,5.103,6.876,8.432,10.649,12.203c4.881,5.324,10.206,8.431,15.975,12.202
		c4.657,3.329,9.539,7.544,15.753,6.434C153.792,174.775,183.964,168.119,189.955,154.142z"/>
	<ellipse cx="142.396" cy="76.01" rx="2.538" ry="5.077"/>
	<ellipse cx="166.411" cy="79.525" rx="2.538" ry="5.075"/>
	<line fill="#EFC06A" stroke="#000000" stroke-miterlimit="10" x1="179.883" y1="93.043" x2="131.315" y2="98.023"/>
	<path fill="#EFC06A" stroke="#000000" stroke-miterlimit="10" d="M163.599,185.191c-2.017,0.353-2.694,6.147-1.51,12.945
		c1.186,6.801,3.785,12.025,5.802,11.673c2.02-0.352,5.454-3.788,4.27-10.587C170.975,192.425,165.618,184.84,163.599,185.191z"/>
	<path fill="#EFC06A" stroke="#000000" stroke-miterlimit="10" d="M146.106,189.07c-2.049-0.026-3.782,5.546-3.872,12.447
		c-0.09,6.9,1.498,12.516,3.549,12.542c2.045,0.027,6.058-2.716,6.147-9.617C152.021,197.539,148.155,189.097,146.106,189.07z"/>
	<line fill="#EFC06A" stroke="#000000" stroke-miterlimit="10" x1="163.873" y1="186.162" x2="163.873" y2="171.858"/>
	<line fill="#EFC06A" stroke="#000000" stroke-miterlimit="10" x1="147.082" y1="189.707" x2="147.082" y2="174.02"/>
	<line fill="#EFC06A" stroke="#000000" stroke-miterlimit="10" x1="193.452" y1="129.312" x2="177.247" y2="129.312"/>
	<line fill="#EFC06A" stroke="#000000" stroke-miterlimit="10" x1="134.977" y1="152.838" x2="118.771" y2="152.838"/>
	<line fill="#EFC06A" stroke="#000000" stroke-miterlimit="10" x1="126.679" y1="118.085" x2="110.473" y2="118.085"/>
	<line fill="#EFC06A" stroke="#000000" stroke-miterlimit="10" x1="154.108" y1="139.952" x2="143.837" y2="139.952"/>
	<line fill="#EFC06A" stroke="#000000" stroke-miterlimit="10" x1="182.974" y1="162.001" x2="173.443" y2="162.001"/>
	<line fill="none" stroke="#000000" stroke-miterlimit="10" x1="121.896" y1="128.139" x2="121.896" y2="169.141"/>
	<path fill="none" stroke="#000000" stroke-miterlimit="10" d="M113.1,173.148c0,0,5.671,6.699,8.796-4.008"/>
	<path fill="none" stroke="#000000" stroke-miterlimit="10" d="M114.075,179.227c0,0,9.317,6.9,7.821-10.086"/>
	<path fill="none" stroke="#000000" stroke-miterlimit="10" d="M122.287,178.382c0,0,5.791-0.163-0.229-9.11"/>
	<path fill="none" stroke="#000000" stroke-miterlimit="10" d="M127.948,170.8c0,0-3.154-2.001-5.891-3.221"/>
	<path fill="#EFC06A" stroke="#010101" stroke-miterlimit="10" d="M121.673,76.01l-22.716-33.82c0,0,1.543-4.345,2.442-5.267
		l4.458-1.805l20.381,30.678"/>
	<polyline fill="#EFC06A" stroke="#010101" stroke-miterlimit="10" points="126.238,70.934 113.552,27.051 117.216,24.706 
		121.249,24.706 132.007,57.774 	"/>
	<path fill="#EFC06A" stroke="#010101" stroke-miterlimit="10" d="M132.701,64.84l-2.651-40.868c0,0,3.748-2.587,5.212-2.76
		c0.926-0.109,3.609,0.934,3.609,0.934l2.855,36.084"/>
	<path fill="#EFC06A" stroke="#010101" stroke-miterlimit="10" d="M140.085,58.705l8.977-39.084c0,0,3.802-1.286,4.99-0.85
		c1.138,0.418,3.117,3.719,3.117,3.719l-6.551,32.446"/>
	<path fill="#EFC06A" stroke="#010101" stroke-miterlimit="10" d="M153.084,60.522l13.38-34.968c0,0,3.511-0.426,4.571,0
		c1.166,0.469,3.627,3.481,3.627,3.481l-10.604,29.311"/>
	<path fill="#EFC06A" stroke="#010101" stroke-miterlimit="10" d="M144.925,62.467l9.778-34.499c0,0,3.458-0.743,4.553-0.415
		c1.205,0.361,3.928,3.138,3.928,3.138l-7.9,30.151"/>
	<path fill="#EFC06A" stroke="#010101" stroke-miterlimit="10" d="M118.262,84.629L92.155,54.5c0,0,0.666-4.569,1.802-5.441
		c1.329-1.019,6.689-0.389,6.689-0.389l23.305,27.434"/>
	<g>
		<line fill="#EFC06A" x1="95.479" y1="50.96" x2="118.689" y2="76.344"/>
		<path fill="#010101" d="M95.479,50.96c0,0,0.389,0.373,1.069,1.025c0.664,0.667,1.643,1.592,2.765,2.751
			c1.12,1.16,2.451,2.492,3.834,3.958c1.392,1.458,2.848,3.04,4.306,4.619c1.443,1.594,2.889,3.185,4.217,4.701
			c1.338,1.507,2.544,2.953,3.6,4.172c1.055,1.22,1.889,2.278,2.494,3c0.589,0.736,0.925,1.156,0.925,1.156
			s-0.389-0.373-1.069-1.025c-0.664-0.667-1.644-1.592-2.765-2.751c-1.121-1.16-2.453-2.491-3.834-3.958
			c-1.392-1.458-2.847-3.041-4.305-4.62c-1.443-1.594-2.888-3.186-4.216-4.701c-1.337-1.509-2.544-2.953-3.6-4.173
			c-1.054-1.22-1.889-2.278-2.494-2.999C95.816,51.38,95.479,50.96,95.479,50.96z"/>
	</g>
	<g>
		<line fill="#EFC06A" x1="103.376" y1="39.814" x2="122.779" y2="68.343"/>
		<path fill="#010101" d="M103.376,39.814c0,0,0.333,0.426,0.914,1.171c0.564,0.757,1.403,1.817,2.35,3.129
			c0.946,1.312,2.076,2.826,3.239,4.479c1.172,1.648,2.391,3.427,3.612,5.204c1.204,1.789,2.412,3.576,3.513,5.271
			c1.112,1.688,2.103,3.296,2.977,4.659c0.873,1.362,1.548,2.532,2.045,3.335c0.479,0.815,0.753,1.281,0.753,1.281
			s-0.333-0.426-0.914-1.171c-0.564-0.757-1.404-1.816-2.351-3.128c-0.946-1.313-2.077-2.825-3.239-4.48
			c-1.172-1.647-2.39-3.427-3.611-5.204c-1.204-1.789-2.411-3.577-3.512-5.272c-1.111-1.689-2.103-3.296-2.977-4.659
			c-0.872-1.363-1.549-2.532-2.046-3.335C103.65,40.279,103.376,39.814,103.376,39.814z"/>
	</g>
	<g>
		<line fill="#EFC06A" x1="117.948" y1="28.107" x2="128.653" y2="62.467"/>
		<path fill="#010101" d="M117.948,28.107c0,0,0.201,0.526,0.552,1.448c0.332,0.927,0.843,2.241,1.388,3.838
			c0.544,1.597,1.209,3.452,1.866,5.456c0.667,2,1.344,4.146,2.023,6.291c0.659,2.15,1.322,4.3,1.909,6.326
			c0.599,2.022,1.103,3.927,1.562,5.55c0.459,1.624,0.783,2.996,1.037,3.947c0.234,0.958,0.367,1.505,0.367,1.505
			s-0.201-0.526-0.553-1.447c-0.332-0.928-0.844-2.24-1.389-3.838c-0.543-1.598-1.21-3.451-1.866-5.456
			c-0.668-2.001-1.343-4.146-2.022-6.291c-0.659-2.15-1.321-4.3-1.907-6.326c-0.598-2.022-1.104-3.927-1.563-5.55
			c-0.458-1.624-0.784-2.996-1.038-3.947C118.082,28.654,117.948,28.107,117.948,28.107z"/>
	</g>
	<g>
		<line fill="#EFC06A" x1="135.576" y1="23.813" x2="138.871" y2="56.636"/>
		<path fill="#010101" d="M135.576,23.813c0,0,0.086,0.509,0.238,1.401c0.13,0.893,0.356,2.166,0.556,3.7
			c0.198,1.534,0.461,3.321,0.686,5.241c0.235,1.919,0.448,3.97,0.665,6.02c0.196,2.052,0.396,4.104,0.546,6.032
			c0.163,1.926,0.259,3.73,0.37,5.273c0.109,1.543,0.14,2.835,0.189,3.737c0.028,0.903,0.045,1.42,0.045,1.42
			s-0.087-0.509-0.238-1.401c-0.13-0.893-0.357-2.166-0.557-3.7c-0.198-1.534-0.463-3.321-0.686-5.241
			c-0.235-1.919-0.448-3.97-0.664-6.021c-0.195-2.052-0.394-4.104-0.545-6.032c-0.162-1.926-0.259-3.729-0.37-5.272
			c-0.109-1.543-0.141-2.835-0.19-3.737C135.593,24.33,135.576,23.813,135.576,23.813z"/>
	</g>
	<g>
		<line fill="#EFC06A" x1="158.084" y1="31.818" x2="151.578" y2="57.833"/>
		<path fill="#010101" d="M158.084,31.818c0,0-0.067,0.415-0.186,1.141c-0.139,0.721-0.298,1.761-0.559,2.992
			c-0.263,1.23-0.538,2.673-0.889,4.205c-0.34,1.535-0.739,3.163-1.136,4.791c-0.416,1.624-0.829,3.248-1.252,4.762
			c-0.41,1.517-0.849,2.919-1.196,4.128c-0.348,1.208-0.698,2.201-0.915,2.902c-0.238,0.696-0.374,1.094-0.374,1.094
			s0.067-0.415,0.186-1.142c0.139-0.721,0.296-1.761,0.558-2.992c0.263-1.23,0.536-2.673,0.889-4.205
			c0.34-1.535,0.739-3.162,1.137-4.791c0.417-1.623,0.83-3.248,1.253-4.761c0.411-1.517,0.849-2.919,1.196-4.128
			c0.349-1.208,0.697-2.201,0.915-2.903C157.948,32.216,158.084,31.818,158.084,31.818z"/>
	</g>
	<g>
		<line fill="#EFC06A" x1="153.084" y1="22.11" x2="145.452" y2="52.102"/>
		<path fill="#010101" d="M153.084,22.11c0,0-0.085,0.478-0.234,1.312c-0.169,0.83-0.373,2.026-0.687,3.443
			c-0.315,1.417-0.651,3.077-1.068,4.842c-0.406,1.768-0.876,3.644-1.343,5.521c-0.486,1.872-0.97,3.745-1.458,5.492
			c-0.477,1.75-0.977,3.369-1.377,4.764s-0.795,2.542-1.043,3.352c-0.269,0.805-0.422,1.265-0.422,1.265s0.085-0.478,0.233-1.312
			c0.17-0.83,0.372-2.026,0.687-3.443c0.315-1.417,0.649-3.078,1.068-4.843c0.405-1.768,0.876-3.644,1.344-5.521
			c0.487-1.872,0.972-3.745,1.459-5.491c0.479-1.75,0.977-3.369,1.377-4.764c0.401-1.395,0.794-2.542,1.042-3.353
			C152.931,22.57,153.084,22.11,153.084,22.11z"/>
	</g>
	<g>
		<line fill="#EFC06A" x1="169.517" y1="26.646" x2="160.632" y2="56.636"/>
		<path fill="#010101" d="M169.517,26.646c0,0-0.105,0.479-0.289,1.316c-0.204,0.831-0.457,2.031-0.83,3.449
			c-0.375,1.418-0.78,3.082-1.271,4.848c-0.48,1.77-1.028,3.646-1.573,5.523c-0.565,1.872-1.127,3.744-1.688,5.489
			c-0.549,1.749-1.117,3.365-1.575,4.758c-0.459,1.393-0.901,2.536-1.184,3.345c-0.302,0.803-0.475,1.261-0.475,1.261
			s0.104-0.479,0.288-1.316c0.205-0.832,0.456-2.031,0.83-3.45c0.375-1.418,0.778-3.083,1.271-4.848
			c0.48-1.77,1.029-3.646,1.574-5.523c0.565-1.872,1.129-3.744,1.689-5.489c0.551-1.749,1.117-3.365,1.575-4.758
			c0.46-1.393,0.901-2.537,1.183-3.345C169.344,27.104,169.517,26.646,169.517,26.646z"/>
	</g>
	<path fill="#EFC06A" stroke="#010101" stroke-miterlimit="10" d="M136.027,65.429l-0.451-34.484c0,0,3.132-1.641,4.276-1.617
		c1.256,0.026,4.622,1.974,4.622,1.974l0.45,31.166"/>
	<path fill="#EFC06A" stroke="#010101" stroke-miterlimit="10" d="M130.05,68.343l-6.748-37.362c0,0,2.792-2.17,3.922-2.349
		c1.241-0.197,4.899,1.123,4.899,1.123l6.747,35.084"/>
	<g>
		<line fill="#EFC06A" x1="128.166" y1="31.298" x2="134.067" y2="63.3"/>
		<path fill="#010101" d="M128.166,31.298c0,0,0.127,0.494,0.349,1.357c0.201,0.868,0.528,2.1,0.849,3.592
			c0.32,1.492,0.725,3.227,1.102,5.096c0.387,1.868,0.764,3.867,1.143,5.865c0.359,2.002,0.721,4.003,1.025,5.886
			c0.316,1.88,0.555,3.646,0.789,5.154c0.233,1.508,0.366,2.776,0.488,3.659c0.1,0.886,0.158,1.393,0.158,1.393
			s-0.127-0.494-0.349-1.357c-0.201-0.868-0.529-2.1-0.85-3.592c-0.32-1.492-0.727-3.227-1.102-5.097
			c-0.388-1.868-0.763-3.866-1.142-5.865c-0.358-2.002-0.72-4.003-1.024-5.886c-0.315-1.881-0.556-3.646-0.789-5.154
			c-0.232-1.508-0.366-2.776-0.488-3.659C128.224,31.804,128.166,31.298,128.166,31.298z"/>
	</g>
	<g>
		<line fill="#EFC06A" x1="139.857" y1="31.818" x2="141.312" y2="61.151"/>
		<path fill="#010101" d="M139.857,31.818c0,0,0.058,0.457,0.159,1.255c0.08,0.8,0.234,1.941,0.349,3.314
			c0.111,1.373,0.274,2.973,0.392,4.69c0.127,1.717,0.226,3.549,0.327,5.382c0.081,1.833,0.165,3.667,0.208,5.388
			c0.056,1.72,0.05,3.329,0.074,4.706c0.023,1.377-0.019,2.528-0.019,3.332c-0.022,0.805-0.035,1.265-0.035,1.265
			s-0.058-0.457-0.16-1.255c-0.08-0.8-0.235-1.941-0.349-3.314c-0.111-1.373-0.276-2.973-0.392-4.69
			c-0.128-1.716-0.225-3.549-0.326-5.382c-0.08-1.833-0.164-3.667-0.207-5.388c-0.054-1.72-0.05-3.329-0.074-4.706
			c-0.022-1.377,0.018-2.528,0.019-3.332C139.845,32.278,139.857,31.818,139.857,31.818z"/>
	</g>
	<path fill="#EFC06A" stroke="#010101" stroke-miterlimit="10" d="M131.315,110.061c0,0-21.152-9.343-22.486,3.82
		c-1.333,13.165-3.869-5.715-1.746-7.112s-2.449-1.681-2.606-2.76c-0.236-1.61,2.606-2.866,2.606-2.866s-2.2-2.631-1.545-3.12
		c0.649-0.484,3.185-0.595,3.185-0.595s-0.324-2.262,0.212-2.655C114.399,90.766,126.52,98.81,131.315,110.061z"/>
	<g>
		<path fill="#010101" d="M107.142,106.06c-0.007,0.012,0.104-0.137,0.292-0.334c0.189-0.201,0.465-0.474,0.826-0.763
			c0.709-0.59,1.779-1.232,2.951-1.565c0.286-0.101,0.588-0.144,0.878-0.205c0.29-0.066,0.585-0.064,0.863-0.098
			c0.279-0.029,0.552,0.001,0.808-0.001c0.256-0.007,0.495,0.043,0.716,0.068c0.219,0.036,0.423,0.042,0.597,0.095
			c0.175,0.043,0.327,0.081,0.452,0.112c0.249,0.062,0.392,0.097,0.392,0.097s-0.146-0.02-0.4-0.055
			c-0.126-0.018-0.28-0.039-0.457-0.063c-0.175-0.035-0.378-0.019-0.596-0.031c-0.218-0.001-0.453-0.026-0.702,0.008
			c-0.248,0.029-0.51,0.027-0.774,0.084c-0.263,0.062-0.541,0.088-0.808,0.181c-0.268,0.087-0.544,0.156-0.802,0.279
			c-1.057,0.427-1.968,1.12-2.551,1.72c-0.603,0.603-0.869,1.052-0.869,1.053L107.142,106.06z"/>
	</g>
	<g>
		<path fill="#010101" d="M106.914,100.673c0,0,0.14-0.048,0.426-0.118c0.282-0.08,0.676-0.157,1.147-0.246
			c0.234-0.054,0.494-0.071,0.764-0.11c0.272-0.029,0.555-0.085,0.854-0.095c0.596-0.022,1.225-0.096,1.858-0.052
			c0.315,0.01,0.63,0.02,0.94,0.029c0.31,0.005,0.612,0.068,0.904,0.098c0.584,0.083,1.131,0.118,1.585,0.254
			c0.91,0.219,1.517,0.365,1.517,0.365s-0.617-0.084-1.541-0.211c-0.457-0.088-1.004-0.069-1.582-0.093
			c-0.29,0-0.587-0.033-0.89-0.007c-0.303,0.021-0.61,0.042-0.917,0.064c-0.614,0.019-1.218,0.152-1.785,0.23
			c-0.284,0.037-0.551,0.12-0.807,0.172c-0.254,0.064-0.499,0.104-0.715,0.178c-0.437,0.129-0.799,0.238-1.033,0.332
			c-0.237,0.082-0.387,0.149-0.387,0.149L106.914,100.673z"/>
	</g>
	<g>
		<path fill="#010101" d="M108.745,96.868c0,0,0.624,0.006,1.588,0.11c0.239,0.022,0.499,0.046,0.773,0.072
			c0.273,0.031,0.564,0.04,0.858,0.096c0.588,0.094,1.216,0.194,1.844,0.295c0.313,0.05,0.626,0.1,0.934,0.149
			c0.308,0.047,0.604,0.142,0.893,0.207c0.576,0.143,1.114,0.277,1.575,0.391c0.918,0.229,1.53,0.381,1.53,0.381
			s-0.625-0.091-1.562-0.228c-0.467-0.068-1.011-0.147-1.595-0.232c-0.292-0.036-0.59-0.101-0.899-0.116
			c-0.309-0.019-0.623-0.037-0.936-0.056c-0.625-0.037-1.251-0.075-1.837-0.11c-0.293-0.026-0.575-0.006-0.842-0.01
			c-0.267,0.002-0.52,0.003-0.752,0.004c-0.924-0.01-1.562,0.046-1.562,0.046L108.745,96.868z"/>
	</g>
	<path fill="#EFC06A" stroke="#010101" stroke-miterlimit="10" d="M181.969,99.871c0,0,2.832,1.805,3.38,4.14
		c0.547,2.335-4.441,5.414-4.441,5.414L181.969,99.871z"/>
</g>
<g id="Layer_6" display="none">
	<path display="inline" fill="#EFC06A" stroke="#000000" stroke-miterlimit="10" d="M193.671,33.722
		c0.207,0.695-1.287,1.754-3.337,2.367c-2.051,0.612-3.881,0.545-4.089-0.149c-0.207-0.695-1.861-12.294,0.189-12.907
		C188.484,22.421,193.463,33.028,193.671,33.722z"/>
	<path display="inline" fill="#EFC06A" stroke="#000000" stroke-miterlimit="10" d="M186.585,115.095
		c0.207,0.695-1.287,1.754-3.337,2.367c-2.051,0.612-3.881,0.545-4.089-0.149c-0.207-0.695-1.861-12.294,0.189-12.907
		C181.398,103.794,186.377,114.4,186.585,115.095z"/>
	<g display="inline">
		<path fill="#EFC06A" stroke="#000000" stroke-miterlimit="10" d="M241.514,167.111c0.275-0.478,0.888-0.643,1.366-0.367
			l9.41,5.418c0.479,0.275,0.643,0.887,0.368,1.365l-5.418,9.41c-0.275,0.479-0.887,0.644-1.365,0.367L241.514,167.111z"/>
		<path fill="#EFC06A" stroke="#000000" stroke-miterlimit="10" d="M242.721,180.812c0.086-0.544,0.6-0.916,1.145-0.829
			l10.723,1.706c0.546,0.088,0.917,0.6,0.831,1.145l-1.707,10.724c-0.087,0.546-0.6,0.918-1.146,0.831L242.721,180.812z"/>
		<path fill="#EFC06A" stroke="#000000" stroke-miterlimit="10" d="M248.916,190.484c-0.009-0.551,0.432-1.006,0.984-1.015
			l10.856-0.175c0.552-0.008,1.007,0.432,1.017,0.984l0.174,10.856c0.008,0.553-0.432,1.008-0.984,1.017L248.916,190.484z"/>
		<path fill="#EFC06A" stroke="#000000" stroke-miterlimit="10" d="M256.674,198.939c-0.162-0.527,0.135-1.088,0.662-1.25
			l10.379-3.191c0.529-0.161,1.088,0.135,1.25,0.662l3.191,10.379c0.162,0.528-0.135,1.088-0.662,1.25L256.674,198.939z"/>
		<path fill="#EFC06A" stroke="#000000" stroke-miterlimit="10" d="M267.287,203.437c0.496,1.478,4.625,2.491,6.021,2.824
			c1.482,0.354,2.979,0.658,4.512,0.627c0.748-0.016,1.127-0.098,1.289-0.141c0.488-0.757,1.235-1.256,2.047-1.514l-3.503-6.819
			c-0.252-0.49-0.854-0.684-1.347-0.432l-9.32,4.787C267.102,202.974,267.205,203.192,267.287,203.437z"/>
		<path fill="#EFC06A" stroke="#000000" stroke-miterlimit="10" d="M226.26,185.156c0,0,25.076,30.241,48.487,24.954
			s6.077-5.541,6.077-5.541s-31.57-6.414-34.118-32.08S226.26,185.156,226.26,185.156z"/>
	</g>
	<path display="inline" fill="#EFC06A" stroke="#000000" stroke-miterlimit="10" d="M175.326,164.352
		c-4-10.008-7.756-17.885-6.324-28.75c1.427-8.291,8.042-19.002,12.903-25.01c4.574-5.716,6.403-24.986,6.403-24.986l-8.035-1.23
		c0.666-4.855,7.22-26.015,8.035-31.875c0,0-4.865,0.326-4.535-4.625c0.25-3.75,0.179-13.873,8.875-19.909
		c10.996-7.632,53.242-24.779,72.709-0.517c11.964,14.909,10.912,56.837,14.915,75.139c1.427,6.002,0,12.295-0.572,18.585
		c-0.57,9.724,0.287,20.589-3.146,30.025c-2.575,6.577-8.863,10.867-13.726,15.729c-6.292,6.862-13.154,10.865-20.59,15.727
		c-6.003,4.291-12.294,9.723-20.303,8.292C221.937,190.945,183.049,182.366,175.326,164.352z"/>
	
		<ellipse display="inline" fill="#ED1F24" stroke="#000000" stroke-miterlimit="10" cx="223.97" cy="56.448" rx="3.271" ry="6.543"/>
	
		<ellipse display="inline" fill="#ED1F24" stroke="#000000" stroke-miterlimit="10" cx="223.533" cy="56.448" rx="1.655" ry="3.98"/>
	<ellipse display="inline" stroke="#000000" stroke-miterlimit="10" cx="203.644" cy="57.2" rx="3.271" ry="6.542"/>
	
		<line display="inline" fill="#EFC06A" stroke="#000000" stroke-miterlimit="10" x1="188.309" y1="85.605" x2="250.905" y2="92.023"/>
	<path display="inline" fill="#EFC06A" stroke="#000000" stroke-miterlimit="10" d="M79.858,167.369"/>
	
		<line display="inline" fill="#EFC06A" stroke="#000000" stroke-miterlimit="10" x1="208.943" y1="205.621" x2="208.943" y2="187.186"/>
	
		<line display="inline" fill="#EFC06A" stroke="#000000" stroke-miterlimit="10" x1="239.585" y1="210.19" x2="239.585" y2="184.971"/>
	
		<line display="inline" fill="#EFC06A" stroke="#000000" stroke-miterlimit="10" x1="173.604" y1="123.25" x2="194.49" y2="123.25"/>
	
		<line display="inline" fill="#EFC06A" stroke="#000000" stroke-miterlimit="10" x1="246.187" y1="162.672" x2="267.072" y2="162.672"/>
	
		<line display="inline" fill="#EFC06A" stroke="#000000" stroke-miterlimit="10" x1="268.927" y1="117.88" x2="279.585" y2="117.88"/>
	
		<line display="inline" fill="#EFC06A" stroke="#000000" stroke-miterlimit="10" x1="221.527" y1="146.062" x2="234.767" y2="146.062"/>
	
		<line display="inline" fill="#EFC06A" stroke="#000000" stroke-miterlimit="10" x1="257.973" y1="40.625" x2="271.213" y2="40.625"/>
	<line display="inline" fill="#EFC06A" stroke="#000000" stroke-miterlimit="10" x1="264.593" y1="52.5" x2="274.201" y2="52.5"/>
	<line display="inline" fill="#EFC06A" stroke="#000000" stroke-miterlimit="10" x1="269.577" y1="45" x2="272.689" y2="45"/>
	
		<line display="inline" fill="#EFC06A" stroke="#000000" stroke-miterlimit="10" x1="184.324" y1="174.481" x2="196.607" y2="174.481"/>
	<polygon display="inline" fill="#EFC06A" points="227.241,53.43 194.773,52.5 194.773,40.625 227.241,40.625 	"/>
	<path display="inline" fill="#EFC06A" stroke="#000000" stroke-miterlimit="10" d="M188.309,52.5
		c16.25,0.388,32.499,0.776,48.749,1.164"/>
	<path display="inline" fill="none" stroke="#000000" stroke-miterlimit="10" d="M232.774,15.021c0,0-18.345,15.284-22.543,28.895
		l-1.288-0.166l-24.359-3.125"/>
	<path display="inline" fill="#EFC06A" stroke="#000000" stroke-miterlimit="10" d="M233.182,18.604
		c-0.165,0.491-0.696,0.755-1.188,0.59l-3.669-1.234c-0.49-0.165-0.754-0.697-0.589-1.188l0,0c0.165-0.491,0.696-0.755,1.188-0.59
		l3.669,1.234C233.083,17.581,233.347,18.113,233.182,18.604L233.182,18.604z"/>
	<path display="inline" fill="#EFC06A" stroke="#000000" stroke-miterlimit="10" d="M228.619,22.541
		c-0.165,0.491-0.696,0.755-1.188,0.59l-3.669-1.234c-0.49-0.165-0.754-0.697-0.589-1.188l0,0c0.165-0.491,0.696-0.755,1.188-0.59
		l3.669,1.234C228.521,21.519,228.784,22.05,228.619,22.541L228.619,22.541z"/>
	<path display="inline" fill="#EFC06A" stroke="#000000" stroke-miterlimit="10" d="M223.922,27.729
		c-0.165,0.491-0.696,0.755-1.188,0.59l-3.669-1.234c-0.49-0.165-0.754-0.697-0.589-1.188l0,0c0.165-0.491,0.696-0.755,1.188-0.59
		l3.669,1.234C223.823,26.706,224.087,27.238,223.922,27.729L223.922,27.729z"/>
	<path display="inline" fill="#EFC06A" stroke="#000000" stroke-miterlimit="10" d="M219.973,32.229
		c-0.165,0.491-0.696,0.755-1.188,0.59l-3.669-1.234c-0.49-0.165-0.754-0.697-0.589-1.188l0,0c0.165-0.491,0.696-0.755,1.188-0.59
		l3.669,1.234C219.874,31.206,220.138,31.738,219.973,32.229L219.973,32.229z"/>
	<path display="inline" fill="#EFC06A" stroke="#000000" stroke-miterlimit="10" d="M215.973,38.291
		c-0.165,0.491-0.696,0.755-1.188,0.59l-3.669-1.234c-0.49-0.165-0.754-0.697-0.589-1.188l0,0c0.165-0.491,0.696-0.755,1.188-0.59
		l3.669,1.234C215.874,37.269,216.138,37.8,215.973,38.291L215.973,38.291z"/>
	<path display="inline" fill="#EFC06A" stroke="#000000" stroke-miterlimit="10" d="M213.73,42.666
		c-0.165,0.491-0.696,0.755-1.188,0.59l-3.669-1.234c-0.49-0.165-0.754-0.697-0.589-1.188l0,0c0.165-0.491,0.696-0.755,1.188-0.59
		l3.669,1.234C213.632,41.644,213.896,42.175,213.73,42.666L213.73,42.666z"/>
	<path display="inline" fill="#EFC06A" stroke="#000000" stroke-miterlimit="10" d="M202.465,46.096
		c-0.503-0.123-0.812-0.629-0.689-1.133l0.917-3.761c0.122-0.502,0.63-0.811,1.133-0.688l0,0c0.503,0.123,0.812,0.629,0.689,1.133
		l-0.917,3.761C203.475,45.91,202.968,46.218,202.465,46.096L202.465,46.096z"/>
	<path display="inline" fill="#EFC06A" stroke="#000000" stroke-miterlimit="10" d="M196.777,44.973
		c-0.503-0.123-0.812-0.629-0.689-1.133l0.917-3.761c0.122-0.502,0.63-0.811,1.133-0.688l0,0c0.503,0.123,0.812,0.629,0.689,1.133
		l-0.917,3.761C197.787,44.788,197.28,45.096,196.777,44.973L196.777,44.973z"/>
	<path display="inline" fill="#EFC06A" stroke="#000000" stroke-miterlimit="10" d="M190.09,43.889
		c-0.503-0.123-0.812-0.629-0.689-1.133l0.917-3.761c0.122-0.502,0.63-0.811,1.133-0.688l0,0c0.503,0.123,0.812,0.629,0.689,1.133
		l-0.917,3.761C191.1,43.703,190.593,44.011,190.09,43.889L190.09,43.889z"/>
	<path display="inline" fill="#EFC06A" stroke="#000000" stroke-miterlimit="10" d="M185.487,43.358
		c-0.518-0.02-0.921-0.454-0.902-0.972l0.145-3.868c0.019-0.517,0.454-0.92,0.972-0.901l0,0c0.518,0.02,0.921,0.454,0.902,0.972
		l-0.145,3.868C186.439,42.974,186.005,43.377,185.487,43.358L185.487,43.358z"/>
	<polygon display="inline" fill="#EFC06A" stroke="#000000" stroke-miterlimit="10" points="228.428,89.719 231.023,97.125 
		234.644,90.356 	"/>
	<path display="inline" fill="none" stroke="#000000" stroke-miterlimit="10" d="M259.685,59.264
		c0.455,3.282-1.838,6.312-5.12,6.767l-28.45,3.942c-3.282,0.455-6.312-1.837-6.767-5.12l-1.03-11.636l-2.419-0.135l-0.499-2.707
		c-0.916-5.167,3.746-6.556,7.028-7.011l28.45-3.942c3.282-0.455,6.312,1.837,6.767,5.12L259.685,59.264z"/>
	<path display="inline" fill="#EFC06A" stroke="#000000" stroke-miterlimit="10" d="M275.244,60.267
		c-1.417,4.206-7.188-1.102-8.641-2.188c-2.893-2.162-6.475-1.227-9.747-0.913c-1.908,0.183-1.926,3.185,0,3
		c1.445-0.139,2.825-0.341,4.277-0.504c2.714-0.303,4.46,1.342,6.329,2.981c1.143,1.003,2.563,1.511,4.026,1.827
		c2.958,0.638,5.672-0.508,6.647-3.405C278.756,59.226,275.858,58.444,275.244,60.267z"/>
	<path display="inline" fill="#EFC06A" stroke="#000000" stroke-miterlimit="10" d="M275.94,71.916
		c0.278,7.67-21.987-1.877-22.5-7.75c-0.167-1.912-3.168-1.928-3,0c0.809,9.268,28.985,21.131,28.5,7.75
		C278.87,69.987,275.87,69.98,275.94,71.916z"/>
	<path display="inline" fill="none" stroke="#000000" stroke-miterlimit="10" d="M253.157,69.205c0,0,1.151-1.958,2.37-1.676"/>
	<path display="inline" fill="none" stroke="#000000" stroke-miterlimit="10" d="M258.269,73.251c0,0-0.556-2.832,1.725-2.51"/>
	<path display="inline" fill="none" stroke="#000000" stroke-miterlimit="10" d="M266.551,76.975c0,0-0.846-2.455,0.998-2.986"/>
	<path display="inline" fill="none" stroke="#000000" stroke-miterlimit="10" d="M275.599,73.434c0,0,2.484,0.542,2.266,2.401"/>
	<path display="inline" fill="none" stroke="#000000" stroke-miterlimit="10" d="M267.9,58.896c-0.729,0-1.772,2.417-1.772,2.417"/>
	<path display="inline" fill="#EFC06A" stroke="#000000" stroke-miterlimit="10" d="M261.085,56.717
		c-1.094,1.24-0.164,2.741-0.164,2.741"/>
	<path display="inline" fill="none" stroke="#000000" stroke-miterlimit="10" d="M273.9,61.771c0.77,0.688,1.27,2.49,1.27,2.49"/>
	<path display="inline" fill="#EFC06A" stroke="#000000" stroke-miterlimit="10" d="M255.045,178.666
		c-6.213,0-11.25,5.036-11.25,11.249c0,5.266,3.623,9.674,8.509,10.899v-5.288c-2.076-1.017-3.509-3.145-3.509-5.611
		c0-3.452,2.798-6.249,6.25-6.249c3.451,0,6.249,2.797,6.249,6.249c0,2.266-1.209,4.244-3.014,5.341v5.432
		c4.635-1.391,8.014-5.686,8.014-10.772C266.294,183.702,261.258,178.666,255.045,178.666z"/>
	<path display="inline" fill="#EFC06A" stroke="#000000" stroke-miterlimit="10" d="M258.255,182.436
		c0,1.886-1.528,3.414-3.413,3.414l0,0c-1.886,0-3.414-1.528-3.414-3.414v-49.935c0-1.885,1.528-3.413,3.414-3.413l0,0
		c1.885,0,3.413,1.528,3.413,3.413V182.436z"/>
	<path display="inline" fill="none" stroke="#000000" stroke-miterlimit="10" d="M258.258,171.298
		c-1.019-0.303-2.097-0.466-3.213-0.466c-1.266,0-2.482,0.209-3.617,0.594"/>
	<path display="inline" fill="none" stroke="#000000" stroke-miterlimit="10" d="M258.258,154.093
		c-1.019-0.303-2.097-0.466-3.213-0.466c-1.266,0-2.482,0.209-3.617,0.594"/>
	<path display="inline" fill="none" stroke="#000000" stroke-miterlimit="10" d="M258.258,141.356
		c-1.019-0.303-2.097-0.466-3.213-0.466c-1.266,0-2.482,0.209-3.617,0.594"/>
	<path display="inline" fill="#EFC06A" stroke="#000000" stroke-miterlimit="10" d="M267.718,36.273
		c-0.553,0.47-2.124-0.471-3.511-2.101c-1.386-1.63-2.062-3.333-1.511-3.802c0.553-0.47,10.503-6.656,11.89-5.026
		C275.972,26.974,268.27,35.803,267.718,36.273z"/>
	<path display="inline" fill="#EFC06A" stroke="#000000" stroke-miterlimit="10" d="M275.245,101.179
		c-0.706,0.166-1.674-1.39-2.163-3.473c-0.488-2.083-0.312-3.907,0.394-4.073c0.706-0.165,12.384-1.121,12.872,0.962
		S275.95,101.013,275.245,101.179z"/>
	<path display="inline" fill="#EFC06A" stroke="#000000" stroke-miterlimit="10" d="M274.193,142.423
		c-0.726-0.004-1.303-1.741-1.291-3.882c0.012-2.139,0.61-3.871,1.335-3.867s12.303,1.805,12.29,3.944
		C286.516,140.758,274.918,142.428,274.193,142.423z"/>
	<path display="inline" fill="#EFC06A" stroke="#000000" stroke-miterlimit="10" d="M272.308,115.284
		c-0.671,0.275-1.873-1.106-2.687-3.085c-0.813-1.98-0.929-3.808-0.259-4.083c0.671-0.275,12.048-3.075,12.861-1.095
		C283.036,108.999,272.978,115.007,272.308,115.284z"/>
	<path display="inline" fill="#EFC06A" stroke="#000000" stroke-miterlimit="10" d="M273.447,86.886
		c-0.671,0.275-1.873-1.106-2.687-3.085c-0.813-1.98-0.929-3.808-0.259-4.083c0.671-0.275,12.048-3.075,12.861-1.095
		C284.176,80.601,274.117,86.61,273.447,86.886z"/>
	<path display="inline" fill="#EFC06A" stroke="#000000" stroke-miterlimit="10" d="M268.279,157.672
		c-0.666-0.285-0.526-2.111,0.312-4.08s2.059-3.334,2.726-3.051c0.667,0.284,10.648,6.419,9.81,8.389
		C280.288,160.897,268.947,157.954,268.279,157.672z"/>
	<path display="inline" fill="#EFC06A" stroke="#000000" stroke-miterlimit="10" d="M217.95,211.784
		c0.36,0.009,0.633,0.881,0.607,1.947c-0.025,1.065-0.339,1.923-0.699,1.915c-0.362-0.01-6.114-1.009-6.09-2.075
		C211.794,212.505,217.589,211.776,217.95,211.784z"/>
	<path display="inline" fill="#EFC06A" stroke="#000000" stroke-miterlimit="10" d="M185.131,205.443
		c0.36,0.009,0.633,0.881,0.607,1.947c-0.025,1.065-0.339,1.923-0.699,1.915c-0.362-0.01-6.114-1.009-6.09-2.075
		C178.975,206.164,184.77,205.436,185.131,205.443z"/>
	<path display="inline" fill="#EFC06A" stroke="#000000" stroke-miterlimit="10" d="M214.143,210.003
		c0,2.639-7.208,4.782-16.102,4.782c-8.896,0-16.105-2.144-16.105-4.782c0-2.641,3.603-7.764,12.498-7.764
		C203.327,202.239,214.143,207.362,214.143,210.003z"/>
	<path display="inline" fill="#EFC06A" stroke="#000000" stroke-miterlimit="10" d="M189.052,210.239
		c0.325-0.157,0.966,0.494,1.43,1.454c0.465,0.96,0.577,1.865,0.253,2.023c-0.326,0.157-5.9,1.895-6.365,0.935
		S188.727,210.397,189.052,210.239z"/>
	<path display="inline" fill="#EFC06A" stroke="#000000" stroke-miterlimit="10" d="M182.531,208.725
		c0.328-0.15,0.955,0.515,1.399,1.483c0.444,0.97,0.538,1.877,0.211,2.028c-0.33,0.15-5.938,1.772-6.384,0.803
		C177.313,212.069,182.203,208.876,182.531,208.725z"/>
	<path display="inline" fill="#EFC06A" stroke="#000000" stroke-miterlimit="10" d="M246.535,216.498
		c-0.256,2.629-7.21,4.782-16.105,4.782c-8.894,0-16.105-2.141-16.105-4.782c0-2.64,3.604-7.764,12.5-7.764
		C235.719,208.734,247.148,210.19,246.535,216.498z"/>
	<path display="inline" fill="#EFC06A" stroke="#000000" stroke-miterlimit="10" d="M221.871,216.58
		c0.325-0.157,0.966,0.494,1.43,1.454c0.465,0.96,0.577,1.865,0.253,2.023c-0.326,0.157-5.9,1.895-6.365,0.935
		S221.546,216.738,221.871,216.58z"/>
	<path display="inline" fill="#EFC06A" stroke="#000000" stroke-miterlimit="10" d="M215.351,215.065
		c0.328-0.15,0.955,0.515,1.399,1.483c0.444,0.97,0.538,1.877,0.211,2.028c-0.33,0.15-5.938,1.772-6.384,0.803
		C210.133,218.41,215.022,215.217,215.351,215.065z"/>
	<path display="inline" fill="none" stroke="#000000" stroke-miterlimit="10" d="M194.434,202.239c0,0,6.4,3.164,5.9,12.546"/>
	<circle display="inline" fill="none" stroke="#000000" stroke-miterlimit="10" cx="204.042" cy="211.625" r="1.292"/>
	
		<ellipse transform="matrix(0.9669 0.2552 -0.2552 0.9669 59.4154 -44.6368)" display="inline" fill="none" stroke="#000000" stroke-miterlimit="10" cx="201.694" cy="206.61" rx="1.354" ry="0.958"/>
	
		<ellipse transform="matrix(0.9992 0.0402 -0.0402 0.9992 8.3084 -7.827)" display="inline" fill="#EFC06A" stroke="#000000" stroke-miterlimit="10" cx="198.88" cy="202.791" rx="1.483" ry="1.042"/>
	<path display="inline" fill="none" stroke="#000000" stroke-miterlimit="10" d="M212.046,188.206c0,0,10.12-20.872,11.925-28.604
		c0,0,19.445,6.481,27.457,7.201"/>
	<ellipse display="inline" fill="none" stroke="#000000" stroke-miterlimit="10" cx="216.708" cy="186.078" rx="1.125" ry="1.107"/>
	<ellipse display="inline" fill="none" stroke="#000000" stroke-miterlimit="10" cx="220.402" cy="177.756" rx="1.125" ry="1.107"/>
	<ellipse display="inline" fill="none" stroke="#000000" stroke-miterlimit="10" cx="222.885" cy="171.689" rx="1.125" ry="1.107"/>
	<ellipse display="inline" fill="none" stroke="#000000" stroke-miterlimit="10" cx="226.26" cy="164.748" rx="1.125" ry="1.107"/>
	<ellipse display="inline" fill="none" stroke="#000000" stroke-miterlimit="10" cx="234.416" cy="166.227" rx="1.125" ry="1.107"/>
	<ellipse display="inline" fill="none" stroke="#000000" stroke-miterlimit="10" cx="243.041" cy="168.441" rx="1.125" ry="1.107"/>
	<ellipse display="inline" fill="none" stroke="#000000" stroke-miterlimit="10" cx="250.041" cy="169.549" rx="1.125" ry="1.107"/>
	<path display="inline" fill="none" stroke="#000000" stroke-miterlimit="10" d="M259.101,108.333c0,0,9.826-3.083,8.448-14.333"/>
	<line display="inline" fill="none" stroke="#000000" stroke-miterlimit="10" x1="259.993" y1="104.5" x2="263.324" y2="109.25"/>
	<line display="inline" fill="none" stroke="#000000" stroke-miterlimit="10" x1="264.375" y1="100.75" x2="268.927" y2="103.056"/>
	<line display="inline" fill="none" stroke="#000000" stroke-miterlimit="10" x1="265.375" y1="96.5" x2="269.396" y2="96.5"/>
	<path display="inline" fill="none" stroke="#000000" stroke-miterlimit="10" d="M174.334,130.334c0,0-4.292,9.457-0.729,15.729"/>
	<path display="inline" fill="none" stroke="#000000" stroke-miterlimit="10" d="M170.667,144c0,0,2.5-1.166,3.667-0.666"/>
	<path display="inline" fill="none" stroke="#000000" stroke-miterlimit="10" d="M170.667,138.549c0,0,1.834-1.986,3.667-0.351"/>
	<path display="inline" fill="none" stroke="#000000" stroke-miterlimit="10" d="M171.334,133c0,0,2.666-1.667,3.333,0"/>
	<path display="inline" fill="#EFC06A" stroke="#000000" stroke-miterlimit="10" d="M280.605,101.939
		c-4.597,3.749-9.964,1.662-15.208,0.948c-1.891-0.258-2.707,2.632-0.797,2.893c6.583,0.897,12.46,2.902,18.126-1.719
		C284.227,102.837,282.091,100.728,280.605,101.939z"/>
	<path display="inline" fill="#EFC06A" stroke="#000000" stroke-miterlimit="10" d="M268.5,103.413c0,0-1.586,1.64-1.114,2.797"/>
	<path display="inline" fill="none" stroke="#000000" stroke-miterlimit="10" d="M278.902,103.056c0,0,0.688,1.469,1.16,2.626"/>
	<path display="inline" fill="none" stroke="#000000" stroke-miterlimit="10" d="M274.256,104.284c0,0,0.108,1.555,0.58,2.712"/>
</g>
<g id="highscore" display="none">
	<g display="inline">
		<text transform="matrix(1 0 0 1 51.5557 96.1582)"><tspan x="0" y="0" font-family="'Neucha'" font-size="24.4995">1. M3G4-tatis</tspan><tspan x="0" y="29.399" font-family="'Neucha'" font-size="24.4995">2. Du</tspan><tspan x="0" y="58.799" font-family="'Neucha'" font-size="24.4995">3. Else-Britt</tspan><tspan x="0" y="88.198" font-family="'Neucha'" font-size="24.4995">4. Professorn</tspan><tspan x="0" y="117.598" font-family="'Neucha'" font-size="24.4995">5. Snubben innan</tspan></text>
		<text transform="matrix(1 0 0 1 205.0859 96.1582)"><tspan x="0" y="0" font-family="'Neucha'" font-size="24.4995">9997</tspan><tspan x="0" y="29.399" font-family="'Neucha'" font-size="24.4995">9223</tspan><tspan x="0" y="58.799" font-family="'Neucha'" font-size="24.4995">1424</tspan><tspan x="0" y="88.198" font-family="'Neucha'" font-size="24.4995">0510</tspan><tspan x="0" y="117.598" font-family="'Neucha'" font-size="24.4995">0020</tspan></text>
	</g>
	
		<text transform="matrix(1 0 0 1 76.6777 48.792)" display="inline" fill="none" stroke="#000000" stroke-width="5" font-family="'Neucha'" font-size="39.1991">High Score</text>
	<text transform="matrix(1 0 0 1 76.6777 48.792)" display="inline" fill="#EEBF68" font-family="'Neucha'" font-size="39.1991">High Score</text>
</g>
</svg>
