<?xml version="1.0" encoding="utf-8"?>
<!-- Generator: Adobe Illustrator 16.0.4, SVG Export Plug-In . SVG Version: 6.00 Build 0)  -->
<!DOCTYPE svg PUBLIC "-//W3C//DTD SVG 1.1//EN" "http://www.w3.org/Graphics/SVG/1.1/DTD/svg11.dtd">
<svg version="1.1" xmlns="http://www.w3.org/2000/svg" xmlns:xlink="http://www.w3.org/1999/xlink" x="0px" y="0px" width="288px"
	 height="256px" viewBox="0 0 288 256" enable-background="new 0 0 288 256" xml:space="preserve">
<g id="Bakgrund">
	<g>
		<polygon points="4.333,202.86 9.942,190.833 9.955,190.807 9.983,190.799 34.618,184.015 34.48,184.205 33.068,161.543 
			33.041,161.103 33.444,161.286 52.458,169.921 52.035,170.222 50.935,158.432 50.895,158.008 51.313,158.092 75.069,162.85 
			74.649,163.17 75.627,148.752 75.663,148.229 76.146,148.434 96.823,157.157 96.432,157.2 111.747,146.175 111.976,146.011 
			112.22,146.154 125.233,153.8 124.829,153.77 143.816,146.071 144.097,145.957 144.325,146.158 152.656,153.493 152.099,153.431 
			170.449,143.461 170.871,143.232 171.077,143.664 175.062,152.004 174.552,151.771 194.227,146.469 194.477,146.401 
			194.643,146.599 203.625,157.281 203.204,157.168 225.552,149.205 225.913,149.076 226.001,149.449 228.647,160.786 
			228.255,160.547 250.931,154.918 251.202,154.852 251.274,155.119 254.256,166.124 253.945,165.935 268.962,162.847 
			269.033,162.832 269.095,162.869 279.899,169.418 279.769,169.637 268.905,163.186 269.038,163.208 254.055,166.454 
			253.811,166.507 253.744,166.264 250.726,155.27 251.069,155.471 228.411,161.174 228.094,161.254 228.019,160.935 
			225.333,149.605 225.782,149.85 203.462,157.887 203.213,157.977 203.041,157.773 194.023,147.122 194.439,147.252 
			174.782,152.618 174.43,152.714 174.271,152.385 170.257,144.058 170.885,144.26 152.567,154.29 152.268,154.454 152.01,154.228 
			143.675,146.897 144.184,146.984 125.172,154.619 124.961,154.704 124.767,154.589 111.78,146.9 112.252,146.88 96.901,157.854 
			96.717,157.986 96.51,157.897 75.854,149.121 76.373,148.804 75.351,163.219 75.322,163.618 74.931,163.539 51.188,158.713 
			51.565,158.373 52.632,170.167 52.679,170.683 52.209,170.467 33.224,161.769 33.599,161.512 34.852,184.184 34.861,184.335 
			34.715,184.374 10.017,190.922 10.058,190.888 		"/>
	</g>
	<g>
		<line fill="#FFFFFF" x1="34.667" y1="184.194" x2="29.875" y2="108.527"/>
		<polygon points="34.167,184.226 29.875,108.527 35.166,184.163 		"/>
	</g>
	<g>
		<line fill="#FFFFFF" x1="10.5" y1="190.699" x2="7.25" y2="175.777"/>
		<polygon points="10.011,190.806 7.25,175.777 10.989,190.593 		"/>
	</g>
	<g>
		<line fill="#FFFFFF" x1="52.333" y1="170.194" x2="46" y2="94.661"/>
		<polygon points="51.835,170.236 46,94.661 52.832,170.152 		"/>
	</g>
	<g>
		<line fill="#FFFFFF" x1="74.984" y1="163.64" x2="79.167" y2="97.694"/>
		<polygon points="74.485,163.608 79.167,97.694 75.483,163.671 		"/>
	</g>
	<g>
		<line fill="#FFFFFF" x1="96.667" y1="157.527" x2="96.531" y2="120.694"/>
		<polygon points="96.167,157.529 96.531,120.694 97.167,157.525 		"/>
	</g>
	<g>
		<line fill="#FFFFFF" x1="111.967" y1="146.444" x2="111.832" y2="109.611"/>
		<polygon points="111.467,146.446 111.832,109.611 112.467,146.442 		"/>
	</g>
	<g>
		<line fill="#FFFFFF" x1="144.068" y1="146.444" x2="146.5" y2="109.611"/>
		<polygon points="143.569,146.411 146.5,109.611 144.567,146.478 		"/>
	</g>
	<g>
		<line fill="#FFFFFF" x1="125" y1="154.194" x2="127.432" y2="117.361"/>
		<polygon points="124.501,154.161 127.432,117.361 125.499,154.228 		"/>
	</g>
	<g>
		<line fill="#FFFFFF" x1="152.547" y1="154.194" x2="154.979" y2="134.277"/>
		<polygon points="152.051,154.134 154.979,134.277 153.043,154.255 		"/>
	</g>
	<g>
		<line fill="#FFFFFF" x1="170.762" y1="144.621" x2="173.193" y2="124.704"/>
		<polygon points="170.266,144.561 173.193,124.704 171.258,144.682 		"/>
	</g>
	<g>
		<line fill="#FFFFFF" x1="174.93" y1="152.345" x2="187.25" y2="90.527"/>
		<polygon points="174.439,152.247 187.25,90.527 175.42,152.442 		"/>
	</g>
	<g>
		<line fill="#FFFFFF" x1="194.496" y1="146.444" x2="200.656" y2="91.527"/>
		<polygon points="193.999,146.389 200.656,91.527 194.993,146.5 		"/>
	</g>
	<g>
		<line fill="#FFFFFF" x1="203.778" y1="157.567" x2="206.858" y2="124.146"/>
		<polygon points="203.28,157.521 206.858,124.146 204.276,157.613 		"/>
	</g>
	<g>
		<line fill="#FFFFFF" x1="225.309" y1="149.693" x2="231.125" y2="97.402"/>
		<polygon points="224.812,149.638 231.125,97.402 225.806,149.749 		"/>
	</g>
	<g>
		<line fill="#FFFFFF" x1="228.558" y1="160.637" x2="234.75" y2="112.215"/>
		<polygon points="228.062,160.573 234.75,112.215 229.054,160.7 		"/>
	</g>
	<g>
		<line fill="#FFFFFF" x1="250.775" y1="155.211" x2="250.775" y2="105.027"/>
		<polygon points="250.275,155.211 250.775,105.027 251.275,155.211 		"/>
	</g>
	<g>
		<line fill="#FFFFFF" x1="254.571" y1="165.771" x2="256.285" y2="133.277"/>
		<polygon points="254.072,165.744 256.285,133.277 255.07,165.797 		"/>
	</g>
	<g>
		<line fill="#FFFFFF" x1="269.049" y1="163.045" x2="270.764" y2="112.215"/>
		<polygon points="268.549,163.028 270.764,112.215 269.549,163.062 		"/>
	</g>
	<path fill="#EFC06A" stroke="#000000" stroke-miterlimit="10" d="M193.5,157.567c0,0,26.5,15.794,42.5,12.627
		s0.375-50.979-4.875-56.167s-42.511-0.055-39.125,4.959C203.778,136.426,183,144.857,193.5,157.567z"/>
	<path fill="#EFC06A" stroke="#000000" stroke-miterlimit="10" d="M224.208,121.436c-6.582-0.348-26.354-1.179-26.354-1.179
		c-1.125,0-4.074-0.963-3.479-1.917c0.815-1.306,3.2-1.833,5.188-2.354c0,0,15.46-2.612,21.937-2.458
		c6.626,0.158,9.958,0.501,9.625,5.871C231.125,119.398,227.421,121.605,224.208,121.436z"/>
	<path fill="#EFC06A" stroke="#000000" stroke-miterlimit="10" d="M198.993,117.611c0,0,0.77-3.199,1.508-3.959
		c0.746-0.769,3.308-1.371,4.208-0.792c1.174,0.755,1.334,5.417,1.334,5.417L198.993,117.611z"/>
	<path fill="#EFC06A" stroke="#000000" stroke-miterlimit="10" d="M205.417,117.569c0,0,0.013-3.29,0.557-4.199
		c0.55-0.92,2.903-2.096,3.913-1.739c1.316,0.465,2.544,4.965,2.544,4.965L205.417,117.569z"/>
	<path fill="#EFC06A" stroke="#000000" stroke-miterlimit="10" d="M210.625,118.455c0,0,0.013-3.29,0.557-4.199
		c0.55-0.92,2.903-2.096,3.913-1.739c1.316,0.465,2.544,4.965,2.544,4.965L210.625,118.455z"/>
	<path fill="#EFC06A" stroke="#000000" stroke-miterlimit="10" d="M216.083,116.121c0,0,0.013-3.29,0.557-4.199
		c0.55-0.92,2.903-2.096,3.913-1.739c1.316,0.465,2.544,4.965,2.544,4.965L216.083,116.121z"/>
	<path fill="#EFC06A" stroke="#000000" stroke-miterlimit="10" d="M220.703,117.844c0,0,0.639-3.228,1.345-4.017
		c0.715-0.799,3.249-1.505,4.173-0.963c1.204,0.706,1.554,5.357,1.554,5.357L220.703,117.844z"/>
	<path fill="#EFC06A" stroke="#000000" stroke-miterlimit="10" d="M229.139,121.465c0.31-0.081,1.753-1.974,1.986-2.066
		c-0.228-1.359-2.107-1.882-2.781-2.277c-0.924-0.542-5.469-1.812-6.281,0.448c-0.213,0.593,1.265,3.177,0.999,4.126
		C225.128,121.437,227.188,121.976,229.139,121.465z"/>
	<path fill="#EFC06A" stroke="#000000" stroke-miterlimit="10" d="M219.933,118.786c0.701-0.219,1.805-0.278,2.526-0.564
		c-0.228-1.359-1.022-3.371-1.696-3.767c-0.924-0.542-3.458,0.164-4.173,0.963c-0.528,0.591-1.071,2.345-1.284,3.291
		C216.88,118.761,218.43,119.255,219.933,118.786z"/>
	<path fill="#EFC06A" stroke="#000000" stroke-miterlimit="10" d="M220.49,121.975c0.502-0.039,1.185-0.093,1.528-0.143
		c0.964-0.139,1.911-0.253,2.848-0.329c-0.147-1.139-0.471-2.303-0.887-2.665c-0.809-0.703-3.43-0.475-4.279,0.18
		c-0.587,0.451-1.367,1.893-1.78,2.808C218.771,121.853,219.633,121.94,220.49,121.975z"/>
	<path fill="#EFC06A" stroke="#000000" stroke-miterlimit="10" d="M216.562,122.184c0.5,0.157,1.437,0.145,1.875,0.156
		c0.661,0.019,1.152,0.001,1.393-0.405c-0.075-1.329-0.451-2.979-0.961-3.422c-0.809-0.703-3.43-0.475-4.279,0.18
		c-0.606,0.467-1.421,1.992-1.822,2.899c0.509,0.008,1.015,0.01,1.524,0.02C215.058,121.627,215.834,122.034,216.562,122.184z"/>
	<path fill="#EFC06A" stroke="#000000" stroke-miterlimit="10" d="M214.292,121.611c0.046,0.001,0.09,0.008,0.136,0.01
		c0.073-0.029,0.157-0.054,0.224-0.086c1.224-1.782-0.521-5.099-1.234-5.414c-3.042-1.344-4.183,2.222-4.834,3.074
		c-0.337,0.441-0.634,1.45-0.831,2.347C209.929,121.547,212.105,121.567,214.292,121.611z"/>
	<path fill="#EFC06A" stroke="#000000" stroke-miterlimit="10" d="M209.945,121.556c0.502-0.126,1.66,0.193,2.055,0.001
		c-0.332-1.337-2.174-4.641-2.875-4.982c-0.964-0.47-3.349-0.607-4,0.245c-0.395,0.517-0.569,3.757-0.757,4.737
		C206.229,121.54,208.089,121.539,209.945,121.556z"/>
	<path fill="#EFC06A" stroke="#000000" stroke-miterlimit="10" d="M202.35,121.563c0.244-0.072,0.478-0.151,0.677-0.249
		c-0.332-1.337,2.391-3.745-0.818-4.689c-1.028-0.303-4.557,0.8-5.208,1.652c-0.273,0.358-0.758,0.683-1.154,1.424
		C197.641,120.699,199.682,121.556,202.35,121.563z"/>
	<path fill="#EFC06A" stroke="#000000" stroke-miterlimit="10" d="M202.932,121.562c1.597-0.022,3.186-0.023,4.775-0.021
		c-0.362-1.328-1.263-3.144-1.938-3.473c-0.964-0.47-3.45-0.2-4.102,0.652c-0.314,0.412-0.559,1.754-0.756,2.603
		C201.515,121.359,202.157,121.573,202.932,121.562z"/>
	<g>
		<path fill="#EFC06A" d="M195.846,146.444c0,0,4.039-6.417,3.972-12.167"/>
		<path d="M195.846,146.444c0,0,0.291-0.76,0.727-1.898c0.219-0.561,0.475-1.215,0.748-1.915c0.155-0.341,0.252-0.718,0.399-1.081
			c0.137-0.367,0.275-0.739,0.415-1.112c0.122-0.377,0.245-0.754,0.365-1.125c0.104-0.375,0.286-0.727,0.354-1.09
			c0.086-0.36,0.187-0.705,0.279-1.034c0.081-0.331,0.208-0.64,0.259-0.932c0.199-1.168,0.425-1.979,0.425-1.979
			s0.113,0.802,0.145,2.055c0.011,0.313-0.054,0.641-0.094,0.993c-0.046,0.352-0.093,0.725-0.159,1.107
			c-0.048,0.389-0.176,0.766-0.283,1.157c-0.115,0.39-0.232,0.785-0.349,1.181c-0.311,0.761-0.601,1.532-0.953,2.216
			c-0.357,0.682-0.692,1.314-1.044,1.821C196.423,145.848,195.846,146.444,195.846,146.444z"/>
	</g>
	<g>
		<path fill="#EFC06A" d="M196.375,152.345c0,0,10.035-14.942,6.143-20.817"/>
		<path d="M196.375,152.345c0,0,0.639-1.259,1.596-3.146c0.941-1.888,2.182-4.405,3.217-6.99c0.26-0.646,0.512-1.294,0.729-1.941
			c0.213-0.648,0.437-1.282,0.597-1.909c0.17-0.625,0.31-1.233,0.416-1.815c0.101-0.583,0.162-1.136,0.196-1.65
			c0.015-0.513,0.005-0.983-0.035-1.402c-0.062-0.412-0.122-0.777-0.226-1.062c-0.078-0.296-0.182-0.513-0.247-0.665
			s-0.101-0.234-0.101-0.234s0.052,0.072,0.147,0.207c0.093,0.138,0.259,0.328,0.381,0.619c0.153,0.278,0.276,0.641,0.41,1.064
			c0.049,0.217,0.101,0.446,0.156,0.689c0.027,0.247,0.057,0.507,0.088,0.777c0.029,0.544,0.031,1.136-0.03,1.755
			c-0.061,0.618-0.148,1.269-0.301,1.926c-0.143,0.66-0.315,1.335-0.536,2.005c-0.214,0.672-0.46,1.343-0.718,2.01
			c-1.069,2.65-2.48,5.127-3.648,6.903c-0.58,0.892-1.119,1.599-1.484,2.099C196.608,152.076,196.375,152.345,196.375,152.345z"/>
	</g>
	<g>
		<path fill="#EFC06A" d="M202.562,147.121c0,0,3.766-7.547,3.164-10.695"/>
		<path d="M202.562,147.121c0,0,0.164-0.705,0.482-1.713c0.312-1.013,0.776-2.332,1.226-3.646c0.46-1.311,0.9-2.617,1.156-3.618
			c0.067-0.251,0.125-0.481,0.157-0.688c0.034-0.206,0.09-0.391,0.091-0.541c0.033-0.311,0.052-0.488,0.052-0.488
			s0.059,0.165,0.147,0.476c0.054,0.156,0.068,0.347,0.093,0.568c0.032,0.225,0.044,0.476,0.029,0.747
			c0.002,0.276-0.015,0.572-0.062,0.879c-0.032,0.312-0.082,0.635-0.158,0.964c-0.126,0.666-0.34,1.351-0.562,2.03
			c-0.244,0.672-0.507,1.335-0.795,1.938c-0.285,0.604-0.577,1.154-0.853,1.613C203.026,146.563,202.562,147.121,202.562,147.121z"
			/>
	</g>
	<g>
		<path d="M197.576,136.426c0,0,0.656,0.409,1.675,0.842c0.508,0.219,1.109,0.438,1.763,0.616c0.325,0.097,0.667,0.167,1.015,0.232
			c0.344,0.088,0.704,0.109,1.06,0.156c0.355,0.051,0.716,0.047,1.069,0.074c0.355-0.005,0.706-0.01,1.045-0.015
			c0.34-0.03,0.669-0.06,0.981-0.088c0.314-0.023,0.605-0.096,0.883-0.128c0.556-0.065,1.007-0.192,1.336-0.249
			c0.332-0.057,0.521-0.09,0.521-0.09s-0.159,0.104-0.449,0.275c-0.293,0.162-0.705,0.431-1.256,0.617
			c-0.273,0.097-0.563,0.236-0.891,0.307c-0.326,0.077-0.671,0.17-1.033,0.23c-0.366,0.033-0.745,0.094-1.134,0.105
			c-0.388-0.017-0.784-0.001-1.178-0.046c-0.391-0.062-0.786-0.101-1.161-0.208c-0.383-0.077-0.742-0.211-1.088-0.343
			c-0.351-0.114-0.662-0.3-0.964-0.444c-0.292-0.17-0.568-0.326-0.801-0.506C198.007,137.089,197.576,136.426,197.576,136.426z"/>
	</g>
	<g>
		<path d="M196.5,139.402c0,0,0.861,0.191,2.129,0.43c0.637,0.112,1.373,0.246,2.164,0.351c0.393,0.071,0.806,0.084,1.218,0.148
			c0.415,0.036,0.837,0.077,1.258,0.095c0.421,0.01,0.844,0.062,1.257,0.039c0.413-0.016,0.824,0.015,1.216-0.029
			c0.394-0.031,0.778-0.034,1.136-0.094c0.356-0.057,0.708-0.064,1.017-0.142c0.311-0.065,0.602-0.115,0.861-0.159
			c0.254-0.067,0.475-0.126,0.657-0.174c0.374-0.09,0.588-0.141,0.588-0.141s-0.186,0.118-0.511,0.324
			c-0.323,0.218-0.816,0.471-1.445,0.704c-0.307,0.142-0.66,0.218-1.031,0.321c-0.369,0.112-0.769,0.178-1.184,0.235
			c-0.415,0.072-0.847,0.102-1.286,0.118c-0.44,0.035-0.885-0.004-1.331-0.006c-0.888-0.065-1.771-0.181-2.579-0.377
			c-0.81-0.182-1.546-0.426-2.162-0.666C197.234,139.904,196.5,139.402,196.5,139.402z"/>
	</g>
	<g>
		<path d="M196.5,141.936c0,0,0.513,0.318,1.262,0.736c0.375,0.21,0.815,0.436,1.285,0.666c0.478,0.213,0.979,0.449,1.504,0.612
			c0.258,0.097,0.518,0.186,0.78,0.244c0.261,0.073,0.518,0.141,0.771,0.186c0.505,0.101,0.99,0.177,1.412,0.198
			c0.424,0.042,0.784,0.049,1.042,0.049c0.258,0.009,0.412,0.021,0.412,0.021s-0.132,0.068-0.373,0.174
			c-0.241,0.11-0.595,0.252-1.045,0.328c-0.224,0.058-0.47,0.096-0.732,0.1c-0.263,0.019-0.544,0.041-0.829,0.003
			c-0.578-0.025-1.186-0.162-1.767-0.359c-0.58-0.204-1.13-0.48-1.607-0.791c-0.475-0.315-0.887-0.65-1.201-0.977
			C196.771,142.488,196.5,141.936,196.5,141.936z"/>
	</g>
	<g>
		<path d="M193.483,120.559c0,0,0.106,0.062,0.306,0.178c0.201,0.11,0.497,0.272,0.874,0.478c0.771,0.396,1.883,0.946,3.258,1.527
			c1.376,0.576,3.002,1.214,4.784,1.78c0.886,0.302,1.814,0.568,2.761,0.833c0.94,0.288,1.921,0.485,2.889,0.735
			c0.973,0.227,1.956,0.405,2.92,0.607c0.972,0.157,1.929,0.312,2.854,0.463c0.93,0.128,1.832,0.217,2.687,0.32
			c0.854,0.116,1.668,0.135,2.417,0.198c0.749,0.043,1.436,0.119,2.047,0.117c0.61,0.014,1.143,0.025,1.581,0.035
			c0.878,0.02,1.379,0.03,1.379,0.03s-0.501,0.005-1.379,0.013c-0.438,0.004-0.972,0.009-1.583,0.015
			c-0.612,0.021-1.301-0.034-2.054-0.055c-0.751-0.04-1.569-0.032-2.429-0.123c-0.859-0.076-1.769-0.138-2.705-0.237
			c-0.935-0.122-1.9-0.248-2.882-0.376c-0.975-0.172-1.971-0.321-2.957-0.519c-0.981-0.221-1.977-0.391-2.934-0.65
			c-0.963-0.237-1.909-0.478-2.813-0.754c-1.819-0.517-3.484-1.11-4.9-1.652c-1.414-0.546-2.566-1.072-3.37-1.453
			c-0.399-0.203-0.714-0.362-0.928-0.471c-0.211-0.114-0.323-0.175-0.323-0.175L193.483,120.559z"/>
	</g>
	<path fill="#EFC06A" stroke="#000000" stroke-miterlimit="10" d="M198.375,158.744c0,1.951-1.582,3.533-3.533,3.533h-8.059
		c-1.951,0-3.533-1.582-3.533-3.533l0,0c0-1.951,3.549-3.533,5.5-3.533l5-0.434C195.701,154.777,198.375,156.793,198.375,158.744
		L198.375,158.744z"/>
	<path fill="#EFC06A" stroke="#000000" stroke-miterlimit="10" d="M206.773,166.015c-0.529,1.878-2.48,2.973-4.358,2.444
		l-7.758-2.183c-1.878-0.528-2.973-2.479-2.444-4.357l0,0c0.528-1.879,4.373-2.44,6.252-1.912l4.931,0.937
		C205.273,161.472,207.302,164.137,206.773,166.015L206.773,166.015z"/>
	<path fill="#EFC06A" stroke="#000000" stroke-miterlimit="10" d="M186.639,151.509c-0.529,1.878-1.632,3.901-3.51,3.373
		l-7.358-1.302c-1.878-0.528-2.973-2.479-2.444-4.357l0,0c0.528-1.879,4.373-2.44,6.252-1.912l4.931,0.937
		c1.878,0.528,1.959,0.347,2.426,1.811C187.047,150.41,186.639,151.509,186.639,151.509z"/>
</g>
<g id="Layer_4" display="none">
	<path display="inline" fill="#EFC06A" stroke="#000000" stroke-miterlimit="10" d="M221.704,193.493
		c-2.437-6.096-4.725-10.894-3.853-17.512c0.869-5.05,4.898-11.574,7.859-15.233c2.786-3.481,3.9-15.219,3.9-15.219l4.617,0.446
		c0.405-2.957,0.374-6.057,0.016-8.914c-0.348-3.309-2.089-7.663-1.219-10.973c0.522-1.742,9.405-13.062,15.851-13.236
		c4.877-0.174,12.003-5.373,23.86,9.405c7.287,9.081,10.451,22.468,12.89,33.615c0.869,3.656,0,7.489-0.349,11.32
		c-0.348,5.923,0.175,12.541-1.916,18.288c-1.568,4.006-5.398,6.619-8.36,9.58c-3.832,4.18-8.012,6.618-12.541,9.579
		c-3.656,2.613-7.488,5.922-12.366,5.051C250.094,209.691,226.407,204.466,221.704,193.493z"/>
	<ellipse display="inline" cx="259.04" cy="132.157" rx="1.992" ry="3.985"/>
	<ellipse display="inline" cx="240.188" cy="134.917" rx="1.992" ry="3.984"/>
	
		<line display="inline" fill="#EFC06A" stroke="#000000" stroke-miterlimit="10" x1="229.611" y1="145.529" x2="267.738" y2="149.438"/>
	<path display="inline" fill="#EFC06A" stroke="#000000" stroke-miterlimit="10" d="M245.347,221.299
		c0,1.607-4.391,2.913-9.808,2.913c-5.419,0-9.81-1.306-9.81-2.913c0-1.608,2.194-4.729,7.612-4.729
		C238.759,216.57,245.347,219.69,245.347,221.299z"/>
	<path display="inline" fill="#EFC06A" stroke="#000000" stroke-miterlimit="10" d="M259.595,225.255
		c0,1.609-4.392,2.913-9.81,2.913c-5.417,0-9.81-1.304-9.81-2.913c0-1.607,2.195-4.729,7.613-4.729S259.595,223.647,259.595,225.255
		z"/>
	
		<line display="inline" fill="#EFC06A" stroke="#000000" stroke-miterlimit="10" x1="242.18" y1="218.63" x2="242.18" y2="207.401"/>
	
		<line display="inline" fill="#EFC06A" stroke="#000000" stroke-miterlimit="10" x1="255.361" y1="221.413" x2="255.361" y2="209.098"/>
	
		<line display="inline" fill="#EFC06A" stroke="#000000" stroke-miterlimit="10" x1="218.959" y1="174.001" x2="231.681" y2="174.001"/>
	
		<line display="inline" fill="#EFC06A" stroke="#000000" stroke-miterlimit="10" x1="264.864" y1="192.47" x2="277.586" y2="192.47"/>
	
		<line display="inline" fill="#EFC06A" stroke="#000000" stroke-miterlimit="10" x1="271.378" y1="165.188" x2="284.101" y2="165.188"/>
	
		<line display="inline" fill="#EFC06A" stroke="#000000" stroke-miterlimit="10" x1="249.845" y1="182.354" x2="257.908" y2="182.354"/>
	
		<line display="inline" fill="#EFC06A" stroke="#000000" stroke-miterlimit="10" x1="263.706" y1="122.177" x2="271.771" y2="122.177"/>
	
		<line display="inline" fill="#EFC06A" stroke="#000000" stroke-miterlimit="10" x1="227.185" y1="199.663" x2="234.666" y2="199.663"/>
	<line display="inline" fill="none" stroke="#000000" stroke-miterlimit="10" x1="275.133" y1="173.08" x2="275.133" y2="205.268"/>
	<path display="inline" fill="none" stroke="#000000" stroke-miterlimit="10" d="M282.038,208.414c0,0-4.452,5.259-6.905-3.146"/>
	<path display="inline" fill="none" stroke="#000000" stroke-miterlimit="10" d="M281.272,213.186c0,0-7.314,5.417-6.14-7.918"/>
	<path display="inline" fill="none" stroke="#000000" stroke-miterlimit="10" d="M274.826,212.522c0,0-4.546-0.128,0.18-7.152"/>
	<path display="inline" fill="none" stroke="#000000" stroke-miterlimit="10" d="M270.382,206.57c0,0,2.476-1.571,4.624-2.528"/>
</g>
<g id="Ondtatis" display="none">
	
		<rect x="79.75" y="125.25" display="inline" fill="#EFC06A" stroke="#000000" stroke-miterlimit="10" width="147.5" height="9.25"/>
	<polygon display="inline" fill="#EFC06A" stroke="#000000" stroke-miterlimit="10" points="69.576,121.891 81,112.575 81,117.94 
		89.25,116.56 89.25,117.94 96.75,117.94 91.75,121.891 103.75,125.25 98,130.473 106,139 93.75,137.25 98.25,146.75 
		86.331,143.854 90.5,152.75 69.576,140.75 31.135,140.5 26.254,125.25 	"/>
	<path display="inline" fill="#EFC06A" stroke="#000000" stroke-miterlimit="10" d="M78.282,143.771
		c-1.096-1.369-1.932-4.015-2.544-6.721c-1.53-0.171-3.063-0.313-4.614-0.29c-3.806,0.058-7.611,0.208-11.417,0.229
		c-7.741,0.042-15.533,0.49-23.208,1.511c-3.251,0.433-6-3.057-6-6c0-3.597,2.759-5.569,6-6c8.347-1.11,16.737-1.364,25.145-1.539
		c2.589-0.054,5.219-0.222,7.832-0.26c-0.007-1.568,0.085-3.125,0.272-4.616c0.348-3.309,2.089-7.663,1.219-10.973
		c-0.522-1.742-9.405-13.062-15.851-13.236c-4.877-0.174-12.003-5.373-23.86,9.405c-7.287,9.081-10.451,22.468-12.89,33.615
		c-0.869,3.656,0,7.489,0.349,11.32c0.348,5.923-0.175,12.541,1.916,18.288c1.568,4.006,5.398,6.619,8.36,9.58
		c3.832,4.18,8.012,6.618,12.541,9.579c3.656,2.613,7.488,5.922,12.366,5.051c0,0,23.687-5.226,28.39-16.198
		c2.437-6.096,4.725-10.894,3.853-17.512C85.272,153.955,81.243,147.431,78.282,143.771z"/>
	<ellipse display="inline" cx="44.953" cy="113.955" rx="1.992" ry="3.985"/>
	<ellipse display="inline" cx="63.806" cy="116.561" rx="1.992" ry="3.984"/>
	<path display="inline" fill="#EFC06A" stroke="#000000" stroke-miterlimit="10" d="M58.646,204.322
		c0,1.607,4.391,2.913,9.808,2.913c5.419,0,9.81-1.306,9.81-2.913c0-1.608-2.194-4.729-7.612-4.729
		C65.234,199.594,58.646,202.714,58.646,204.322z"/>
	<path display="inline" fill="#EFC06A" stroke="#000000" stroke-miterlimit="10" d="M44.398,208.278c0,1.609,4.392,2.913,9.81,2.913
		c5.417,0,9.81-1.304,9.81-2.913c0-1.607-2.195-4.729-7.613-4.729S44.398,206.671,44.398,208.278z"/>
	
		<line display="inline" fill="#EFC06A" stroke="#000000" stroke-miterlimit="10" x1="61.813" y1="201.653" x2="61.813" y2="190.425"/>
	
		<line display="inline" fill="#EFC06A" stroke="#000000" stroke-miterlimit="10" x1="48.632" y1="204.437" x2="48.632" y2="192.121"/>
	
		<line display="inline" fill="#EFC06A" stroke="#000000" stroke-miterlimit="10" x1="85.034" y1="157.024" x2="72.312" y2="157.024"/>
	
		<line display="inline" fill="#EFC06A" stroke="#000000" stroke-miterlimit="10" x1="39.129" y1="175.493" x2="26.407" y2="175.493"/>
	
		<line display="inline" fill="#EFC06A" stroke="#000000" stroke-miterlimit="10" x1="32.615" y1="148.211" x2="19.893" y2="148.211"/>
	
		<line display="inline" fill="#EFC06A" stroke="#000000" stroke-miterlimit="10" x1="54.148" y1="165.377" x2="46.085" y2="165.377"/>
	<line display="inline" fill="#EFC06A" stroke="#000000" stroke-miterlimit="10" x1="40.287" y1="105.2" x2="32.223" y2="105.2"/>
	
		<line display="inline" fill="#EFC06A" stroke="#000000" stroke-miterlimit="10" x1="76.809" y1="182.687" x2="69.327" y2="182.687"/>
	<line display="inline" fill="none" stroke="#000000" stroke-miterlimit="10" x1="28.86" y1="156.104" x2="28.86" y2="188.291"/>
	<path display="inline" fill="none" stroke="#000000" stroke-miterlimit="10" d="M21.955,191.438c0,0,4.452,5.259,6.905-3.146"/>
	<path display="inline" fill="none" stroke="#000000" stroke-miterlimit="10" d="M22.721,196.209c0,0,7.314,5.417,6.14-7.918"/>
	<path display="inline" fill="none" stroke="#000000" stroke-miterlimit="10" d="M29.167,195.546c0,0,4.546-0.128-0.18-7.152"/>
	<path display="inline" fill="none" stroke="#000000" stroke-miterlimit="10" d="M33.611,189.594c0,0-2.476-1.571-4.624-2.528"/>
	<text transform="matrix(0.9991 -0.0432 0.0432 0.9991 4.8418 83.1357)" display="inline"><tspan x="0" y="0" font-family="'Neucha'" font-size="19">Mj</tspan><tspan x="18.62" y="0" font-family="'MyriadPro-Regular'" font-size="19">รถ</tspan><tspan x="29.051" y="0" font-family="'Neucha'" font-size="19">lig Potatis</tspan></text>
	<text transform="matrix(0.9993 0.0387 -0.0387 0.9993 197.2061 76.2236)" display="inline" font-family="'Neucha'" font-size="19">Fast Potatis</text>
	<polygon display="inline" fill="#EFC06A" points="68.232,114.915 40.064,112.155 44.176,108.107 65.575,110.413 	"/>
	
		<line display="inline" fill="#EFC06A" stroke="#000000" stroke-miterlimit="10" x1="40.287" y1="112.575" x2="68.455" y2="115.335"/>
	
		<rect x="4.556" y="86.844" display="inline" fill="#EFC06A" stroke="#000000" stroke-miterlimit="10" width="97.444" height="5.667"/>
	<rect x="6.458" y="88.761" display="inline" width="93.542" height="1.834"/>
	
		<rect x="189.302" y="83.427" display="inline" fill="#EFC06A" stroke="#000000" stroke-miterlimit="10" width="97.444" height="5.667"/>
	<rect x="203.25" y="85.344" display="inline" width="81.496" height="1.834"/>
	<line display="inline" fill="#EFC06A" stroke="#000000" stroke-miterlimit="10" x1="115.5" y1="132.428" x2="160.5" y2="132.428"/>
	
		<line display="inline" fill="#EFC06A" stroke="#000000" stroke-miterlimit="10" x1="152.206" y1="128.519" x2="197.206" y2="128.519"/>
	
		<line display="inline" fill="#EFC06A" stroke="#000000" stroke-miterlimit="10" x1="180.015" y1="132.428" x2="206.75" y2="132.428"/>
</g>
<g id="Layer_4_copy">
	<path fill="#EFC06A" stroke="#000000" stroke-miterlimit="10" d="M212.053,176.482c-2.437-6.096-4.725-10.894-3.853-17.512
		c0.869-5.05,4.898-11.574,7.859-15.233c2.786-3.481,3.9-15.219,3.9-15.219l4.617,0.446c0.405-2.957,0.374-6.057,0.016-8.914
		c-0.348-3.309-2.089-7.663-1.219-10.973c0.522-1.742,9.405-13.062,15.851-13.236c4.877-0.174,12.003-5.373,23.86,9.405
		c7.287,9.081,10.451,22.468,12.89,33.615c0.869,3.656,0,7.489-0.349,11.32c-0.348,5.923,0.175,12.541-1.916,18.288
		c-1.568,4.006-5.398,6.619-8.36,9.58c-3.832,4.18-8.012,6.618-12.541,9.579c-3.656,2.613-7.488,5.922-12.366,5.051
		C240.442,192.681,216.756,187.455,212.053,176.482z"/>
	<ellipse cx="249.389" cy="115.146" rx="1.992" ry="3.985"/>
	<ellipse cx="230.536" cy="117.906" rx="1.992" ry="3.984"/>
	<line fill="#EFC06A" stroke="#000000" stroke-miterlimit="10" x1="219.96" y1="128.519" x2="258.087" y2="132.428"/>
	<path fill="#EFC06A" stroke="#000000" stroke-miterlimit="10" d="M235.695,204.288c0,1.607-4.391,2.913-9.808,2.913
		c-5.419,0-9.81-1.306-9.81-2.913c0-1.608,2.194-4.729,7.612-4.729C229.107,199.56,235.695,202.68,235.695,204.288z"/>
	<path fill="#EFC06A" stroke="#000000" stroke-miterlimit="10" d="M249.943,208.244c0,1.609-4.392,2.913-9.81,2.913
		c-5.417,0-9.81-1.304-9.81-2.913c0-1.607,2.195-4.729,7.613-4.729S249.943,206.637,249.943,208.244z"/>
	<line fill="#EFC06A" stroke="#000000" stroke-miterlimit="10" x1="232.528" y1="201.619" x2="232.528" y2="190.391"/>
	<line fill="#EFC06A" stroke="#000000" stroke-miterlimit="10" x1="245.71" y1="204.402" x2="245.71" y2="192.087"/>
	<line fill="#EFC06A" stroke="#000000" stroke-miterlimit="10" x1="209.308" y1="156.99" x2="222.029" y2="156.99"/>
	<line fill="#EFC06A" stroke="#000000" stroke-miterlimit="10" x1="255.213" y1="175.459" x2="267.935" y2="175.459"/>
	<line fill="#EFC06A" stroke="#000000" stroke-miterlimit="10" x1="261.727" y1="148.177" x2="274.449" y2="148.177"/>
	<line fill="#EFC06A" stroke="#000000" stroke-miterlimit="10" x1="240.193" y1="165.343" x2="248.257" y2="165.343"/>
	<line fill="#EFC06A" stroke="#000000" stroke-miterlimit="10" x1="254.055" y1="105.166" x2="262.119" y2="105.166"/>
	<line fill="#EFC06A" stroke="#000000" stroke-miterlimit="10" x1="217.533" y1="182.652" x2="225.015" y2="182.652"/>
	<line fill="none" stroke="#000000" stroke-miterlimit="10" x1="265.481" y1="156.069" x2="265.481" y2="188.257"/>
	<path fill="none" stroke="#000000" stroke-miterlimit="10" d="M272.387,191.403c0,0-4.452,5.259-6.905-3.146"/>
	<path fill="none" stroke="#000000" stroke-miterlimit="10" d="M271.621,196.175c0,0-7.314,5.417-6.14-7.918"/>
	<path fill="none" stroke="#000000" stroke-miterlimit="10" d="M265.175,195.512c0,0-4.546-0.128,0.18-7.152"/>
	<path fill="none" stroke="#000000" stroke-miterlimit="10" d="M260.73,189.56c0,0,2.476-1.571,4.624-2.528"/>
	<path fill="#EFC06A" stroke="#000000" stroke-miterlimit="10" d="M124.987,204.402c-1.954,0-3.794,0.17-5.438,0.465
		c-2.168-1.325-6.113-2.215-10.635-2.215c-0.145,0-0.285,0.006-0.428,0.008c2.07-0.812,3.346-1.9,3.346-3.101
		c0-1.981-3.46-3.662-8.281-4.286c0.269-0.372,0.426-0.762,0.426-1.165c0-2.513-5.554-4.549-12.406-4.549
		c-3.731,0-7.069,0.606-9.343,1.562c-1.794-1.702-6.289-2.911-11.564-2.911c-5.324,0-9.851,1.231-11.611,2.959
		c-1.171-0.135-2.417-0.207-3.709-0.207c-6.402,0-11.668,1.778-12.332,4.062c-0.244-0.005-0.485-0.014-0.732-0.014
		c-6.851,0-12.405,2.036-12.405,4.549s5.554,4.549,12.405,4.549c1.4,0,2.741-0.09,3.996-0.246c0.013,0.03,0.027,0.061,0.041,0.091
		c-3.809,0.775-6.39,2.265-6.39,3.977c0,2.513,5.554,4.549,12.405,4.549c1.204,0,2.365-0.066,3.466-0.184
		c-0.288,0.385-0.454,0.787-0.454,1.205c0,0.703,0.447,1.365,1.223,1.96c-1.391,0.734-2.212,1.626-2.212,2.589
		c0,2.513,5.554,4.549,12.405,4.549c6.852,0,12.406-2.036,12.406-4.549c0-0.405-0.158-0.796-0.429-1.17
		c0.941,0.311,2.008,0.569,3.176,0.763c-0.033,0.135-0.056,0.27-0.056,0.407c0,2.513,5.554,4.549,12.405,4.549
		c6.852,0,12.406-2.036,12.406-4.549c0-0.596-0.321-1.164-0.89-1.686c0.685,0.043,1.385,0.07,2.103,0.07
		c5.716,0,10.516-1.419,11.955-3.348c1.57,0.264,3.311,0.414,5.151,0.414c6.852,0,12.406-2.036,12.406-4.549
		S131.838,204.402,124.987,204.402z"/>
	<path fill="#EFC06A" stroke="#000000" stroke-miterlimit="10" d="M101.971,198.047c0-4.072-3.302-7.375-7.375-7.375
		c-0.047,0-0.093,0.006-0.14,0.007c-0.046-4.032-3.326-7.289-7.371-7.289c-0.932,0-1.819,0.18-2.64,0.495
		c0.011-0.164,0.025-0.328,0.025-0.495c0-4.072-3.302-7.375-7.375-7.375c-3.724,0-6.795,2.764-7.295,6.35
		c-0.687-0.212-1.415-0.326-2.171-0.326c-3.919,0-7.115,3.06-7.352,6.918c-0.238-0.022-0.479-0.036-0.723-0.036
		c-4.073,0-7.375,3.303-7.375,7.375"/>
	<path fill="#EFC06A" stroke="#000000" stroke-miterlimit="10" d="M79.707,171.727c0,0-25.734-9.202-7.484-27.976
		s-4.25-28.654-4.25-28.654s19.3,0.687,15.917,19.309s-17.886,17.472-10.167,27.391C81.798,172.172,79.707,171.727,79.707,171.727z"
		/>
</g>
<g id="proffesorn">
	<path fill="#EFC06A" stroke="#000000" stroke-miterlimit="10" d="M169.205,152.118c-1.916-28.156-14.951-51.1-33.396-51.1
		c-18.444,0-31.364,22.951-33.396,51.1c-2.625,36.378,3.72,23.014,37.375,25.378C179.719,180.301,170.457,170.496,169.205,152.118z"
		/>
	<path fill="#EFC06A" stroke="#000000" stroke-miterlimit="10" d="M137.789,178.025c0,3.358-5.149,6.081-11.5,6.081
		s-14.333-2.723-14.333-6.081c0-3.357,7.982-6.08,14.333-6.08S137.789,174.668,137.789,178.025z"/>
	<path fill="#EFC06A" stroke="#000000" stroke-miterlimit="10" d="M167.614,176.525c0,3.358-5.149,6.081-11.5,6.081
		s-15.595-1.702-15.595-5.061c0-3.357,9.245-7.101,15.595-7.101S167.614,173.168,167.614,176.525z"/>
	<g>
		<path d="M110.539,173.413c0,0,0.333-0.319,0.964-0.82c0.637-0.492,1.55-1.203,2.734-1.925c0.589-0.365,1.242-0.738,1.943-1.115
			c0.707-0.367,1.455-0.756,2.266-1.077c0.804-0.337,1.652-0.651,2.535-0.912c0.886-0.246,1.793-0.483,2.724-0.62
			c0.927-0.15,1.87-0.211,2.798-0.22c0.929,0.013,1.846,0.091,2.714,0.272c0.874,0.149,1.693,0.428,2.439,0.74
			s1.428,0.665,2.013,1.055c0.611,0.35,1.083,0.797,1.526,1.146c0.402,0.401,0.766,0.732,1.037,1.032
			c0.514,0.621,0.808,0.977,0.808,0.977s-0.343-0.304-0.943-0.836c-0.302-0.261-0.699-0.542-1.133-0.881
			c-0.476-0.283-0.976-0.652-1.581-0.952c-0.585-0.33-1.259-0.616-1.984-0.857c-0.366-0.115-0.736-0.245-1.132-0.318
			c-0.391-0.091-0.787-0.188-1.202-0.236c-0.819-0.148-1.684-0.162-2.558-0.175c-0.875,0.02-1.766,0.089-2.647,0.241
			c-0.886,0.118-1.759,0.335-2.614,0.561c-0.849,0.247-1.687,0.497-2.478,0.801c-1.586,0.592-3.047,1.229-4.255,1.864
			c-1.209,0.632-2.22,1.171-2.899,1.596C110.926,173.163,110.539,173.413,110.539,173.413z"/>
	</g>
	<g>
		<path d="M142.039,171.945c0,0,0.321-0.244,0.923-0.614c0.602-0.367,1.471-0.887,2.565-1.413c0.553-0.248,1.146-0.532,1.793-0.793
			c0.648-0.255,1.324-0.55,2.058-0.761c0.722-0.243,1.48-0.462,2.265-0.636c0.773-0.213,1.59-0.302,2.393-0.452
			c0.812-0.098,1.633-0.144,2.436-0.19c0.809,0.028,1.605,0.008,2.369,0.115c0.761,0.13,1.51,0.17,2.182,0.405
			c0.672,0.221,1.328,0.347,1.885,0.612c0.562,0.25,1.066,0.5,1.508,0.721c0.432,0.242,0.77,0.522,1.064,0.716
			c0.578,0.411,0.895,0.653,0.895,0.653s-0.362-0.177-0.996-0.486c-0.315-0.149-0.676-0.373-1.125-0.549
			c-0.463-0.149-0.98-0.319-1.532-0.524c-0.552-0.209-1.2-0.273-1.853-0.43c-0.326-0.084-0.67-0.122-1.025-0.14
			c-0.352-0.033-0.712-0.067-1.077-0.102c-0.729-0.078-1.495,0.002-2.263-0.026c-0.771,0.056-1.556,0.112-2.334,0.216
			c-0.775,0.134-1.562,0.206-2.316,0.403c-0.76,0.164-1.51,0.321-2.222,0.535c-1.437,0.381-2.761,0.815-3.884,1.228
			c-0.559,0.215-1.071,0.412-1.526,0.586c-0.453,0.18-0.848,0.339-1.168,0.483C142.407,171.784,142.039,171.945,142.039,171.945z"/>
	</g>
	<g>
		<path d="M142.039,168.296c0,0,0.321-0.244,0.923-0.614c0.602-0.367,1.471-0.887,2.565-1.413c0.553-0.248,1.146-0.532,1.793-0.793
			c0.648-0.255,1.324-0.55,2.058-0.761c0.722-0.243,1.48-0.462,2.265-0.636c0.773-0.213,1.59-0.302,2.393-0.452
			c0.812-0.098,1.633-0.144,2.436-0.19c0.809,0.028,1.605,0.008,2.369,0.115c0.761,0.13,1.51,0.17,2.182,0.405
			c0.672,0.221,1.328,0.347,1.885,0.611c0.562,0.251,1.066,0.501,1.508,0.722c0.432,0.242,0.77,0.522,1.064,0.716
			c0.578,0.411,0.895,0.653,0.895,0.653s-0.362-0.177-0.996-0.486c-0.315-0.149-0.676-0.373-1.125-0.549
			c-0.463-0.149-0.98-0.319-1.532-0.524c-0.552-0.209-1.2-0.273-1.853-0.43c-0.326-0.084-0.67-0.122-1.025-0.14
			c-0.352-0.033-0.712-0.067-1.077-0.102c-0.729-0.078-1.495,0.002-2.263-0.026c-0.771,0.056-1.556,0.112-2.334,0.216
			c-0.775,0.134-1.562,0.206-2.316,0.403c-0.76,0.164-1.51,0.321-2.222,0.535c-1.437,0.381-2.761,0.815-3.884,1.228
			c-0.559,0.215-1.071,0.412-1.526,0.586c-0.453,0.18-0.848,0.339-1.168,0.483C142.407,168.135,142.039,168.296,142.039,168.296z"/>
	</g>
	<g>
		<path d="M108.914,168.296c0,0,0.321-0.244,0.923-0.614c0.602-0.367,1.471-0.887,2.565-1.413c0.553-0.248,1.147-0.532,1.793-0.793
			c0.648-0.255,1.324-0.55,2.058-0.761c0.722-0.243,1.48-0.462,2.265-0.636c0.774-0.213,1.59-0.302,2.393-0.452
			c0.812-0.098,1.632-0.144,2.436-0.19c0.808,0.028,1.605,0.008,2.369,0.115c0.76,0.13,1.509,0.17,2.181,0.405
			c0.672,0.221,1.329,0.347,1.886,0.611c0.562,0.251,1.065,0.501,1.507,0.722c0.431,0.242,0.77,0.522,1.064,0.716
			c0.578,0.411,0.895,0.653,0.895,0.653s-0.362-0.177-0.995-0.486c-0.316-0.149-0.676-0.373-1.126-0.549
			c-0.463-0.149-0.98-0.319-1.532-0.524c-0.551-0.209-1.201-0.273-1.853-0.43c-0.326-0.084-0.67-0.122-1.026-0.14
			c-0.352-0.033-0.711-0.067-1.077-0.102c-0.729-0.078-1.495,0.002-2.263-0.026c-0.77,0.056-1.555,0.112-2.333,0.216
			c-0.776,0.134-1.562,0.206-2.316,0.403c-0.76,0.164-1.509,0.321-2.222,0.535c-1.436,0.381-2.761,0.815-3.883,1.228
			c-0.559,0.215-1.072,0.412-1.526,0.586c-0.453,0.18-0.848,0.339-1.168,0.483C109.282,168.135,108.914,168.296,108.914,168.296z"/>
	</g>
	<ellipse fill="#EFC06A" stroke="#000000" stroke-miterlimit="10" cx="137.493" cy="110.752" rx="30.121" ry="22.839"/>
	<path fill="#EFC06A" stroke="#000000" stroke-miterlimit="10" d="M119.373,114.413"/>
	<circle fill="#EFC06A" stroke="#000000" stroke-miterlimit="10" cx="126.539" cy="109.274" r="7.333"/>
	<circle fill="#EFC06A" stroke="#000000" stroke-miterlimit="10" cx="129.706" cy="109.274" r="7.333"/>
	<circle fill="#EFC06A" stroke="#000000" stroke-miterlimit="10" cx="150.872" cy="107.081" r="7.333"/>
	<circle fill="#EFC06A" stroke="#000000" stroke-miterlimit="10" cx="154.039" cy="107.081" r="7.333"/>
	<line fill="#EFC06A" stroke="#000000" stroke-miterlimit="10" x1="119.206" y1="109.274" x2="107.882" y2="106.562"/>
	<line fill="#EFC06A" stroke="#000000" stroke-miterlimit="10" x1="161.207" y1="105.536" x2="165.463" y2="102.26"/>
	<path fill="#EFC06A" stroke="#000000" stroke-miterlimit="10" d="M119.373,97.246c0,0,7.167,0,8.833-4"/>
	<path fill="#EFC06A" stroke="#000000" stroke-miterlimit="10" d="M146.705,96.58c1.888,1.114,7.037,1.795,7.501,0"/>
	<path fill="#EFC06A" stroke="#000000" stroke-miterlimit="10" d="M145.04,142.579c0,0,9.655,2.717,13.165,0
		c1.184-0.916-1.416,11.352-3.166,11.26c-4.476-0.234-6.531,0.594-8.334-0.321C144.24,152.265,145.04,142.579,145.04,142.579z"/>
	<path fill="#EFC06A" stroke="#000000" stroke-miterlimit="10" d="M151.289,143.698c0.076-0.429,0.084-0.656,0.084-1.168
		c0-1.749-0.504-3.167-1.125-3.167s-1.125,1.418-1.125,3.167c0,0.438-0.059,0.415-0.001,0.794
		C149.393,143.36,151.008,143.688,151.289,143.698z"/>
	<path fill="#EFC06A" stroke="#000000" stroke-miterlimit="10" d="M156.247,143.356c0.017-0.216,0.026-0.438,0.026-0.669
		c0-1.749-0.159-3.238-1.125-3.167c-0.619,0.046-1.406,1.261-1.406,3.01c0,0.463,0.057,0.633,0.121,1.029
		C154.113,143.487,155.787,143.453,156.247,143.356z"/>
	<path fill="#EFC06A" stroke="#000000" stroke-miterlimit="10" d="M114.405,142.035c0.917-0.875,0.798-1.103,0.734-1.344
		c-0.297-1.125-0.352-1.328-1.525-1.328s-2.243,0.683-2.969,1.349c-0.316,0.29-3.977,3.799-3.977,6.295
		c0,3.161,2.646,5.723,5.91,5.723s5.91-2.562,5.91-5.723C118.488,144.511,118.842,142.285,114.405,142.035z"/>
	<path fill="#EFC06A" stroke="#000000" stroke-miterlimit="10" d="M167.834,143.004c-0.917-0.875-0.799-1.103-0.734-1.344
		c0.297-1.125,0.352-1.328,1.525-1.328s2.242,0.683,2.969,1.349c0.315,0.29,3.977,3.799,3.977,6.295c0,3.161-2.646,5.723-5.91,5.723
		s-5.91-2.562-5.91-5.723C163.75,145.479,163.396,143.254,167.834,143.004z"/>
	<polygon fill="#EFC06A" stroke="#000000" stroke-miterlimit="10" points="132.431,115.523 102.61,130.246 114.609,129.579 
		102.61,143.523 120.61,134.413 117.776,145.579 140.519,121.413 	"/>
	<polygon fill="#EFC06A" stroke="#000000" stroke-miterlimit="10" points="152.461,115.523 182.281,130.246 170.282,129.579 
		182.281,143.523 164.281,134.413 167.115,145.579 144.373,121.413 	"/>
	<ellipse fill="#EFC06A" stroke="#000000" stroke-miterlimit="10" cx="142.325" cy="115.865" rx="13.119" ry="6.619"/>
	<path fill="#EFC06A" stroke="#000000" stroke-miterlimit="10" d="M139.363,72.44l-2.435,16.572l0,0
		c-0.083,0.754,3.129,1.733,7.176,2.186c4.048,0.452,7.396,0.207,7.482-0.547l0,0l1.712-15.311L139.363,72.44z"/>
	<path fill="#EFC06A" stroke="#000000" stroke-miterlimit="10" d="M153.299,75.34c-0.303,0.697-3.109,0.92-7.094,0.073
		c-3.983-0.848-6.996-2.337-6.854-3.083c0.226-1.186,3.54-0.66,7.523,0.188C150.859,73.366,153.811,74.163,153.299,75.34z"/>
	<path fill="#EFC06A" stroke="#000000" stroke-miterlimit="10" d="M137.082,88.742c0.035-0.31-0.494-0.657-1.402-0.991v-1.245
		l-1.603,0.769c-0.062-0.016-0.118-0.031-0.182-0.046l-0.372-1.378c0,0-1.295,1.038-1.627,0.982l-0.248-1.545l-1.418,1.31
		c-0.109-0.013-0.214-0.029-0.324-0.041c-0.134-0.015-0.266-0.027-0.399-0.041l-0.827-1.54l-1.491,1.376
		c-0.285-0.011-0.564-0.018-0.831-0.021l-2.241-1.355l0.166,1.438c-0.211,0.022-0.407,0.048-0.586,0.078l-1.548-0.565l0.365,1.006
		c-0.048,0.054-1.733,0.658-1.678,0.684c0.325,0.15,1.688,0.304,2.084,0.522l-0.178,0.761l2.411-0.397
		c0.041,0.011,0.083,0.021,0.125,0.032l0.271,0.967l2.022-0.494c0.115,0.02,0.232,0.038,0.349,0.056l0.601,0.72l1.743-0.426
		c0.209,0.02,0.416,0.037,0.62,0.053l0.483,0.579l1.943-0.475c0.173,0,0.343,0,0.507-0.003l0.3,1.338l1.281-1.484l1.922,0.188
		C137.578,89.445,137.065,88.893,137.082,88.742z"/>
	<path fill="#EFC06A" stroke="#000000" stroke-miterlimit="10" d="M137.61,84.368c0,0,7.265,5.065,14.452,2.023"/>
	<path fill="#EFC06A" stroke="#000000" stroke-miterlimit="10" d="M138.538,76.612c0,0,7.265,5.065,14.453,2.023"/>
	<g>
		<path fill="#EFC06A" d="M144.008,73.934c0,0-5.875-2.156,1.312-0.642"/>
		<path d="M144.008,73.934c0,0-0.391-0.057-0.954-0.223c-0.278-0.092-0.608-0.186-0.951-0.341c-0.085-0.04-0.173-0.083-0.263-0.132
			c-0.047-0.03-0.089-0.049-0.142-0.091c-0.047-0.047-0.104-0.053-0.176-0.226c-0.046-0.09,0.011-0.256,0.112-0.326
			c0.046-0.027,0.112-0.055,0.152-0.063c0.064-0.011,0.138-0.023,0.188-0.022c0.114-0.006,0.214,0.001,0.318,0.005
			c1.588,0.158,3.029,0.778,3.029,0.778s-0.396-0.002-0.975-0.055c-0.577-0.048-1.352-0.154-2.092-0.225
			c-0.089-0.006-0.183-0.015-0.261-0.013c-0.047-0.002-0.068,0.005-0.099,0.006c-0.007,0.002,0.017-0.003,0.018-0.014
			c0.07-0.035,0.093-0.16,0.075-0.202c-0.059-0.103,0.044,0.03,0.098,0.053c0.07,0.047,0.144,0.093,0.22,0.136
			c0.305,0.172,0.599,0.342,0.857,0.473C143.671,73.727,144.008,73.934,144.008,73.934z"/>
	</g>
	<g>
		<path fill="#EFC06A" d="M146.195,74.434c0,0,9.348,1.517,1.938-0.634"/>
		<path d="M146.195,74.434c0,0,0.502,0.001,1.244,0.047c0.742,0.044,1.732,0.134,2.702,0.205c0.234,0.016,0.498,0.033,0.675,0.009
			c0.035-0.002,0.014-0.005,0.013,0.003c0.022-0.006-0.05,0.017-0.077,0.102c-0.011,0.089,0,0.101,0.002,0.128
			c0.043,0.069,0.032,0.039,0.014,0.032c-0.014-0.01-0.02-0.021-0.047-0.034c-0.086-0.053-0.188-0.101-0.288-0.148
			c-0.409-0.183-0.812-0.353-1.156-0.488c-0.688-0.279-1.144-0.492-1.144-0.492s0.498,0.058,1.229,0.223
			c0.361,0.096,0.789,0.182,1.24,0.349c0.112,0.043,0.229,0.087,0.352,0.151c0.027,0.011,0.068,0.04,0.104,0.064
			c0.031,0.027,0.072,0.03,0.139,0.157c0.021,0.053,0.051,0.09,0.013,0.206c-0.042,0.112-0.126,0.165-0.137,0.164
			c-0.058,0.029-0.134,0.055-0.161,0.056c-0.307,0.046-0.541,0.024-0.801,0.016c-1.007-0.069-1.98-0.265-2.709-0.427
			C146.672,74.592,146.195,74.434,146.195,74.434z"/>
	</g>
</g>
<g id="highscore" display="none">
	<g display="inline">
		<text transform="matrix(1 0 0 1 51.5557 96.1582)"><tspan x="0" y="0" font-family="'Neucha'" font-size="24.4995">1. M3G4-tatis</tspan><tspan x="0" y="29.399" font-family="'Neucha'" font-size="24.4995">2. Else-Britt</tspan><tspan x="0" y="58.799" font-family="'Neucha'" font-size="24.4995">3. Professorn</tspan><tspan x="0" y="88.198" font-family="'Neucha'" font-size="24.4995">4. Snubben innan</tspan><tspan x="0" y="117.598" font-family="'Neucha'" font-size="24.4995">5. Du</tspan></text>
		<text transform="matrix(1 0 0 1 205.0859 96.1582)"><tspan x="0" y="0" font-family="'Neucha'" font-size="24.4995">9998</tspan><tspan x="0" y="29.399" font-family="'Neucha'" font-size="24.4995">7233</tspan><tspan x="0" y="58.799" font-family="'Neucha'" font-size="24.4995">0254</tspan><tspan x="0" y="88.198" font-family="'Neucha'" font-size="24.4995">0100</tspan><tspan x="0" y="117.598" font-family="'Neucha'" font-size="24.4995">0000</tspan></text>
	</g>
	
		<text transform="matrix(1 0 0 1 76.6777 48.792)" display="inline" fill="none" stroke="#000000" stroke-width="5" font-family="'Neucha'" font-size="39.1991">High Score</text>
	<text transform="matrix(1 0 0 1 76.6777 48.792)" display="inline" fill="#EEBF68" font-family="'Neucha'" font-size="39.1991">High Score</text>
</g>
</svg>
