<?xml version="1.0" encoding="utf-8"?>
<!-- Generator: Adobe Illustrator 16.0.4, SVG Export Plug-In . SVG Version: 6.00 Build 0)  -->
<!DOCTYPE svg PUBLIC "-//W3C//DTD SVG 1.1//EN" "http://www.w3.org/Graphics/SVG/1.1/DTD/svg11.dtd">
<svg version="1.1" id="Layer_1" xmlns="http://www.w3.org/2000/svg" xmlns:xlink="http://www.w3.org/1999/xlink" x="0px" y="0px"
	 width="293px" height="202px" viewBox="0 0 293 202" enable-background="new 0 0 293 202" xml:space="preserve">
<g>
	<path fill="none" stroke="#000000" d="M82.093,132.247l-0.197,6.664l-10.288-0.305l-0.619,2.609l10.838,0.027
		c0,0,0.838,11.61-0.718,15.068c-0.157,0.35-0.481,1.029-0.847,1.143c-1.154,0.358-4.831-0.143-4.831-0.143l0.433,2.264
		c0,0,4.131,0.594,5.415,0.16c0.755-0.255,2.165-1.276,2.477-2.011c1.608-3.776,0.486-16.409,0.486-16.409l10.179,0.446l0.548-2.318
		L84.4,138.818l0.192-6.497L82.093,132.247z"/>
	<path fill="none" stroke="#000000" d="M69.261,153.832l1.313,1.417c0,0,3.28-2.81,4.142-4.027c0.818-1.155,2.556-5.361,2.556-5.361
		l-2.224-0.899c0,0-1.255,3.582-1.994,4.669C72.264,150.793,69.261,153.832,69.261,153.832z"/>
	<path fill="none" stroke="#000000" d="M87.934,146.177c0,0,2.705,3.278,3.451,4.479c0.777,1.25,2.595,5.287,2.595,5.287l2.12-1.188
		c0,0-2.122-4.211-3.005-5.508c-0.706-1.036-3.221-3.847-3.221-3.847L87.934,146.177z"/>
	<path fill="none" stroke="#000000" d="M90.582,135.583c0.12,1.103,1.644,2.552,3.591,2.607c3.211,0.093,3.755-2.377,3.945-3.72
		c0.189-1.342-0.355-3.844-3.718-3.943C92.816,130.48,90.287,132.875,90.582,135.583z"/>
	<path fill="none" stroke="#000000" d="M92.266,135.007c-0.259-0.932,1.123-2.721,2.085-2.813c1.337-0.129,1.946,1.488,1.935,2.226
		c-0.01,0.644-0.674,1.646-1.762,1.78C93.784,136.291,92.448,135.665,92.266,135.007z"/>
	<path fill="none" stroke="#000000" d="M100.908,158.135c0,0,5.321-3.351,6.521-4.856c1.431-1.796,3.178-8.023,3.178-8.023
		l-11.736-0.024l0.826-2.561l23.949-0.708l-0.074,2.498l-9.856,0.627c0,0-2.167,7.146-3.649,9.186
		c-1.302,1.793-7.372,5.409-7.372,5.409L100.908,158.135z"/>
	<polygon fill="none" stroke="#000000" points="101.3,136.423 101.358,134.465 121.81,133.924 121.141,136.469 	"/>
	<polygon fill="none" stroke="#000000" points="127.341,133.006 127.347,160.934 130.013,161.013 130.549,133.408 	"/>
	<polygon fill="none" stroke="#000000" points="131.156,144.957 131.631,142.971 142.259,148.855 141.309,151.178 	"/>
	<path fill="none" stroke="#000000" d="M146.894,138.103l-0.358-2.152l21.35-0.061l-0.054,1.79l-11.599,0.326l-0.301,7.492
		l13.923-0.13l0.295,2.269l-13.966,0.456c0,0-1.01,6.236-0.324,8.16c0.153,0.43,0.785,1.201,1.21,1.37
		c2.71,1.077,11.662,0.346,11.662,0.346l-0.481,2.157c0,0-8.931,0.495-11.745-0.348c-1.011-0.304-2.806-1.731-3.255-2.686
		c-0.997-2.122,0.028-9.377,0.028-9.377l-8.756,0.07l-0.106-2.046l9.175-0.143l0.141-7.582L146.894,138.103z"/>
	<path fill="none" stroke="#000000" d="M170.362,140.427c0,0,3.687,0.959,4.748,1.518c1.192,0.626,4.198,3.249,4.198,3.249
		l1.565-2.204c0,0-2.145-2.188-4.402-3.34c-1.068-0.545-4.867-1.769-4.867-1.769L170.362,140.427z"/>
	<path fill="none" stroke="#000000" d="M170.691,160.278l1.839,2.64c0,0,11.224-4.16,14.2-6.54
		c3.189-2.552,9.635-12.847,9.635-12.847l-2.375-1.445c0,0-6.011,9.639-9.025,11.988
		C181.974,156.405,170.691,160.278,170.691,160.278z"/>
	<path fill="none" stroke="#000000" d="M193.566,160.058c0,0,7.391-4.66,12.298-9.89c4.565-4.866,7.067-10.63,7.067-10.63
		l-15.383,0.044l-0.343-2.512l17.627,0.191l2.205,1.564l-7.221,10.165l10.985,11.874l-1.879,1.527l-10.928-11.057
		c0,0-2.764,3.272-5.664,5.48c-1.707,1.3-7.064,4.876-7.064,4.876L193.566,160.058z"/>
	<path fill="none" stroke="#000000" d="M224.916,162.245l2.021,2.137c0,0,5.195-3.247,6.676-4.429
		c1.466-1.17,5.108-4.977,5.108-4.977l4.278,1.667l1.313-1.875l-4.107-2.082c0,0,2.431-3.188,3.129-4.325
		c1.358-2.211,2.356-6.35,2.356-6.35l-2.137-1.064l-10.757,0.098l1.792-4.198l-2.145-0.814c0,0-3.107,6.012-4.482,7.788
		c-1.343,1.736-6.268,6.15-6.268,6.15l1.695,1.885c0,0,4.537-3.733,5.789-5.455c0.53-0.73,2.138-3.231,2.138-3.231l11.035,0.37
		c0,0-0.546,2.15-1.086,3.178c-0.554,1.055-3.287,5.153-3.287,5.153l-6.989-3.291l-1.642,1.952l7.166,2.964
		c0,0-3.388,3.987-4.947,5.147C230.199,159.661,224.916,162.245,224.916,162.245z"/>
	<polygon fill="none" stroke="#000000" points="247.058,149.595 248.228,152.298 274.566,152.495 273.641,149.967 	"/>
	<path fill="none" stroke="#000000" d="M190.432,156.214l1.611,1.881c0,0,8.678-6.504,10.928-8.679
		c1.827-1.766,5.457-6.902,5.457-6.902l-9.412-0.278l1.395,0.768c0,0-3.707,6.064-5.153,7.935
		C194.162,152.352,190.432,156.214,190.432,156.214z"/>
	<path fill="none" stroke="#000000" d="M275.482,145.896l-28.34,0.828l1.622-6.558l-2.317-1.968l-9.771,0.545l1.618-2.537
		l-8.216-2.718c0,0-2.903,6.613-4.381,8.598c-1.557,2.09-7.728,7.569-7.728,7.569l4.845,5.31l5.45-2.465l3.709,1.444
		c0,0-1.773,2.326-2.585,2.841c-1.394,0.884-6.311,1.939-6.311,1.939l-9.33-10.146l7.73-10.536l-4.426-3.882l-22.728,0.243
		l0.258,5.426l-2.583-0.033c0,0-4.289,6.998-6.106,9.114c-1.177,1.371-3.775,4.111-5.344,5.01c-2.23,1.277-8.878,2.978-8.878,2.978
		l-0.139-1.835c0,0-8.93,1.31-11.603,0.665c-0.422-0.102-1.286-0.527-1.474-0.919c-0.447-0.934,0.475-4.737,0.475-4.737
		l14.254,0.046l1.3-5.877l5.255,4.116l4.067-5.928c0,0-3.458-3.755-4.431-4.318c-1.866-1.08-7.93-3.385-7.93-3.385l-0.953,1.241
		l-0.74-2.277l-28.087-0.259l2.903,7.087l6.549,0.304l0.025,1.956l-8.768,0.196l-0.404,2.637l-8.858-4.932l0.123-9.001l-7.609-1.352
		l-0.72,8.774l-1.916-0.057l0.953-7.141l-23.327-0.275c0,0-2.098-2.713-2.993-3.091c-1.065-0.451-3.325-1.104-4.398-0.671
		c-1.352,0.544-3.513,2.819-4.085,4.16c-0.396,0.928-0.908,4.009-0.908,4.009l-1.542-0.046l-0.675-6.768l-5.834-0.173l-1.112,6.706
		l-10.121-0.291l-1.734,7.889l3.696,0.485c0,0-0.107,3.519-0.805,4.644c-0.956,1.542-5.935,4.785-5.935,4.785l5.617,5.962
		l2.508-1.606c0,0,0.967,3.068,1.834,3.942c0.845,0.85,3.351,1.46,4.547,1.511c1.424,0.06,4.356-0.547,5.542-1.337
		c1.01-0.673,2.473-2.769,2.867-3.917c0.653-1.9-0.075-7.295-0.075-7.295s1.435,1.229,1.825,1.721
		c1.286,1.62,4.165,7.147,4.165,7.147l3.165-1.065l5.71,5.434c0,0,8.636-4.714,10.57-7.273c1.366-1.808,2.906-8.584,2.906-8.584
		l8.143-0.844l0.849,16.7l8.498,0.043l0.403-13.619l8.825,5.014l3.164-4.325l4.585,0.052c0,0-0.021,6.615,1.168,8.381
		c0.691,1.028,3.111,2.119,4.305,2.455c3.219,0.904,12.893,1.027,12.893,1.027l2.32,3.757c0,0,7.38-2.539,9.776-3.546
		c2.277-0.956,8.908-4.279,8.908-4.279l-1.173,1.591l7.11,4.838c0,0,6.107-3.462,8.02-4.806c1.197-0.841,4.53-3.701,4.53-3.701
		l9.055,9.521l5.06-1.935l3.885,3.951c0,0,7.3-3.549,9.583-5.386c1.088-0.876,4.343-4.582,4.343-4.582l5.542,2.29l3.918-5.011
		l30.398-0.351L275.482,145.896z M158.553,140.43l9.19-0.646l0.037,1.525l2.508,1.636l-11.817,0.233L158.553,140.43z
		 M238.88,146.687c-0.349,0.634-1.728,2.026-1.728,2.026l-4.957-2.225l0.735-1.604l6.622,0.196
		C239.553,145.081,239.084,146.317,238.88,146.687z"/>
	<polygon fill="none" stroke="#000000" points="97.388,139.368 99.061,138.835 99.432,137.929 120.922,138.564 120.878,140.064 
		97.351,140.618 	"/>
	<path fill="none" stroke="#000000" d="M91.424,143.693c0,0,3.482,4.046,4.422,5.551c1.004,1.608,3.256,6.851,3.256,6.851
		s4.809-2.527,6.072-3.74c1.07-1.028,1.977-4.547,1.977-4.547l-10.641-1.272l1.159-3.947l-1.458-0.043l-0.581,1.316L91.424,143.693z
		"/>
</g>
<path fill="none" stroke="#010101" stroke-miterlimit="10" d="M0.899,74.527l12.655,22.865l9.49-2.213l20.612,46.073l18.215-4.025
	l-4.678-26.459l4.678-4.345c0,0,1.375,10.24,2.588,13.404c2.015,5.248,10.013,8.218,14.236,8.556
	c8.988,0.719,18.767-8.986,18.767-8.986l4.1,12.224l18.517-6.615l-1.691-7.622c0,0,6.636,0.938,8.771,0.434
	c1.566-0.371,5.608-3.164,5.608-3.164l2.588,3.521l4.171-2.517v7.766l23.511-1.582l-1.078-9.204c0,0,6.426,2.205,12.031,1.727
	c6.082-0.521,9.107-4.528,9.107-4.528l-1.438,11.001l16.896-2.518l1.271-6.914l1.316,3.031l3.811-3.668l-1.654,15.53l16.682,3.451
	l1.936-11.833c0,0,4.164,1.454,5.617,1.623c3.092,0.357,6.469-0.139,6.469-0.139l-1.076,10.562l13.018,0.071l2.441-2.875
	l-0.719,9.489l14.883,5.607l29.555-70.895l-26.029,0.647l-2.455,5.977l-0.996-6.624l-30.576-5.393l2.967,10.569
	c0,0-3.896-0.333-5.178-0.144c-1.463,0.217-4.697,1.517-4.697,1.517l0.672-8.06l-13.947-6.183l-2.877,5.104l-0.572-5.104
	l-9.35,0.647l-11.072-14.237l-3.234,5.104l-3.092-9.562l-65.07,4.458l2.373,8.341L105.091,51.3L68.92,78.912l6.76,7.981
	c0,0-3.444,1.357-4.529,1.941c-0.513,0.275-1.941,1.282-1.941,1.282s-0.379-12.857-2.414-16.453
	c-2.426-4.29-5.063-8.557-16.365-9.635C38.139,62.856,0.899,74.527,0.899,74.527z"/>
<path fill="none" stroke="#010101" stroke-miterlimit="10" d="M25.919,88.224l20.794,48.286l10.479-2.688l-5.868-25.691
	c0,0,22.398-11.771,11.121-33.747c-7.478-14.571-50.906,2.876-50.906,2.876l6.458,12.651L25.919,88.224z"/>
<path fill="none" stroke="#010101" stroke-miterlimit="10" d="M43.657,85.312l5.561,16.106c0,0,11.471-4.456,6.902-14.668
	C54.49,83.108,43.657,85.312,43.657,85.312z"/>
<path fill="none" stroke="#010101" stroke-miterlimit="10" d="M69.349,118.1c0,0,9.396,11.695,24.159-2.108
	c14.763-13.806,1.388-22.956,0-23.775c-3.584-2.117-18.407-5.561-24.159,6.903C63.597,111.58,69.349,118.1,69.349,118.1z"/>
<path fill="none" stroke="#010101" stroke-miterlimit="10" d="M82.747,95.178c0,0-12.716,4.046-4.481,11.992
	c4.021,3.882,9.055,2.295,11.071,0.24c2.714-2.762,1.773-7.19,1.774-7.19c0,0-4.171,4.792-7.009,1.198
	C81.754,98.444,82.747,95.178,82.747,95.178z"/>
<path fill="none" stroke="#010101" stroke-miterlimit="10" d="M100.389,113.497l3.615,12.728l10.857-4.603l-12.439-46.089
	l15.963-12.654l-11.9-5.896L73.807,79.848l6.184,5.752l13.519-6.327l3.411,11.258c0,0,5.668,4.208,6.653,7.964
	C104.533,102.146,104.826,109.758,100.389,113.497z"/>
<path fill="none" stroke="#010101" stroke-miterlimit="10" d="M117.476,112.221c0,0,10.736,5.545,17.064-5.8l2.491,5.8l6.712-5.8
	l-10.93-28.204l-4.985,2.876l0.959,3.557c0,0-14.439-4.618-16.935,9.099L117.476,112.221z"/>
<path fill="none" stroke="#010101" stroke-miterlimit="10" d="M120.161,99.117c-0.865-5.206,5.337-7.514,6.902-5.368
	c4.703,6.444,0.948,9.163-0.097,9.299C122.32,103.652,120.938,103.79,120.161,99.117z"/>
<path fill="none" stroke="#010101" stroke-miterlimit="10" d="M123.251,98.889c-0.277-1.681,1.725-2.426,2.229-1.732
	c1.517,2.078,0.305,2.957-0.032,3C123.952,100.351,123.503,100.396,123.251,98.889z"/>
<path fill="none" stroke="#010101" stroke-miterlimit="10" d="M150.434,98.867c-2.062-11.866,4.539-19.773,4.957-20.103
	l-0.768-14.304l27.035-2.876l-2.732-11.504l-55.938,4.89l1.738,11.936l16.956,0.144l1.006,28.849l5.322,11.417l-4.266,4.906v7.314
	L157.5,118.1l-0.471-8.733C156.959,109.314,151.092,102.654,150.434,98.867z"/>
<path fill="none" stroke="#010101" stroke-miterlimit="10" d="M156.869,103.281c0,0,11.869,14.472,26.945,1.012
	c12.939-11.555-1.396-26.077-2.785-26.896c-3.584-2.117-18.406-5.562-24.16,6.902C151.119,96.763,156.869,103.281,156.869,103.281z"
	/>
<path fill="none" stroke="#010101" stroke-miterlimit="10" d="M173.775,83.833c0,0-14.686,2.699-4.484,11.992
	c4.133,3.764,9.057,2.295,11.074,0.241c2.713-2.762,1.771-7.19,1.773-7.19c0,0-4.172,4.793-7.012,1.198
	C172.783,87.099,173.775,83.833,173.775,83.833z"/>
<path fill="none" stroke="#010101" stroke-miterlimit="10" d="M170.205,88.956c-0.975,0.719-1.773,2.301,0.914,4.444
	c2.254,1.796,5.316,2.027,5.82,1.02C171.75,94.613,170.404,90.791,170.205,88.956z"/>
<path fill="none" stroke="#010101" stroke-miterlimit="10" d="M218.514,110.613c0,0,13.65,12.808,26.852-2.5
	c11.33-13.139-4.775-25.672-6.26-26.306c-3.828-1.633-18.973-3.122-23.057,9.983C211.965,104.898,218.514,110.613,218.514,110.613z"
	/>
<path fill="none" stroke="#010101" stroke-miterlimit="10" d="M232.043,88.404c0,0-8.826,6.111-3.635,10.73
	c4.174,3.716,9.277,1.099,11.01-1.201c2.332-3.091,0.766-6.294,0.77-6.294c0,0-3.564,4.34-6.738,1.033
	C232.043,91.208,232.043,88.404,232.043,88.404z"/>
<path fill="none" stroke="#010101" stroke-miterlimit="10" d="M230.453,94.375c-0.691,0.823-0.441,2.047,0.066,2.533
	c2.16,2.068,4.992,0.771,5.174-0.092C235.693,96.816,231.316,97.251,230.453,94.375z"/>
<polygon fill="none" stroke="#010101" stroke-miterlimit="10" points="181.658,70.356 188.273,56.983 194.314,64.46 "/>
<path fill="none" stroke="#010101" stroke-miterlimit="10" d="M215.637,111.604c-1.768-1.799-3.111-4.332-3.469-6.821
	c-0.545-3.864-0.334-8.074,0.475-11.917c1.07-5.098,4.064-8.68,7.754-11.828l0.664-8.667l-7.188-3.595l-6.328,15.059l-2.445-15.06
	l-10.064,1.582l-8.771,45.01l9.207-0.979l5.028-26.775l2.015,18.263l6.614-7.725l-1.438,24.55l9.35,2.155l0.871-11.353
	C217.078,112.948,216.311,112.33,215.637,111.604z"/>
<path fill="none" stroke="#010101" stroke-miterlimit="10" d="M238.029,117.811c0,0,15.037-5.444,15.146-16.814
	c0.146-14.918-5.368-21.004-14.141-22.73l-1.007-6.902l20.132,3.02l3.45,23.812l5.754-20.217l16.824-0.719l-23.584,59.393
	l-8.629-4.17l-0.146-18.981l-6.185,11.36h-8.054L238.029,117.811z"/>
<path fill="none" stroke="#010101" stroke-miterlimit="10" d="M48.976,88.476l2.13,6.494c0,0,3.289-2.558,2.567-5.055
	C53.05,87.758,48.976,88.476,48.976,88.476z"/>
<path fill="none" stroke="#010101" stroke-miterlimit="10" d="M79.25,100.775c0,0-2.054,0.922,1.315,4.022
	c2.812,2.588,3.954,1.33,3.954,1.33s-1.705-0.555-3.021-1.87C79.225,101.982,79.25,100.775,79.25,100.775z"/>
<path fill="none" stroke="#010101" stroke-miterlimit="10" d="M87.758,86.08c0,0,1.293,0.156,2.249,0.383
	c0.643,0.153,1.646,0.671,1.646,0.671l-0.641-2.779L87.758,86.08z"/>
<path fill="none" stroke="#010101" stroke-miterlimit="10" d="M109.742,86.496l-1.904-9.236l11.854-8.611l1.043,3.817l17.112-1.822
	l0.288,7.573l-5.468-5.08l-9.151,4.025l0.43,3.021c0,0-4.076-1.246-6.854-0.432C113.341,80.85,109.742,86.496,109.742,86.496z"/>
<path fill="none" stroke="#010101" stroke-miterlimit="10" d="M159.178,67.96v7.34c0,0,6.877-3.7,9.49-3.985
	c5.516-0.602,8.725-0.479,8.725-0.479l1.631-5.369L159.178,67.96z"/>
<path fill="none" stroke="#010101" stroke-miterlimit="10" d="M183.242,73.423c0,0,2.396,1.459,3.018,2.148
	c0.998,1.106,2.928,5.187,2.928,5.187l1.916-10.375L183.242,73.423z"/>
<g>
	<g>
		<path fill="#010101" d="M125.534,175.366H90.537c0.241,0.345,0.483,0.672,0.709,1h34.287
			C126.18,176.366,126.18,175.366,125.534,175.366z"/>
	</g>
</g>
<g>
	<g>
		<path fill="#010101" d="M106.298,168.181H88.458c0.048,0.158,0.087,0.322,0.114,0.49c0.027,0.169,0.059,0.34,0.086,0.51h17.641
			C106.943,169.181,106.943,168.181,106.298,168.181z"/>
	</g>
</g>
<g>
	<g>
		<path fill="#010101" d="M119.53,182.272H95.127c0.228,0.306,0.408,0.644,0.555,1h23.848
			C120.176,183.272,120.176,182.272,119.53,182.272z"/>
	</g>
</g>
<g>
	<g>
		<path fill="#010101" d="M97.229,40.261H81.214c-0.022,0.079-0.033,0.155-0.06,0.235c-0.085,0.257-0.151,0.51-0.225,0.765h16.298
			C97.875,41.261,97.875,40.261,97.229,40.261z"/>
	</g>
</g>
<g>
	<g>
		<path fill="#010101" d="M92.225,47.167H80.779c-0.11,0.357-0.248,0.693-0.418,1h11.864C92.871,48.167,92.871,47.167,92.225,47.167
			z"/>
	</g>
</g>
<g>
	<g>
		<path fill="#010101" d="M139.799,14.483c14.049,0,28.098,0,42.145,0c0.646,0,0.646-1,0-1c-14.047,0-28.096,0-42.145,0
			C139.155,13.483,139.155,14.483,139.799,14.483L139.799,14.483z"/>
	</g>
</g>
<g>
	<g>
		<path fill="#010101" d="M152.752,8.302c6.287,0,12.574,0,18.861,0c0.645,0,0.645-1,0-1c-6.287,0-12.574,0-18.861,0
			C152.107,7.302,152.107,8.302,152.752,8.302L152.752,8.302z"/>
	</g>
</g>
<g>
	<g>
		<path fill="#010101" d="M155.15,20.813c10.697,0,21.395,0,32.092,0c0.645,0,0.645-1,0-1c-10.697,0-21.395,0-32.092,0
			C154.504,19.813,154.504,20.813,155.15,20.813L155.15,20.813z"/>
	</g>
</g>
<g>
	<g>
		<path fill="#010101" d="M187.162,130.409c8.447,0,16.895,0,25.342,0c0.646,0,0.646-1,0-1c-8.447,0-16.895,0-25.342,0
			C186.518,129.409,186.518,130.409,187.162,130.409L187.162,130.409z"/>
	</g>
</g>
<g>
	<g>
		<path fill="#010101" d="M194.584,135.917c0-0.176,0.013-0.352,0.034-0.527h-7.86c-0.645,0-0.645,1,0,1h7.873
			C194.616,136.231,194.584,136.082,194.584,135.917z"/>
	</g>
</g>
<g>
	<g>
		<path fill="#010101" d="M191.639,123.225c3.715,0,7.428,0,11.141,0c0.646,0,0.646-1,0-1c-3.713,0-7.426,0-11.141,0
			C190.996,122.225,190.996,123.225,191.639,123.225L191.639,123.225z"/>
	</g>
</g>
<path fill="none" stroke="#000000" d="M275.482,145.896l-28.34,0.828l1.622-6.558l-2.317-1.968l-9.771,0.545l1.618-2.537
	l-8.216-2.718c0,0-2.903,6.613-4.381,8.598c-1.557,2.09-7.728,7.569-7.728,7.569l4.845,5.31l5.45-2.465l3.709,1.444
	c0,0-1.773,2.326-2.585,2.841c-1.394,0.884-6.311,1.939-6.311,1.939l-9.33-10.146l7.73-10.536l-4.426-3.882l-22.728,0.243
	l0.258,5.426l-2.583-0.033c0,0-4.289,6.998-6.106,9.114c-1.177,1.371-3.775,4.111-5.344,5.01c-2.23,1.277-8.878,2.978-8.878,2.978
	l-0.139-1.835c0,0-8.93,1.31-11.603,0.665c-0.422-0.102-1.286-0.527-1.474-0.919c-0.447-0.934,0.475-4.737,0.475-4.737l14.254,0.046
	l1.3-5.877l5.255,4.116l4.067-5.928c0,0-3.458-3.755-4.431-4.318c-1.866-1.08-7.93-3.385-7.93-3.385l-0.953,1.241l-0.74-2.277
	l-28.087-0.259l2.903,7.087l6.549,0.304l0.025,1.956l-8.768,0.196l-0.404,2.637l-8.858-4.932l0.123-9.001l-7.609-1.352l-0.72,8.774
	l-1.916-0.057l0.953-7.141l-23.327-0.275c0,0-2.098-2.713-2.993-3.091c-1.065-0.451-3.325-1.104-4.398-0.671
	c-1.352,0.544-3.513,2.819-4.085,4.16c-0.396,0.928-0.908,4.009-0.908,4.009l-1.542-0.046l-0.675-6.768l-5.834-0.173l-1.112,6.706
	l-10.121-0.291l-1.734,7.889l3.696,0.485c0,0-0.107,3.519-0.805,4.644c-0.956,1.542-5.935,4.785-5.935,4.785l5.617,5.962
	l2.508-1.606c0,0,0.967,3.068,1.834,3.942c0.845,0.85,3.351,1.46,4.547,1.511c1.424,0.06,4.356-0.547,5.542-1.337
	c1.01-0.673,2.473-2.769,2.867-3.917c0.653-1.9-0.075-7.295-0.075-7.295s1.435,1.229,1.825,1.721
	c1.286,1.62,4.165,7.147,4.165,7.147l3.165-1.065l5.71,5.434c0,0,8.636-4.714,10.57-7.273c1.366-1.808,2.906-8.584,2.906-8.584
	l8.143-0.844l0.849,16.7l8.498,0.043l0.403-13.619l8.825,5.014l3.164-4.325l4.585,0.052c0,0-0.021,6.615,1.168,8.381
	c0.691,1.028,3.111,2.119,4.305,2.455c3.219,0.904,12.893,1.027,12.893,1.027l2.32,3.757c0,0,7.38-2.539,9.776-3.546
	c2.277-0.956,8.908-4.279,8.908-4.279l-1.173,1.591l7.11,4.838c0,0,6.107-3.462,8.02-4.806c1.197-0.841,4.53-3.701,4.53-3.701
	l9.055,9.521l5.06-1.935l3.885,3.951c0,0,7.3-3.549,9.583-5.386c1.088-0.876,4.343-4.582,4.343-4.582l5.542,2.29l3.918-5.011
	l30.398-0.351L275.482,145.896z"/>
<path fill="none" stroke="#010101" stroke-miterlimit="10" d="M105.088,51.293l13.877,7.118l-2.373-8.341l65.072-4.458l3.092,9.563
	l3.234-5.105l11.074,14.237l4.689-0.325c-2.383-13.876-6.008-27.304-13.312-39.306C178.938,5.695,166.281,5.12,146.727,2.819
	c-15.531-2.301-27.61-5.177-41.415,5.177c-9.777,6.902-20.706,17.831-23.582,29.911c-2.571,11.313-1.917,21.477-0.263,31.417
	L105.088,51.293z"/>
<g>
	<path fill="none" stroke="#010101" stroke-miterlimit="10" d="M207.682,156.635c0,0-3.332,2.859-4.529,3.701
		c-1.912,1.344-8.02,4.805-8.02,4.805l-7.111-4.838l1.174-1.59c0,0-6.631,3.322-8.908,4.279c-2.396,1.006-9.777,3.545-9.777,3.545
		l-2.32-3.756c0,0-9.674-0.123-12.893-1.027c-1.193-0.336-3.613-1.428-4.305-2.455c-1.188-1.766-1.168-8.381-1.168-8.381
		l-4.584-0.053l-3.164,4.326l-8.825-5.014l-0.403,13.619l-8.498-0.043l-0.849-16.701l-8.144,0.844c0,0-1.539,6.777-2.905,8.584
		c-1.935,2.561-10.569,7.273-10.569,7.273l-5.711-5.434l-3.164,1.066c0,0-2.879-5.527-4.165-7.148
		c-0.39-0.49-1.825-1.721-1.825-1.721s0.728,5.395,0.074,7.295c-0.025,0.076-0.067,0.164-0.102,0.246
		c4.716,62.471,90.307,43.683,105.184,24.227c6.715-8.335,12.022-16.766,15.603-25.552L207.682,156.635z"/>
	<path fill="none" stroke="#010101" stroke-miterlimit="10" d="M88.239,136.027c0,0,0.513-3.082,0.907-4.01
		c0.572-1.34,2.733-3.615,4.086-4.16c1.072-0.432,3.332,0.221,4.398,0.672c0.895,0.377,2.992,3.09,2.992,3.09l23.327,0.275
		l-0.952,7.141l1.915,0.057l0.72-8.773l7.609,1.352l-0.123,9l8.858,4.932l0.404-2.637l8.769-0.195l-0.025-1.957l-6.549-0.303
		l-2.903-7.088l28.087,0.26l0.74,2.277l0.953-1.242c0,0,6.064,2.305,7.93,3.385c0.973,0.564,4.432,4.318,4.432,4.318l-4.068,5.928
		l-5.254-4.115l-1.301,5.877l-14.254-0.047c0,0-0.922,3.805-0.475,4.738c0.188,0.391,1.053,0.816,1.475,0.918
		c2.672,0.645,11.602-0.664,11.602-0.664l0.139,1.834c0,0,6.648-1.699,8.879-2.977c1.568-0.898,4.166-3.639,5.344-5.01
		c1.816-2.117,6.105-9.115,6.105-9.115l2.584,0.033l-0.258-5.426l18.55-0.197c0.102-1.949,0.142-3.916,0.073-5.914l-9.648-1.996
		l1.652-15.529l-3.811,3.666l-1.316-3.029l-1.271,6.914l-16.896,2.518l1.439-11.002c0,0-3.025,4.012-9.105,4.529
		c-5.607,0.479-12.033-1.727-12.033-1.727l1.08,9.203l-23.513,1.582v-7.766l-4.171,2.518l-2.588-3.521c0,0-4.042,2.793-5.607,3.164
		c-2.138,0.504-8.771-0.434-8.771-0.434l1.691,7.621l-18.518,6.615l-4.1-12.223c0,0-4.195,4.145-9.607,6.816
		c-0.198,3.258-0.431,6.53-0.641,9.793L88.239,136.027z"/>
</g>
</svg>
