<?xml version="1.0" encoding="utf-8"?>
<!-- Generator: Adobe Illustrator 16.0.4, SVG Export Plug-In . SVG Version: 6.00 Build 0)  -->
<!DOCTYPE svg PUBLIC "-//W3C//DTD SVG 1.1//EN" "http://www.w3.org/Graphics/SVG/1.1/DTD/svg11.dtd">
<svg version="1.1" xmlns="http://www.w3.org/2000/svg" xmlns:xlink="http://www.w3.org/1999/xlink" x="0px" y="0px" width="288px"
	 height="256px" viewBox="0 0 288 256" enable-background="new 0 0 288 256" xml:space="preserve">
<g id="Bakgrund">
	<g>
		<polygon points="4.333,202.86 9.942,190.833 9.955,190.807 9.983,190.799 34.618,184.015 34.48,184.205 33.068,161.543 
			33.041,161.103 33.444,161.286 52.458,169.921 52.035,170.222 50.935,158.432 50.895,158.008 51.313,158.092 75.069,162.85 
			74.649,163.17 75.627,148.752 75.663,148.229 76.146,148.434 96.823,157.157 96.432,157.2 111.747,146.175 111.976,146.011 
			112.22,146.154 125.233,153.8 124.829,153.77 143.816,146.071 144.097,145.957 144.325,146.158 152.656,153.493 152.099,153.431 
			170.449,143.461 170.871,143.232 171.077,143.664 175.062,152.004 174.552,151.771 194.227,146.469 194.477,146.401 
			194.643,146.599 203.625,157.281 203.204,157.168 225.552,149.205 225.913,149.076 226.001,149.449 228.647,160.786 
			228.255,160.547 250.931,154.918 251.202,154.852 251.274,155.119 254.256,166.124 253.945,165.935 268.962,162.847 
			269.033,162.832 269.095,162.869 279.899,169.418 279.769,169.637 268.905,163.186 269.038,163.208 254.055,166.454 
			253.811,166.507 253.744,166.264 250.726,155.27 251.069,155.471 228.411,161.174 228.094,161.254 228.019,160.935 
			225.333,149.605 225.782,149.85 203.462,157.887 203.213,157.977 203.041,157.773 194.023,147.122 194.439,147.252 
			174.782,152.618 174.43,152.714 174.271,152.385 170.257,144.058 170.885,144.26 152.567,154.29 152.268,154.454 152.01,154.228 
			143.675,146.897 144.184,146.984 125.172,154.619 124.961,154.704 124.767,154.589 111.78,146.9 112.252,146.88 96.901,157.854 
			96.717,157.986 96.51,157.897 75.854,149.121 76.373,148.804 75.351,163.219 75.322,163.618 74.931,163.539 51.188,158.713 
			51.565,158.373 52.632,170.167 52.679,170.683 52.209,170.467 33.224,161.769 33.599,161.512 34.852,184.184 34.861,184.335 
			34.715,184.374 10.017,190.922 10.058,190.888 		"/>
	</g>
	<g>
		<line fill="#FFFFFF" x1="34.667" y1="184.194" x2="29.875" y2="108.527"/>
		<polygon points="34.167,184.226 29.875,108.527 35.166,184.163 		"/>
	</g>
	<g>
		<line fill="#FFFFFF" x1="10.5" y1="190.699" x2="7.25" y2="175.777"/>
		<polygon points="10.011,190.806 7.25,175.777 10.989,190.593 		"/>
	</g>
	<g>
		<line fill="#FFFFFF" x1="52.333" y1="170.194" x2="46" y2="94.661"/>
		<polygon points="51.835,170.236 46,94.661 52.832,170.152 		"/>
	</g>
	<g>
		<line fill="#FFFFFF" x1="74.984" y1="163.64" x2="79.167" y2="97.694"/>
		<polygon points="74.485,163.608 79.167,97.694 75.483,163.671 		"/>
	</g>
	<g>
		<line fill="#FFFFFF" x1="96.667" y1="157.527" x2="96.531" y2="120.694"/>
		<polygon points="96.167,157.529 96.531,120.694 97.167,157.525 		"/>
	</g>
	<g>
		<line fill="#FFFFFF" x1="111.967" y1="146.444" x2="111.832" y2="109.611"/>
		<polygon points="111.467,146.446 111.832,109.611 112.467,146.442 		"/>
	</g>
	<g>
		<line fill="#FFFFFF" x1="144.068" y1="146.444" x2="146.5" y2="109.611"/>
		<polygon points="143.569,146.411 146.5,109.611 144.567,146.478 		"/>
	</g>
	<g>
		<line fill="#FFFFFF" x1="125" y1="154.194" x2="127.432" y2="117.361"/>
		<polygon points="124.501,154.161 127.432,117.361 125.499,154.228 		"/>
	</g>
	<g>
		<line fill="#FFFFFF" x1="152.547" y1="154.194" x2="154.979" y2="134.277"/>
		<polygon points="152.051,154.134 154.979,134.277 153.043,154.255 		"/>
	</g>
	<g>
		<line fill="#FFFFFF" x1="170.762" y1="144.621" x2="173.193" y2="124.704"/>
		<polygon points="170.266,144.561 173.193,124.704 171.258,144.682 		"/>
	</g>
	<g>
		<line fill="#FFFFFF" x1="174.93" y1="152.345" x2="187.25" y2="90.527"/>
		<polygon points="174.439,152.247 187.25,90.527 175.42,152.442 		"/>
	</g>
	<g>
		<line fill="#FFFFFF" x1="194.496" y1="146.444" x2="200.656" y2="91.527"/>
		<polygon points="193.999,146.389 200.656,91.527 194.993,146.5 		"/>
	</g>
	<g>
		<line fill="#FFFFFF" x1="203.778" y1="157.567" x2="206.858" y2="124.146"/>
		<polygon points="203.28,157.521 206.858,124.146 204.276,157.613 		"/>
	</g>
	<g>
		<line fill="#FFFFFF" x1="225.309" y1="149.693" x2="231.125" y2="97.402"/>
		<polygon points="224.812,149.638 231.125,97.402 225.806,149.749 		"/>
	</g>
	<g>
		<line fill="#FFFFFF" x1="228.558" y1="160.637" x2="234.75" y2="112.215"/>
		<polygon points="228.062,160.573 234.75,112.215 229.054,160.7 		"/>
	</g>
	<g>
		<line fill="#FFFFFF" x1="250.775" y1="155.211" x2="250.775" y2="105.027"/>
		<polygon points="250.275,155.211 250.775,105.027 251.275,155.211 		"/>
	</g>
	<g>
		<line fill="#FFFFFF" x1="254.571" y1="165.771" x2="256.285" y2="133.277"/>
		<polygon points="254.072,165.744 256.285,133.277 255.07,165.797 		"/>
	</g>
	<g>
		<line fill="#FFFFFF" x1="269.049" y1="163.045" x2="270.764" y2="112.215"/>
		<polygon points="268.549,163.028 270.764,112.215 269.549,163.062 		"/>
	</g>
</g>
<g id="Layer_5" display="none">
	<g display="inline">
		<path fill="#EFC06A" d="M40.291,165.014c6.048,20.898,12.097,41.797,18.145,62.694c1.86,6.428,3.72,12.854,5.58,19.281"/>
		<polygon points="40.771,164.875 64.016,246.989 39.811,165.152 		"/>
	</g>
	<g display="inline">
		<path fill="#EFC06A" d="M208.143,156.674C223,192,239,226,254.395,261.448"/>
		<path d="M208.602,156.475c0,0,11.372,26.276,22.745,52.554c11.523,26.21,23.048,52.42,23.048,52.42s-11.753-26.11-23.507-52.221
			c-11.602-26.178-23.204-52.354-23.204-52.354L208.602,156.475z"/>
	</g>
	<g display="inline">
		<path fill="#EFC06A" d="M144.444,167.472"/>
	</g>
	<g display="inline">
		<path fill="#EFC06A" d="M206.234,102.956"/>
	</g>
	<g display="inline">
		<line fill="#EFC06A" x1="211.727" y1="163.64" x2="206.349" y2="223.89"/>
		<polygon points="212.225,163.685 206.349,223.89 211.229,163.595 		"/>
	</g>
	<g display="inline">
		<line fill="#EFC06A" x1="204.219" y1="157.527" x2="197.525" y2="225.902"/>
		<polygon points="204.717,157.576 197.525,225.902 203.721,157.479 		"/>
	</g>
	<g display="inline">
		<line fill="#EFC06A" x1="236.877" y1="210.028" x2="229.931" y2="256.242"/>
		<polygon points="237.371,210.103 229.931,256.242 236.383,209.954 		"/>
	</g>
	<path display="inline" fill="#EFC06A" stroke="#000000" stroke-miterlimit="10" d="M239.126,204.499
		c-7.969,6.631-18.838,11.51-26.242,16.514c-15.383,10.394-30.303,18.752-48.479,23.145c-20.249,4.895-37.626,2.896-57.454-2.4
		c-8.044-2.151-15.979-4.669-24.094-6.54c-8.052-1.857-19.144-3.844-23.563-11.764c-1.155-2.063-4.28-0.151-3.131,1.906
		c7.375,13.206,30.575,14.585,43.402,18.192c10.488,2.943,20.969,6.212,31.829,7.342c10.355,1.079,20.875-0.49,31.008-2.542
		c20.808-4.222,37.474-14.131,54.858-25.878c7.054-4.769,16.165-9.047,23.467-14.796C240.03,206.693,239.49,205.632,239.126,204.499
		z"/>
	<path display="inline" fill="#EFC06A" stroke="#000000" stroke-miterlimit="10" d="M223.688,177.432
		c-7.972,6.634-18.836,11.51-26.244,16.518c-15.382,10.391-30.302,18.753-48.479,23.141c-20.249,4.895-37.624,2.896-57.455-2.401
		c-8.043-2.148-15.98-4.664-24.094-6.538c-7.428-1.716-17.374-3.595-22.352-10.082c-0.236,1.447-0.681,2.848-1.329,4.163
		c9.382,9.58,28.979,11.046,40.393,14.255c10.484,2.946,20.967,6.211,31.828,7.341c10.354,1.08,20.873-0.49,31.003-2.54
		c20.81-4.221,37.477-14.131,54.861-25.88c7.054-4.768,16.164-9.048,23.467-14.795C224.591,179.63,224.048,178.566,223.688,177.432z
		"/>
	<path display="inline" fill="#EFC06A" stroke="#000000" stroke-miterlimit="10" d="M234.367,109.17
		c-4.537,14.026-24.218,21.406-35.627,29.119c-15.383,10.395-30.302,18.752-48.482,23.145c-20.244,4.894-37.622,2.895-57.451-2.401
		c-8.046-2.149-15.979-4.667-24.094-6.538c-3.664-0.848-7.944-1.747-11.948-3.192c-0.806,1.207-1.792,2.281-2.958,3.14
		c9.999,4.558,23.089,5.99,31.617,8.387c10.485,2.947,20.968,6.213,31.828,7.341c10.356,1.081,20.875-0.488,31.006-2.543
		c20.809-4.217,37.475-14.127,54.86-25.877c11.994-8.107,29.979-14.771,34.813-29.713
		C238.656,107.785,235.094,106.938,234.367,109.17z"/>
	<path display="inline" fill="#EFC06A" stroke="#000000" stroke-miterlimit="10" d="M50.921,206.979
		c-0.336,2.764-2.845,4.73-5.61,4.393l0,0c-2.764-0.336-4.728-2.846-4.392-5.609l9.207-75.7c0.335-2.764,2.844-4.728,5.608-4.392
		l0,0c2.765,0.337,4.729,2.846,4.394,5.609L50.921,206.979z"/>
	<path display="inline" fill="#EFC06A" stroke="#000000" stroke-miterlimit="10" d="M232.91,177.529
		c-0.236,2.773-2.674,4.828-5.446,4.592l0,0c-2.773-0.236-4.83-2.674-4.594-5.445l6.471-75.983c0.236-2.771,2.674-4.828,5.447-4.591
		l0,0c2.773,0.236,4.829,2.675,4.593,5.446L232.91,177.529z"/>
	<polygon display="inline" fill="#EFC06A" stroke="#000000" stroke-miterlimit="10" points="60.709,199.217 74.675,243.44 
		104.656,250.591 86.039,207.478 	"/>
	<polygon display="inline" fill="#EFC06A" stroke="#000000" stroke-miterlimit="10" points="98.693,207.116 116.652,253.641 
		146.5,253.535 124.808,213.463 	"/>
	<polygon display="inline" fill="#EFC06A" stroke="#000000" stroke-miterlimit="10" points="139.662,213.121 165.032,253.535 
		195.813,246.875 161.181,208.609 	"/>
	<polygon display="inline" fill="#EFC06A" stroke="#000000" stroke-miterlimit="10" points="174.282,203.068 200.605,243.643 
		225.278,230.779 191.32,192.883 	"/>
	<polygon display="inline" fill="#EFC06A" stroke="#000000" stroke-miterlimit="10" points="202.795,188.657 228.899,228.641 
		238.787,213.704 220.155,178.003 	"/>
	<g display="inline">
		<path fill="#EFC06A" d="M202.597,366.101"/>
	</g>
	
		<line display="inline" fill="#EFC06A" stroke="#000000" stroke-miterlimit="10" x1="128.904" y1="191.811" x2="116.183" y2="191.811"/>
	<path display="inline" fill="#EFC06A" stroke="#000000" stroke-miterlimit="10" d="M249.536,148.959
		c-8.055,7.712-20.399,13.065-28.551,18.576c-15.382,10.391-30.303,18.751-48.479,23.143c-20.25,4.892-37.626,2.894-57.454-2.404
		c-8.045-2.148-15.98-4.667-24.095-6.538c-8.051-1.858-19.146-3.841-23.564-11.761c-1.154-2.067-4.278-0.155-3.128,1.902
		c7.373,13.212,30.574,14.587,43.401,18.193c10.487,2.947,20.967,6.212,31.829,7.34c10.356,1.08,20.875-0.487,31.008-2.541
		c20.807-4.217,37.473-14.128,54.858-25.877c7.646-5.169,17.717-9.758,25.272-16.275
		C250.066,151.532,249.715,150.261,249.536,148.959z"/>
	<path display="inline" fill="#EFC06A" stroke="#000000" stroke-miterlimit="10" d="M249.102,210.325
		c-0.419,2.751-2.988,4.642-5.743,4.222l0,0c-2.752-0.42-4.639-2.991-4.22-5.74l11.502-75.387c0.42-2.75,2.99-4.639,5.742-4.218l0,0
		c2.755,0.419,4.643,2.989,4.223,5.739L249.102,210.325z"/>
	<path display="inline" fill="#EFC06A" stroke="#000000" stroke-miterlimit="10" d="M60.562,239.663
		c-0.34,2.762-2.854,4.724-5.614,4.384l0,0c-2.764-0.34-4.727-2.854-4.386-5.614l9.324-75.687c0.341-2.764,2.853-4.725,5.617-4.385
		l0,0c2.763,0.341,4.725,2.853,4.383,5.616L60.562,239.663z"/>
	<g id="Layer_5_1_" display="inline">
		<g>
			<path fill="#EFC06A" d="M-434.938,196.968"/>
		</g>
		<g>
			<path fill="#EFC06A" d="M-414.859,115.223"/>
		</g>
	</g>
	
		<line display="inline" fill="#EFC06A" stroke="#000000" stroke-miterlimit="10" x1="164.137" y1="211.875" x2="167.909" y2="215.639"/>
</g>
<g id="Layer_7" display="none">
	<g display="inline">
		<g>
			<line fill="none" x1="37.896" y1="218.682" x2="42.079" y2="152.734"/>
			<polygon fill="#010101" points="37.396,218.648 42.079,152.734 38.395,218.712 			"/>
		</g>
		<g>
			<line fill="none" x1="59.579" y1="212.568" x2="59.443" y2="175.734"/>
			<polygon fill="#010101" points="59.079,212.57 59.443,175.734 60.079,212.566 			"/>
		</g>
		<path fill="#EFC06A" stroke="#010101" stroke-miterlimit="10" d="M71.525,222.463c-1.916-28.156-14.951-51.1-33.396-51.1
			c-18.444,0-31.364,22.951-33.396,51.1c-2.625,36.378,3.72,23.014,37.375,25.378C82.039,250.645,72.778,240.841,71.525,222.463z"/>
		<path fill="#EFC06A" stroke="#010101" stroke-miterlimit="10" d="M40.11,248.37c0,3.358-5.149,6.081-11.5,6.081
			c-6.351,0-14.333-2.723-14.333-6.081c0-3.356,7.982-6.08,14.333-6.08C34.96,242.29,40.11,245.014,40.11,248.37z"/>
		<path fill="#EFC06A" stroke="#010101" stroke-miterlimit="10" d="M69.935,246.87c0,3.358-5.149,6.081-11.5,6.081
			s-15.595-1.702-15.595-5.061c0-3.357,9.245-7.102,15.595-7.102S69.935,243.514,69.935,246.87z"/>
		<g>
			<path fill="#010101" d="M12.86,243.758c0,0,0.333-0.318,0.964-0.82c0.637-0.492,1.55-1.203,2.734-1.924
				c0.589-0.365,1.242-0.738,1.943-1.115c0.707-0.367,1.455-0.756,2.266-1.078c0.804-0.336,1.652-0.65,2.535-0.911
				c0.886-0.246,1.793-0.483,2.724-0.62c0.927-0.15,1.87-0.211,2.798-0.221c0.929,0.014,1.846,0.092,2.714,0.272
				c0.874,0.149,1.693,0.429,2.439,0.74s1.428,0.665,2.013,1.056c0.611,0.35,1.083,0.797,1.526,1.146
				c0.402,0.401,0.766,0.731,1.037,1.032c0.514,0.621,0.808,0.977,0.808,0.977s-0.343-0.305-0.943-0.836
				c-0.302-0.262-0.699-0.542-1.133-0.881c-0.476-0.283-0.976-0.652-1.581-0.952c-0.585-0.33-1.259-0.616-1.984-0.856
				c-0.366-0.115-0.736-0.246-1.132-0.318c-0.391-0.092-0.787-0.188-1.202-0.236c-0.819-0.148-1.684-0.162-2.558-0.175
				c-0.875,0.021-1.766,0.089-2.647,0.241c-0.886,0.117-1.759,0.334-2.614,0.561c-0.849,0.247-1.687,0.497-2.478,0.801
				c-1.586,0.592-3.047,1.229-4.255,1.864c-1.209,0.632-2.22,1.171-2.899,1.597C13.247,243.508,12.86,243.758,12.86,243.758z"/>
		</g>
		<g>
			<path fill="#010101" d="M44.36,242.29c0,0,0.321-0.244,0.923-0.614c0.602-0.367,1.471-0.887,2.565-1.412
				c0.553-0.248,1.146-0.533,1.793-0.793c0.648-0.256,1.324-0.551,2.058-0.762c0.722-0.243,1.48-0.462,2.265-0.636
				c0.773-0.214,1.59-0.302,2.393-0.452c0.812-0.098,1.633-0.145,2.436-0.189c0.809,0.027,1.605,0.008,2.369,0.114
				c0.761,0.13,1.51,0.17,2.182,0.405c0.672,0.221,1.328,0.347,1.885,0.611c0.562,0.25,1.066,0.5,1.508,0.722
				c0.432,0.241,0.77,0.522,1.064,0.716c0.578,0.411,0.895,0.652,0.895,0.652s-0.362-0.176-0.996-0.485
				c-0.315-0.149-0.676-0.373-1.125-0.549c-0.463-0.149-0.98-0.319-1.532-0.524c-0.552-0.209-1.2-0.273-1.853-0.43
				c-0.326-0.084-0.67-0.122-1.025-0.141c-0.352-0.032-0.712-0.066-1.077-0.102c-0.729-0.078-1.495,0.002-2.263-0.025
				c-0.771,0.056-1.556,0.111-2.334,0.215c-0.775,0.135-1.562,0.207-2.316,0.404c-0.76,0.164-1.51,0.32-2.222,0.534
				c-1.437,0.382-2.761,0.815-3.884,1.228c-0.559,0.216-1.071,0.412-1.526,0.587c-0.453,0.18-0.848,0.339-1.168,0.483
				C44.728,242.129,44.36,242.29,44.36,242.29z"/>
		</g>
		<g>
			<path fill="#010101" d="M44.36,238.641c0,0,0.321-0.244,0.923-0.613c0.602-0.367,1.471-0.887,2.565-1.413
				c0.553-0.248,1.146-0.532,1.793-0.794c0.648-0.254,1.324-0.549,2.058-0.76c0.722-0.244,1.48-0.463,2.265-0.637
				c0.773-0.213,1.59-0.302,2.393-0.451c0.812-0.099,1.633-0.145,2.436-0.19c0.809,0.028,1.605,0.008,2.369,0.114
				c0.761,0.131,1.51,0.17,2.182,0.406c0.672,0.221,1.328,0.346,1.885,0.61c0.562,0.251,1.066,0.501,1.508,0.722
				c0.432,0.242,0.77,0.522,1.064,0.717c0.578,0.41,0.895,0.652,0.895,0.652s-0.362-0.177-0.996-0.486
				c-0.315-0.148-0.676-0.373-1.125-0.549c-0.463-0.148-0.98-0.318-1.532-0.523c-0.552-0.209-1.2-0.273-1.853-0.43
				c-0.326-0.084-0.67-0.123-1.025-0.141c-0.352-0.033-0.712-0.066-1.077-0.102c-0.729-0.078-1.495,0.002-2.263-0.026
				c-0.771,0.056-1.556,0.112-2.334,0.216c-0.775,0.135-1.562,0.206-2.316,0.403c-0.76,0.164-1.51,0.321-2.222,0.534
				c-1.437,0.382-2.761,0.815-3.884,1.229c-0.559,0.215-1.071,0.412-1.526,0.586c-0.453,0.18-0.848,0.34-1.168,0.483
				C44.728,238.479,44.36,238.641,44.36,238.641z"/>
		</g>
		<g>
			<path fill="#010101" d="M11.235,238.641c0,0,0.321-0.244,0.923-0.613c0.602-0.367,1.471-0.887,2.565-1.413
				c0.553-0.248,1.147-0.532,1.793-0.794c0.648-0.254,1.324-0.549,2.058-0.76c0.722-0.244,1.48-0.463,2.265-0.637
				c0.774-0.213,1.59-0.302,2.393-0.451c0.812-0.099,1.632-0.145,2.436-0.19c0.808,0.028,1.605,0.008,2.369,0.114
				c0.76,0.131,1.509,0.17,2.181,0.406c0.672,0.221,1.329,0.346,1.886,0.61c0.562,0.251,1.065,0.501,1.507,0.722
				c0.431,0.242,0.77,0.522,1.064,0.717c0.578,0.41,0.895,0.652,0.895,0.652s-0.362-0.177-0.995-0.486
				c-0.316-0.148-0.676-0.373-1.126-0.549c-0.463-0.148-0.98-0.318-1.532-0.523c-0.551-0.209-1.201-0.273-1.853-0.43
				c-0.326-0.084-0.67-0.123-1.026-0.141c-0.352-0.033-0.711-0.066-1.077-0.102c-0.729-0.078-1.495,0.002-2.263-0.026
				c-0.77,0.056-1.555,0.112-2.333,0.216c-0.776,0.135-1.562,0.206-2.316,0.403c-0.76,0.164-1.509,0.321-2.222,0.534
				c-1.436,0.382-2.761,0.815-3.883,1.229c-0.559,0.215-1.072,0.412-1.526,0.586c-0.453,0.18-0.848,0.34-1.168,0.483
				C11.603,238.479,11.235,238.641,11.235,238.641z"/>
		</g>
		<ellipse fill="#EFC06A" stroke="#010101" stroke-miterlimit="10" cx="39.813" cy="181.097" rx="30.121" ry="22.839"/>
		<path fill="#EFC06A" stroke="#010101" stroke-miterlimit="10" d="M21.693,184.758"/>
		<circle fill="#EFC06A" stroke="#010101" stroke-miterlimit="10" cx="28.86" cy="179.619" r="7.333"/>
		<circle fill="#EFC06A" stroke="#010101" stroke-miterlimit="10" cx="32.027" cy="179.619" r="7.333"/>
		<circle fill="#EFC06A" stroke="#010101" stroke-miterlimit="10" cx="53.193" cy="177.425" r="7.333"/>
		<circle fill="#EFC06A" stroke="#010101" stroke-miterlimit="10" cx="56.358" cy="177.425" r="7.333"/>
		<line fill="none" stroke="#010101" stroke-miterlimit="10" x1="21.527" y1="179.619" x2="10.203" y2="176.906"/>
		<line fill="none" stroke="#010101" stroke-miterlimit="10" x1="63.528" y1="175.88" x2="67.784" y2="172.605"/>
		<path fill="#EFC06A" stroke="#010101" stroke-miterlimit="10" d="M21.693,167.591c0,0,5.5-6.396,8.833-4"/>
		<path fill="#EFC06A" stroke="#010101" stroke-miterlimit="10" d="M49.025,166.924c6.285-2.218,7.037,1.795,7.501,0"/>
		<path fill="#EFC06A" stroke="#010101" stroke-miterlimit="10" d="M47.361,212.924c0,0,9.655,2.717,13.165,0
			c1.184-0.916-1.416,11.352-3.166,11.26c-4.476-0.233-6.531,0.594-8.334-0.32C46.56,222.609,47.361,212.924,47.361,212.924z"/>
		<path fill="#EFC06A" stroke="#010101" stroke-miterlimit="10" d="M53.61,214.043c0.076-0.429,0.084-0.656,0.084-1.168
			c0-1.749-0.504-3.167-1.125-3.167c-0.621,0-1.125,1.418-1.125,3.167c0,0.438-0.059,0.415-0.001,0.794
			C51.712,213.705,53.329,214.033,53.61,214.043z"/>
		<path fill="#EFC06A" stroke="#010101" stroke-miterlimit="10" d="M58.568,213.701c0.017-0.217,0.026-0.438,0.026-0.669
			c0-1.749-0.159-3.238-1.125-3.167c-0.619,0.046-1.406,1.261-1.406,3.01c0,0.463,0.057,0.633,0.121,1.029
			C56.434,213.832,58.107,213.798,58.568,213.701z"/>
		<path fill="#EFC06A" stroke="#010101" stroke-miterlimit="10" d="M16.725,212.38c0.917-0.875,0.798-1.103,0.734-1.344
			c-0.297-1.125-0.352-1.328-1.525-1.328s-2.243,0.683-2.969,1.349c-0.316,0.291-3.977,3.799-3.977,6.295
			c0,3.162,2.646,5.724,5.91,5.724c3.264,0,5.91-2.562,5.91-5.724C20.809,214.855,21.163,212.63,16.725,212.38z"/>
		<path fill="#EFC06A" stroke="#010101" stroke-miterlimit="10" d="M70.155,213.35c-0.917-0.875-0.799-1.104-0.734-1.345
			c0.297-1.125,0.352-1.328,1.525-1.328c1.173,0,2.242,0.683,2.969,1.349c0.315,0.291,3.977,3.8,3.977,6.295
			c0,3.162-2.646,5.724-5.91,5.724c-3.264,0-5.91-2.562-5.91-5.724C66.071,215.824,65.717,213.6,70.155,213.35z"/>
		<polygon fill="#EFC06A" stroke="#010101" stroke-miterlimit="10" points="34.751,185.868 4.931,200.591 16.93,199.924 
			4.931,213.868 22.931,204.758 20.097,215.924 42.84,191.758 		"/>
		<polygon fill="#EFC06A" stroke="#010101" stroke-miterlimit="10" points="54.782,185.868 84.602,200.591 72.603,199.924 
			84.602,213.868 66.602,204.758 69.436,215.924 46.693,191.758 		"/>
		<ellipse fill="#EFC06A" stroke="#010101" stroke-miterlimit="10" cx="44.645" cy="186.21" rx="13.119" ry="6.619"/>
		<path fill="#EFC06A" stroke="#010101" stroke-miterlimit="10" d="M41.684,142.785l-2.435,16.572l0,0
			c-0.083,0.754,3.129,1.732,7.176,2.186c4.048,0.452,7.396,0.207,7.482-0.547l0,0l1.712-15.311L41.684,142.785z"/>
		<path fill="#EFC06A" stroke="#010101" stroke-miterlimit="10" d="M55.62,145.686c-0.303,0.696-3.109,0.92-7.094,0.072
			c-3.983-0.848-6.996-2.337-6.854-3.083c0.226-1.186,3.54-0.659,7.523,0.188C53.18,143.71,56.13,144.507,55.62,145.686z"/>
		<path fill="#EFC06A" stroke="#010101" stroke-miterlimit="10" d="M39.403,159.087c0.035-0.31-0.494-0.657-1.402-0.991v-1.244
			l-1.603,0.769c-0.062-0.017-0.118-0.031-0.182-0.046l-0.372-1.379c0,0-1.295,1.039-1.627,0.982l-0.248-1.545l-1.418,1.311
			c-0.109-0.014-0.214-0.029-0.324-0.041c-0.134-0.016-0.266-0.027-0.399-0.041L31,155.32l-1.491,1.377
			c-0.285-0.012-0.564-0.018-0.831-0.021l-2.241-1.355l0.166,1.438c-0.211,0.022-0.407,0.048-0.586,0.078l-1.548-0.565l0.365,1.006
			c-0.048,0.055-1.733,0.658-1.678,0.685c0.325,0.149,1.688,0.304,2.084,0.522l-0.178,0.761l2.411-0.397
			c0.041,0.012,0.083,0.021,0.125,0.032l0.271,0.968l2.022-0.494c0.115,0.02,0.232,0.037,0.349,0.056l0.601,0.72l1.743-0.426
			c0.209,0.02,0.416,0.037,0.62,0.053l0.483,0.579l1.943-0.476c0.173,0,0.343,0,0.507-0.002l0.3,1.338l1.281-1.484l1.922,0.188
			C39.897,159.79,39.386,159.238,39.403,159.087z"/>
		<path fill="#EFC06A" stroke="#010101" stroke-miterlimit="10" d="M39.931,154.712c0,0,7.265,5.065,14.452,2.022"/>
		<path fill="#EFC06A" stroke="#010101" stroke-miterlimit="10" d="M40.857,146.957c0,0,7.265,5.064,14.453,2.023"/>
		<g>
			<path fill="#EFC06A" d="M46.329,144.277c0,0-5.875-2.155,1.312-0.641"/>
			<path fill="#010101" d="M46.329,144.277c0,0-0.391-0.057-0.954-0.223c-0.278-0.092-0.608-0.186-0.951-0.341
				c-0.085-0.04-0.173-0.083-0.263-0.132c-0.047-0.03-0.089-0.049-0.142-0.091c-0.047-0.048-0.104-0.054-0.176-0.226
				c-0.046-0.091,0.011-0.257,0.112-0.326c0.046-0.027,0.112-0.056,0.152-0.063c0.064-0.011,0.138-0.022,0.188-0.022
				c0.114-0.006,0.214,0.002,0.318,0.006c1.588,0.158,3.029,0.777,3.029,0.777s-0.396-0.002-0.975-0.055
				c-0.577-0.048-1.352-0.154-2.092-0.225c-0.089-0.006-0.183-0.016-0.261-0.014c-0.047-0.002-0.068,0.006-0.099,0.006
				c-0.007,0.002,0.017-0.002,0.018-0.014c0.07-0.035,0.093-0.16,0.075-0.202c-0.059-0.103,0.044,0.03,0.098,0.054
				c0.07,0.047,0.144,0.092,0.22,0.136c0.305,0.172,0.599,0.342,0.857,0.473C45.992,144.07,46.329,144.277,46.329,144.277z"/>
		</g>
		<g>
			<path fill="#EFC06A" d="M48.516,144.777c0,0,9.348,1.518,1.938-0.633"/>
			<path fill="#010101" d="M48.516,144.777c0,0,0.502,0.002,1.244,0.048c0.742,0.044,1.732,0.134,2.702,0.205
				c0.234,0.016,0.498,0.032,0.675,0.009c0.035-0.002,0.014-0.005,0.013,0.003c0.022-0.006-0.05,0.017-0.077,0.103
				c-0.011,0.088,0,0.101,0.002,0.127c0.043,0.069,0.032,0.039,0.014,0.033c-0.014-0.011-0.02-0.021-0.047-0.035
				c-0.086-0.053-0.188-0.101-0.288-0.147c-0.409-0.183-0.812-0.353-1.156-0.488c-0.688-0.278-1.144-0.491-1.144-0.491
				s0.498,0.058,1.229,0.223c0.361,0.096,0.789,0.182,1.24,0.349c0.112,0.043,0.229,0.087,0.352,0.151
				c0.027,0.011,0.068,0.04,0.104,0.064c0.031,0.026,0.072,0.029,0.139,0.156c0.021,0.053,0.051,0.09,0.013,0.206
				c-0.042,0.112-0.126,0.165-0.137,0.164c-0.058,0.028-0.134,0.056-0.161,0.056c-0.307,0.047-0.541,0.024-0.801,0.016
				c-1.007-0.068-1.98-0.264-2.709-0.426C48.993,144.938,48.516,144.777,48.516,144.777z"/>
		</g>
	</g>
</g>
<g id="proffesorn" display="none">
	<path display="inline" fill="#EFC06A" stroke="#000000" stroke-miterlimit="10" d="M108.614,167.422
		c-1.916-28.156-14.951-51.1-33.396-51.1c-18.444,0-31.364,22.951-33.396,51.1c-2.625,36.378,3.72,23.014,37.375,25.378
		C119.127,195.604,109.866,185.8,108.614,167.422z"/>
	<path display="inline" fill="#EFC06A" stroke="#000000" stroke-miterlimit="10" d="M77.198,193.329c0,3.358-5.149,6.081-11.5,6.081
		s-14.333-2.723-14.333-6.081c0-3.357,7.982-6.08,14.333-6.08S77.198,189.972,77.198,193.329z"/>
	<path display="inline" fill="#EFC06A" stroke="#000000" stroke-miterlimit="10" d="M107.023,191.829
		c0,3.358-5.149,6.081-11.5,6.081s-15.595-1.702-15.595-5.061c0-3.357,9.245-7.101,15.595-7.101S107.023,188.472,107.023,191.829z"
		/>
	<g display="inline">
		<path d="M49.948,188.717c0,0,0.333-0.319,0.964-0.82c0.637-0.492,1.55-1.203,2.734-1.925c0.589-0.365,1.242-0.738,1.943-1.115
			c0.707-0.367,1.455-0.756,2.266-1.077c0.804-0.337,1.652-0.651,2.535-0.912c0.886-0.246,1.793-0.483,2.724-0.62
			c0.927-0.15,1.87-0.211,2.798-0.22c0.929,0.013,1.846,0.091,2.714,0.272c0.874,0.149,1.693,0.428,2.439,0.74
			s1.428,0.665,2.013,1.055c0.611,0.35,1.083,0.797,1.526,1.146c0.402,0.401,0.766,0.732,1.037,1.032
			c0.514,0.621,0.808,0.977,0.808,0.977s-0.343-0.304-0.943-0.836c-0.302-0.261-0.699-0.542-1.133-0.881
			c-0.476-0.283-0.976-0.652-1.581-0.952c-0.585-0.33-1.259-0.616-1.984-0.857c-0.366-0.115-0.736-0.245-1.132-0.318
			c-0.391-0.091-0.787-0.188-1.202-0.236c-0.819-0.148-1.684-0.162-2.558-0.175c-0.875,0.02-1.766,0.089-2.647,0.241
			c-0.886,0.118-1.759,0.335-2.614,0.561c-0.849,0.247-1.687,0.497-2.478,0.801c-1.586,0.592-3.047,1.229-4.255,1.864
			c-1.209,0.632-2.22,1.171-2.899,1.596C50.335,188.467,49.948,188.717,49.948,188.717z"/>
	</g>
	<g display="inline">
		<path d="M81.448,187.249c0,0,0.321-0.244,0.923-0.614c0.602-0.367,1.471-0.887,2.565-1.413c0.553-0.248,1.146-0.532,1.793-0.793
			c0.648-0.255,1.324-0.55,2.058-0.761c0.722-0.243,1.48-0.462,2.265-0.636c0.773-0.213,1.59-0.302,2.393-0.452
			c0.812-0.098,1.633-0.144,2.436-0.19c0.809,0.028,1.605,0.008,2.369,0.115c0.761,0.13,1.51,0.17,2.182,0.405
			c0.672,0.221,1.328,0.347,1.885,0.612c0.562,0.25,1.066,0.5,1.508,0.721c0.432,0.242,0.77,0.522,1.064,0.716
			c0.578,0.411,0.895,0.653,0.895,0.653s-0.362-0.177-0.996-0.486c-0.315-0.149-0.676-0.373-1.125-0.549
			c-0.463-0.149-0.98-0.319-1.532-0.524c-0.552-0.209-1.2-0.273-1.853-0.43c-0.326-0.084-0.67-0.122-1.025-0.14
			c-0.352-0.033-0.712-0.067-1.077-0.102c-0.729-0.078-1.495,0.002-2.263-0.026c-0.771,0.056-1.556,0.112-2.334,0.216
			c-0.775,0.134-1.562,0.206-2.316,0.403c-0.76,0.164-1.51,0.321-2.222,0.535c-1.437,0.381-2.761,0.815-3.884,1.228
			c-0.559,0.215-1.071,0.412-1.526,0.586c-0.453,0.18-0.848,0.339-1.168,0.483C81.816,187.088,81.448,187.249,81.448,187.249z"/>
	</g>
	<g display="inline">
		<path d="M81.448,183.6c0,0,0.321-0.244,0.923-0.614c0.602-0.367,1.471-0.887,2.565-1.413c0.553-0.248,1.146-0.532,1.793-0.793
			c0.648-0.255,1.324-0.55,2.058-0.761c0.722-0.243,1.48-0.462,2.265-0.636c0.773-0.213,1.59-0.302,2.393-0.452
			c0.812-0.098,1.633-0.144,2.436-0.19c0.809,0.028,1.605,0.008,2.369,0.115c0.761,0.13,1.51,0.17,2.182,0.405
			c0.672,0.221,1.328,0.347,1.885,0.611c0.562,0.251,1.066,0.501,1.508,0.722c0.432,0.242,0.77,0.522,1.064,0.716
			c0.578,0.411,0.895,0.653,0.895,0.653s-0.362-0.177-0.996-0.486c-0.315-0.149-0.676-0.373-1.125-0.549
			c-0.463-0.149-0.98-0.319-1.532-0.524c-0.552-0.209-1.2-0.273-1.853-0.43c-0.326-0.084-0.67-0.122-1.025-0.14
			c-0.352-0.033-0.712-0.067-1.077-0.102c-0.729-0.078-1.495,0.002-2.263-0.026c-0.771,0.056-1.556,0.112-2.334,0.216
			c-0.775,0.134-1.562,0.206-2.316,0.403c-0.76,0.164-1.51,0.321-2.222,0.535c-1.437,0.381-2.761,0.815-3.884,1.228
			c-0.559,0.215-1.071,0.412-1.526,0.586c-0.453,0.18-0.848,0.339-1.168,0.483C81.816,183.438,81.448,183.6,81.448,183.6z"/>
	</g>
	<g display="inline">
		<path d="M48.323,183.6c0,0,0.321-0.244,0.923-0.614c0.602-0.367,1.471-0.887,2.565-1.413c0.553-0.248,1.147-0.532,1.793-0.793
			c0.648-0.255,1.324-0.55,2.058-0.761c0.722-0.243,1.48-0.462,2.265-0.636c0.774-0.213,1.59-0.302,2.393-0.452
			c0.812-0.098,1.632-0.144,2.436-0.19c0.808,0.028,1.605,0.008,2.369,0.115c0.76,0.13,1.509,0.17,2.181,0.405
			c0.672,0.221,1.329,0.347,1.886,0.611c0.562,0.251,1.065,0.501,1.507,0.722c0.431,0.242,0.77,0.522,1.064,0.716
			c0.578,0.411,0.895,0.653,0.895,0.653s-0.362-0.177-0.995-0.486c-0.316-0.149-0.676-0.373-1.126-0.549
			c-0.463-0.149-0.98-0.319-1.532-0.524c-0.551-0.209-1.201-0.273-1.853-0.43c-0.326-0.084-0.67-0.122-1.026-0.14
			c-0.352-0.033-0.711-0.067-1.077-0.102c-0.729-0.078-1.495,0.002-2.263-0.026c-0.77,0.056-1.555,0.112-2.333,0.216
			c-0.776,0.134-1.562,0.206-2.316,0.403c-0.76,0.164-1.509,0.321-2.222,0.535c-1.436,0.381-2.761,0.815-3.883,1.228
			c-0.559,0.215-1.072,0.412-1.526,0.586c-0.453,0.18-0.848,0.339-1.168,0.483C48.691,183.438,48.323,183.6,48.323,183.6z"/>
	</g>
	
		<ellipse display="inline" fill="#EFC06A" stroke="#000000" stroke-miterlimit="10" cx="76.902" cy="126.056" rx="30.121" ry="22.839"/>
	<path display="inline" fill="#EFC06A" stroke="#000000" stroke-miterlimit="10" d="M58.781,129.717"/>
	<circle display="inline" fill="#EFC06A" stroke="#000000" stroke-miterlimit="10" cx="65.948" cy="124.578" r="7.333"/>
	<circle display="inline" fill="#EFC06A" stroke="#000000" stroke-miterlimit="10" cx="69.115" cy="124.578" r="7.333"/>
	<circle display="inline" fill="#EFC06A" stroke="#000000" stroke-miterlimit="10" cx="90.281" cy="122.384" r="7.333"/>
	<circle display="inline" fill="#EFC06A" stroke="#000000" stroke-miterlimit="10" cx="93.447" cy="122.384" r="7.333"/>
	
		<line display="inline" fill="#EFC06A" stroke="#000000" stroke-miterlimit="10" x1="58.615" y1="124.578" x2="47.291" y2="121.865"/>
	
		<line display="inline" fill="#EFC06A" stroke="#000000" stroke-miterlimit="10" x1="100.616" y1="120.839" x2="104.872" y2="117.564"/>
	<path display="inline" fill="#EFC06A" stroke="#000000" stroke-miterlimit="10" d="M58.781,112.55c0,0,7.167-2.938,8.833-4"/>
	<path display="inline" fill="#EFC06A" stroke="#000000" stroke-miterlimit="10" d="M86.114,111.883
		c1.887-3.356,6.651-3.883,7.501,0"/>
	<path display="inline" fill="#EFC06A" stroke="#000000" stroke-miterlimit="10" d="M84.449,157.883c0,0,9.655,2.717,13.165,0
		c1.184-0.916-1.416,11.352-3.166,11.26c-4.476-0.234-6.531,0.594-8.334-0.321C83.648,167.568,84.449,157.883,84.449,157.883z"/>
	<path display="inline" fill="#EFC06A" stroke="#000000" stroke-miterlimit="10" d="M90.698,159.002
		c0.076-0.429,0.084-0.656,0.084-1.168c0-1.749-0.504-3.167-1.125-3.167s-1.125,1.418-1.125,3.167c0,0.438-0.059,0.415-0.001,0.794
		C88.801,158.664,90.417,158.992,90.698,159.002z"/>
	<path display="inline" fill="#EFC06A" stroke="#000000" stroke-miterlimit="10" d="M95.656,158.66
		c0.017-0.216,0.026-0.438,0.026-0.669c0-1.749-0.159-3.238-1.125-3.167c-0.619,0.046-1.406,1.261-1.406,3.01
		c0,0.463,0.057,0.633,0.121,1.029C93.522,158.791,95.196,158.757,95.656,158.66z"/>
	<path display="inline" fill="#EFC06A" stroke="#000000" stroke-miterlimit="10" d="M53.813,157.339
		c0.917-0.875,0.798-1.103,0.734-1.344c-0.297-1.125-0.352-1.328-1.525-1.328s-2.243,0.683-2.969,1.349
		c-0.316,0.29-3.977,3.799-3.977,6.295c0,3.161,2.646,5.723,5.91,5.723s5.91-2.562,5.91-5.723
		C57.897,159.814,58.251,157.589,53.813,157.339z"/>
	<path display="inline" fill="#EFC06A" stroke="#000000" stroke-miterlimit="10" d="M107.243,158.308
		c-0.917-0.875-0.799-1.103-0.734-1.344c0.297-1.125,0.352-1.328,1.525-1.328s2.242,0.683,2.969,1.349
		c0.315,0.29,3.977,3.799,3.977,6.295c0,3.161-2.646,5.723-5.91,5.723s-5.91-2.562-5.91-5.723
		C103.159,160.783,102.805,158.558,107.243,158.308z"/>
	<polygon display="inline" fill="#EFC06A" stroke="#000000" stroke-miterlimit="10" points="71.84,130.827 42.019,145.55 
		54.018,144.883 42.019,158.827 60.019,149.717 57.185,160.883 79.928,136.717 	"/>
	<polygon display="inline" fill="#EFC06A" stroke="#000000" stroke-miterlimit="10" points="91.87,130.827 121.69,145.55 
		109.691,144.883 121.69,158.827 103.69,149.717 106.524,160.883 83.781,136.717 	"/>
	
		<ellipse display="inline" fill="#EFC06A" stroke="#000000" stroke-miterlimit="10" cx="81.733" cy="131.169" rx="13.119" ry="6.619"/>
	<path display="inline" fill="#EFC06A" stroke="#000000" stroke-miterlimit="10" d="M78.772,87.744l-2.435,16.572l0,0
		c-0.083,0.754,3.129,1.733,7.176,2.186c4.048,0.452,7.396,0.207,7.482-0.547l0,0l1.712-15.311L78.772,87.744z"/>
	<path display="inline" fill="#EFC06A" stroke="#000000" stroke-miterlimit="10" d="M92.708,90.644
		c-0.303,0.697-3.109,0.92-7.094,0.073c-3.983-0.848-6.996-2.337-6.854-3.083c0.226-1.186,3.54-0.66,7.523,0.188
		C90.268,88.669,93.219,89.466,92.708,90.644z"/>
	<path display="inline" fill="#EFC06A" stroke="#000000" stroke-miterlimit="10" d="M76.491,104.046
		c0.035-0.31-0.494-0.657-1.402-0.991v-1.245l-1.603,0.769c-0.062-0.016-0.118-0.031-0.182-0.046l-0.372-1.378
		c0,0-1.295,1.038-1.627,0.982l-0.248-1.545l-1.418,1.31c-0.109-0.013-0.214-0.029-0.324-0.041
		c-0.134-0.015-0.266-0.027-0.399-0.041l-0.827-1.54l-1.491,1.376c-0.285-0.011-0.564-0.018-0.831-0.021l-2.241-1.355l0.166,1.438
		c-0.211,0.022-0.407,0.048-0.586,0.078l-1.548-0.565l0.365,1.006c-0.048,0.054-1.733,0.658-1.678,0.684
		c0.325,0.15,1.688,0.304,2.084,0.522l-0.178,0.761l2.411-0.397c0.041,0.011,0.083,0.021,0.125,0.032l0.271,0.967l2.022-0.494
		c0.115,0.02,0.232,0.038,0.349,0.056l0.601,0.72l1.743-0.426c0.209,0.02,0.416,0.037,0.62,0.053l0.483,0.579l1.943-0.475
		c0.173,0,0.343,0,0.507-0.003l0.3,1.338l1.281-1.484l1.922,0.188C76.986,104.749,76.474,104.197,76.491,104.046z"/>
	<path display="inline" fill="#EFC06A" stroke="#000000" stroke-miterlimit="10" d="M77.019,99.671c0,0,7.265,5.065,14.452,2.023"/>
	<path display="inline" fill="#EFC06A" stroke="#000000" stroke-miterlimit="10" d="M77.946,91.916c0,0,7.265,5.065,14.453,2.023"/>
	<g display="inline">
		<path fill="#EFC06A" d="M83.417,89.237c0,0-5.875-2.156,1.312-0.642"/>
		<path d="M83.417,89.237c0,0-0.391-0.057-0.954-0.223c-0.278-0.092-0.608-0.186-0.951-0.341c-0.085-0.04-0.173-0.083-0.263-0.132
			c-0.047-0.03-0.089-0.049-0.142-0.091c-0.047-0.047-0.104-0.053-0.176-0.226c-0.046-0.09,0.011-0.256,0.112-0.326
			c0.046-0.027,0.112-0.055,0.152-0.063c0.064-0.011,0.138-0.023,0.188-0.022c0.114-0.006,0.214,0.001,0.318,0.005
			c1.588,0.158,3.029,0.778,3.029,0.778s-0.396-0.002-0.975-0.055c-0.577-0.048-1.352-0.154-2.092-0.225
			c-0.089-0.006-0.183-0.015-0.261-0.013c-0.047-0.002-0.068,0.005-0.099,0.006c-0.007,0.002,0.017-0.003,0.018-0.014
			c0.07-0.035,0.093-0.16,0.075-0.202c-0.059-0.103,0.044,0.03,0.098,0.053c0.07,0.047,0.144,0.093,0.22,0.136
			c0.305,0.172,0.599,0.342,0.857,0.473C83.08,89.03,83.417,89.237,83.417,89.237z"/>
	</g>
	<g display="inline">
		<path fill="#EFC06A" d="M85.604,89.737c0,0,9.348,1.517,1.938-0.634"/>
		<path d="M85.604,89.737c0,0,0.502,0.001,1.244,0.047c0.742,0.044,1.732,0.134,2.702,0.205c0.234,0.016,0.498,0.033,0.675,0.009
			c0.035-0.002,0.014-0.005,0.013,0.003c0.022-0.006-0.05,0.017-0.077,0.102c-0.011,0.089,0,0.101,0.002,0.128
			c0.043,0.069,0.032,0.039,0.014,0.032c-0.014-0.01-0.02-0.021-0.047-0.034c-0.086-0.053-0.188-0.101-0.288-0.148
			c-0.409-0.183-0.812-0.353-1.156-0.488c-0.688-0.279-1.144-0.492-1.144-0.492s0.498,0.058,1.229,0.223
			c0.361,0.096,0.789,0.182,1.24,0.349c0.112,0.043,0.229,0.087,0.352,0.151c0.027,0.011,0.068,0.04,0.104,0.064
			c0.031,0.027,0.072,0.03,0.139,0.157c0.021,0.053,0.051,0.09,0.013,0.206c-0.042,0.112-0.126,0.165-0.137,0.164
			c-0.058,0.029-0.134,0.055-0.161,0.056c-0.307,0.046-0.541,0.024-0.801,0.016c-1.007-0.069-1.98-0.265-2.709-0.427
			C86.081,89.896,85.604,89.737,85.604,89.737z"/>
	</g>
	<polygon display="inline" fill="#EFC06A" stroke="#000000" stroke-miterlimit="10" points="165.25,197.357 221.5,245.75 
		283.25,233.25 276,97.402 206.858,68.25 165.25,73.75 	"/>
	<path display="inline" fill="#EFC06A" stroke="#000000" stroke-miterlimit="10" d="M221,111.883L165.25,73.75L221,111.883z"/>
	<polyline display="inline" fill="#EFC06A" stroke="#000000" stroke-miterlimit="10" points="221.5,245.75 221,111.883 276,97.402 	
		"/>
	<polygon display="inline" fill="none" stroke="#000000" stroke-miterlimit="10" points="215.867,240.904 214.75,115.051 169,82.5 
		169,200.584 	"/>
	<polygon display="inline" fill="none" stroke="#000000" stroke-miterlimit="10" points="204.75,231.34 215.867,240.904 
		214.75,115.051 204.75,107.936 	"/>
	<polygon display="inline" fill="none" stroke="#000000" stroke-miterlimit="10" points="176.25,87.658 169,82.5 169,200.584 
		176.25,206.821 	"/>
	<line display="inline" fill="#EFC06A" stroke="#000000" stroke-miterlimit="10" x1="176.25" y1="195.25" x2="204.75" y2="191.83"/>
	<polygon display="inline" fill="#EFC06A" stroke="#000000" stroke-miterlimit="10" points="184,160.637 197.576,160.637 
		197.576,135.777 184,136.426 	"/>
	<polygon display="inline" fill="#EFC06A" stroke="#000000" stroke-miterlimit="10" points="188.625,153 191.875,157.567 
		195.375,151.875 	"/>
	<polygon display="inline" fill="#EFC06A" stroke="#000000" stroke-miterlimit="10" points="188.188,148.938 195.375,147.625 
		190.788,140.857 	"/>
</g>
<g id="Layer_4" display="none">
	<path display="inline" fill="#EFC06A" stroke="#000000" stroke-miterlimit="10" d="M102.905,157.93
		c3.104-7.765,6.018-13.877,4.906-22.307c-1.106-6.433-6.239-14.744-10.011-19.405c-3.55-4.435-4.969-19.386-4.969-19.386
		L86.95,97.4c-0.516-3.767-0.477-7.715-0.02-11.355c0.443-4.215,2.661-9.762,1.553-13.978c-0.666-2.219-11.98-16.639-20.191-16.861
		c-6.212-0.221-15.289-6.844-30.394,11.981c-9.283,11.568-13.313,28.62-16.419,42.82c-1.107,4.657,0,9.54,0.444,14.42
		c0.443,7.545-0.223,15.976,2.44,23.296c1.998,5.104,6.877,8.432,10.65,12.204c4.881,5.324,10.206,8.43,15.976,12.202
		c4.656,3.328,9.538,7.543,15.752,6.434C66.741,178.563,96.913,171.907,102.905,157.93z"/>
	<ellipse display="inline" cx="55.345" cy="79.798" rx="2.538" ry="5.077"/>
	<ellipse display="inline" cx="79.36" cy="83.313" rx="2.538" ry="5.076"/>
	
		<line display="inline" fill="#EFC06A" stroke="#000000" stroke-miterlimit="10" x1="92.832" y1="96.832" x2="44.265" y2="101.812"/>
	<path display="inline" fill="#EFC06A" stroke="#000000" stroke-miterlimit="10" d="M72.788,193.349
		c0,2.048,5.593,3.711,12.493,3.711c6.903,0,12.495-1.663,12.495-3.711s-2.795-6.022-9.696-6.022
		C81.18,187.326,72.788,191.301,72.788,193.349z"/>
	<path display="inline" fill="#EFC06A" stroke="#000000" stroke-miterlimit="10" d="M54.639,198.389
		c0,2.05,5.594,3.711,12.495,3.711c6.9,0,12.496-1.661,12.496-3.711c0-2.048-2.797-6.023-9.697-6.023
		C63.03,192.365,54.639,196.341,54.639,198.389z"/>
	
		<line display="inline" fill="#EFC06A" stroke="#000000" stroke-miterlimit="10" x1="76.822" y1="189.949" x2="76.822" y2="175.646"/>
	
		<line display="inline" fill="#EFC06A" stroke="#000000" stroke-miterlimit="10" x1="60.031" y1="193.495" x2="60.031" y2="177.807"/>
	<line display="inline" fill="#EFC06A" stroke="#000000" stroke-miterlimit="10" x1="106.401" y1="133.1" x2="90.196" y2="133.1"/>
	
		<line display="inline" fill="#EFC06A" stroke="#000000" stroke-miterlimit="10" x1="47.927" y1="156.626" x2="31.721" y2="156.626"/>
	
		<line display="inline" fill="#EFC06A" stroke="#000000" stroke-miterlimit="10" x1="39.629" y1="121.873" x2="23.422" y2="121.873"/>
	
		<line display="inline" fill="#EFC06A" stroke="#000000" stroke-miterlimit="10" x1="67.058" y1="143.739" x2="56.786" y2="143.739"/>
	<line display="inline" fill="#EFC06A" stroke="#000000" stroke-miterlimit="10" x1="49.401" y1="67.084" x2="39.129" y2="67.084"/>
	
		<line display="inline" fill="#EFC06A" stroke="#000000" stroke-miterlimit="10" x1="95.923" y1="165.789" x2="86.394" y2="165.789"/>
	<line display="inline" fill="none" stroke="#000000" stroke-miterlimit="10" x1="34.846" y1="131.927" x2="34.846" y2="172.928"/>
	<path display="inline" fill="none" stroke="#000000" stroke-miterlimit="10" d="M26.049,176.937c0,0,5.671,6.698,8.796-4.009"/>
	<path display="inline" fill="none" stroke="#000000" stroke-miterlimit="10" d="M27.025,183.015c0,0,9.317,6.899,7.821-10.087"/>
	<path display="inline" fill="none" stroke="#000000" stroke-miterlimit="10" d="M35.236,182.17c0,0,5.791-0.163-0.229-9.111"/>
	<path display="inline" fill="none" stroke="#000000" stroke-miterlimit="10" d="M40.897,174.588c0,0-3.153-2.002-5.89-3.221"/>
</g>
<g id="Layer_4_copy" display="none">
	<path display="inline" fill="#EFC06A" stroke="#010101" stroke-miterlimit="10" d="M154.032,73.261l17.075-31.531
		c0,0,3.537,0.03,4.533,0.59c1.098,0.616,3.148,3.919,3.148,3.919l-14.294,27.699"/>
	<g display="inline">
		<line fill="#EFC06A" x1="173.566" y1="46.225" x2="161.537" y2="70.192"/>
		<path fill="#010101" d="M173.566,46.225c0,0-0.156,0.39-0.431,1.073c-0.293,0.673-0.675,1.653-1.198,2.797
			c-0.524,1.143-1.108,2.491-1.785,3.91c-0.667,1.423-1.412,2.925-2.154,4.427c-0.761,1.493-1.519,2.988-2.262,4.374
			c-0.73,1.391-1.465,2.664-2.068,3.767s-1.162,1.995-1.527,2.632c-0.384,0.628-0.604,0.986-0.604,0.986s0.156-0.39,0.43-1.073
			c0.293-0.674,0.674-1.654,1.198-2.798c0.524-1.143,1.106-2.492,1.785-3.91c0.666-1.423,1.412-2.924,2.155-4.427
			c0.761-1.493,1.52-2.988,2.263-4.373c0.732-1.39,1.465-2.664,2.068-3.767c0.604-1.103,1.161-1.996,1.526-2.633
			C173.347,46.584,173.566,46.225,173.566,46.225z"/>
	</g>
	<path display="inline" fill="#EFC06A" stroke="#000000" stroke-miterlimit="10" d="M169.517,225.704
		c0.046-0.64,0.054-1.289,0-1.966V118.085h-61.454v108.319c0,0-0.428,7.271,5.862,6.475c3.242-0.41,5.085-2.24,5.464-4.74
		c0.054,0.029,0.117-1.121,0.177-1.897c0.031-0.4,0.062-0.701,0.091-0.687c1.803,0.908,3.145,3.707,3.741,5.692
		c0.597,1.983,1.721,3.914,3.557,4.989c3.442,2.017,7.99,1.136,10.421-1.945c1.04-1.319,1.652-2.667,2.353-4.181
		c-0.363,0.785,2.609,1.775,4.213,2.255c2.13,0.637,5.088,0.14,6.977-0.987c0.028-0.018,0.055-0.039,0.083-0.056
		c0.307,0.95,0.722,1.897,1.284,2.858c2.268,3.872,8.354,3.594,10.141-0.397c2.049,0.391,4.223-0.336,5.491-2.787
		c0.846-1.635,1.333-3.098,1.533-4.592h0.066V225.704z"/>
	<g display="inline">
		<line fill="#EFC06A" x1="119.657" y1="225.555" x2="119.338" y2="187.126"/>
		<polygon points="119.157,225.559 119.338,187.126 120.157,225.551 		"/>
	</g>
	<g display="inline">
		<line fill="#EFC06A" x1="139.869" y1="230.756" x2="139.551" y2="181.289"/>
		<polygon points="139.369,230.759 139.551,181.289 140.369,230.753 		"/>
	</g>
	<g display="inline">
		<line fill="#EFC06A" x1="150.806" y1="231.709" x2="150.487" y2="182.242"/>
		<polygon points="150.306,231.712 150.487,182.242 151.306,231.706 		"/>
	</g>
	<g display="inline">
		<line fill="#EFC06A" x1="162.648" y1="233.938" x2="162.33" y2="184.472"/>
		<polygon points="162.148,233.94 162.33,184.472 163.148,233.935 		"/>
	</g>
	<path display="inline" fill="#EFC06A" stroke="#000000" stroke-miterlimit="10" d="M189.955,154.142
		c3.104-7.765,6.019-13.876,4.907-22.307c-1.106-6.433-6.239-14.744-10.012-19.405c-3.549-4.435-4.968-19.386-4.968-19.386
		l-5.882,0.569c-0.517-3.767-0.477-7.715-0.02-11.355c0.442-4.215,2.66-9.762,1.552-13.978c-0.665-2.219-11.98-16.639-20.19-16.861
		c-6.212-0.221-15.29-6.844-30.394,11.981c-9.283,11.567-13.313,28.62-16.419,42.82c-1.107,4.658,0,9.54,0.444,14.421
		c0.443,7.544-0.223,15.975,2.441,23.296c1.998,5.103,6.876,8.432,10.649,12.203c4.881,5.324,10.206,8.431,15.975,12.202
		c4.657,3.329,9.539,7.544,15.753,6.434C153.792,174.775,183.964,168.119,189.955,154.142z"/>
	<ellipse display="inline" cx="142.396" cy="76.01" rx="2.538" ry="5.077"/>
	<ellipse display="inline" cx="166.411" cy="79.525" rx="2.538" ry="5.075"/>
	
		<line display="inline" fill="#EFC06A" stroke="#000000" stroke-miterlimit="10" x1="179.883" y1="93.043" x2="131.315" y2="98.023"/>
	<path display="inline" fill="#EFC06A" stroke="#000000" stroke-miterlimit="10" d="M163.599,185.191
		c-2.017,0.353-2.694,6.147-1.51,12.945c1.186,6.801,3.785,12.025,5.802,11.673c2.02-0.352,5.454-3.788,4.27-10.587
		C170.975,192.425,165.618,184.84,163.599,185.191z"/>
	<path display="inline" fill="#EFC06A" stroke="#000000" stroke-miterlimit="10" d="M146.106,189.07
		c-2.049-0.026-3.782,5.546-3.872,12.447c-0.09,6.9,1.498,12.516,3.549,12.542c2.045,0.027,6.058-2.716,6.147-9.617
		C152.021,197.539,148.155,189.097,146.106,189.07z"/>
	
		<line display="inline" fill="#EFC06A" stroke="#000000" stroke-miterlimit="10" x1="163.873" y1="186.162" x2="163.873" y2="171.858"/>
	
		<line display="inline" fill="#EFC06A" stroke="#000000" stroke-miterlimit="10" x1="147.082" y1="189.707" x2="147.082" y2="174.02"/>
	
		<line display="inline" fill="#EFC06A" stroke="#000000" stroke-miterlimit="10" x1="193.452" y1="129.312" x2="177.247" y2="129.312"/>
	
		<line display="inline" fill="#EFC06A" stroke="#000000" stroke-miterlimit="10" x1="134.977" y1="152.838" x2="118.771" y2="152.838"/>
	
		<line display="inline" fill="#EFC06A" stroke="#000000" stroke-miterlimit="10" x1="126.679" y1="118.085" x2="110.473" y2="118.085"/>
	
		<line display="inline" fill="#EFC06A" stroke="#000000" stroke-miterlimit="10" x1="154.108" y1="139.952" x2="143.837" y2="139.952"/>
	
		<line display="inline" fill="#EFC06A" stroke="#000000" stroke-miterlimit="10" x1="182.974" y1="162.001" x2="173.443" y2="162.001"/>
	
		<line display="inline" fill="none" stroke="#000000" stroke-miterlimit="10" x1="121.896" y1="128.139" x2="121.896" y2="169.141"/>
	<path display="inline" fill="none" stroke="#000000" stroke-miterlimit="10" d="M113.1,173.148c0,0,5.671,6.699,8.796-4.008"/>
	<path display="inline" fill="none" stroke="#000000" stroke-miterlimit="10" d="M114.075,179.227c0,0,9.317,6.9,7.821-10.086"/>
	<path display="inline" fill="none" stroke="#000000" stroke-miterlimit="10" d="M122.287,178.382c0,0,5.791-0.163-0.229-9.11"/>
	<path display="inline" fill="none" stroke="#000000" stroke-miterlimit="10" d="M127.948,170.8c0,0-3.154-2.001-5.891-3.221"/>
	<path display="inline" fill="#EFC06A" stroke="#010101" stroke-miterlimit="10" d="M121.673,76.01l-22.716-33.82
		c0,0,1.543-4.345,2.442-5.267l4.458-1.805l20.381,30.678"/>
	<polyline display="inline" fill="#EFC06A" stroke="#010101" stroke-miterlimit="10" points="126.238,70.934 113.552,27.051 
		117.216,24.706 121.249,24.706 132.007,57.774 	"/>
	<path display="inline" fill="#EFC06A" stroke="#010101" stroke-miterlimit="10" d="M132.701,64.84l-2.651-40.868
		c0,0,3.748-2.587,5.212-2.76c0.926-0.109,3.609,0.934,3.609,0.934l2.855,36.084"/>
	<path display="inline" fill="#EFC06A" stroke="#010101" stroke-miterlimit="10" d="M140.085,58.705l8.977-39.084
		c0,0,3.802-1.286,4.99-0.85c1.138,0.418,3.117,3.719,3.117,3.719l-6.551,32.446"/>
	<path display="inline" fill="#EFC06A" stroke="#010101" stroke-miterlimit="10" d="M153.084,60.522l13.38-34.968
		c0,0,3.511-0.426,4.571,0c1.166,0.469,3.627,3.481,3.627,3.481l-10.604,29.311"/>
	<path display="inline" fill="#EFC06A" stroke="#010101" stroke-miterlimit="10" d="M144.925,62.467l9.778-34.499
		c0,0,3.458-0.743,4.553-0.415c1.205,0.361,3.928,3.138,3.928,3.138l-7.9,30.151"/>
	<path display="inline" fill="#EFC06A" stroke="#010101" stroke-miterlimit="10" d="M118.262,84.629L92.155,54.5
		c0,0,0.666-4.569,1.802-5.441c1.329-1.019,6.689-0.389,6.689-0.389l23.305,27.434"/>
	<g display="inline">
		<line fill="#EFC06A" x1="95.479" y1="50.96" x2="118.689" y2="76.344"/>
		<path fill="#010101" d="M95.479,50.96c0,0,0.389,0.373,1.069,1.025c0.664,0.667,1.643,1.592,2.765,2.751
			c1.12,1.16,2.451,2.492,3.834,3.958c1.392,1.458,2.848,3.04,4.306,4.619c1.443,1.594,2.889,3.185,4.217,4.701
			c1.338,1.507,2.544,2.953,3.6,4.172c1.055,1.22,1.889,2.278,2.494,3c0.589,0.736,0.925,1.156,0.925,1.156
			s-0.389-0.373-1.069-1.025c-0.664-0.667-1.644-1.592-2.765-2.751c-1.121-1.16-2.453-2.491-3.834-3.958
			c-1.392-1.458-2.847-3.041-4.305-4.62c-1.443-1.594-2.888-3.186-4.216-4.701c-1.337-1.509-2.544-2.953-3.6-4.173
			c-1.054-1.22-1.889-2.278-2.494-2.999C95.816,51.38,95.479,50.96,95.479,50.96z"/>
	</g>
	<g display="inline">
		<line fill="#EFC06A" x1="103.376" y1="39.814" x2="122.779" y2="68.343"/>
		<path fill="#010101" d="M103.376,39.814c0,0,0.333,0.426,0.914,1.171c0.564,0.757,1.403,1.817,2.35,3.129
			c0.946,1.312,2.076,2.826,3.239,4.479c1.172,1.648,2.391,3.427,3.612,5.204c1.204,1.789,2.412,3.576,3.513,5.271
			c1.112,1.688,2.103,3.296,2.977,4.659c0.873,1.362,1.548,2.532,2.045,3.335c0.479,0.815,0.753,1.281,0.753,1.281
			s-0.333-0.426-0.914-1.171c-0.564-0.757-1.404-1.816-2.351-3.128c-0.946-1.313-2.077-2.825-3.239-4.48
			c-1.172-1.647-2.39-3.427-3.611-5.204c-1.204-1.789-2.411-3.577-3.512-5.272c-1.111-1.689-2.103-3.296-2.977-4.659
			c-0.872-1.363-1.549-2.532-2.046-3.335C103.65,40.279,103.376,39.814,103.376,39.814z"/>
	</g>
	<g display="inline">
		<line fill="#EFC06A" x1="117.948" y1="28.107" x2="128.653" y2="62.467"/>
		<path fill="#010101" d="M117.948,28.107c0,0,0.201,0.526,0.552,1.448c0.332,0.927,0.843,2.241,1.388,3.838
			c0.544,1.597,1.209,3.452,1.866,5.456c0.667,2,1.344,4.146,2.023,6.291c0.659,2.15,1.322,4.3,1.909,6.326
			c0.599,2.022,1.103,3.927,1.562,5.55c0.459,1.624,0.783,2.996,1.037,3.947c0.234,0.958,0.367,1.505,0.367,1.505
			s-0.201-0.526-0.553-1.447c-0.332-0.928-0.844-2.24-1.389-3.838c-0.543-1.598-1.21-3.451-1.866-5.456
			c-0.668-2.001-1.343-4.146-2.022-6.291c-0.659-2.15-1.321-4.3-1.907-6.326c-0.598-2.022-1.104-3.927-1.563-5.55
			c-0.458-1.624-0.784-2.996-1.038-3.947C118.082,28.654,117.948,28.107,117.948,28.107z"/>
	</g>
	<g display="inline">
		<line fill="#EFC06A" x1="135.576" y1="23.813" x2="138.871" y2="56.636"/>
		<path fill="#010101" d="M135.576,23.813c0,0,0.086,0.509,0.238,1.401c0.13,0.893,0.356,2.166,0.556,3.7
			c0.198,1.534,0.461,3.321,0.686,5.241c0.235,1.919,0.449,3.97,0.665,6.02c0.196,2.052,0.395,4.104,0.546,6.032
			c0.164,1.926,0.259,3.73,0.37,5.273c0.11,1.543,0.14,2.835,0.19,3.737c0.029,0.903,0.045,1.42,0.045,1.42
			s-0.087-0.509-0.238-1.401c-0.13-0.893-0.358-2.166-0.557-3.7c-0.198-1.534-0.463-3.321-0.686-5.241
			c-0.235-1.919-0.448-3.97-0.664-6.021c-0.195-2.052-0.394-4.104-0.545-6.032c-0.162-1.926-0.259-3.729-0.37-5.272
			c-0.109-1.543-0.141-2.835-0.19-3.737C135.593,24.33,135.576,23.813,135.576,23.813z"/>
	</g>
	<g display="inline">
		<line fill="#EFC06A" x1="158.084" y1="31.818" x2="151.578" y2="57.833"/>
		<path fill="#010101" d="M158.084,31.818c0,0-0.067,0.415-0.186,1.141c-0.139,0.721-0.298,1.761-0.559,2.992
			c-0.263,1.23-0.538,2.673-0.889,4.205c-0.34,1.535-0.739,3.163-1.136,4.791c-0.416,1.624-0.829,3.248-1.252,4.762
			c-0.41,1.517-0.849,2.919-1.196,4.128c-0.348,1.208-0.698,2.201-0.915,2.902c-0.238,0.696-0.374,1.094-0.374,1.094
			s0.067-0.415,0.186-1.142c0.139-0.721,0.296-1.761,0.558-2.992c0.263-1.23,0.536-2.673,0.889-4.205
			c0.34-1.535,0.739-3.162,1.137-4.791c0.417-1.623,0.83-3.248,1.253-4.761c0.411-1.517,0.849-2.919,1.196-4.128
			c0.349-1.208,0.697-2.201,0.915-2.903C157.948,32.216,158.084,31.818,158.084,31.818z"/>
	</g>
	<g display="inline">
		<line fill="#EFC06A" x1="153.084" y1="22.11" x2="145.452" y2="52.102"/>
		<path fill="#010101" d="M153.084,22.11c0,0-0.085,0.478-0.234,1.312c-0.169,0.83-0.373,2.026-0.687,3.443
			c-0.315,1.417-0.651,3.077-1.068,4.842c-0.406,1.768-0.876,3.644-1.343,5.521c-0.486,1.872-0.97,3.745-1.458,5.492
			c-0.477,1.75-0.977,3.369-1.377,4.764s-0.795,2.542-1.043,3.352c-0.269,0.805-0.422,1.265-0.422,1.265s0.085-0.478,0.233-1.312
			c0.17-0.83,0.372-2.026,0.687-3.443c0.315-1.417,0.649-3.078,1.068-4.843c0.405-1.768,0.876-3.644,1.344-5.521
			c0.487-1.872,0.972-3.745,1.459-5.491c0.479-1.75,0.977-3.369,1.377-4.764c0.401-1.395,0.794-2.542,1.042-3.353
			C152.931,22.57,153.084,22.11,153.084,22.11z"/>
	</g>
	<g display="inline">
		<line fill="#EFC06A" x1="169.517" y1="26.646" x2="160.632" y2="56.636"/>
		<path fill="#010101" d="M169.517,26.646c0,0-0.105,0.479-0.289,1.316c-0.204,0.831-0.457,2.031-0.83,3.449
			c-0.375,1.418-0.78,3.082-1.271,4.848c-0.48,1.77-1.028,3.646-1.573,5.523c-0.565,1.872-1.127,3.744-1.688,5.489
			c-0.549,1.749-1.117,3.365-1.575,4.758c-0.459,1.393-0.901,2.536-1.184,3.345c-0.302,0.803-0.475,1.261-0.475,1.261
			s0.104-0.479,0.288-1.316c0.205-0.832,0.456-2.031,0.83-3.45c0.375-1.418,0.778-3.083,1.271-4.848
			c0.48-1.77,1.029-3.646,1.574-5.523c0.565-1.872,1.129-3.744,1.689-5.489c0.551-1.749,1.117-3.365,1.575-4.758
			c0.46-1.393,0.901-2.537,1.183-3.345C169.344,27.104,169.517,26.646,169.517,26.646z"/>
	</g>
	<path display="inline" fill="#EFC06A" stroke="#010101" stroke-miterlimit="10" d="M136.027,65.429l-0.451-34.484
		c0,0,3.132-1.641,4.276-1.617c1.256,0.026,4.622,1.974,4.622,1.974l0.45,31.166"/>
	<path display="inline" fill="#EFC06A" stroke="#010101" stroke-miterlimit="10" d="M130.05,68.343l-6.748-37.362
		c0,0,2.792-2.17,3.922-2.349c1.241-0.197,4.899,1.123,4.899,1.123l6.747,35.084"/>
	<g display="inline">
		<line fill="#EFC06A" x1="128.166" y1="31.298" x2="134.067" y2="63.3"/>
		<path fill="#010101" d="M128.166,31.298c0,0,0.127,0.494,0.349,1.357c0.201,0.868,0.528,2.1,0.849,3.592
			c0.32,1.492,0.725,3.227,1.102,5.096c0.387,1.868,0.764,3.867,1.143,5.865c0.359,2.002,0.721,4.003,1.025,5.886
			c0.316,1.88,0.555,3.646,0.789,5.154c0.233,1.508,0.366,2.776,0.488,3.659c0.1,0.886,0.158,1.393,0.158,1.393
			s-0.127-0.494-0.349-1.357c-0.201-0.868-0.529-2.1-0.85-3.592c-0.32-1.492-0.727-3.227-1.102-5.097
			c-0.388-1.868-0.763-3.866-1.142-5.865c-0.358-2.002-0.72-4.003-1.024-5.886c-0.315-1.881-0.556-3.646-0.789-5.154
			c-0.232-1.508-0.366-2.776-0.488-3.659C128.224,31.804,128.166,31.298,128.166,31.298z"/>
	</g>
	<g display="inline">
		<line fill="#EFC06A" x1="139.857" y1="31.818" x2="141.312" y2="61.151"/>
		<path fill="#010101" d="M139.857,31.818c0,0,0.058,0.457,0.159,1.255c0.08,0.8,0.235,1.941,0.348,3.314
			c0.112,1.373,0.275,2.973,0.392,4.69c0.127,1.717,0.226,3.549,0.328,5.382c0.081,1.833,0.165,3.667,0.208,5.388
			c0.056,1.72,0.05,3.329,0.074,4.706c0.024,1.377-0.019,2.528-0.019,3.332c-0.022,0.805-0.035,1.265-0.035,1.265
			s-0.058-0.457-0.16-1.255c-0.08-0.8-0.236-1.941-0.349-3.314c-0.112-1.373-0.277-2.973-0.392-4.69
			c-0.127-1.716-0.225-3.549-0.326-5.382c-0.081-1.833-0.164-3.667-0.207-5.388c-0.054-1.72-0.05-3.329-0.075-4.706
			c-0.023-1.377,0.018-2.528,0.019-3.332C139.845,32.278,139.857,31.818,139.857,31.818z"/>
	</g>
	<path display="inline" fill="#EFC06A" stroke="#010101" stroke-miterlimit="10" d="M131.315,110.061c0,0-21.152-9.343-22.486,3.82
		c-1.333,13.165-3.869-5.715-1.746-7.112s-2.449-1.681-2.606-2.76c-0.236-1.61,2.606-2.866,2.606-2.866s-2.2-2.631-1.545-3.12
		c0.649-0.484,3.185-0.595,3.185-0.595s-0.324-2.262,0.212-2.655C114.399,90.766,126.52,98.81,131.315,110.061z"/>
	<g display="inline">
		<path fill="#010101" d="M107.142,106.06c-0.007,0.012,0.104-0.137,0.292-0.334c0.189-0.201,0.465-0.474,0.826-0.763
			c0.709-0.59,1.779-1.232,2.951-1.565c0.286-0.101,0.588-0.144,0.878-0.205c0.29-0.066,0.585-0.064,0.863-0.098
			c0.279-0.029,0.552,0.001,0.808-0.001c0.256-0.007,0.495,0.043,0.716,0.068c0.219,0.036,0.423,0.042,0.597,0.095
			c0.175,0.043,0.327,0.081,0.452,0.112c0.249,0.062,0.392,0.097,0.392,0.097s-0.146-0.02-0.4-0.055
			c-0.126-0.018-0.28-0.039-0.457-0.063c-0.175-0.035-0.378-0.019-0.596-0.031c-0.218-0.001-0.453-0.026-0.702,0.008
			c-0.248,0.029-0.51,0.027-0.774,0.084c-0.263,0.062-0.541,0.088-0.808,0.181c-0.268,0.087-0.544,0.156-0.802,0.279
			c-1.057,0.427-1.968,1.12-2.551,1.72c-0.603,0.603-0.869,1.052-0.869,1.053L107.142,106.06z"/>
	</g>
	<g display="inline">
		<path fill="#010101" d="M106.914,100.673c0,0,0.14-0.048,0.426-0.118c0.282-0.08,0.676-0.157,1.147-0.246
			c0.234-0.054,0.494-0.071,0.764-0.11c0.272-0.029,0.555-0.085,0.854-0.095c0.596-0.022,1.225-0.096,1.858-0.052
			c0.315,0.01,0.63,0.02,0.94,0.029c0.31,0.005,0.612,0.068,0.904,0.098c0.584,0.083,1.131,0.118,1.585,0.254
			c0.91,0.219,1.517,0.365,1.517,0.365s-0.617-0.084-1.541-0.211c-0.457-0.088-1.004-0.069-1.582-0.093
			c-0.29,0-0.587-0.033-0.89-0.007c-0.303,0.021-0.61,0.042-0.917,0.064c-0.614,0.019-1.218,0.152-1.785,0.23
			c-0.284,0.037-0.551,0.12-0.807,0.172c-0.254,0.064-0.499,0.104-0.715,0.178c-0.437,0.129-0.799,0.238-1.033,0.332
			c-0.237,0.082-0.387,0.149-0.387,0.149L106.914,100.673z"/>
	</g>
	<g display="inline">
		<path fill="#010101" d="M108.745,96.868c0,0,0.624,0.006,1.588,0.11c0.239,0.022,0.499,0.046,0.773,0.072
			c0.273,0.031,0.564,0.04,0.858,0.096c0.588,0.094,1.216,0.194,1.844,0.295c0.313,0.05,0.626,0.1,0.934,0.149
			c0.308,0.047,0.604,0.142,0.893,0.207c0.576,0.143,1.114,0.277,1.575,0.391c0.918,0.229,1.53,0.381,1.53,0.381
			s-0.625-0.091-1.562-0.228c-0.467-0.068-1.011-0.147-1.595-0.232c-0.292-0.036-0.59-0.101-0.899-0.116
			c-0.309-0.019-0.623-0.037-0.936-0.056c-0.625-0.037-1.251-0.075-1.837-0.11c-0.293-0.026-0.575-0.006-0.842-0.01
			c-0.267,0.002-0.52,0.003-0.752,0.004c-0.924-0.01-1.562,0.046-1.562,0.046L108.745,96.868z"/>
	</g>
	<path display="inline" fill="#EFC06A" stroke="#010101" stroke-miterlimit="10" d="M181.969,99.871c0,0,2.832,1.805,3.38,4.14
		c0.547,2.335-4.441,5.414-4.441,5.414L181.969,99.871z"/>
</g>
<g id="Layer_6" display="none">
	<path display="inline" fill="#EFC06A" stroke="#000000" stroke-miterlimit="10" d="M79.858,167.369"/>
</g>
<g id="highscore" display="none">
	<text transform="matrix(1 0 0 1 51.5557 96.1582)" display="inline"><tspan x="0" y="0" font-family="'Neucha'" font-size="24.4995">1. M3G4-tatis</tspan><tspan x="0" y="29.399" font-family="'Neucha'" font-size="24.4995">3. Else-Britt</tspan><tspan x="0" y="58.799" font-family="'Neucha'" font-size="24.4995">4. Professorn</tspan><tspan x="0" y="88.198" font-family="'Neucha'" font-size="24.4995">4. Du</tspan><tspan x="0" y="117.598" font-family="'Neucha'" font-size="24.4995">5. Snubben innan</tspan></text>
	<text transform="matrix(1 0 0 1 205.0859 96.1582)" display="inline"><tspan x="0" y="0" font-family="'Neucha'" font-size="24.4995">9997</tspan><tspan x="0" y="29.399" font-family="'Neucha'" font-size="24.4995">8111</tspan><tspan x="0" y="58.799" font-family="'Neucha'" font-size="24.4995">0721</tspan><tspan x="0" y="88.198" font-family="'Neucha'" font-size="24.4995">0510</tspan><tspan x="0" y="117.598" font-family="'Neucha'" font-size="24.4995">0055</tspan></text>
	
		<text transform="matrix(1 0 0 1 76.6777 48.792)" display="inline" fill="none" stroke="#000000" stroke-width="5" font-family="'Neucha'" font-size="39.1991">High Score</text>
	<text transform="matrix(1 0 0 1 76.6777 48.792)" display="inline" fill="#EEBF68" font-family="'Neucha'" font-size="39.1991">High Score</text>
</g>
<g id="Bro">
	<path fill="#EFC06A" stroke="#010101" stroke-miterlimit="10" d="M167.224,54.7c-0.233-6.686-9.085-12.063-19.99-12.063
		c-10.766,0-19.521,5.242-19.97,11.807c-8.559,1.399-14.876,6.191-14.876,11.905c0,6.81,8.961,12.331,20.013,12.331
		c5.526,0,10.53-1.381,14.152-3.613c3.622,2.231,8.626,3.613,14.152,3.613c11.052,0,20.013-5.521,20.013-12.331
		C180.718,60.946,175.071,56.367,167.224,54.7z"/>
	<path fill="#EFC06A" stroke="#010101" stroke-miterlimit="10" d="M264.241,21.109c-0.233-6.686-9.085-12.063-19.99-12.063
		c-10.766,0-19.521,5.242-19.97,11.807c-8.559,1.399-14.876,6.191-14.876,11.905c0,6.81,8.961,12.331,20.013,12.331
		c5.526,0,10.53-1.381,14.152-3.613c3.622,2.231,8.626,3.613,14.152,3.613c11.052,0,20.013-5.521,20.013-12.331
		C277.735,27.356,272.089,22.777,264.241,21.109z"/>
	<g>
		<path fill="#EFC06A" d="M243.57,35.25c-0.663-2.712-27-12.423-40.807-12.423c-12.074,0-22.148,3.768-24.487,8.778
			c-3.343-0.729-7.105-1.142-11.089-1.142c-13.807,0-25,4.927-25,11.005c0,3.278,3.261,6.22,8.428,8.236
			c-3.829,1.934-6.154,4.459-6.154,7.226c0,1.623,0.805,3.163,2.238,4.55c-9.974,1.446-17.178,5.578-17.178,10.452
			c0,6.078,11.193,11.005,25,11.005c1.042,0,2.066-0.031,3.074-0.086c-0.481,0.853-0.741,1.745-0.741,2.663
			c0,6.078,11.193,11.005,25,11.005c4.631,0,8.964-0.556,12.684-1.522c4.256,2.117,10.334,3.507,17.154,3.693
			c-0.501,0.869-0.769,1.778-0.769,2.715c0,6.078,11.77,0.594,25.576,0.594c10.487,0,18.885,7.566,22.597,3.536
			c0.604,0.019,1.212,0.032,1.827,0.032c13.807,0,25-4.927,25-11.005l2.452-29.061c-0.521-0.257-1.007-0.648-1.398-1.236
			c-4.333-6.512-12.384-7.566-19.432-8.262c-2.32-0.229-5.41-0.673-6.171-3.324"/>
		<path fill="#010101" d="M243.57,35.25c-0.122-0.352-0.428-0.589-0.705-0.817c-0.289-0.224-0.594-0.426-0.907-0.614
			c-0.625-0.379-1.275-0.713-1.932-1.035c-1.315-0.639-2.662-1.211-4.02-1.754c-2.717-1.082-5.482-2.039-8.27-2.918
			c-2.79-0.873-5.603-1.672-8.432-2.398c-2.831-0.719-5.687-1.343-8.564-1.816c-2.878-0.463-5.779-0.795-8.684-0.731
			c-2.908,0.041-5.817,0.298-8.677,0.814c-2.855,0.522-5.679,1.291-8.315,2.473c-1.314,0.592-2.584,1.292-3.719,2.157
			c-1.131,0.858-2.149,1.899-2.736,3.151l-0.119,0.255l-0.294-0.05c-1.079-0.184-2.146-0.439-3.235-0.566
			c-1.087-0.142-2.171-0.3-3.267-0.359l-1.64-0.123l-1.645-0.04c-1.09-0.036-2.199-0.035-3.29,0.014
			c-4.373,0.173-8.76,0.81-12.902,2.191c-2.063,0.697-4.075,1.583-5.853,2.799c-0.883,0.61-1.709,1.305-2.375,2.119
			c-0.655,0.815-1.168,1.749-1.314,2.753c-0.057,0.237-0.045,0.525-0.062,0.73c0.022,0.269,0.02,0.571,0.081,0.79
			c0.067,0.471,0.271,0.97,0.487,1.425c0.481,0.913,1.187,1.717,1.99,2.413c1.621,1.391,3.589,2.38,5.604,3.18l0.91,0.361
			l-0.872,0.447c-1.103,0.565-2.164,1.212-3.11,1.987c-0.937,0.776-1.775,1.684-2.282,2.746c-0.255,0.527-0.425,1.088-0.482,1.66
			l-0.022,0.43l0.028,0.445c0.037,0.312,0.073,0.542,0.164,0.83c0.314,1.119,1.056,2.104,1.911,2.95l0.665,0.657l-0.921,0.136
			c-2.202,0.326-4.384,0.793-6.501,1.453c-2.113,0.663-4.179,1.51-6.028,2.681c-0.923,0.583-1.787,1.257-2.512,2.041
			c-0.729,0.777-1.298,1.691-1.56,2.677c-0.126,0.498-0.183,0.99-0.126,1.519c0.053,0.511,0.155,0.977,0.373,1.461
			c0.395,0.953,1.092,1.785,1.866,2.521c1.591,1.458,3.574,2.5,5.613,3.332c2.055,0.813,4.2,1.422,6.38,1.857
			c2.179,0.445,4.395,0.717,6.617,0.87c1.112,0.07,2.227,0.114,3.341,0.12c1.094-0.007,2.239-0.053,3.355-0.078l0.819-0.018
			l-0.405,0.705c-0.431,0.748-0.69,1.625-0.686,2.425c0.021,0.5,0.059,0.874,0.188,1.285c0.106,0.415,0.298,0.808,0.503,1.191
			c0.881,1.523,2.34,2.705,3.896,3.644c3.153,1.881,6.778,2.933,10.411,3.628c1.826,0.335,3.672,0.565,5.526,0.702
			c1.862,0.139,3.699,0.177,5.58,0.129c0.929-0.034,1.851-0.067,2.779-0.146c0.928-0.062,1.853-0.167,2.773-0.285
			c0.922-0.116,1.839-0.27,2.752-0.436c0.912-0.174,1.817-0.379,2.718-0.604l0.134-0.033l0.143,0.062
			c0.665,0.289,1.311,0.621,1.991,0.876c0.685,0.244,1.352,0.537,2.056,0.73c0.697,0.21,1.388,0.444,2.101,0.602
			c0.709,0.173,1.413,0.365,2.134,0.488c0.718,0.134,1.431,0.295,2.157,0.383c0.725,0.093,1.443,0.234,2.173,0.287
			c0.729,0.064,1.454,0.155,2.185,0.197l2.191,0.112l0.618,0.032l-0.306,0.527c-0.527,0.912-0.814,1.97-0.694,2.991
			c0.062,0.495,0.249,0.947,0.594,1.261c0.342,0.318,0.82,0.514,1.33,0.623c1.029,0.216,2.146,0.173,3.244,0.093
			c1.104-0.088,2.209-0.236,3.314-0.396c4.42-0.667,8.865-1.438,13.369-1.681c1.127-0.063,2.245-0.097,3.387-0.093
			c1.11,0.003,2.275,0.101,3.389,0.263c2.246,0.326,4.436,0.932,6.567,1.653c2.136,0.711,4.219,1.562,6.34,2.214
			c1.059,0.321,2.139,0.585,3.211,0.614c1.069,0.032,2.11-0.305,2.816-1.081l0.088-0.097l0.137,0.003
			c1.288,0.03,2.587,0.054,3.879-0.003c1.289-0.047,2.582-0.127,3.866-0.27c2.568-0.275,5.123-0.729,7.604-1.438
			c2.475-0.71,4.903-1.656,7.063-3.039c1.061-0.707,2.074-1.512,2.847-2.511c0.791-0.979,1.293-2.182,1.312-3.42V94.55l0.001-0.008
			l2.57-29.05l0.07,0.125c-0.605-0.297-1.114-0.785-1.478-1.336c-0.367-0.542-0.751-1.052-1.18-1.539
			c-0.854-0.968-1.837-1.826-2.917-2.541c-2.157-1.442-4.638-2.342-7.161-2.944c-2.53-0.603-5.121-0.918-7.709-1.189
			c-1.292-0.132-2.604-0.277-3.83-0.739c-0.608-0.231-1.191-0.55-1.669-0.998c-0.481-0.442-0.826-1.024-1.001-1.652
			c0.18,0.626,0.529,1.204,1.012,1.64c0.479,0.442,1.062,0.754,1.67,0.979c1.224,0.45,2.531,0.584,3.824,0.706
			c2.592,0.25,5.188,0.544,7.732,1.128c2.537,0.584,5.042,1.467,7.237,2.909c1.099,0.714,2.103,1.575,2.979,2.552
			c0.438,0.487,0.841,1.017,1.208,1.549c0.359,0.532,0.826,0.968,1.396,1.245l0.077,0.038l-0.007,0.087l-2.334,29.07l0.001-0.021
			c-0.004,1.373-0.569,2.694-1.403,3.732c-0.819,1.064-1.871,1.9-2.964,2.633c-2.221,1.431-4.688,2.396-7.198,3.125
			c-2.515,0.727-5.097,1.191-7.692,1.478c-1.299,0.147-2.602,0.232-3.909,0.284c-1.306,0.061-2.605,0.041-3.915,0.014l0.224-0.094
			c-0.815,0.916-2.092,1.32-3.255,1.279c-1.174-0.029-2.293-0.306-3.376-0.629c-2.168-0.66-4.244-1.502-6.364-2.201
			c-2.114-0.708-4.268-1.296-6.461-1.607c-1.106-0.155-2.181-0.245-3.312-0.247c-1.1,0-2.225,0.037-3.334,0.103
			c-4.458,0.254-8.865,1.031-13.305,1.715c-1.112,0.164-2.229,0.317-3.36,0.412c-1.131,0.083-2.282,0.141-3.455-0.098
			c-0.58-0.125-1.187-0.35-1.673-0.796c-0.493-0.445-0.754-1.095-0.827-1.707c-0.146-1.217,0.193-2.43,0.78-3.453l0.312,0.559
			l-2.221-0.107c-0.74-0.041-1.478-0.131-2.216-0.194c-0.74-0.052-1.472-0.193-2.207-0.285c-0.737-0.088-1.464-0.249-2.193-0.383
			c-0.732-0.124-1.452-0.316-2.174-0.491c-0.727-0.159-1.434-0.396-2.147-0.609c-0.718-0.196-1.405-0.494-2.108-0.743
			c-0.698-0.26-1.368-0.601-2.054-0.897l0.276,0.029c-0.917,0.231-1.838,0.442-2.767,0.623c-0.929,0.172-1.859,0.331-2.796,0.451
			c-0.937,0.122-1.875,0.232-2.815,0.297c-0.938,0.083-1.89,0.12-2.832,0.156c-1.864,0.053-3.778,0.021-5.652-0.116
			c-1.883-0.134-3.76-0.363-5.621-0.698c-3.705-0.701-7.405-1.752-10.715-3.709c-0.824-0.49-1.614-1.048-2.34-1.698
			c-0.721-0.65-1.389-1.387-1.883-2.26c-0.238-0.439-0.46-0.896-0.591-1.388c-0.157-0.483-0.21-1.05-0.227-1.484
			c-0.012-1.079,0.305-2.052,0.795-2.93l0.414,0.687c-1.13,0.028-2.231,0.077-3.386,0.087c-1.133-0.002-2.265-0.044-3.396-0.112
			c-2.261-0.149-4.518-0.419-6.745-0.867c-2.228-0.438-4.428-1.054-6.555-1.89c-2.112-0.857-4.186-1.927-5.926-3.508
			c-0.851-0.801-1.635-1.733-2.104-2.865c-0.248-0.541-0.392-1.189-0.445-1.792c-0.061-0.591,0.005-1.235,0.161-1.823
			c0.319-1.191,0.991-2.235,1.796-3.091c0.805-0.864,1.734-1.58,2.71-2.194c1.957-1.23,4.092-2.094,6.264-2.769
			c2.177-0.672,4.405-1.142,6.65-1.467l-0.256,0.792c-0.93-0.925-1.772-2.028-2.148-3.362c-0.103-0.313-0.164-0.715-0.195-1.028
			l-0.028-0.502l0.027-0.518c0.07-0.688,0.276-1.355,0.573-1.965c0.594-1.229,1.526-2.215,2.531-3.045
			c1.017-0.826,2.131-1.5,3.28-2.084l0.038,0.808c-2.075-0.832-4.113-1.855-5.85-3.35c-0.86-0.75-1.639-1.63-2.186-2.676
			c-0.253-0.539-0.477-1.073-0.568-1.698c-0.071-0.32-0.062-0.575-0.085-0.855c0.013-0.343,0.009-0.614,0.072-0.917
			c0.181-1.193,0.779-2.257,1.503-3.152c0.737-0.894,1.623-1.63,2.554-2.271c1.876-1.274,3.949-2.175,6.065-2.884
			c4.248-1.403,8.694-2.032,13.135-2.196c1.116-0.046,2.216-0.044,3.332-0.005l1.666,0.045l1.662,0.129
			c1.11,0.063,2.212,0.226,3.313,0.374c1.104,0.132,2.19,0.394,3.285,0.584l-0.412,0.204c0.669-1.411,1.774-2.516,2.965-3.417
			c1.197-0.906,2.513-1.625,3.866-2.229c2.713-1.208,5.586-1.978,8.485-2.501c2.904-0.515,5.848-0.767,8.793-0.8
			c2.955-0.049,5.895,0.317,8.788,0.804c5.787,1.023,11.471,2.539,17.02,4.431c2.775,0.945,5.524,1.966,8.223,3.111
			c1.348,0.575,2.685,1.178,3.988,1.848c0.65,0.337,1.295,0.687,1.914,1.082c0.31,0.195,0.611,0.405,0.896,0.636
			C243.154,34.648,243.456,34.895,243.57,35.25z"/>
	</g>
	<g>
		<path fill="#EFC06A" d="M282.636,49.032c0-6.078-11.193-11.005-25-11.005c-0.615,0-1.224,0.013-1.827,0.032
			c-3.712-4.03-12.686-6.875-23.173-6.875c-13.807,0-25,4.927-25,11.005c0,0.937,0.268,1.847,0.769,2.715
			c-6.82,0.186-12.898,1.576-17.154,3.693c-3.72-0.966-8.053-1.522-12.684-1.522c-13.807,0-25,4.927-25,11.005
			c0,0.918,0.26,1.81,0.741,2.663c-1.008-0.055-2.032-0.086-3.074-0.086c-13.807,0-25,4.927-25,11.005
			c0,4.875,7.204,9.006,17.178,10.452c-1.434,1.387-2.238,2.927-2.238,4.55c0,2.767,2.325,5.292,6.154,7.226
			c-5.167,2.016-8.428,4.958-8.428,8.236c0,6.078,11.193,11.005,25,11.005c3.983,0,7.746-0.412,11.089-1.142
			c2.339,5.01,12.413,8.778,24.487,8.778c13.807,0,25-4.927,25-11.005c0-0.278-0.031-0.553-0.077-0.826
			c4.073,1.268,9.042,2.015,14.409,2.015c13.807,0,25-4.927,25-11.005c0-2.339-1.663-4.506-4.489-6.289
			c0.383,0.007,0.768,0.013,1.155,0.013c13.807,0,25-4.927,25-11.005"/>
		<g>
			<path fill="#010101" d="M282.636,49.032l-0.115-0.967c-0.041-0.322-0.197-0.617-0.29-0.926c-0.082-0.317-0.273-0.584-0.435-0.865
				c-0.162-0.281-0.319-0.564-0.546-0.8c-0.21-0.246-0.412-0.5-0.629-0.74l-0.722-0.652c-0.468-0.449-1.037-0.776-1.551-1.169
				c-0.564-0.318-1.109-0.672-1.69-0.959c-0.59-0.268-1.157-0.587-1.766-0.812c-0.607-0.226-1.196-0.503-1.819-0.687
				c-0.619-0.19-1.227-0.42-1.856-0.578c-0.628-0.16-1.251-0.339-1.883-0.483L267.43,39l-1.921-0.304
				c-0.639-0.113-1.287-0.152-1.931-0.231c-0.643-0.081-1.289-0.13-1.937-0.163c-0.647-0.031-1.293-0.103-1.941-0.1l-1.943-0.034
				l-1.946,0.039l-0.063,0.001l-0.047-0.049c-1.627-1.694-3.732-2.857-5.897-3.765c-1.088-0.452-2.206-0.833-3.339-1.162
				c-1.135-0.322-2.281-0.605-3.44-0.829c-2.316-0.457-4.667-0.734-7.024-0.865c-1.177-0.068-2.365-0.094-3.536-0.094
				c-1.184,0.035-2.376,0.033-3.546,0.138c-1.176,0.058-2.348,0.211-3.52,0.344c-1.165,0.186-2.336,0.343-3.483,0.613
				c-1.158,0.226-2.292,0.547-3.423,0.874l-1.675,0.555l-1.635,0.657c-0.533,0.241-1.056,0.509-1.584,0.761
				c-0.514,0.279-1.009,0.589-1.514,0.882c-0.951,0.666-1.896,1.367-2.617,2.261c-0.775,0.847-1.291,1.906-1.452,3.002
				c-0.017,0.272-0.097,0.563-0.063,0.821c0.016,0.299,0.039,0.595,0.111,0.846c0.099,0.53,0.348,1.059,0.607,1.553l0.229,0.435
				l-0.487,0.025l-2.193,0.113c-0.731,0.042-1.458,0.134-2.188,0.198c-0.73,0.053-1.45,0.195-2.176,0.288
				c-0.728,0.089-1.441,0.25-2.16,0.384c-0.722,0.124-1.427,0.315-2.137,0.489c-0.714,0.159-1.405,0.393-2.104,0.604
				c-0.704,0.194-1.373,0.488-2.059,0.732c-0.683,0.255-1.329,0.589-1.996,0.878l-0.116,0.051l-0.118-0.026l-2.722-0.601
				c-0.915-0.161-1.837-0.286-2.755-0.431c-0.919-0.143-1.852-0.182-2.776-0.278c-0.925-0.107-1.857-0.106-2.787-0.137
				c-0.937-0.035-1.851-0.056-2.791-0.015c-0.939,0.008-1.868,0.06-2.79,0.133c-0.926,0.045-1.85,0.17-2.772,0.273
				c-0.926,0.094-1.837,0.284-2.756,0.42c-0.908,0.194-1.823,0.362-2.72,0.6c-0.896,0.237-1.794,0.473-2.666,0.784
				c-0.889,0.267-1.732,0.646-2.593,0.983c-0.827,0.405-1.669,0.785-2.442,1.278c-0.404,0.221-0.779,0.48-1.143,0.757
				c-0.375,0.261-0.739,0.533-1.059,0.854c-0.34,0.3-0.673,0.606-0.938,0.966l-0.429,0.515l-0.334,0.571
				c-0.48,0.75-0.652,1.617-0.72,2.47l0.047,0.671l0.133,0.604l0.22,0.613l0.291,0.588l0.309,0.623l-0.687-0.014
				c-1.111-0.022-2.236-0.073-3.338-0.074c-1.121,0.033-2.253,0.031-3.354,0.13c-1.108,0.056-2.215,0.187-3.322,0.319
				c-1.102,0.154-2.206,0.317-3.294,0.547l-1.631,0.353l-1.609,0.433c-1.06,0.324-2.125,0.647-3.143,1.082
				c-0.516,0.2-1.027,0.411-1.516,0.665c-0.496,0.241-0.999,0.471-1.461,0.767c-0.473,0.277-0.953,0.547-1.38,0.885l-0.661,0.48
				c-0.207,0.174-0.399,0.363-0.6,0.543c-0.816,0.711-1.447,1.59-1.877,2.529l-0.252,0.73c-0.075,0.245-0.066,0.505-0.107,0.756
				c-0.014,0.109-0.031,0.294-0.044,0.339l0.04,0.419l0.039,0.419c0.02,0.133,0.067,0.238,0.098,0.358
				c0.253,0.938,0.816,1.9,1.558,2.659c0.747,0.764,1.581,1.469,2.522,2.031c0.918,0.593,1.911,1.077,2.917,1.527
				c1.018,0.427,2.056,0.812,3.115,1.137c1.06,0.326,2.135,0.602,3.219,0.842c1.086,0.237,2.182,0.423,3.281,0.594l0.974,0.151
				l-0.7,0.697c-0.851,0.846-1.583,1.828-1.897,2.936c-0.089,0.272-0.131,0.557-0.164,0.838c-0.009,0.119-0.016,0.334-0.029,0.375
				l0.049,0.472l0.048,0.472c0.018,0.156,0.082,0.266,0.119,0.4c0.095,0.257,0.133,0.521,0.298,0.777
				c0.147,0.253,0.252,0.527,0.429,0.765l0.535,0.712c0.197,0.225,0.419,0.431,0.627,0.648c0.201,0.225,0.441,0.413,0.68,0.603
				c0.241,0.187,0.463,0.396,0.719,0.564l0.768,0.51c0.509,0.343,1.072,0.61,1.605,0.919l0.877,0.51l-0.919,0.364
				c-2.012,0.798-3.976,1.785-5.593,3.171c-0.801,0.693-1.504,1.494-1.983,2.401c-0.448,0.917-0.7,1.914-0.482,2.944
				c0.01,0.292,0.097,0.52,0.185,0.74c0.095,0.225,0.128,0.458,0.263,0.681c0.266,0.44,0.488,0.907,0.857,1.29
				c0.171,0.198,0.323,0.411,0.51,0.597l0.587,0.537c0.371,0.379,0.836,0.66,1.26,0.984c0.884,0.607,1.831,1.134,2.814,1.59
				c0.479,0.253,0.993,0.435,1.495,0.642c0.5,0.214,1.012,0.397,1.533,0.56c1.026,0.368,2.088,0.626,3.142,0.913
				c1.07,0.222,2.132,0.482,3.217,0.634c1.077,0.197,2.167,0.307,3.254,0.432c1.091,0.097,2.184,0.18,3.278,0.22
				c1.104,0.026,2.176,0.068,3.284,0.02l1.655-0.04l1.633-0.123c1.09-0.059,2.175-0.216,3.261-0.357
				c1.089-0.127,2.155-0.381,3.233-0.565l0.309-0.053l0.131,0.27c0.49,1.01,1.262,1.878,2.117,2.646
				c0.886,0.742,1.857,1.397,2.895,1.941c1.028,0.561,2.114,1.018,3.214,1.44c0.553,0.203,1.116,0.378,1.674,0.569l1.703,0.484
				c1.146,0.287,2.301,0.544,3.468,0.743c1.165,0.197,2.337,0.376,3.517,0.481c1.177,0.135,2.361,0.191,3.544,0.251
				c1.19,0.033,2.359,0.053,3.557,0.01c1.198-0.001,2.364-0.121,3.547-0.192c1.177-0.135,2.357-0.242,3.523-0.452
				c1.173-0.166,2.327-0.434,3.48-0.693l1.714-0.456l1.685-0.547c1.109-0.4,2.204-0.842,3.252-1.376
				c1.054-0.524,2.043-1.156,2.973-1.861c0.868-0.759,1.746-1.559,2.265-2.579c0.542-0.996,0.846-2.105,0.631-3.268l-0.08-0.434
				l0.467,0.124l3.117,0.829l3.177,0.585c1.062,0.17,2.141,0.245,3.21,0.372c1.068,0.152,2.151,0.122,3.228,0.181l1.61,0.057
				l1.624-0.033c1.089,0,2.152-0.114,3.229-0.171c1.069-0.121,2.147-0.203,3.21-0.384l1.596-0.254l1.581-0.333
				c1.053-0.227,2.094-0.509,3.12-0.825l1.532-0.505l1.499-0.591c0.98-0.437,1.949-0.902,2.859-1.467
				c0.916-0.554,1.762-1.21,2.529-1.947c0.711-0.773,1.398-1.618,1.705-2.625c0.225-0.483,0.229-1.012,0.303-1.528
				c0.007-0.232-0.037-0.529-0.053-0.791c-0.025-0.269-0.123-0.501-0.178-0.755c-0.315-0.996-0.931-1.893-1.652-2.67
				c-0.728-0.784-1.604-1.415-2.492-2.016l-0.416-0.282l0.496,0.015c1.267,0.037,2.534-0.01,3.806-0.033l1.896-0.118
				c0.634-0.025,1.262-0.125,1.893-0.183c0.632-0.06,1.261-0.14,1.887-0.248c0.624-0.107,1.257-0.174,1.875-0.318
				c0.62-0.133,1.244-0.249,1.861-0.395l1.841-0.482l1.811-0.583c0.598-0.213,1.182-0.46,1.773-0.688
				c0.582-0.25,1.146-0.541,1.722-0.81c0.549-0.316,1.105-0.622,1.638-0.966c0.503-0.384,1.06-0.704,1.508-1.156
				c0.232-0.215,0.476-0.42,0.699-0.644l0.611-0.729c0.224-0.229,0.356-0.522,0.524-0.79c0.165-0.271,0.334-0.542,0.417-0.851
				c0.088-0.303,0.249-0.59,0.277-0.907l0.113-0.946l-0.104,0.948c-0.025,0.318-0.184,0.607-0.27,0.912
				c-0.08,0.312-0.247,0.583-0.41,0.857c-0.166,0.271-0.297,0.567-0.519,0.799l-0.607,0.737c-0.223,0.227-0.465,0.435-0.696,0.653
				c-0.447,0.459-1.001,0.785-1.504,1.175c-0.53,0.351-1.087,0.664-1.636,0.986c-0.573,0.275-1.139,0.572-1.721,0.829
				c-0.591,0.235-1.176,0.489-1.773,0.708l-1.812,0.603l-1.844,0.502c-0.617,0.153-1.243,0.275-1.864,0.414
				c-0.619,0.15-1.253,0.224-1.88,0.337c-0.627,0.114-1.258,0.201-1.892,0.267c-0.633,0.065-1.262,0.171-1.899,0.202l-1.908,0.137
				c-1.269,0.035-2.543,0.095-3.818,0.069l0.08-0.267c0.909,0.604,1.811,1.237,2.569,2.04c0.754,0.798,1.407,1.719,1.758,2.792
				c0.064,0.273,0.17,0.553,0.198,0.823c0.02,0.278,0.063,0.521,0.062,0.827c-0.068,0.556-0.076,1.128-0.308,1.646
				c-0.324,1.084-1.037,1.977-1.773,2.792c-0.789,0.773-1.656,1.457-2.589,2.034c-0.928,0.587-1.91,1.071-2.905,1.525l-1.519,0.616
				l-1.551,0.523c-1.04,0.325-2.094,0.614-3.158,0.847l-1.599,0.341l-1.612,0.263c-1.074,0.187-2.16,0.273-3.242,0.399
				c-1.087,0.062-2.182,0.181-3.262,0.184l-1.625,0.039l-1.638-0.052c-1.087-0.056-2.18-0.022-3.261-0.172
				c-1.082-0.125-2.171-0.197-3.247-0.366l-3.218-0.583l-3.168-0.832l0.387-0.31c0.232,1.205-0.097,2.544-0.693,3.611
				c-0.571,1.123-1.497,1.969-2.41,2.77c-0.968,0.741-1.992,1.397-3.072,1.94c-1.076,0.553-2.194,1.008-3.325,1.42l-1.715,0.563
				l-1.741,0.469c-1.171,0.268-2.342,0.543-3.53,0.715c-1.182,0.217-2.377,0.33-3.569,0.47c-1.196,0.078-2.406,0.202-3.594,0.207
				c-1.188,0.047-2.402,0.031-3.596,0.001c-1.198-0.057-2.397-0.109-3.591-0.242c-1.195-0.103-2.385-0.28-3.569-0.477
				c-1.186-0.198-2.36-0.456-3.528-0.744l-1.738-0.488c-0.571-0.193-1.147-0.371-1.714-0.577c-1.128-0.428-2.246-0.894-3.313-1.472
				c-1.076-0.561-2.097-1.24-3.04-2.027c-0.916-0.816-1.764-1.752-2.323-2.898l0.439,0.217c-1.097,0.191-2.182,0.453-3.286,0.585
				c-1.103,0.147-2.203,0.311-3.319,0.375l-1.668,0.129l-1.655,0.045c-1.098,0.053-2.233,0.014-3.336-0.009
				c-1.11-0.037-2.221-0.118-3.328-0.212c-1.106-0.123-2.214-0.232-3.311-0.429c-1.104-0.151-2.188-0.413-3.28-0.635
				c-1.078-0.289-2.163-0.55-3.219-0.924c-0.534-0.164-1.061-0.352-1.577-0.57c-0.52-0.212-1.048-0.398-1.548-0.658
				c-1.02-0.469-2.011-1.015-2.947-1.654c-0.454-0.342-0.941-0.637-1.349-1.047l-0.635-0.58c-0.204-0.202-0.378-0.439-0.567-0.658
				c-0.402-0.42-0.671-0.952-0.971-1.458c-0.151-0.251-0.222-0.573-0.332-0.859c-0.108-0.297-0.201-0.592-0.209-0.858
				c-0.246-1.149,0.043-2.427,0.567-3.469c0.55-1.051,1.331-1.935,2.193-2.686c1.74-1.499,3.781-2.523,5.858-3.357l-0.042,0.874
				c-0.562-0.322-1.147-0.598-1.688-0.959l-0.815-0.538c-0.272-0.178-0.516-0.403-0.774-0.603c-0.257-0.204-0.515-0.406-0.74-0.652
				c-0.23-0.238-0.472-0.464-0.692-0.713l-0.607-0.802c-0.2-0.269-0.333-0.59-0.501-0.885c-0.18-0.282-0.262-0.651-0.375-0.99
				c-0.131-0.357-0.162-0.671-0.188-0.982l-0.05-0.472c0.002-0.274,0.018-0.375,0.027-0.572c0.037-0.343,0.091-0.691,0.195-1.02
				c0.378-1.344,1.228-2.449,2.163-3.373l0.274,0.848c-1.121-0.177-2.24-0.371-3.349-0.617c-1.108-0.249-2.209-0.535-3.297-0.874
				c-1.087-0.338-2.157-0.738-3.21-1.184c-1.042-0.471-2.073-0.978-3.042-1.607c-0.987-0.595-1.887-1.352-2.702-2.195
				c-0.814-0.858-1.456-1.882-1.778-3.112c-0.102-0.318-0.132-0.602-0.148-0.876l-0.038-0.419c0.006-0.234,0.03-0.328,0.045-0.498
				c0.045-0.302,0.047-0.616,0.134-0.907l0.3-0.862c0.5-1.094,1.226-2.07,2.104-2.835c0.217-0.195,0.429-0.398,0.651-0.584
				l0.704-0.509c0.458-0.357,0.96-0.639,1.457-0.928c0.488-0.308,1.009-0.546,1.524-0.794c0.51-0.262,1.038-0.479,1.57-0.683
				c1.052-0.445,2.144-0.772,3.231-1.1l1.647-0.438l1.664-0.354c1.11-0.231,2.233-0.394,3.355-0.546
				c1.125-0.13,2.25-0.26,3.387-0.314c1.139-0.097,2.256-0.09,3.38-0.12c1.146,0.003,2.267,0.059,3.401,0.085l-0.379,0.609
				l-0.329-0.671l-0.251-0.71l-0.16-0.77l-0.047-0.73c0.069-1.005,0.297-2.021,0.833-2.86l0.379-0.639l0.47-0.564
				c0.297-0.395,0.654-0.722,1.018-1.042c0.347-0.342,0.732-0.629,1.128-0.903c0.384-0.29,0.779-0.562,1.199-0.789
				c0.811-0.513,1.68-0.902,2.536-1.317c0.884-0.344,1.754-0.73,2.661-1c0.895-0.315,1.81-0.553,2.725-0.792
				c0.914-0.239,1.845-0.408,2.769-0.602c0.934-0.136,1.86-0.325,2.799-0.417c0.938-0.103,1.872-0.225,2.818-0.269
				c0.945-0.072,1.887-0.121,2.82-0.125c0.933-0.037,1.891-0.014,2.826,0.024c0.941,0.035,1.885,0.037,2.822,0.148
				c0.937,0.1,1.88,0.143,2.812,0.291c0.932,0.15,1.865,0.28,2.794,0.446l2.762,0.62l-0.233,0.024
				c0.685-0.296,1.352-0.636,2.05-0.895c0.701-0.248,1.387-0.545,2.104-0.741c0.712-0.212,1.418-0.449,2.144-0.607
				c0.721-0.174,1.438-0.366,2.171-0.489c0.729-0.134,1.454-0.295,2.19-0.382c0.734-0.092,1.465-0.232,2.204-0.285
				c0.737-0.062,1.474-0.152,2.213-0.193l2.219-0.106l-0.257,0.46c-0.288-0.553-0.554-1.11-0.674-1.75
				c-0.083-0.324-0.103-0.62-0.118-0.914c-0.035-0.334,0.05-0.631,0.071-0.948c0.186-1.236,0.772-2.4,1.598-3.299
				c0.778-0.954,1.764-1.678,2.753-2.366c0.521-0.301,1.033-0.619,1.562-0.904c0.542-0.258,1.077-0.53,1.624-0.774l1.669-0.665
				l1.705-0.559c1.147-0.328,2.3-0.65,3.472-0.875c1.164-0.269,2.348-0.424,3.525-0.608c1.186-0.131,2.367-0.281,3.562-0.337
				c1.194-0.102,2.377-0.096,3.563-0.126c1.201,0.006,2.385,0.031,3.576,0.109c2.377,0.155,4.746,0.458,7.08,0.94
				c1.168,0.237,2.323,0.534,3.468,0.87c1.142,0.343,2.269,0.739,3.366,1.208c2.186,0.941,4.314,2.138,5.975,3.898l-0.11-0.047
				l1.95-0.021l1.953,0.053c0.651,0.003,1.299,0.081,1.948,0.118c0.65,0.039,1.299,0.095,1.944,0.182
				c0.645,0.086,1.295,0.131,1.936,0.25l1.926,0.324l1.907,0.414c0.634,0.15,1.258,0.336,1.887,0.503
				c0.63,0.164,1.238,0.401,1.858,0.598c0.623,0.189,1.212,0.474,1.819,0.706c0.608,0.231,1.176,0.558,1.766,0.832
				c0.58,0.294,1.125,0.655,1.688,0.979c0.514,0.401,1.08,0.733,1.547,1.189l0.718,0.662c0.217,0.243,0.417,0.5,0.626,0.75
				c0.225,0.239,0.381,0.525,0.541,0.809c0.158,0.284,0.348,0.553,0.428,0.873c0.09,0.312,0.244,0.609,0.281,0.931L282.636,49.032z"
				/>
		</g>
	</g>
	<g>
		<path fill="#EFC06A" d="M202.597,366.101"/>
	</g>
	<g id="Layer_5_3_">
		<g>
			<path fill="#EFC06A" d="M-434.938,196.968"/>
		</g>
		<g>
			<path fill="#EFC06A" d="M-414.859,115.223"/>
		</g>
	</g>
	<g>
		<path fill="#EFC06A" stroke="#000000" stroke-miterlimit="10" d="M100.556,192.973c3.104-7.765,6.018-13.877,4.906-22.307
			c-1.106-6.433-6.239-14.744-10.011-19.405c-3.55-4.435-4.969-19.386-4.969-19.386l-5.882,0.568
			c-0.516-3.767-0.477-7.715-0.02-11.355c0.443-4.215,2.661-9.762,1.553-13.978c-0.666-2.219-11.98-16.639-20.191-16.861
			c-6.212-0.221-15.289-6.844-30.394,11.981c-9.282,11.568-13.313,28.62-16.419,42.82c-1.107,4.657,0,9.54,0.443,14.42
			c0.443,7.545-0.223,15.976,2.441,23.296c1.998,5.104,6.877,8.432,10.649,12.204c4.881,5.324,10.206,8.43,15.976,12.202
			c4.656,3.328,9.538,7.543,15.752,6.434C64.392,213.606,94.563,206.95,100.556,192.973z"/>
		<ellipse cx="52.996" cy="114.841" rx="2.538" ry="5.077"/>
		<ellipse cx="77.01" cy="118.356" rx="2.538" ry="5.076"/>
		<line fill="#EFC06A" stroke="#000000" stroke-miterlimit="10" x1="90.482" y1="131.875" x2="41.915" y2="136.854"/>
		<path fill="#EFC06A" stroke="#000000" stroke-miterlimit="10" d="M115.877,210.689c2.05,0,3.711-5.594,3.711-12.494
			s-1.661-12.496-3.711-12.496c-2.048,0-6.023,2.797-6.023,9.697C109.854,202.299,113.829,210.689,115.877,210.689z"/>
		<line fill="#EFC06A" stroke="#000000" stroke-miterlimit="10" x1="115.877" y1="210.689" x2="74.473" y2="210.689"/>
		<line fill="#EFC06A" stroke="#000000" stroke-miterlimit="10" x1="101.313" y1="213.327" x2="68.106" y2="212.657"/>
		<line fill="#EFC06A" stroke="#000000" stroke-miterlimit="10" x1="104.052" y1="168.143" x2="87.847" y2="168.143"/>
		<line fill="#EFC06A" stroke="#000000" stroke-miterlimit="10" x1="45.577" y1="191.669" x2="29.371" y2="191.669"/>
		<line fill="#EFC06A" stroke="#000000" stroke-miterlimit="10" x1="37.279" y1="156.916" x2="21.073" y2="156.916"/>
		<line fill="#EFC06A" stroke="#000000" stroke-miterlimit="10" x1="64.708" y1="178.782" x2="54.437" y2="178.782"/>
		<line fill="#EFC06A" stroke="#000000" stroke-miterlimit="10" x1="47.052" y1="102.127" x2="36.779" y2="102.127"/>
		<line fill="#EFC06A" stroke="#000000" stroke-miterlimit="10" x1="93.573" y1="200.832" x2="84.044" y2="200.832"/>
		<line fill="none" stroke="#000000" stroke-miterlimit="10" x1="32.496" y1="166.97" x2="32.496" y2="207.971"/>
		<path fill="none" stroke="#000000" stroke-miterlimit="10" d="M23.7,211.979c0,0,5.671,6.698,8.796-4.009"/>
		<path fill="none" stroke="#000000" stroke-miterlimit="10" d="M24.675,218.058c0,0,9.318,6.899,7.821-10.087"/>
		<path fill="none" stroke="#000000" stroke-miterlimit="10" d="M32.887,217.213c0,0,5.791-0.163-0.229-9.111"/>
		<path fill="none" stroke="#000000" stroke-miterlimit="10" d="M38.548,209.631c0,0-3.153-2.002-5.89-3.221"/>
		<path fill="#EFC06A" stroke="#000000" stroke-miterlimit="10" d="M77.508,202.412"/>
		<path fill="#EFC06A" stroke="#000000" stroke-miterlimit="10" d="M101.313,213.327c2.05,0,3.711-5.594,3.711-12.494
			s-1.661-12.496-3.711-12.496c-2.048,0-6.023,2.797-6.023,9.697C95.29,204.937,99.266,213.327,101.313,213.327z"/>
	</g>
	<path fill="#EFC06A" stroke="#010101" stroke-miterlimit="10" d="M226.969,37.74c-5.069-2.941-11.404-4.692-18.281-4.692
		c-16.636,0-30.121,10.226-30.121,22.84c0,12.613,13.485,22.838,30.121,22.838c10.835,0,20.329-4.339,25.636-10.849"/>
	<path fill="#EFC06A" stroke="#010101" stroke-miterlimit="10" d="M226.808,59.547"/>
	<circle fill="#EFC06A" stroke="#010101" stroke-miterlimit="10" cx="219.641" cy="54.409" r="7.333"/>
	<circle fill="#EFC06A" stroke="#010101" stroke-miterlimit="10" cx="216.475" cy="54.409" r="7.333"/>
	<circle fill="#EFC06A" stroke="#010101" stroke-miterlimit="10" cx="195.309" cy="52.214" r="7.333"/>
	<circle fill="#EFC06A" stroke="#010101" stroke-miterlimit="10" cx="192.143" cy="52.214" r="7.333"/>
	<line fill="none" stroke="#010101" stroke-miterlimit="10" x1="238.298" y1="51.696" x2="226.974" y2="54.409"/>
	<line fill="none" stroke="#010101" stroke-miterlimit="10" x1="180.718" y1="47.395" x2="184.974" y2="50.669"/>
	<path fill="#EFC06A" stroke="#010101" stroke-miterlimit="10" d="M217.976,38.38c3.332-2.396,8.832,4,8.832,4"/>
	<path fill="#EFC06A" stroke="#010101" stroke-miterlimit="10" d="M191.974,41.713c0.465,1.795,1.217-2.218,7.502,0"/>
	<path fill="#EFC06A" stroke="#010101" stroke-miterlimit="10" d="M199.476,98.653c-1.803,0.914-3.858,0.087-8.334,0.32
		c-1.75,0.092-4.35-12.176-3.166-11.26c3.51,2.717,13.164,0,13.164,0S201.941,97.399,199.476,98.653z"/>
	<path fill="#EFC06A" stroke="#010101" stroke-miterlimit="10" d="M197.058,88.458c0.059-0.379,0-0.356,0-0.794
		c0-1.749-0.504-3.167-1.125-3.167s-1.125,1.418-1.125,3.167c0,0.512,0.008,0.739,0.084,1.168
		C195.173,88.823,196.788,88.495,197.058,88.458z"/>
	<path fill="#EFC06A" stroke="#010101" stroke-miterlimit="10" d="M192.317,88.694c0.064-0.396,0.121-0.566,0.121-1.029
		c0-1.749-0.787-2.964-1.406-3.01c-0.966-0.071-1.125,1.418-1.125,3.167c0,0.231,0.01,0.452,0.025,0.669
		C190.394,88.587,192.067,88.622,192.317,88.694z"/>
	<polygon fill="#EFC06A" stroke="#010101" stroke-miterlimit="10" points="205.661,66.547 228.404,90.713 225.57,79.547 
		243.57,88.658 231.571,74.713 243.57,75.38 213.749,60.658 	"/>
	<polygon fill="#EFC06A" stroke="#010101" stroke-miterlimit="10" points="201.808,66.547 179.065,90.713 181.899,79.547 
		163.899,88.658 175.898,74.713 163.899,75.38 193.72,60.658 	"/>
	<ellipse fill="#EFC06A" stroke="#010101" stroke-miterlimit="10" cx="203.856" cy="61" rx="13.119" ry="6.619"/>
	<path fill="#EFC06A" stroke="#010101" stroke-miterlimit="10" d="M192.882,20.475l1.713,15.311l0,0
		c0.086,0.754,3.434,0.999,7.481,0.547c4.048-0.453,7.259-1.432,7.177-2.186l0,0l-2.436-16.572L192.882,20.475z"/>
	<path fill="#EFC06A" stroke="#010101" stroke-miterlimit="10" d="M199.306,17.653c3.984-0.848,7.298-1.374,7.523-0.188
		c0.143,0.746-2.871,2.235-6.854,3.083c-3.985,0.848-6.791,0.624-7.094-0.072C192.37,19.296,195.321,18.5,199.306,17.653z"/>
	<path fill="#EFC06A" stroke="#010101" stroke-miterlimit="10" d="M208.86,34.688l1.922-0.188l1.281,1.484l0.3-1.338
		c0.164,0.002,0.334,0.002,0.507,0.002l1.943,0.476l0.482-0.579c0.205-0.016,0.412-0.033,0.621-0.053l1.742,0.426l0.602-0.72
		c0.117-0.019,0.233-0.036,0.349-0.056l2.022,0.494l0.271-0.968c0.042-0.011,0.084-0.021,0.125-0.032l2.411,0.397l-0.178-0.761
		c0.396-0.219,1.759-0.373,2.084-0.522c0.055-0.026-1.631-0.63-1.678-0.685l0.364-1.006l-1.548,0.565
		c-0.18-0.03-0.375-0.056-0.586-0.078l0.166-1.438l-2.241,1.355c-0.267,0.004-0.546,0.01-0.831,0.021l-1.49-1.377l-0.828,1.541
		c-0.133,0.014-0.265,0.025-0.398,0.041c-0.109,0.012-0.215,0.027-0.324,0.041l-1.418-1.311l-0.248,1.545
		c-0.332,0.057-1.627-0.982-1.627-0.982l-0.372,1.379c-0.063,0.015-0.12,0.029-0.182,0.046l-1.603-0.769v1.244
		c-0.908,0.334-1.438,0.682-1.402,0.991C209.115,34.028,208.604,34.58,208.86,34.688z"/>
	<path fill="#EFC06A" stroke="#010101" stroke-miterlimit="10" d="M194.118,31.524c7.188,3.043,14.452-2.022,14.452-2.022"/>
	<path fill="#EFC06A" stroke="#010101" stroke-miterlimit="10" d="M193.19,23.77c7.188,3.041,14.453-2.023,14.453-2.023"/>
	<g>
		<path fill="#EFC06A" d="M200.86,18.426c7.188-1.515,1.312,0.641,1.312,0.641"/>
		<path fill="#010101" d="M203.019,18.585c0.258-0.131,0.552-0.301,0.857-0.473c0.075-0.044,0.149-0.089,0.219-0.136
			c0.055-0.023,0.158-0.156,0.099-0.054c-0.019,0.042,0.005,0.167,0.075,0.202c0.001,0.012,0.025,0.016,0.018,0.014
			c-0.031,0-0.052-0.008-0.099-0.006c-0.078-0.002-0.173,0.008-0.261,0.014c-0.74,0.07-1.516,0.177-2.092,0.225
			c-0.58,0.053-0.976,0.055-0.976,0.055s1.44-0.619,3.028-0.777c0.104-0.004,0.205-0.012,0.318-0.006
			c0.051,0,0.125,0.012,0.188,0.022c0.04,0.008,0.106,0.036,0.151,0.063c0.102,0.069,0.158,0.235,0.112,0.326
			c-0.071,0.172-0.129,0.178-0.176,0.226c-0.054,0.042-0.095,0.061-0.142,0.091c-0.09,0.049-0.178,0.092-0.264,0.132
			c-0.343,0.155-0.673,0.249-0.951,0.341c-0.562,0.166-0.953,0.223-0.953,0.223S202.509,18.86,203.019,18.585z"/>
	</g>
	<g>
		<path fill="#EFC06A" d="M198.048,18.934c-7.41,2.15,1.938,0.633,1.938,0.633"/>
		<path fill="#010101" d="M198.778,19.891c-0.729,0.162-1.702,0.357-2.709,0.426c-0.26,0.009-0.494,0.031-0.801-0.016
			c-0.027,0-0.104-0.027-0.161-0.056c-0.011,0.001-0.095-0.052-0.138-0.164c-0.037-0.116-0.008-0.153,0.014-0.206
			c0.066-0.127,0.107-0.13,0.139-0.156c0.036-0.024,0.077-0.054,0.104-0.064c0.122-0.064,0.239-0.108,0.352-0.151
			c0.451-0.167,0.88-0.253,1.24-0.349c0.731-0.165,1.229-0.223,1.229-0.223s-0.457,0.213-1.145,0.491
			c-0.344,0.136-0.747,0.306-1.156,0.488c-0.1,0.047-0.201,0.095-0.287,0.147c-0.027,0.014-0.033,0.024-0.047,0.035
			c-0.019,0.006-0.029,0.036,0.014-0.033c0.002-0.026,0.013-0.039,0.002-0.127c-0.027-0.086-0.1-0.108-0.077-0.103
			c-0.001-0.008-0.022-0.005,0.013-0.003c0.178,0.023,0.441,0.007,0.676-0.009c0.969-0.071,1.959-0.161,2.701-0.205
			c0.742-0.046,1.244-0.048,1.244-0.048S199.509,19.727,198.778,19.891z"/>
	</g>
	<path fill="#EFC06A" stroke="#010101" stroke-miterlimit="10" d="M253.307,105.443c-0.233-6.686-9.085-12.063-19.99-12.063
		c-10.766,0-19.521,5.242-19.97,11.807c-8.559,1.399-14.876,6.191-14.876,11.905c0,6.81,8.961,12.331,20.013,12.331
		c5.526,0,10.53-1.381,14.152-3.613c3.622,2.231,8.626,3.613,14.152,3.613c11.052,0,20.013-5.521,20.013-12.331
		C266.801,111.689,261.154,107.11,253.307,105.443z"/>
</g>
</svg>
