<?xml version="1.0" encoding="utf-8"?>
<!-- Generator: Adobe Illustrator 16.0.4, SVG Export Plug-In . SVG Version: 6.00 Build 0)  -->
<!DOCTYPE svg PUBLIC "-//W3C//DTD SVG 1.1//EN" "http://www.w3.org/Graphics/SVG/1.1/DTD/svg11.dtd">
<svg version="1.1" id="Layer_1" xmlns="http://www.w3.org/2000/svg" xmlns:xlink="http://www.w3.org/1999/xlink" x="0px" y="0px"
	 width="288px" height="256px" viewBox="0 0 288 256" enable-background="new 0 0 288 256" xml:space="preserve">
<g id="Bakgrund">
	<g>
		<polygon points="4.333,202.859 9.942,190.833 9.955,190.807 9.983,190.799 34.618,184.016 34.48,184.205 33.068,161.543 
			33.041,161.104 33.444,161.286 52.458,169.921 52.035,170.223 50.935,158.432 50.895,158.008 51.313,158.092 75.069,162.85 
			74.649,163.17 75.627,148.752 75.663,148.229 76.146,148.434 96.823,157.157 96.432,157.2 111.747,146.175 111.976,146.011 
			112.22,146.154 125.233,153.8 124.829,153.77 143.816,146.07 144.097,145.957 144.325,146.158 152.656,153.493 152.1,153.432 
			170.449,143.461 170.871,143.232 171.077,143.664 175.062,152.004 174.552,151.771 194.227,146.469 194.477,146.4 194.643,146.6 
			203.625,157.281 203.204,157.168 225.552,149.205 225.913,149.076 226.001,149.449 228.646,160.786 228.255,160.547 
			250.932,154.918 251.202,154.852 251.273,155.119 254.256,166.124 253.945,165.936 268.962,162.848 269.033,162.832 
			269.096,162.869 279.898,169.418 279.77,169.637 268.904,163.186 269.038,163.208 254.055,166.454 253.811,166.507 
			253.744,166.264 250.727,155.27 251.068,155.471 228.411,161.174 228.094,161.254 228.02,160.936 225.333,149.605 225.782,149.85 
			203.462,157.887 203.213,157.977 203.041,157.773 194.023,147.122 194.439,147.252 174.782,152.618 174.43,152.714 
			174.271,152.385 170.257,144.059 170.885,144.26 152.566,154.29 152.268,154.454 152.01,154.229 143.675,146.896 144.184,146.984 
			125.172,154.619 124.961,154.704 124.767,154.589 111.78,146.9 112.252,146.88 96.901,157.854 96.717,157.986 96.51,157.896 
			75.854,149.121 76.373,148.805 75.351,163.219 75.322,163.618 74.931,163.539 51.188,158.713 51.565,158.373 52.632,170.167 
			52.679,170.684 52.209,170.467 33.224,161.77 33.599,161.512 34.852,184.184 34.861,184.335 34.715,184.374 10.017,190.922 
			10.058,190.889 		"/>
	</g>
	<g>
		<line fill="none" x1="34.667" y1="184.193" x2="29.875" y2="108.527"/>
		<polygon points="34.167,184.227 29.875,108.527 35.166,184.163 		"/>
	</g>
	<g>
		<line fill="none" x1="10.5" y1="190.699" x2="7.25" y2="175.777"/>
		<polygon points="10.011,190.807 7.25,175.777 10.989,190.593 		"/>
	</g>
	<g>
		<line fill="none" x1="52.333" y1="170.193" x2="46" y2="94.661"/>
		<polygon points="51.835,170.236 46,94.661 52.832,170.152 		"/>
	</g>
	<g>
		<line fill="none" x1="74.984" y1="163.641" x2="79.167" y2="97.694"/>
		<polygon points="74.485,163.607 79.167,97.694 75.483,163.671 		"/>
	</g>
	<g>
		<line fill="none" x1="96.667" y1="157.527" x2="96.531" y2="120.694"/>
		<polygon points="96.167,157.529 96.531,120.694 97.167,157.525 		"/>
	</g>
	<g>
		<line fill="none" x1="111.967" y1="146.443" x2="111.832" y2="109.611"/>
		<polygon points="111.467,146.445 111.832,109.611 112.467,146.441 		"/>
	</g>
	<g>
		<line fill="none" x1="144.068" y1="146.443" x2="146.5" y2="109.611"/>
		<polygon points="143.569,146.411 146.5,109.611 144.566,146.479 		"/>
	</g>
	<g>
		<line fill="none" x1="125" y1="154.193" x2="127.432" y2="117.361"/>
		<polygon points="124.501,154.161 127.432,117.361 125.499,154.229 		"/>
	</g>
	<g>
		<line fill="none" x1="152.547" y1="154.193" x2="154.979" y2="134.277"/>
		<polygon points="152.051,154.134 154.979,134.277 153.043,154.255 		"/>
	</g>
	<g>
		<line fill="none" x1="170.762" y1="144.621" x2="173.193" y2="124.704"/>
		<polygon points="170.266,144.561 173.193,124.704 171.258,144.682 		"/>
	</g>
	<g>
		<line fill="none" x1="174.93" y1="152.346" x2="187.25" y2="90.527"/>
		<polygon points="174.439,152.247 187.25,90.527 175.42,152.441 		"/>
	</g>
	<g>
		<line fill="none" x1="194.496" y1="146.443" x2="200.656" y2="91.527"/>
		<polygon points="193.999,146.389 200.656,91.527 194.993,146.5 		"/>
	</g>
	<g>
		<line fill="none" x1="203.777" y1="157.566" x2="206.857" y2="124.146"/>
		<polygon points="203.279,157.521 206.857,124.146 204.275,157.613 		"/>
	</g>
	<g>
		<line fill="none" x1="225.309" y1="149.693" x2="231.125" y2="97.402"/>
		<polygon points="224.812,149.639 231.125,97.402 225.807,149.749 		"/>
	</g>
	<g>
		<line fill="none" x1="228.559" y1="160.637" x2="234.75" y2="112.215"/>
		<polygon points="228.062,160.573 234.75,112.215 229.055,160.7 		"/>
	</g>
	<g>
		<line fill="none" x1="250.775" y1="155.211" x2="250.775" y2="105.027"/>
		<polygon points="250.275,155.211 250.775,105.027 251.275,155.211 		"/>
	</g>
	<g>
		<line fill="none" x1="254.57" y1="165.771" x2="256.285" y2="133.277"/>
		<polygon points="254.072,165.744 256.285,133.277 255.07,165.797 		"/>
	</g>
	<g>
		<line fill="none" x1="269.049" y1="163.045" x2="270.764" y2="112.215"/>
		<polygon points="268.549,163.027 270.764,112.215 269.549,163.062 		"/>
	</g>
</g>
<g id="Layer_6">
	<rect x="136.173" y="125.546" fill="#EFC06A" stroke="#000000" stroke-miterlimit="10" width="63.244" height="82.433"/>
	<path fill="#EFC06A" stroke="#000000" stroke-miterlimit="10" d="M204.229,199.066c0-10.06-8.155-18.215-18.215-18.215
		c-2.033,0-3.979,0.347-5.806,0.961c1.718-2.778,2.726-6.042,2.726-9.549c0-10.06-8.155-18.215-18.215-18.215
		c-0.115,0-0.227,0.015-0.34,0.018c0.217-1.124,0.34-2.28,0.34-3.469c0-10.06-8.156-18.215-18.216-18.215
		c-6.844,0-12.799,3.778-15.911,9.36c-2.779-1.718-6.043-2.727-9.55-2.727c-10.06,0-18.215,8.154-18.215,18.215
		c0,2.922,0.705,5.674,1.928,8.12c-5.202,3.207-8.681,8.938-8.681,15.499c0,3.82,1.181,7.363,3.191,10.292
		c-6.195,2.907-10.495,9.185-10.495,16.479c0,9.649,7.511,17.525,17.002,18.152c0,0.021-0.003,0.041-0.003,0.062
		c0,10.06,8.155,18.215,18.215,18.215c8.66,0,15.896-6.053,17.744-14.153c3.125,2.521,7.095,4.037,11.423,4.037
		c2.532,0,4.944-0.521,7.137-1.454c3.251,4.979,8.863,8.273,15.252,8.273c10.06,0,18.216-8.154,18.216-18.215
		c0-2.289-0.441-4.469-1.212-6.486C199.375,213.427,204.229,206.821,204.229,199.066z"/>
</g>
<g id="Layer_5" display="none">
	<g display="inline">
		<line fill="none" x1="91.195" y1="155.211" x2="128.95" y2="252.336"/>
		<polygon points="91.661,155.029 128.95,252.336 90.729,155.393 		"/>
	</g>
	<g display="inline">
		<line fill="none" x1="227.816" y1="158.666" x2="278.475" y2="250.357"/>
		<polygon points="228.255,158.424 278.475,250.357 227.38,158.908 		"/>
	</g>
	<g display="inline">
		<path fill="#EFC06A" d="M186.156,184.701"/>
	</g>
	<g display="inline">
		<path fill="#EFC06A" d="M206.234,102.956"/>
	</g>
	<g display="inline">
		<line fill="none" x1="235.936" y1="173.359" x2="235.936" y2="220.736"/>
		<polygon points="236.436,173.359 235.936,220.736 235.436,173.359 		"/>
	</g>
	<g display="inline">
		<line fill="none" x1="228.277" y1="159.501" x2="227.816" y2="213.309"/>
		<polygon points="228.777,159.505 227.816,213.309 227.777,159.497 		"/>
	</g>
	<g display="inline">
		<line fill="none" x1="261.229" y1="211.464" x2="259.027" y2="248"/>
		<polygon points="261.729,211.494 259.027,248 260.729,211.434 		"/>
	</g>
	<path display="inline" fill="#EFC06A" stroke="#000000" stroke-miterlimit="10" d="M262.598,206.994
		c-5.755,5.729-13.894,10.291-19.322,14.71c-11.275,9.18-22.334,16.739-36.207,21.433c-15.457,5.229-29.151,4.879-44.988,2.127
		c-6.426-1.117-12.791-2.529-19.252-3.424c-6.411-0.889-15.202-1.666-19.201-7.537c-1.045-1.527-3.35,0.182-2.31,1.706
		c6.673,9.789,24.869,9.249,35.126,11.171c8.387,1.564,16.789,3.385,25.342,3.51c8.152,0.121,16.251-1.836,24.013-4.143
		c15.938-4.742,28.25-13.633,40.994-24.008c5.171-4.211,11.979-8.184,17.276-13.178
		C263.456,208.645,262.961,207.854,262.598,206.994z"/>
	<path display="inline" fill="#EFC06A" stroke="#000000" stroke-miterlimit="10" d="M248.669,186.953
		c-5.757,5.73-13.894,10.291-19.323,14.714c-11.275,9.177-22.332,16.739-36.209,21.429c-15.455,5.229-29.148,4.879-44.988,2.127
		c-6.424-1.115-12.791-2.524-19.251-3.423c-5.914-0.821-13.804-1.595-18.139-6.309c-0.084,1.146-0.333,2.269-0.747,3.34
		c7.986,6.819,23.376,6.601,32.504,8.31c8.383,1.566,16.79,3.385,25.34,3.51c8.152,0.121,16.25-1.836,24.011-4.142
		c15.938-4.741,28.252-13.634,40.995-24.01c5.171-4.21,11.979-8.185,17.277-13.176C249.525,188.605,249.029,187.812,248.669,186.953
		z"/>
	<path display="inline" fill="#EFC06A" stroke="#000000" stroke-miterlimit="10" d="M256.148,132.609
		c-2.563,11.258-17.402,18.386-25.768,25.197c-11.275,9.18-22.333,16.738-36.21,21.432c-15.452,5.227-29.147,4.878-44.985,2.127
		c-6.428-1.116-12.792-2.528-19.252-3.424c-2.917-0.405-6.319-0.81-9.543-1.657c-0.545,0.998-1.239,1.903-2.09,2.655
		c8.118,2.858,18.43,3.064,25.249,4.34c8.385,1.57,16.79,3.388,25.342,3.512c8.153,0.122,16.25-1.835,24.01-4.145
		c15.939-4.737,28.252-13.629,40.996-24.006c8.793-7.16,22.359-13.611,25.091-25.604
		C259.396,131.23,256.559,130.816,256.148,132.609z"/>
	<path display="inline" fill="#EFC06A" stroke="#000000" stroke-miterlimit="10" d="M116.391,222.262
		c-0.324,2.156-2.332,3.641-4.489,3.314l0,0c-2.156-0.324-3.639-2.333-3.314-4.489l8.888-59.062
		c0.324-2.155,2.332-3.639,4.488-3.313l0,0c2.157,0.325,3.64,2.333,3.315,4.488L116.391,222.262z"/>
	<path display="inline" fill="#EFC06A" stroke="#000000" stroke-miterlimit="10" d="M254.977,186.262
		c-0.324,2.155-2.334,3.639-4.488,3.314l0,0c-2.156-0.324-3.641-2.333-3.315-4.488l8.888-59.062
		c0.324-2.154,2.334-3.639,4.489-3.314l0,0c2.155,0.324,3.64,2.334,3.313,4.488L254.977,186.262z"/>
	<polygon display="inline" fill="#EFC06A" stroke="#000000" stroke-miterlimit="10" points="123.043,215.298 137.018,248.825 
		160.904,252.314 143.379,219.979 	"/>
	<polygon display="inline" fill="#EFC06A" stroke="#000000" stroke-miterlimit="10" points="153.227,218.814 170.477,253.859 
		194.236,253.27 174.04,221.947 	"/>
	<polygon display="inline" fill="#EFC06A" stroke="#000000" stroke-miterlimit="10" points="185.604,220.646 208.21,250.408 
		231.76,243.068 202.077,215.629 	"/>
	<polygon display="inline" fill="#EFC06A" stroke="#000000" stroke-miterlimit="10" points="211.912,210.395 235.271,240.213 
		253.625,228.46 224.495,201.262 	"/>
	<polygon display="inline" fill="#EFC06A" stroke="#000000" stroke-miterlimit="10" points="233.15,197.166 256.301,226.54 
		262.975,214.199 245.953,187.646 	"/>
	<path display="inline" fill="#EFC06A" stroke="#000000" stroke-miterlimit="10" d="M270.955,160.701
		c-5.747,6.576-15.004,11.613-20.979,16.48c-11.276,9.176-22.334,16.737-36.209,21.43c-15.455,5.226-29.15,4.877-44.988,2.125
		c-6.426-1.116-12.791-2.528-19.252-3.424c-6.409-0.889-15.202-1.662-19.201-7.533c-1.044-1.532-3.349,0.177-2.308,1.701
		c6.672,9.793,24.867,9.252,35.125,11.172c8.387,1.568,16.791,3.386,25.342,3.51c8.154,0.121,16.252-1.834,24.014-4.143
		c15.938-4.737,28.25-13.631,40.994-24.006c5.604-4.565,13.142-8.848,18.582-14.457
		C271.548,162.672,271.186,161.704,270.955,160.701z"/>
	<path display="inline" fill="#EFC06A" stroke="#000000" stroke-miterlimit="10" d="M268.169,210.912
		c-0.323,2.154-2.334,3.64-4.492,3.314l0,0c-2.155-0.324-3.639-2.334-3.313-4.488l8.887-59.062c0.325-2.154,2.334-3.639,4.49-3.312
		l0,0c2.158,0.324,3.642,2.332,3.316,4.488L268.169,210.912z"/>
	<path display="inline" fill="#EFC06A" stroke="#000000" stroke-miterlimit="10" d="M122.261,247
		c-0.324,2.154-2.333,3.639-4.487,3.314l0,0c-2.157-0.324-3.641-2.334-3.316-4.488l8.888-59.062c0.325-2.156,2.333-3.64,4.49-3.314
		l0,0c2.155,0.324,3.639,2.332,3.313,4.488L122.261,247z"/>
</g>
<g id="Layer_4">
	<path fill="#EFC06A" stroke="#000000" stroke-miterlimit="10" d="M81.641,204.291c2.437-6.096,4.725-10.895,3.853-17.512
		c-0.869-5.051-4.898-11.574-7.859-15.233c-2.786-3.481-3.9-15.219-3.9-15.219l-4.617,0.446c-0.405-2.957-0.374-6.058-0.016-8.914
		c0.348-3.31,2.089-7.664,1.219-10.973c-0.522-1.742-9.405-13.062-15.851-13.237c-4.877-0.174-12.003-5.373-23.86,9.405
		c-7.287,9.082-10.451,22.469-12.89,33.615c-0.869,3.656,0,7.489,0.349,11.32c0.348,5.923-0.175,12.541,1.916,18.287
		c1.568,4.007,5.398,6.619,8.36,9.58c3.832,4.181,8.012,6.619,12.541,9.58c3.656,2.612,7.488,5.922,12.366,5.051
		C53.251,220.488,76.938,215.264,81.641,204.291z"/>
	<ellipse cx="44.305" cy="142.955" rx="1.992" ry="3.984"/>
	<ellipse cx="63.157" cy="145.715" rx="1.992" ry="3.984"/>
	<line fill="none" stroke="#000000" stroke-miterlimit="10" x1="73.733" y1="156.327" x2="35.606" y2="160.236"/>
	<path fill="#EFC06A" stroke="#000000" stroke-miterlimit="10" d="M57.998,232.098c0,1.606,4.391,2.912,9.808,2.912
		c5.419,0,9.81-1.306,9.81-2.912c0-1.609-2.194-4.729-7.612-4.729S57.998,230.488,57.998,232.098z"/>
	<path fill="#EFC06A" stroke="#000000" stroke-miterlimit="10" d="M43.75,236.053c0,1.609,4.392,2.913,9.81,2.913
		c5.417,0,9.81-1.304,9.81-2.913c0-1.607-2.195-4.729-7.613-4.729S43.75,234.445,43.75,236.053z"/>
	<line fill="none" stroke="#000000" stroke-miterlimit="10" x1="61.165" y1="229.428" x2="61.165" y2="218.199"/>
	<line fill="none" stroke="#000000" stroke-miterlimit="10" x1="47.983" y1="232.211" x2="47.983" y2="219.896"/>
	<line fill="none" stroke="#000000" stroke-miterlimit="10" x1="84.386" y1="184.799" x2="71.664" y2="184.799"/>
	<line fill="none" stroke="#000000" stroke-miterlimit="10" x1="38.48" y1="203.268" x2="25.759" y2="203.268"/>
	<line fill="none" stroke="#000000" stroke-miterlimit="10" x1="31.967" y1="175.984" x2="19.244" y2="175.984"/>
	<line fill="none" stroke="#000000" stroke-miterlimit="10" x1="53.5" y1="193.15" x2="45.437" y2="193.15"/>
	<line fill="none" stroke="#000000" stroke-miterlimit="10" x1="39.639" y1="132.975" x2="31.574" y2="132.975"/>
	<line fill="none" stroke="#000000" stroke-miterlimit="10" x1="76.16" y1="210.461" x2="68.679" y2="210.461"/>
	<line fill="none" stroke="#000000" stroke-miterlimit="10" x1="28.212" y1="183.878" x2="28.212" y2="216.064"/>
	<path fill="none" stroke="#000000" stroke-miterlimit="10" d="M21.307,219.212c0,0,4.452,5.259,6.905-3.146"/>
	<path fill="none" stroke="#000000" stroke-miterlimit="10" d="M22.072,223.982c0,0,7.314,5.418,6.14-7.918"/>
	<path fill="none" stroke="#000000" stroke-miterlimit="10" d="M28.519,223.32c0,0,4.546-0.129-0.18-7.152"/>
	<path fill="none" stroke="#000000" stroke-miterlimit="10" d="M32.963,217.368c0,0-2.476-1.571-4.624-2.528"/>
</g>
<g id="proffesorn" display="none">
	<path display="inline" fill="#EFC06A" stroke="#000000" stroke-miterlimit="10" d="M169.205,152.118
		c-1.916-28.156-14.951-51.1-33.396-51.1c-18.444,0-31.364,22.951-33.396,51.1c-2.625,36.378,3.72,23.014,37.375,25.378
		C179.719,180.301,170.457,170.496,169.205,152.118z"/>
	<path display="inline" fill="#EFC06A" stroke="#000000" stroke-miterlimit="10" d="M137.789,178.025c0,3.357-5.149,6.08-11.5,6.08
		s-14.333-2.723-14.333-6.08s7.982-6.08,14.333-6.08S137.789,174.668,137.789,178.025z"/>
	<path display="inline" fill="#EFC06A" stroke="#000000" stroke-miterlimit="10" d="M167.613,176.525c0,3.357-5.148,6.08-11.5,6.08
		c-6.35,0-15.594-1.701-15.594-5.061c0-3.357,9.245-7.102,15.594-7.102C162.464,170.443,167.613,173.168,167.613,176.525z"/>
	<g display="inline">
		<path d="M110.539,173.413c0,0,0.333-0.319,0.964-0.82c0.637-0.491,1.55-1.202,2.734-1.925c0.589-0.365,1.242-0.738,1.943-1.115
			c0.707-0.367,1.455-0.756,2.266-1.076c0.804-0.338,1.652-0.651,2.535-0.912c0.886-0.246,1.793-0.483,2.724-0.621
			c0.927-0.149,1.87-0.211,2.798-0.219c0.929,0.012,1.846,0.09,2.714,0.271c0.874,0.148,1.693,0.428,2.439,0.74
			c0.746,0.312,1.428,0.664,2.013,1.055c0.611,0.35,1.083,0.797,1.526,1.146c0.402,0.4,0.766,0.731,1.037,1.031
			c0.514,0.621,0.808,0.977,0.808,0.977s-0.343-0.303-0.943-0.836c-0.302-0.26-0.699-0.541-1.133-0.881
			c-0.476-0.283-0.976-0.651-1.581-0.951c-0.585-0.33-1.259-0.616-1.984-0.857c-0.366-0.115-0.736-0.245-1.132-0.318
			c-0.391-0.091-0.787-0.188-1.202-0.235c-0.819-0.148-1.684-0.162-2.558-0.175c-0.875,0.02-1.766,0.089-2.647,0.24
			c-0.886,0.118-1.759,0.336-2.614,0.562c-0.849,0.247-1.687,0.497-2.478,0.801c-1.586,0.592-3.047,1.229-4.255,1.864
			c-1.209,0.632-2.22,1.171-2.899,1.596C110.926,173.163,110.539,173.413,110.539,173.413z"/>
	</g>
	<g display="inline">
		<path d="M142.039,171.945c0,0,0.321-0.244,0.923-0.614c0.602-0.367,1.471-0.888,2.565-1.413c0.553-0.248,1.146-0.531,1.793-0.793
			c0.647-0.255,1.324-0.55,2.058-0.761c0.722-0.243,1.479-0.462,2.265-0.636c0.773-0.213,1.59-0.303,2.394-0.453
			c0.812-0.098,1.633-0.144,2.437-0.189c0.809,0.028,1.604,0.008,2.368,0.115c0.761,0.13,1.511,0.17,2.183,0.404
			c0.672,0.222,1.328,0.348,1.885,0.612c0.562,0.25,1.066,0.5,1.508,0.722c0.432,0.242,0.77,0.521,1.064,0.716
			c0.578,0.411,0.895,0.653,0.895,0.653s-0.361-0.178-0.996-0.486c-0.314-0.149-0.676-0.373-1.125-0.549
			c-0.463-0.149-0.98-0.319-1.531-0.524c-0.553-0.209-1.201-0.272-1.854-0.431c-0.326-0.084-0.67-0.121-1.025-0.139
			c-0.352-0.033-0.712-0.068-1.076-0.103c-0.729-0.078-1.496,0.002-2.264-0.026c-0.771,0.057-1.556,0.112-2.334,0.217
			c-0.775,0.133-1.562,0.205-2.316,0.402c-0.76,0.164-1.51,0.321-2.222,0.535c-1.437,0.381-2.761,0.814-3.884,1.229
			c-0.559,0.215-1.07,0.412-1.526,0.586c-0.453,0.18-0.848,0.338-1.168,0.482C142.407,171.784,142.039,171.945,142.039,171.945z"/>
	</g>
	<g display="inline">
		<path d="M142.039,168.296c0,0,0.321-0.244,0.923-0.614c0.602-0.367,1.471-0.887,2.565-1.412c0.553-0.248,1.146-0.533,1.793-0.793
			c0.647-0.256,1.324-0.551,2.058-0.762c0.722-0.242,1.479-0.462,2.265-0.636c0.773-0.213,1.59-0.302,2.394-0.452
			c0.812-0.098,1.633-0.145,2.437-0.189c0.809,0.027,1.604,0.008,2.368,0.114c0.761,0.13,1.511,0.171,2.183,0.405
			c0.672,0.221,1.328,0.348,1.885,0.611c0.562,0.25,1.066,0.5,1.508,0.722c0.432,0.242,0.77,0.522,1.064,0.716
			c0.578,0.411,0.895,0.653,0.895,0.653s-0.361-0.177-0.996-0.486c-0.314-0.149-0.676-0.373-1.125-0.549
			c-0.463-0.149-0.98-0.319-1.531-0.524c-0.553-0.209-1.201-0.272-1.854-0.43c-0.326-0.084-0.67-0.122-1.025-0.14
			c-0.352-0.033-0.712-0.067-1.076-0.103c-0.729-0.078-1.496,0.002-2.264-0.025c-0.771,0.056-1.556,0.111-2.334,0.216
			c-0.775,0.134-1.562,0.206-2.316,0.403c-0.76,0.164-1.51,0.32-2.222,0.535c-1.437,0.381-2.761,0.814-3.884,1.228
			c-0.559,0.215-1.07,0.412-1.526,0.586c-0.453,0.18-0.848,0.339-1.168,0.483C142.407,168.135,142.039,168.296,142.039,168.296z"/>
	</g>
	<g display="inline">
		<path d="M108.914,168.296c0,0,0.321-0.244,0.923-0.614c0.602-0.367,1.471-0.887,2.565-1.412c0.553-0.248,1.147-0.533,1.793-0.793
			c0.648-0.256,1.324-0.551,2.058-0.762c0.722-0.242,1.48-0.462,2.265-0.636c0.774-0.213,1.59-0.302,2.393-0.452
			c0.812-0.098,1.632-0.145,2.436-0.189c0.808,0.027,1.605,0.008,2.369,0.114c0.76,0.13,1.509,0.171,2.181,0.405
			c0.672,0.221,1.329,0.348,1.886,0.611c0.562,0.25,1.065,0.5,1.507,0.722c0.431,0.242,0.77,0.522,1.064,0.716
			c0.578,0.411,0.895,0.653,0.895,0.653s-0.362-0.177-0.995-0.486c-0.316-0.149-0.676-0.373-1.126-0.549
			c-0.463-0.149-0.98-0.319-1.532-0.524c-0.551-0.209-1.201-0.272-1.853-0.43c-0.326-0.084-0.67-0.122-1.026-0.14
			c-0.352-0.033-0.711-0.067-1.077-0.103c-0.729-0.078-1.495,0.002-2.263-0.025c-0.77,0.056-1.555,0.111-2.333,0.216
			c-0.776,0.134-1.562,0.206-2.316,0.403c-0.76,0.164-1.509,0.32-2.222,0.535c-1.436,0.381-2.761,0.814-3.883,1.228
			c-0.559,0.215-1.072,0.412-1.526,0.586c-0.453,0.18-0.848,0.339-1.168,0.483C109.282,168.135,108.914,168.296,108.914,168.296z"/>
	</g>
	
		<ellipse display="inline" fill="#EFC06A" stroke="#000000" stroke-miterlimit="10" cx="137.493" cy="110.752" rx="30.12" ry="22.839"/>
	<path display="inline" fill="#EFC06A" stroke="#000000" stroke-miterlimit="10" d="M119.373,114.413"/>
	<circle display="inline" fill="#EFC06A" stroke="#000000" stroke-miterlimit="10" cx="126.539" cy="109.274" r="7.333"/>
	<circle display="inline" fill="#EFC06A" stroke="#000000" stroke-miterlimit="10" cx="129.706" cy="109.274" r="7.333"/>
	<circle display="inline" fill="#EFC06A" stroke="#000000" stroke-miterlimit="10" cx="150.872" cy="107.081" r="7.333"/>
	<circle display="inline" fill="#EFC06A" stroke="#000000" stroke-miterlimit="10" cx="154.039" cy="107.081" r="7.333"/>
	
		<line display="inline" fill="none" stroke="#000000" stroke-miterlimit="10" x1="119.206" y1="109.274" x2="107.882" y2="106.562"/>
	<line display="inline" fill="none" stroke="#000000" stroke-miterlimit="10" x1="161.207" y1="105.536" x2="165.463" y2="102.26"/>
	<path display="inline" fill="#EFC06A" stroke="#000000" stroke-miterlimit="10" d="M119.373,97.246c0,0,7.167,0,8.833-4"/>
	<path display="inline" fill="#EFC06A" stroke="#000000" stroke-miterlimit="10" d="M146.705,96.58c1.888,1.114,7.037,1.795,7.501,0
		"/>
	<path display="inline" fill="#EFC06A" stroke="#000000" stroke-miterlimit="10" d="M145.04,142.579c0,0,9.655,2.717,13.165,0
		c1.184-0.916-1.416,11.353-3.166,11.26c-4.477-0.233-6.531,0.595-8.334-0.321C144.24,152.266,145.04,142.579,145.04,142.579z"/>
	<path display="inline" fill="#EFC06A" stroke="#000000" stroke-miterlimit="10" d="M151.289,143.698
		c0.076-0.429,0.084-0.656,0.084-1.169c0-1.748-0.504-3.166-1.125-3.166s-1.125,1.418-1.125,3.166c0,0.438-0.059,0.416-0.001,0.795
		C149.393,143.359,151.008,143.688,151.289,143.698z"/>
	<path display="inline" fill="#EFC06A" stroke="#000000" stroke-miterlimit="10" d="M156.247,143.355
		c0.017-0.215,0.026-0.438,0.026-0.668c0-1.75-0.16-3.238-1.125-3.168c-0.619,0.047-1.406,1.262-1.406,3.01
		c0,0.464,0.057,0.634,0.121,1.029C154.113,143.486,155.787,143.453,156.247,143.355z"/>
	<path display="inline" fill="#EFC06A" stroke="#000000" stroke-miterlimit="10" d="M114.405,142.035
		c0.917-0.875,0.798-1.104,0.734-1.344c-0.297-1.125-0.352-1.328-1.525-1.328c-1.173,0-2.243,0.683-2.969,1.349
		c-0.316,0.29-3.977,3.799-3.977,6.295c0,3.161,2.646,5.724,5.91,5.724c3.264,0,5.91-2.562,5.91-5.724
		C118.488,144.511,118.842,142.285,114.405,142.035z"/>
	<path display="inline" fill="#EFC06A" stroke="#000000" stroke-miterlimit="10" d="M167.834,143.004
		c-0.917-0.875-0.799-1.104-0.734-1.344c0.297-1.125,0.353-1.328,1.525-1.328s2.242,0.684,2.969,1.35
		c0.315,0.289,3.977,3.799,3.977,6.295c0,3.16-2.646,5.723-5.909,5.723c-3.265,0-5.91-2.562-5.91-5.723
		C163.75,145.479,163.396,143.254,167.834,143.004z"/>
	<polygon display="inline" fill="#EFC06A" stroke="#000000" stroke-miterlimit="10" points="132.431,115.523 102.61,130.246 
		114.609,129.579 102.61,143.523 120.61,134.413 117.776,145.579 140.519,121.413 	"/>
	<polygon display="inline" fill="#EFC06A" stroke="#000000" stroke-miterlimit="10" points="152.461,115.523 182.281,130.246 
		170.282,129.579 182.281,143.523 164.281,134.413 167.115,145.579 144.373,121.413 	"/>
	
		<ellipse display="inline" fill="#EFC06A" stroke="#000000" stroke-miterlimit="10" cx="142.325" cy="115.865" rx="13.118" ry="6.619"/>
	<path display="inline" fill="#EFC06A" stroke="#000000" stroke-miterlimit="10" d="M139.363,72.44l-2.435,16.572l0,0
		c-0.083,0.754,3.129,1.733,7.176,2.186c4.048,0.452,7.396,0.207,7.482-0.547l0,0l1.712-15.311L139.363,72.44z"/>
	<path display="inline" fill="#EFC06A" stroke="#000000" stroke-miterlimit="10" d="M153.299,75.34
		c-0.303,0.697-3.109,0.92-7.094,0.073c-3.983-0.848-6.996-2.337-6.854-3.083c0.226-1.186,3.54-0.66,7.523,0.188
		C150.859,73.366,153.811,74.163,153.299,75.34z"/>
	<path display="inline" fill="#EFC06A" stroke="#000000" stroke-miterlimit="10" d="M137.082,88.742
		c0.035-0.31-0.494-0.657-1.402-0.991v-1.245l-1.603,0.769c-0.062-0.016-0.118-0.031-0.182-0.046l-0.372-1.378
		c0,0-1.295,1.038-1.627,0.982l-0.248-1.545l-1.418,1.31c-0.109-0.013-0.214-0.029-0.324-0.041
		c-0.134-0.015-0.266-0.027-0.399-0.041l-0.827-1.54l-1.491,1.376c-0.285-0.011-0.564-0.018-0.831-0.021l-2.241-1.355l0.166,1.438
		c-0.211,0.022-0.407,0.048-0.586,0.078l-1.548-0.565l0.365,1.006c-0.048,0.054-1.733,0.658-1.678,0.684
		c0.325,0.15,1.688,0.304,2.084,0.522l-0.178,0.761l2.411-0.397c0.041,0.011,0.083,0.021,0.125,0.032l0.271,0.967l2.022-0.494
		c0.115,0.02,0.232,0.038,0.349,0.056l0.601,0.72l1.743-0.426c0.209,0.02,0.416,0.037,0.62,0.053l0.483,0.579l1.943-0.475
		c0.173,0,0.343,0,0.507-0.003l0.3,1.338l1.281-1.484l1.922,0.188C137.578,89.445,137.065,88.893,137.082,88.742z"/>
	<path display="inline" fill="#EFC06A" stroke="#000000" stroke-miterlimit="10" d="M137.61,84.368c0,0,7.265,5.065,14.453,2.023"/>
	<path display="inline" fill="#EFC06A" stroke="#000000" stroke-miterlimit="10" d="M138.538,76.612c0,0,7.265,5.065,14.453,2.023"
		/>
	<g display="inline">
		<path fill="#EFC06A" d="M144.008,73.934c0,0-5.875-2.156,1.312-0.642"/>
		<path d="M144.008,73.934c0,0-0.391-0.057-0.954-0.223c-0.278-0.092-0.608-0.186-0.951-0.341c-0.085-0.04-0.173-0.083-0.263-0.132
			c-0.047-0.03-0.089-0.049-0.142-0.091c-0.047-0.047-0.104-0.053-0.176-0.226c-0.046-0.09,0.011-0.256,0.112-0.326
			c0.046-0.027,0.112-0.055,0.152-0.063c0.064-0.011,0.138-0.023,0.188-0.022c0.114-0.006,0.214,0.001,0.318,0.005
			c1.588,0.158,3.028,0.778,3.028,0.778s-0.396-0.002-0.974-0.055c-0.577-0.048-1.352-0.154-2.092-0.225
			c-0.089-0.006-0.183-0.015-0.261-0.013c-0.047-0.002-0.068,0.005-0.099,0.006c-0.007,0.002,0.017-0.003,0.018-0.014
			c0.07-0.035,0.093-0.16,0.075-0.202c-0.059-0.103,0.044,0.03,0.098,0.053c0.07,0.047,0.144,0.093,0.22,0.136
			c0.305,0.172,0.599,0.342,0.857,0.473C143.671,73.727,144.008,73.934,144.008,73.934z"/>
	</g>
	<g display="inline">
		<path fill="#EFC06A" d="M146.195,74.434c0,0,9.348,1.517,1.938-0.634"/>
		<path d="M146.195,74.434c0,0,0.502,0.001,1.244,0.047c0.742,0.044,1.731,0.134,2.701,0.205c0.234,0.016,0.498,0.033,0.676,0.009
			c0.035-0.002,0.014-0.005,0.013,0.003c0.022-0.006-0.05,0.017-0.077,0.102c-0.011,0.089,0,0.101,0.002,0.128
			c0.043,0.069,0.032,0.039,0.014,0.032c-0.014-0.01-0.02-0.021-0.047-0.034c-0.086-0.053-0.188-0.101-0.287-0.148
			c-0.41-0.183-0.812-0.353-1.156-0.488c-0.688-0.279-1.145-0.492-1.145-0.492s0.498,0.058,1.229,0.223
			c0.361,0.096,0.789,0.182,1.24,0.349c0.112,0.043,0.229,0.087,0.353,0.151c0.026,0.011,0.067,0.04,0.104,0.064
			c0.03,0.027,0.071,0.03,0.139,0.157c0.021,0.053,0.051,0.09,0.013,0.206c-0.042,0.112-0.126,0.165-0.137,0.164
			c-0.058,0.029-0.134,0.055-0.161,0.056c-0.307,0.046-0.541,0.024-0.801,0.016c-1.008-0.069-1.98-0.265-2.709-0.427
			C146.672,74.592,146.195,74.434,146.195,74.434z"/>
	</g>
</g>
<g id="highscore" display="none">
	<g display="inline">
		<text transform="matrix(1 0 0 1 51.5557 96.1582)" font-family="'Neucha'" font-size="24.4995">1. M3G4-tatis</text>
		<text transform="matrix(1 0 0 1 51.5557 125.5576)" font-family="'Neucha'" font-size="24.4995">2. Else-Britt</text>
		<text transform="matrix(1 0 0 1 51.5557 154.957)" font-family="'Neucha'" font-size="24.4995">3. Professorn</text>
		<text transform="matrix(1 0 0 1 51.5557 184.3564)" font-family="'Neucha'" font-size="24.4995">4. Snubben innan</text>
		<text transform="matrix(1 0 0 1 51.5557 213.7559)" font-family="'Neucha'" font-size="24.4995">5. Du</text>
		<text transform="matrix(1 0 0 1 205.0859 96.1582)" font-family="'Neucha'" font-size="24.4995">9998</text>
		<text transform="matrix(1 0 0 1 205.0859 125.5576)" font-family="'Neucha'" font-size="24.4995">7233</text>
		<text transform="matrix(1 0 0 1 205.0859 154.957)" font-family="'Neucha'" font-size="24.4995">0254</text>
		<text transform="matrix(1 0 0 1 205.0859 184.3564)" font-family="'Neucha'" font-size="24.4995">0100</text>
		<text transform="matrix(1 0 0 1 205.0859 213.7559)" font-family="'Neucha'" font-size="24.4995">0000</text>
	</g>
	
		<text transform="matrix(1 0 0 1 76.6777 48.792)" display="inline" fill="none" stroke="#000000" stroke-width="5" font-family="'Neucha'" font-size="39.1991">High Score</text>
	<text transform="matrix(1 0 0 1 76.6777 48.792)" display="inline" fill="#EEBF68" font-family="'Neucha'" font-size="39.1991">High Score</text>
</g>
<g>
	<line fill="#EFC06A" x1="204.275" y1="157.613" x2="250.275" y2="241"/>
	<polygon points="204.713,157.372 250.275,241 203.838,157.854 	"/>
</g>
<g>
	<line fill="#EFC06A" x1="254.57" y1="165.797" x2="279.898" y2="203.75"/>
	<polygon points="254.986,165.52 279.898,203.75 254.154,166.074 	"/>
</g>
<g>
	<line fill="#EFC06A" x1="242.742" y1="157.566" x2="245.75" y2="190.75"/>
	<polygon points="243.24,157.521 245.75,190.75 242.244,157.611 	"/>
</g>
<g>
	<line fill="#EFC06A" x1="259.127" y1="172.625" x2="257.789" y2="204.809"/>
	<polygon points="259.627,172.646 257.789,204.809 258.627,172.604 	"/>
</g>
<g>
	<line fill="#EFC06A" x1="273.972" y1="194.403" x2="273.972" y2="227.587"/>
	<polygon points="274.071,194.403 273.972,227.587 273.872,194.403 	"/>
</g>
</svg>
